<svg width="40" height="40" viewBox="0 0 40 40" fill="none" xmlns="http://www.w3.org/2000/svg">
<path d="M7.46443 22.8257C6.85333 20.7035 6.81842 18.4547 7.36334 16.3142C7.90826 14.1737 9.01302 12.22 10.5623 10.6571C12.1115 9.09422 14.0484 7.97947 16.1707 7.42926C18.293 6.87906 20.5228 6.91358 22.6273 7.52921C26.9391 8.73683 28.7863 1.96387 24.4838 0.760931C21.1856 -0.195124 17.6948 -0.251282 14.3679 0.59819C11.0411 1.44766 7.99737 3.17233 5.5476 5.59609C3.14344 8.06609 1.43307 11.1359 0.591484 14.4914C-0.2501 17.8468 -0.19269 21.3676 0.75784 24.6933C1.95528 29.037 8.67115 27.1928 7.46443 22.821V22.8257Z" fill="#79C142"/>
<path d="M32.5265 17.1665C33.136 19.2885 33.1701 21.5366 32.6252 23.6765C32.0802 25.8163 30.9762 27.7696 29.4281 29.3328C27.88 30.8959 25.9445 32.0117 23.8234 32.5639C21.7023 33.1162 19.4731 33.0845 17.3682 32.4724C13.0426 31.2601 11.2 38.033 15.5117 39.2407C18.8105 40.1951 22.3012 40.2501 25.6279 39.3998C28.9546 38.5495 31.9981 36.8246 34.4479 34.4008C36.8529 31.9303 38.564 28.8599 39.4064 25.5037C40.2488 22.1475 40.1922 18.6258 39.2423 15.2989C38.0403 10.9505 31.3244 12.7994 32.5265 17.1712V17.1665Z" fill="#159C49"/>
<path d="M35.7001 7.76443C35.7001 8.69547 35.3334 9.58839 34.6806 10.2467C34.0278 10.9051 33.1424 11.2749 32.2192 11.2749C31.296 11.2749 30.4106 10.9051 29.7578 10.2467C29.105 9.58839 28.7383 8.69547 28.7383 7.76443C28.7383 6.83338 29.105 5.94046 29.7578 5.28211C30.4106 4.62376 31.296 4.25391 32.2192 4.25391C33.1424 4.25391 34.0278 4.62376 34.6806 5.28211C35.3334 5.94046 35.7001 6.83338 35.7001 7.76443Z" fill="#138340"/>
<path d="M11.8779 31.5965C11.8779 32.0575 11.7878 32.514 11.6129 32.9399C11.438 33.3658 11.1816 33.7528 10.8583 34.0788C10.5351 34.4048 10.1514 34.6633 9.72904 34.8398C9.30671 35.0162 8.85406 35.107 8.39694 35.107C7.93982 35.107 7.48717 35.0162 7.06485 34.8398C6.64252 34.6633 6.25879 34.4048 5.93556 34.0788C5.61232 33.7528 5.35592 33.3658 5.18099 32.9399C5.00605 32.514 4.91602 32.0575 4.91602 31.5965C4.91602 31.1355 5.00605 30.679 5.18099 30.253C5.35592 29.8271 5.61232 29.4401 5.93556 29.1141C6.25879 28.7882 6.64252 28.5296 7.06485 28.3532C7.48717 28.1767 7.93982 28.0859 8.39694 28.0859C8.85406 28.0859 9.30671 28.1767 9.72904 28.3532C10.1514 28.5296 10.5351 28.7882 10.8583 29.1141C11.1816 29.4401 11.438 29.8271 11.6129 30.253C11.7878 30.679 11.8779 31.1355 11.8779 31.5965Z" fill="#138340"/>
</svg>
