<svg width="107" height="100" viewBox="0 0 107 100" fill="none" xmlns="http://www.w3.org/2000/svg">
<path opacity="0.18" d="M100.419 92.1581C98.8618 93.0275 97.1121 93.82 95.2871 94.6749C88.3222 97.9578 80.202 98.3132 72.5361 98.5822L35.8266 99.8791C29.6431 100.095 23.2284 100.275 17.5355 98.0395C14.2525 96.7134 11.3461 94.702 9.04412 92.1629C5.36045 88.1908 2.90986 83.0683 1.67419 77.9218C-0.345472 69.502 0.29573 60.7652 0.142568 52.1437C0.0543058 47.1221 -0.306533 42.0572 0.625417 37.1076C1.55737 32.1581 3.96382 27.2253 8.3484 24.2618C14.2438 20.2801 21.9642 20.6715 28.8565 19.8334C36.1252 18.9496 42.3555 15.6667 48.8324 12.7008C55.6182 9.59801 63.3464 7.93615 70.9266 8.60138C78.5899 9.27861 84.1453 12.5063 88.439 18.4309C91.4007 22.5193 93.2015 27.232 93.675 32.1341C94.228 37.8977 92.9248 43.7527 93.849 49.4804C95.6661 60.7028 105.697 69.819 106.811 81.1206C107.395 87.0212 104.565 89.8502 100.419 92.1581Z" fill="#F5A623"/>
<g clip-path="url(#clip0_13951_12714)">
<path d="M52.4062 15.6292C52.3478 16.984 52.5491 18.3268 52.6141 19.6906C52.6642 20.195 52.6102 20.7036 52.4549 21.1893C52.0912 22.1245 51.1039 22.709 50.1815 23.2246C49.597 23.5513 48.9312 24.0189 49.0124 24.6483C49.0686 24.8856 49.2065 25.0997 49.4056 25.2586C49.6046 25.4174 49.8541 25.5125 50.1166 25.5296C50.643 25.5512 51.1674 25.4567 51.6463 25.2538C52.6262 24.9596 53.5242 24.4705 54.2769 23.8211C55.7481 22.4093 55.7968 20.2242 55.6864 18.2669C55.5922 16.6243 55.4396 14.8199 54.5367 13.3571C53.0817 11.0192 52.4582 14.4572 52.4062 15.6292Z" fill="#F5A623"/>
<path d="M52.4062 15.6292C52.3478 16.984 52.5491 18.3268 52.6141 19.6906C52.6642 20.195 52.6102 20.7036 52.4549 21.1893C52.0912 22.1245 51.1039 22.709 50.1815 23.2246C49.597 23.5513 48.9312 24.0189 49.0124 24.6483C49.0686 24.8856 49.2065 25.0997 49.4056 25.2586C49.6046 25.4174 49.8541 25.5125 50.1166 25.5296C50.643 25.5512 51.1674 25.4567 51.6463 25.2538C52.6262 24.9596 53.5242 24.4705 54.2769 23.8211C55.7481 22.4093 55.7968 20.2242 55.6864 18.2669C55.5922 16.6243 55.4396 14.8199 54.5367 13.3571C53.0817 11.0192 52.4582 14.4572 52.4062 15.6292Z" fill="url(#paint0_linear_13951_12714)"/>
<path d="M48.0666 23.7527C47.3944 23.5369 46.6799 23.2431 46.0076 23.453C45.9434 23.4662 45.8836 23.4936 45.8333 23.5327C45.783 23.5718 45.7436 23.6216 45.7186 23.6778C45.7044 23.7602 45.7169 23.8446 45.7543 23.9206L46.5337 26.0517C46.569 26.1578 46.6204 26.2587 46.6864 26.3514C46.8412 26.5143 47.0503 26.625 47.2807 26.6662C48.1269 26.882 49.0257 26.8431 49.8464 26.5553C50.6973 26.2555 50.772 25.2904 50.3206 24.613C49.8691 23.9355 48.8461 24.0015 48.0666 23.7527Z" fill="url(#paint1_linear_13951_12714)"/>
<path d="M46.482 19.9004C46.7028 19.9513 46.6184 20.0712 46.6411 20.2781C46.7938 21.5909 46.6638 23.0686 46.9659 24.3545C47.2679 25.6404 48.1968 26.7794 48.3689 28.0923C47.6836 26.7974 47.0698 25.5685 46.7223 24.1477C46.6606 23.797 46.1475 19.9004 46.482 19.9004Z" fill="#664E26"/>
<path d="M52.351 32.2051C52.351 32.2051 45.9011 39.3149 50.201 45.4086C54.501 51.5023 62.1298 56.0344 65.0333 60.6444C67.9367 65.2544 62.6689 70.2541 60.8405 71.1893C59.012 72.1245 42.3546 83.4576 52.6725 95.0965H87.4976C87.4976 95.0965 98.7833 84.5517 79.9727 71.8157C79.9727 71.8157 66.5369 65.4882 79.112 56.502C91.6871 47.5158 93.9443 38.9612 87.9815 32.283L52.351 32.2051Z" fill="#F5A623"/>
<path d="M52.351 32.2051C52.351 32.2051 45.9011 39.3149 50.201 45.4086C54.501 51.5023 62.1298 56.0344 65.0333 60.6444C67.9367 65.2544 62.6689 70.2541 60.8405 71.1893C59.012 72.1245 42.3546 83.4576 52.6725 95.0965H87.4976C87.4976 95.0965 98.7833 84.5517 79.9727 71.8157C79.9727 71.8157 66.5369 65.4882 79.112 56.502C91.6871 47.5158 93.9443 38.9612 87.9815 32.283L52.351 32.2051Z" fill="url(#paint2_linear_13951_12714)"/>
<path d="M89.9566 29.2949H49.6462C48.735 29.2949 47.9963 29.9766 47.9963 30.8176V30.8206C47.9963 31.6616 48.735 32.3433 49.6462 32.3433H89.9566C90.8678 32.3433 91.6064 31.6616 91.6064 30.8206V30.8176C91.6064 29.9766 90.8678 29.2949 89.9566 29.2949Z" fill="#F5A623"/>
<path d="M89.9566 95.2168H49.6462C48.735 95.2168 47.9963 95.8985 47.9963 96.7395V96.7425C47.9963 97.5834 48.735 98.2651 49.6462 98.2651H89.9566C90.8678 98.2651 91.6064 97.5834 91.6064 96.7425V96.7395C91.6064 95.8985 90.8678 95.2168 89.9566 95.2168Z" fill="#F5A623"/>
<path d="M89.9566 29.2949H49.6462C48.735 29.2949 47.9963 29.9766 47.9963 30.8176V30.8206C47.9963 31.6616 48.735 32.3433 49.6462 32.3433H89.9566C90.8678 32.3433 91.6064 31.6616 91.6064 30.8206V30.8176C91.6064 29.9766 90.8678 29.2949 89.9566 29.2949Z" fill="url(#paint3_linear_13951_12714)"/>
<path d="M89.9566 95.2168H49.6462C48.735 95.2168 47.9963 95.8985 47.9963 96.7395V96.7425C47.9963 97.5834 48.735 98.2651 49.6462 98.2651H89.9566C90.8678 98.2651 91.6064 97.5834 91.6064 96.7425V96.7395C91.6064 95.8985 90.8678 95.2168 89.9566 95.2168Z" fill="url(#paint4_linear_13951_12714)"/>
<path d="M84.5586 78.9076C78.6575 76.0001 59.1324 75.5175 55.4268 78.0083C58.8856 73.782 63.6369 71.2942 63.6369 71.2942C68.3136 68.5965 73.6334 70.9405 73.6334 70.9405C73.6334 70.9405 80.3983 74.1357 84.5586 78.9076Z" fill="url(#paint5_linear_13951_12714)"/>
<path d="M84.4354 94.8635H55.2515L54.1246 93.9283C50.7925 88.6649 51.6109 84.0159 53.7998 80.3171C54.2797 79.5172 54.8224 78.7508 55.4237 78.0241C59.1293 75.5183 78.6545 76.0009 84.5555 78.9233C85.1595 79.6113 85.7026 80.3431 86.1794 81.1114C86.4947 81.6192 86.7703 82.1471 87.0043 82.6911C89.9142 89.4742 84.4354 94.8635 84.4354 94.8635Z" fill="#F5A623"/>
<path d="M86.189 81.0956C84.7957 85.7775 70.9021 78.6347 64.4294 78.0982C60.1555 77.7475 55.6411 80.1484 55.6411 80.1484C55.6411 80.1484 54.1829 80.637 53.7932 80.3103C54.2731 79.5104 54.8158 78.744 55.4171 78.0173C59.1227 75.5114 78.6478 75.994 84.5489 78.9165C85.1581 79.6011 85.7065 80.3298 86.189 81.0956Z" fill="url(#paint6_linear_13951_12714)"/>
<path d="M55.3572 49.2362C55.3572 49.2362 65.3536 56.5019 65.9999 57.9077C66.6462 59.3135 71.8457 60.1348 73.4696 58.8849C75.0934 57.6349 79.218 55.252 83.3036 49.8597C87.3892 44.4674 73.9535 47.9863 69.4392 48.7686C64.9249 49.551 57.1856 44.4704 55.3572 49.2362Z" fill="#F5A623"/>
<path d="M55.3574 49.2367C55.3574 49.2367 59.2286 51.5807 62.6679 50.8763C66.1073 50.1719 68.3644 48.1427 73.0931 48.5323C77.8217 48.922 82.5504 50.7984 84.0573 48.7691C85.5642 46.7399 83.9501 45.0943 79.2182 45.6428C74.4863 46.1913 66.6431 46.2663 62.8823 46.0325C59.1215 45.7987 52.2428 46.3472 55.3574 49.2367Z" fill="#F5A623"/>
<path d="M55.3574 49.2367C55.3574 49.2367 59.2286 51.5807 62.6679 50.8763C66.1073 50.1719 68.3644 48.1427 73.0931 48.5323C77.8217 48.922 82.5504 50.7984 84.0573 48.7691C85.5642 46.7399 83.9501 45.0943 79.2182 45.6428C74.4863 46.1913 66.6431 46.2663 62.8823 46.0325C59.1215 45.7987 52.2428 46.3472 55.3574 49.2367Z" fill="url(#paint7_linear_13951_12714)"/>
<path d="M69.3361 61.322C69.0613 61.4887 68.8376 61.7179 68.6866 61.9875C68.6322 62.0703 68.5973 62.1626 68.5838 62.2586C68.5704 62.3546 68.5789 62.4522 68.6086 62.545C68.6545 62.6468 68.7328 62.7334 68.8331 62.7933C68.9334 62.8532 69.051 62.8837 69.1705 62.8807C69.3743 62.8627 69.5683 62.7909 69.7291 62.6739C70.0538 62.479 70.4111 62.2302 70.3624 61.9275C70.3137 61.6248 69.807 61.409 69.3718 61.2891" fill="#F5A623"/>
<path d="M71.1484 64.0939C71.039 64.1197 70.9362 64.1655 70.8464 64.2288C70.8009 64.2647 70.7749 64.3037 70.8107 64.3427C70.8843 64.3936 70.9755 64.4181 71.0672 64.4116C71.1542 64.4068 71.2403 64.3927 71.3238 64.3696C71.4732 64.3277 71.6486 64.2767 71.6129 64.2168C71.5771 64.1568 71.3595 64.1119 71.1614 64.0879" fill="#F5A623"/>
<path d="M69.4004 64.9728C69.2909 64.9986 69.1882 65.0444 69.0984 65.1077C69.0529 65.1436 69.0302 65.1856 69.0626 65.2216C69.1363 65.2725 69.2275 65.297 69.3192 65.2905C69.4064 65.2872 69.4927 65.2731 69.5758 65.2486C69.7252 65.2096 69.9006 65.1586 69.8681 65.0957C69.8356 65.0327 69.6115 64.9908 69.4134 64.9668" fill="#F5A623"/>
<path d="M72.1785 69.0635C72.0377 69.0081 71.8866 68.9786 71.7336 68.9766C71.6491 68.9766 71.5744 68.9945 71.5549 69.0515C71.5569 69.0986 71.5709 69.1445 71.5957 69.1857C71.6206 69.2268 71.6555 69.262 71.6978 69.2883C71.7826 69.3474 71.8768 69.394 71.9771 69.4262C72.1622 69.4921 72.3701 69.5581 72.4318 69.4891C72.4935 69.4202 72.3409 69.2224 72.1947 69.0635" fill="#F5A623"/>
<path d="M67.0213 74.3936C66.8815 74.3385 66.7316 74.309 66.5796 74.3066C66.4919 74.3066 66.4172 74.3276 66.401 74.3816C66.3848 74.4355 66.4335 74.5374 66.5407 74.6184C66.626 74.6784 66.7214 74.725 66.8232 74.7563C67.0051 74.8222 67.2162 74.8881 67.2746 74.8192C67.3331 74.7503 67.1837 74.5524 67.0408 74.3936" fill="#F5A623"/>
<path d="M53.1201 13.7593C53.0708 12.9623 53.2984 12.1716 53.7697 11.5023C54.2407 10.8386 54.8707 10.2837 55.6111 9.88066C56.0154 9.61151 56.5064 9.47631 57.0044 9.49699C57.4168 9.54495 58.8458 8.11219 59.1803 8.34C60.1222 8.98444 59.9338 11.3674 60.7327 12.1617C60.9423 13.2273 61.0726 14.3049 61.1225 15.3869L61.5999 23.5578C61.6778 24.9096 61.7168 26.3813 60.8399 27.4544C58.6317 26.714 56.4829 25.8305 54.4095 24.8107C54.1704 24.7319 53.9686 24.5786 53.8388 24.3773C53.709 24.176 53.6593 23.9392 53.6982 23.7077C53.6105 21.6754 53.6105 19.6372 53.6982 17.605C53.7372 16.5139 53.2176 14.8503 53.1201 13.7593Z" fill="#F5A623"/>
<path d="M53.1201 13.7593C53.0708 12.9623 53.2984 12.1716 53.7697 11.5023C54.2407 10.8386 54.8707 10.2837 55.6111 9.88066C56.0154 9.61151 56.5064 9.47631 57.0044 9.49699C57.4168 9.54495 58.8458 8.11219 59.1803 8.34C60.1222 8.98444 59.9338 11.3674 60.7327 12.1617C60.9423 13.2273 61.0726 14.3049 61.1225 15.3869L61.5999 23.5578C61.6778 24.9096 61.7168 26.3813 60.8399 27.4544C58.6317 26.714 56.4829 25.8305 54.4095 24.8107C54.1704 24.7319 53.9686 24.5786 53.8388 24.3773C53.709 24.176 53.6593 23.9392 53.6982 23.7077C53.6105 21.6754 53.6105 19.6372 53.6982 17.605C53.7372 16.5139 53.2176 14.8503 53.1201 13.7593Z" fill="url(#paint8_linear_13951_12714)"/>
<path d="M51.3475 7.62317V7.85697C51.3388 8.1506 51.426 8.43987 51.5976 8.68725C51.9224 9.05892 52.5134 9.07391 53.0168 9.00497C53.4092 8.91303 53.8163 8.88764 54.2185 8.93004C54.6179 9.01097 55.0596 10.5217 55.4429 10.5816C56.1411 10.6925 57.6221 9.90119 58.1027 9.50254C58.1514 9.46357 57.5928 8.30358 57.6123 8.24063C57.6286 8.17959 57.6286 8.11584 57.6123 8.0548L56.8329 4.7097C56.7606 4.23365 56.573 3.77876 56.284 3.37885C56.0539 3.12022 55.7614 2.91491 55.4299 2.77937C54.3289 2.31477 52.7148 2.47963 51.9094 3.40283C51.4839 3.89141 51.4904 4.73967 51.4222 5.33915C51.3353 6.09768 51.3103 6.86118 51.3475 7.62317Z" fill="url(#paint9_linear_13951_12714)"/>
<path d="M57.0886 31.018C54.9386 32.2979 52.4834 33.0532 50.0573 33.7936C49.4598 33.9764 48.7583 34.1503 48.2289 33.8566C47.9296 33.6625 47.6928 33.3974 47.5436 33.0892C46.5888 31.4167 44.2017 30.9191 45.3742 29.3694C45.8711 28.71 48.6868 26.5489 49.3818 26.0723C50.7588 25.1281 52.2008 24.157 53.8929 23.8962C54.6876 23.7898 55.4949 23.7898 56.2897 23.8962C57.8258 24.067 61.7003 24.6126 61.3756 26.432C61.0508 28.2514 58.6443 30.0828 57.0886 31.018Z" fill="#664E26"/>
<path d="M57.7381 15.1147C57.7381 16.3137 57.8745 17.5126 57.4458 18.6397C56.871 20.1384 55.3705 21.1665 53.8733 21.9758C52.9477 22.4793 51.9442 22.9859 51.4473 23.8611C50.9504 24.7364 51.3012 26.0912 52.3567 26.259C52.7666 26.2978 53.1806 26.2422 53.5616 26.0972C55.605 25.4738 57.5789 24.6708 59.4561 23.6993C60.2258 23.2976 61.0053 22.845 61.4794 22.1586C61.8905 21.4636 62.1133 20.6872 62.129 19.8956C62.2829 18.1968 62.2284 16.4875 61.9666 14.8C61.6641 13.4709 61.1005 12.2041 60.3038 11.0622C57.7381 7.85501 57.7381 13.3462 57.7381 15.1147Z" fill="#F5A623"/>
<path d="M57.7381 15.1147C57.7381 16.3137 57.8745 17.5126 57.4458 18.6397C56.871 20.1384 55.3705 21.1665 53.8733 21.9758C52.9477 22.4793 51.9442 22.9859 51.4473 23.8611C50.9504 24.7364 51.3012 26.0912 52.3567 26.259C52.7666 26.2978 53.1806 26.2422 53.5616 26.0972C55.605 25.4738 57.5789 24.6708 59.4561 23.6993C60.2258 23.2976 61.0053 22.845 61.4794 22.1586C61.8905 21.4636 62.1133 20.6872 62.129 19.8956C62.2829 18.1968 62.2284 16.4875 61.9666 14.8C61.6641 13.4709 61.1005 12.2041 60.3038 11.0622C57.7381 7.85501 57.7381 13.3462 57.7381 15.1147Z" fill="url(#paint10_linear_13951_12714)"/>
<path d="M43.6201 36.297L43.0647 46.1075C44.3638 46.0326 44.9549 44.6418 45.2666 43.4938C46.15 40.2366 47.0345 36.9795 47.92 33.7223C48.1798 32.7571 48.4461 31.753 48.2448 30.7758C48.1019 30.0834 47.4264 28.8815 46.5267 28.8065C45.5687 28.7286 45.0653 29.8646 44.734 30.548C43.8669 32.3435 43.7272 34.3667 43.6201 36.297Z" fill="url(#paint11_linear_13951_12714)"/>
<path d="M45.5533 36.959L45.93 46.7755C47.1999 46.5957 47.6708 45.1629 47.8787 43.9939C48.4503 40.6788 49.0229 37.3627 49.5967 34.0456C49.7656 33.0624 49.9215 32.0433 49.6422 31.0841C49.4343 30.4067 48.6484 29.2647 47.7455 29.2617C46.7712 29.2617 46.3912 30.4307 46.1217 31.1411C45.4266 32.9905 45.4786 35.0407 45.5533 36.959Z" fill="url(#paint12_linear_13951_12714)"/>
<path d="M45.0138 44.1138L43.8056 44.1947C43.6804 44.188 43.555 44.205 43.4371 44.2447C43.3193 44.2844 43.2115 44.346 43.1204 44.4256C43.0216 44.5662 42.9728 44.7317 42.9807 44.8991C42.9482 45.4986 42.9417 46.0981 42.9807 46.6736C42.9742 46.6972 42.9742 46.7219 42.9807 46.7455C42.9991 46.7657 43.0228 46.7813 43.0495 46.7907C43.0762 46.8001 43.105 46.8032 43.1333 46.7995C43.5954 46.7959 44.049 46.6845 44.4519 46.4758C44.6232 46.4018 44.7709 46.2882 44.8806 46.1461C44.9802 45.9748 45.0305 45.7829 45.0268 45.5885C45.0592 45.088 45.0722 44.5844 45.0527 44.0898L45.0138 44.1138Z" fill="#F5A623"/>
<path d="M44.9874 46.1312C44.9849 46.0889 44.9716 46.0478 44.9484 46.0113C44.9179 45.9819 44.8773 45.9632 44.8335 45.9583C44.7897 45.9534 44.7454 45.9626 44.7081 45.9843C44.636 46.0318 44.5725 46.0895 44.5198 46.1552C44.3111 46.3825 44.0181 46.5299 43.6981 46.5688C43.3723 46.5618 43.0464 46.5798 42.7238 46.6228C42.4911 46.7066 42.2799 46.8342 42.1035 46.9974L41.0512 47.8367C40.8044 48.0315 40.5348 48.2863 40.5933 48.583C40.6392 48.713 40.725 48.8278 40.8403 48.9134C40.9557 48.9991 41.0955 49.052 41.2428 49.0656C41.7748 49.1193 42.313 49.0577 42.8147 48.8858C43.2827 48.7701 43.7426 48.628 44.1917 48.4602C44.4274 48.3825 44.6376 48.2504 44.8023 48.0765C45.1628 47.6299 45.0426 46.6557 44.9874 46.1312Z" fill="#664E26"/>
<path d="M47.9145 44.2455L46.6966 44.3324C46.5709 44.3259 46.4451 44.3431 46.3268 44.3827C46.2084 44.4224 46.1 44.4838 46.0081 44.5632C45.9123 44.7049 45.8647 44.8699 45.8717 45.0368C45.836 45.6363 45.8327 46.2357 45.8555 46.8112C45.8559 46.8369 45.8614 46.8623 45.8717 46.8862C45.89 46.9056 45.9132 46.9204 45.9393 46.9293C45.9655 46.9382 45.9936 46.9409 46.0211 46.9371C46.4845 46.9353 46.9396 46.8239 47.3429 46.6134C47.5142 46.5407 47.6619 46.4281 47.7716 46.2867C47.8674 46.1142 47.9164 45.9229 47.9145 45.7292C47.9513 45.2256 47.9611 44.726 47.9437 44.2305L47.9145 44.2455Z" fill="#F5A623"/>
<path d="M47.8877 46.2546C47.8874 46.2115 47.8751 46.1692 47.852 46.1317C47.8208 46.1021 47.7794 46.0835 47.7349 46.0791C47.6904 46.0747 47.6457 46.0849 47.6084 46.1077C47.5366 46.1545 47.474 46.2123 47.4233 46.2786C47.2141 46.5048 46.9212 46.6512 46.6016 46.6892C46.2758 46.6846 45.95 46.7036 45.6273 46.7462C45.3938 46.8289 45.1815 46.9555 45.0038 47.1179L43.9515 47.9571C43.7079 48.155 43.4384 48.4097 43.4936 48.7035C43.5398 48.8332 43.6258 48.9478 43.741 49.0334C43.8563 49.1191 43.996 49.1721 44.1431 49.1861C44.6762 49.2414 45.2159 49.1798 45.7183 49.0062C46.1866 48.8915 46.6465 48.7493 47.0953 48.5806C47.3302 48.5032 47.5394 48.371 47.7026 48.1969C48.0631 47.7503 47.9429 46.7852 47.8877 46.2546Z" fill="#664E26"/>
<path d="M48.9474 24.6821C48.2394 24.715 47.4568 24.6821 46.9176 25.1137C46.864 25.1468 46.8198 25.1913 46.7887 25.2435C46.7577 25.2956 46.7406 25.3539 46.739 25.4134C46.7587 25.4946 46.8039 25.5686 46.8689 25.6262L48.457 27.3318C48.5329 27.4233 48.6238 27.5032 48.7266 27.5685C48.9357 27.6641 49.1731 27.6935 49.4021 27.6525C50.2752 27.5623 51.0938 27.2155 51.7372 26.6633C52.3868 26.0908 52.0847 25.1646 51.3897 24.7C50.6947 24.2354 49.7724 24.6431 48.9474 24.6821Z" fill="url(#paint13_linear_13951_12714)"/>
<path d="M57.1045 0.238249C59.3325 0.415096 61.3266 1.71597 62.6776 3.35854C64.0839 5.06706 65.2076 7.33609 67.4809 7.7857C68.504 7.98953 69.5725 7.75873 70.6117 7.85764C71.5808 7.96835 72.4884 8.3553 73.2079 8.96457C73.9274 9.57385 74.4231 10.3751 74.6259 11.2567C74.8695 12.4227 74.5707 13.6276 74.7006 14.8086C74.9571 17.1376 76.8603 19.3527 76.149 21.5977C75.584 23.3722 73.2261 24.4482 71.3457 23.7708C69.3451 23.0485 68.478 20.9413 67.1237 19.3946C66.5359 18.7202 65.6752 18.0878 64.7529 18.2466C64.295 18.3276 63.8955 18.5943 63.4538 18.7022C62.4145 18.951 61.3331 18.2766 60.8037 17.4134C60.2743 16.5501 60.1541 15.531 59.9885 14.5538C59.7482 13.175 59.339 11.7603 58.3647 10.7022C57.1565 9.4073 55.1917 8.76286 54.2791 7.27615C53.7399 6.39491 53.6457 5.35481 53.1553 4.45859C52.7202 3.67027 51.8855 3.25963 52.2525 2.32744C52.8663 0.786774 55.5619 0.118353 57.1045 0.238249Z" fill="#664E26"/>
<path d="M50.9931 2.29384C50.9405 2.5458 50.954 2.80572 51.0326 3.05186C51.1111 3.29801 51.2524 3.52321 51.4446 3.70862C51.8349 4.07559 52.271 4.39856 52.7437 4.67078C53.2149 4.94582 53.6045 5.32493 53.8771 5.77383C53.9052 5.84959 53.9519 5.91833 54.0135 5.97465C54.0455 6.00037 54.0864 6.01454 54.1288 6.01454C54.1712 6.01454 54.2122 6.00037 54.2441 5.97465C54.2755 5.93464 54.2915 5.88612 54.2896 5.83677C54.3545 4.9975 54.1889 4.16122 54.1889 3.32195C54.1889 2.75245 54.374 2.02708 54.0038 1.52351C53.2925 0.549358 51.2789 1.33168 50.9931 2.29384Z" fill="#664E26"/>
<path d="M44.8447 20.74C44.803 20.9716 44.8575 21.2092 44.9973 21.4054C45.2896 21.7501 45.9327 21.6602 46.238 21.3275C46.5146 20.9642 46.6308 20.5171 46.5627 20.0775C46.5299 20.4771 46.6199 20.8771 46.8225 21.2315C47.0596 21.5613 47.6052 21.7381 47.9333 21.4803C48.0225 21.3988 48.0912 21.3001 48.1344 21.1914C48.1776 21.0826 48.1943 20.9663 48.1833 20.8509C48.175 20.4481 47.9967 20.0641 47.6864 19.7808C47.8557 20.0078 48.1065 20.1724 48.3944 20.2454C48.5378 20.2828 48.6895 20.2828 48.8329 20.2454C48.9759 20.1923 49.0954 20.0963 49.172 19.9729C49.2486 19.8494 49.2779 19.7057 49.2551 19.565C49.2277 19.4253 49.1679 19.2928 49.0799 19.1764C48.9919 19.06 48.8777 18.9625 48.7452 18.8906C48.4783 18.7451 48.1859 18.6436 47.8813 18.5908C48.0989 18.447 48.349 18.348 48.5633 18.2012C48.6755 18.135 48.7708 18.0471 48.8426 17.9436C48.9144 17.8401 48.9609 17.7234 48.979 17.6017C49.0017 17.188 48.5016 16.8853 48.0534 16.9183C47.611 16.9922 47.2058 17.1949 46.8972 17.4968C46.609 17.2439 46.2626 17.0544 45.884 16.9423C45.6939 16.8885 45.4917 16.883 45.2986 16.9263C45.1054 16.9695 44.9285 17.0599 44.7862 17.188C44.7096 17.2801 44.6553 17.3863 44.627 17.4994C44.5988 17.6125 44.5973 17.73 44.6225 17.8437C44.6478 17.9574 44.6993 18.0648 44.7735 18.1585C44.8477 18.2523 44.9428 18.3302 45.0525 18.387C44.7698 18.4135 44.4858 18.4265 44.2017 18.426C44.0588 18.4286 43.9189 18.4633 43.7938 18.527C43.6688 18.5907 43.5624 18.6815 43.4839 18.7917C43.4229 18.9281 43.4158 19.0801 43.4639 19.2209C43.512 19.3617 43.6122 19.4824 43.747 19.562C43.8844 19.6377 44.038 19.6853 44.1972 19.7013C44.3563 19.7173 44.5174 19.7015 44.6693 19.6549C44.8642 19.6009 45.2279 19.3222 45.4033 19.4481C45.2182 19.9187 44.8999 20.2304 44.8447 20.74Z" fill="#F5A623"/>
<path d="M46.5985 19.4962C47.2066 19.4962 47.6995 19.1567 47.6995 18.7378C47.6995 18.319 47.2066 17.9795 46.5985 17.9795C45.9905 17.9795 45.4976 18.319 45.4976 18.7378C45.4976 19.1567 45.9905 19.4962 46.5985 19.4962Z" fill="white"/>
</g>
<path d="M32.3698 24.1968C32.3698 27.163 31.0909 30.0077 28.8145 32.1051C26.5381 34.2026 23.4506 35.3809 20.2312 35.3809C17.0118 35.3809 13.9243 34.2026 11.6479 32.1051C9.37142 30.0077 8.09253 27.163 8.09253 24.1968C8.09253 21.2306 9.37142 18.3859 11.6479 16.2884C13.9243 14.191 17.0118 13.0127 20.2312 13.0127C23.4506 13.0127 26.5381 14.191 28.8145 16.2884C31.0909 18.3859 32.3698 21.2306 32.3698 24.1968ZM20.2312 18.6047C20.0394 18.6048 19.8498 18.642 19.6745 18.7137C19.4992 18.7854 19.3422 18.8902 19.2136 19.0212C19.0849 19.1523 18.9875 19.3067 18.9276 19.4745C18.8676 19.6424 18.8465 19.8199 18.8656 19.9958L19.3967 24.8986C19.4145 25.0912 19.5101 25.2706 19.6647 25.4014C19.8192 25.5321 20.0214 25.6047 20.2312 25.6047C20.441 25.6047 20.6432 25.5321 20.7977 25.4014C20.9522 25.2706 21.0479 25.0912 21.0657 24.8986L21.5968 19.9958C21.6159 19.8199 21.5947 19.6424 21.5348 19.4745C21.4749 19.3067 21.3774 19.1523 21.2488 19.0212C21.1201 18.8902 20.9631 18.7854 20.7879 18.7137C20.6126 18.642 20.423 18.6048 20.2312 18.6047ZM20.2342 26.9928C19.8318 26.9928 19.4459 27.1401 19.1613 27.4023C18.8767 27.6645 18.7169 28.0201 18.7169 28.3908C18.7169 28.7616 18.8767 29.1172 19.1613 29.3794C19.4459 29.6416 19.8318 29.7888 20.2342 29.7888C20.6366 29.7888 21.0226 29.6416 21.3071 29.3794C21.5917 29.1172 21.7516 28.7616 21.7516 28.3908C21.7516 28.0201 21.5917 27.6645 21.3071 27.4023C21.0226 27.1401 20.6366 26.9928 20.2342 26.9928Z" fill="#F5A623"/>
<defs>
<linearGradient id="paint0_linear_13951_12714" x1="58.2066" y1="20.9196" x2="46.5713" y2="16.9055" gradientUnits="userSpaceOnUse">
<stop offset="0.01"/>
<stop offset="0.13" stop-opacity="0.69"/>
<stop offset="1" stop-opacity="0"/>
</linearGradient>
<linearGradient id="paint1_linear_13951_12714" x1="45.457" y1="24.2907" x2="50.3138" y2="26.4147" gradientUnits="userSpaceOnUse">
<stop stop-color="#E5C5D5"/>
<stop offset="0.42" stop-color="#EAD4D1"/>
<stop offset="1" stop-color="#F0E9CB"/>
</linearGradient>
<linearGradient id="paint2_linear_13951_12714" x1="48.7233" y1="63.6508" x2="91.1318" y2="63.6508" gradientUnits="userSpaceOnUse">
<stop offset="0.02" stop-color="white" stop-opacity="0"/>
<stop offset="0.32" stop-color="white" stop-opacity="0.39"/>
<stop offset="0.68" stop-color="white" stop-opacity="0.68"/>
<stop offset="1" stop-color="white"/>
</linearGradient>
<linearGradient id="paint3_linear_13951_12714" x1="69.6293" y1="33.9319" x2="69.906" y2="28.0577" gradientUnits="userSpaceOnUse">
<stop offset="0.01"/>
<stop offset="0.13" stop-opacity="0.69"/>
<stop offset="1" stop-opacity="0"/>
</linearGradient>
<linearGradient id="paint4_linear_13951_12714" x1="69.8014" y1="89.5907" x2="69.8014" y2="103.654" gradientUnits="userSpaceOnUse">
<stop offset="0.01"/>
<stop offset="0.13" stop-opacity="0.69"/>
<stop offset="1" stop-opacity="0"/>
</linearGradient>
<linearGradient id="paint5_linear_13951_12714" x1="71.7562" y1="70.353" x2="69.8391" y2="80.6965" gradientUnits="userSpaceOnUse">
<stop offset="0.02" stop-color="white" stop-opacity="0"/>
<stop offset="0.32" stop-color="white" stop-opacity="0.39"/>
<stop offset="0.68" stop-color="white" stop-opacity="0.68"/>
<stop offset="1" stop-color="white"/>
</linearGradient>
<linearGradient id="paint6_linear_13951_12714" x1="72.0096" y1="71.459" x2="67.7776" y2="94.2895" gradientUnits="userSpaceOnUse">
<stop offset="0.01"/>
<stop offset="0.13" stop-opacity="0.69"/>
<stop offset="1" stop-opacity="0"/>
</linearGradient>
<linearGradient id="paint7_linear_13951_12714" x1="69.7317" y1="51.7815" x2="69.408" y2="41.0431" gradientUnits="userSpaceOnUse">
<stop offset="0.01"/>
<stop offset="0.13" stop-opacity="0.69"/>
<stop offset="1" stop-opacity="0"/>
</linearGradient>
<linearGradient id="paint8_linear_13951_12714" x1="63.5615" y1="17.7608" x2="49.2167" y2="18.3448" gradientUnits="userSpaceOnUse">
<stop offset="0.01"/>
<stop offset="0.13" stop-opacity="0.69"/>
<stop offset="1" stop-opacity="0"/>
</linearGradient>
<linearGradient id="paint9_linear_13951_12714" x1="51.3313" y1="6.56509" x2="58.1157" y2="6.56509" gradientUnits="userSpaceOnUse">
<stop stop-color="#E5C5D5"/>
<stop offset="0.42" stop-color="#EAD4D1"/>
<stop offset="1" stop-color="#F0E9CB"/>
</linearGradient>
<linearGradient id="paint10_linear_13951_12714" x1="68.2769" y1="18.7685" x2="49.1532" y2="17.7204" gradientUnits="userSpaceOnUse">
<stop offset="0.01"/>
<stop offset="0.13" stop-opacity="0.69"/>
<stop offset="1" stop-opacity="0"/>
</linearGradient>
<linearGradient id="paint11_linear_13951_12714" x1="43.4733" y1="37.3525" x2="47.735" y2="37.7573" gradientUnits="userSpaceOnUse">
<stop stop-color="#E5C5D5"/>
<stop offset="0.42" stop-color="#EAD4D1"/>
<stop offset="1" stop-color="#F0E9CB"/>
</linearGradient>
<linearGradient id="paint12_linear_13951_12714" x1="45.5111" y1="38.0201" x2="49.7981" y2="38.0201" gradientUnits="userSpaceOnUse">
<stop stop-color="#E5C5D5"/>
<stop offset="0.42" stop-color="#EAD4D1"/>
<stop offset="1" stop-color="#F0E9CB"/>
</linearGradient>
<linearGradient id="paint13_linear_13951_12714" x1="46.7358" y1="26.0788" x2="52.1042" y2="26.0788" gradientUnits="userSpaceOnUse">
<stop stop-color="#E5C5D5"/>
<stop offset="0.42" stop-color="#EAD4D1"/>
<stop offset="1" stop-color="#F0E9CB"/>
</linearGradient>
<clipPath id="clip0_13951_12714">
<rect width="50.8025" height="99.8284" fill="white" transform="translate(40.5708 0.174805)"/>
</clipPath>
</defs>
</svg>
