<svg xmlns="http://www.w3.org/2000/svg" viewBox="0 0 62 62" xmlns:v="https://vecta.io/nano"><g transform="matrix(.7194 0 0 .7255 -4.4942 -4.9366)"><path d="M22.33 55.57A26.37 26.37 0 0 1 55 22.89C64.29 25.47 68.27 11 59 8.43a41.78 41.78 0 0 0-40.8 10.33 41.74 41.74 0 0 0-10.32 40.8c2.58 9.28 17.05 5.34 14.45-4z" fill="#7ac144"/><path d="M76.33 43.48a26.39 26.39 0 0 1-32.66 32.7c-9.32-2.59-13.29 11.88-4 14.46a41.8 41.8 0 0 0 40.8-10.34A41.76 41.76 0 0 0 90.8 39.49c-2.59-9.29-17.06-5.34-14.47 4z" fill="#0f9b49"/><g fill="#158341" stroke="#148342"><g stroke-miterlimit="10"><path d="M83.17 23.39a7.5 7.5 0 1 1-15 0 7.5 7.5 0 1 1 15 0z"/><path d="m75.67 15.391c-4.4124 0-8 3.5876-8 8s3.5876 8 8 8 8-3.5876 8-8-3.5876-8-8-8zm0 1c3.8719 0 7 3.1281 7 7s-3.1281 7-7 7-7-3.1281-7-7 3.1281-7 7-7z" fill="#148342"/></g><g stroke-miterlimit="10"><path d="M31.84 74.31a7.5 7.5 0 1 1-15 0 7.5 7.5 0 1 1 15 0z"/><path d="M24.34 66.311a8.01 8.01 0 0 0-8 8 8.01 8.01 0 0 0 8 8 8.01 8.01 0 0 0 8-8 8.01 8.01 0 0 0-8-8zm0 1c3.872 0 7 3.128 7 7s-3.128 7-7 7-7-3.128-7-7 3.128-7 7-7z" fill="#148342"/></g></g></g></svg>