<svg width="26" height="26" viewBox="0 0 26 26" fill="none" xmlns="http://www.w3.org/2000/svg">
<path d="M17.9175 7.54385L24.5747 3.35595C24.9335 3.13022 25.3928 3.42542 25.3365 3.84558L24.5206 9.93388C24.4792 10.2434 24.1673 10.4395 23.8704 10.3429L18.029 8.44254C17.6259 8.31139 17.5586 7.76957 17.9175 7.54385Z" fill="#138340"/>
<path d="M1.42557 22.6441L8.08282 18.4562C8.44165 18.2305 8.3744 17.6887 7.97127 17.5575L2.12991 15.6571C1.83297 15.5605 1.52112 15.7567 1.47965 16.0662L0.663758 22.1545C0.607453 22.5746 1.06674 22.8698 1.42557 22.6441Z" fill="#138340"/>
<path fill-rule="evenodd" clip-rule="evenodd" d="M7.67539 4.53557C5.04719 6.1889 3.45213 8.86274 3.08187 11.7218C3.01094 12.2695 2.50943 12.656 1.96172 12.585C1.41401 12.5141 1.0275 12.0126 1.09843 11.4649C1.54204 8.03953 3.45593 4.82709 6.61044 2.84268C11.5904 -0.290095 17.9857 0.687705 21.8289 4.86984C21.8702 4.91481 21.9112 4.96015 21.952 5.00585L20.2305 6.08878C17.0162 2.71832 11.7699 1.95984 7.67539 4.53557ZM5.76979 19.9113C8.98407 23.2817 14.2304 24.0402 18.3249 21.4645C20.9531 19.8111 22.5482 17.1373 22.9184 14.2783C22.9893 13.7306 23.4909 13.3441 24.0386 13.415C24.5863 13.4859 24.9728 13.9874 24.9019 14.5352C24.4582 17.9605 22.5444 21.173 19.3899 23.1574C14.4099 26.2901 8.01455 25.3123 4.1714 21.1302C4.13008 21.0852 4.08905 21.0399 4.04833 20.9942L5.76979 19.9113Z" fill="#138340"/>
</svg>
