<?xml version="1.0" standalone="no"?>
<!DOCTYPE svg PUBLIC "-//W3C//DTD SVG 20010904//EN"
 "http://www.w3.org/TR/2001/REC-SVG-20010904/DTD/svg10.dtd">
<svg version="1.0" xmlns="http://www.w3.org/2000/svg"
 width="700.000000pt" height="700.000000pt" viewBox="0 0 700.000000 700.000000"
 preserveAspectRatio="xMidYMid meet">
<metadata>Ferdia</metadata>
<g transform="translate(0.000000,700.000000) scale(0.100000,-0.100000)"
fill="#000000" stroke="none">
<path d="M3215 6993 c-741 -35 -1412 -288 -1983 -746 -811 -650 -1282 -1731
-1222 -2799 17 -296 87 -683 154 -848 52 -128 149 -233 271 -292 85 -42 142
-53 270 -52 103 0 131 4 196 27 144 49 264 137 335 244 96 144 112 299 56 523
-17 69 -39 166 -48 215 -22 126 -30 426 -14 566 61 557 323 1062 734 1416 394
339 887 523 1401 523 181 0 338 -20 530 -68 238 -59 382 -49 518 38 190 120
309 363 293 600 -18 275 -168 452 -451 531 -127 35 -285 69 -425 89 -133 19
-433 42 -515 38 -22 -1 -67 -3 -100 -5z"/>
<path d="M5515 6326 c-142 -28 -263 -93 -365 -196 -78 -80 -131 -167 -167
-275 -24 -71 -27 -95 -27 -215 0 -122 3 -143 28 -215 41 -119 80 -181 175
-275 140 -140 284 -200 477 -200 200 0 343 59 484 200 129 128 194 270 207
450 22 321 -203 634 -516 715 -88 23 -212 27 -296 11z"/>
<path d="M6219 4749 c-84 -11 -195 -49 -267 -91 -88 -52 -185 -156 -226 -241
-68 -143 -73 -251 -21 -467 55 -228 69 -340 69 -555 0 -131 -6 -226 -18 -305
-135 -886 -761 -1583 -1611 -1794 -183 -45 -306 -60 -510 -60 -213 0 -345 16
-534 65 -138 36 -256 47 -342 30 -272 -54 -469 -319 -469 -630 0 -177 50 -303
164 -416 108 -107 217 -152 526 -215 241 -49 388 -63 665 -64 264 -1 377 9
605 50 857 156 1616 631 2107 1319 519 727 735 1627 603 2512 -35 235 -91 457
-143 563 -103 211 -343 331 -598 299z"/>
<path d="M1380 2160 c-155 -22 -284 -87 -397 -200 -185 -185 -250 -460 -167
-709 72 -219 268 -400 494 -457 38 -10 105 -17 160 -17 189 0 342 64 481 202
73 72 94 101 132 181 102 209 102 411 0 620 -38 79 -60 109 -132 181 -127 127
-265 190 -442 202 -41 3 -99 2 -129 -3z"/>
</g>
</svg>
