<svg width="150" height="127" viewBox="0 0 150 127" fill="none" xmlns="http://www.w3.org/2000/svg">
  <path
    opacity="0.18"
    d="M140.775 115.412C138.591 116.608 136.138 117.699 133.58 118.875C123.816 123.391 112.433 123.88 101.686 124.25L50.2243 126.034C41.5557 126.332 32.5632 126.58 24.5825 123.504C19.9802 121.679 15.9058 118.912 12.6787 115.419C7.51465 109.954 4.07925 102.907 2.34699 95.8263C-0.484307 84.2427 0.414575 72.2229 0.199862 60.3617C0.0761296 53.4531 -0.429719 46.4851 0.876753 39.6757C2.18322 32.8662 5.55676 26.0799 11.7034 22.0028C19.968 16.5249 30.791 17.0634 40.453 15.9103C50.6428 14.6945 59.3769 10.178 68.4566 6.09759C77.9695 1.82888 88.8034 -0.457454 99.4298 0.457741C110.173 1.38946 117.961 5.82997 123.98 13.9808C128.132 19.6055 130.656 26.0891 131.32 32.8332C132.095 40.7627 130.268 48.8177 131.564 56.6976C134.111 72.137 148.173 84.6788 149.734 100.227C150.553 108.345 146.587 112.237 140.775 115.412Z"
    fill="#F5A623"
  />
</svg>
