<svg width="24" height="24" viewBox="0 0 24 24" fill="none" xmlns="http://www.w3.org/2000/svg">
  <g clip-path="url(#clip0_deadline)">
    <path fill-rule="evenodd" clip-rule="evenodd" d="M9.00135 0.75C9.00135 0.551088 9.08037 0.360322 9.22102 0.21967C9.36167 0.0790176 9.55244 0 9.75135 0L14.2514 0C14.4503 0 14.641 0.0790176 14.7817 0.21967C14.9223 0.360322 15.0014 0.551088 15.0014 0.75C15.0014 0.948912 14.9223 1.13968 14.7817 1.28033C14.641 1.42098 14.4503 1.5 14.2514 1.5H13.5014V3.105C16.1287 3.48474 18.5147 4.84541 20.1793 6.91325C21.844 8.98108 22.6638 11.6026 22.4737 14.2504C22.2836 16.8983 21.0978 19.3758 19.1548 21.1847C17.2119 22.9935 14.656 23.9994 12.0014 24C9.34346 24.0048 6.78266 23.0014 4.83549 21.1923C2.88833 19.3832 1.6997 16.9029 1.50939 14.2519C1.31908 11.6008 2.14123 8.97618 3.81002 6.90748C5.47881 4.83877 7.87003 3.47991 10.5014 3.105V1.5H9.75135C9.55244 1.5 9.36167 1.42098 9.22102 1.28033C9.08037 1.13968 9.00135 0.948912 9.00135 0.75ZM12.0014 4.5C10.8195 4.5001 9.64915 4.73299 8.55726 5.18537C7.46537 5.63775 6.47327 6.30077 5.63761 7.13657C3.94992 8.82454 3.0019 11.1138 3.0021 13.5007C3.0023 15.8877 3.9507 18.1768 5.63867 19.8645C7.32664 21.5522 9.6159 22.5002 12.0029 22.5C14.3898 22.4998 16.6789 21.5514 18.3666 19.8634C20.0543 18.1755 21.0023 15.8862 21.0021 13.4993C21.0019 11.1123 20.0535 8.8232 18.3655 7.13551C16.6776 5.44782 14.3883 4.4998 12.0014 4.5ZM12.0014 7.65C12.2003 7.65 12.391 7.72902 12.5317 7.86967C12.6723 8.01032 12.7514 8.20109 12.7514 8.4V13.5C12.7514 13.6989 12.6723 13.8897 12.5317 14.0303C12.391 14.171 12.2003 14.25 12.0014 14.25H6.75135C6.55244 14.25 6.36167 14.171 6.22102 14.0303C6.08037 13.8897 6.00135 13.6989 6.00135 13.5C6.00135 13.3011 6.08037 13.1103 6.22102 12.9697C6.36167 12.829 6.55244 12.75 6.75135 12.75H11.2514V8.4C11.2514 8.20109 11.3304 8.01032 11.471 7.86967C11.6117 7.72902 11.8024 7.65 12.0014 7.65Z" fill="black"/>
  </g>
  <defs>
    <clipPath id="clip0_deadline">
      <rect width="24" height="24" fill="white" />
    </clipPath>
  </defs>
</svg>
