<svg width="24" height="24" viewBox="0 0 24 24" fill="none" xmlns="http://www.w3.org/2000/svg">
  <path fill-rule="evenodd" clip-rule="evenodd" d="M0.75 1.75014H1.41483C1.43997 1.84012 1.46861 1.93894 1.50098 2.04578C1.6653 2.58804 1.92698 3.34 2.31903 4.18944C3.00584 5.67752 4.10692 7.49531 5.81314 9.00015C4.10692 10.505 3.00584 12.3228 2.31903 13.8109C1.92698 14.6603 1.6653 15.4123 1.50098 15.9545C1.46861 16.0613 1.43997 16.1602 1.41483 16.2501H0.75C0.335786 16.2501 0 16.5859 0 17.0001C0 17.4144 0.335786 17.7501 0.75 17.7501H1.98609C1.99592 17.7503 2.00573 17.7503 2.0155 17.7501H11.9845C11.9943 17.7503 12.0041 17.7503 12.0139 17.7501H13.25C13.6642 17.7501 14 17.4144 14 17.0001C14 16.5859 13.6642 16.2501 13.25 16.2501H12.5852C12.56 16.1602 12.5314 16.0613 12.499 15.9545C12.3347 15.4123 12.073 14.6603 11.681 13.8109C10.9942 12.3228 9.89308 10.505 8.18686 9.00014C9.89308 7.4953 10.9942 5.67752 11.681 4.18944C12.073 3.34 12.3347 2.58804 12.499 2.04578C12.5314 1.93894 12.56 1.84012 12.5852 1.75014H13.25C13.6642 1.75014 14 1.41436 14 1.00014C14 0.585931 13.6642 0.250145 13.25 0.250145H12.0139C12.0041 0.249951 11.9943 0.249952 11.9845 0.250145H2.01549C2.00572 0.249952 1.99593 0.249951 1.98611 0.250145H0.75C0.335786 0.250145 0 0.585931 0 1.00014C0 1.41436 0.335786 1.75014 0.75 1.75014ZM11.0204 1.75014H2.97957C3.12941 2.22622 3.35584 2.8564 3.68097 3.56085C4.34038 4.98958 5.39032 6.69053 7 8.04273C8.60967 6.69053 9.65962 4.98958 10.319 3.56085C10.6442 2.8564 10.8706 2.22622 11.0204 1.75014ZM7 9.95756C5.39033 11.3098 4.34038 13.0107 3.68097 14.4394C3.35584 15.1439 3.12941 15.7741 2.97957 16.2501H11.0204C10.8706 15.7741 10.6442 15.1439 10.319 14.4394C9.65962 13.0107 8.60968 11.3098 7 9.95756Z" fill="black"/>
</svg>
