<svg width="24" height="24" viewBox="0 0 24 24" fill="none" xmlns="http://www.w3.org/2000/svg">
  <path d="M23.4782 2.95569H21.0429L21.0431 0.521891C21.0431 0.310812 20.9161 0.120654 20.7212 0.0398454C20.5261 -0.040949 20.3023 0.00326999 20.1526 0.153029L17.9002 2.40506C16.0406 1.23628 13.9029 0.620681 11.6897 0.620681C5.24437 0.620499 0 5.86458 0 12.3103C0 18.7561 5.2439 24 11.6897 24C18.1354 24 23.3793 18.7561 23.3793 12.3103C23.3793 10.0969 22.7633 7.95879 21.5942 6.0989L23.8472 3.84649C23.9964 3.69728 24.041 3.47274 23.9603 3.27785C23.8792 3.08278 23.689 2.95577 23.478 2.95577L23.4782 2.95569ZM22.336 12.3101C22.336 18.1806 17.5597 22.9563 11.6898 22.9563C5.81978 22.9563 1.04358 18.1806 1.04358 12.3101C1.04358 6.43967 5.81931 1.66393 11.6898 1.66393C13.6248 1.66393 15.4958 2.18199 17.14 3.16481L15.6295 4.67532C15.5316 4.77322 15.4767 4.90587 15.4767 5.04417V6.16674C14.3439 5.46892 13.0339 5.08731 11.6901 5.08731H11.6896C7.7067 5.08731 4.46681 8.32761 4.46681 12.3101C4.46681 16.2925 7.70711 19.5328 11.6896 19.5328C15.6717 19.5328 18.9114 16.2925 18.9114 12.3101C18.9114 10.9659 18.5295 9.65463 17.8314 8.52153H18.9545C19.0928 8.52153 19.2256 8.46676 19.3234 8.36886L20.8342 6.85835C21.8172 8.5033 22.3356 10.3747 22.3356 12.31L22.336 12.3101ZM15.4765 7.78477L13.2329 10.0288C12.7923 9.72981 12.2608 9.55457 11.6896 9.55457C10.17 9.55457 8.93412 10.7908 8.93412 12.3101C8.93412 13.8293 10.17 15.0656 11.6896 15.0656C13.2087 15.0656 14.4449 13.8293 14.4449 12.3101C14.4449 11.7385 14.2699 11.2072 13.9707 10.7664L16.2155 8.52167H16.5638C17.4035 9.60199 17.8681 10.936 17.8681 12.3102C17.8681 15.7177 15.0966 18.4895 11.6897 18.4895C8.28226 18.4895 5.51045 15.7176 5.51045 12.3102C5.51008 8.90273 8.28235 6.13045 11.6897 6.13045H11.6903C13.0639 6.13045 14.3969 6.59501 15.4768 7.43423V7.78488L15.4765 7.78477ZM13.4012 12.3101C13.4012 13.2542 12.6335 14.0222 11.6894 14.0222C10.7454 14.0222 9.97731 13.2542 9.97731 12.3101C9.97731 11.3661 10.7454 10.598 11.6894 10.598C11.9715 10.598 12.2374 10.6679 12.4721 10.7892L11.3201 11.9414C11.1163 12.1452 11.1163 12.4755 11.3201 12.6791C11.4222 12.7812 11.5554 12.832 11.6889 12.832C11.8225 12.832 11.9559 12.781 12.0578 12.6791L13.2098 11.5271C13.3313 11.762 13.4012 12.0277 13.4012 12.3101L13.4012 12.3101ZM20.5587 5.658C20.554 5.66273 20.5496 5.66692 20.5451 5.67165L18.7384 7.47783H16.52V5.26022L18.3233 3.45693C18.3304 3.45038 18.3371 3.44328 18.3439 3.43637L19.9994 1.78121V3.47713C19.9994 3.76518 20.2332 3.99882 20.5211 3.99882H22.2183L20.5587 5.658Z" fill="black"/>
</svg>
