<svg width="150" height="139" viewBox="0 0 150 139" fill="none" xmlns="http://www.w3.org/2000/svg">
<path opacity="0.18" d="M140.775 127.412C138.591 128.608 136.138 129.699 133.58 130.875C123.816 135.391 112.433 135.88 101.686 136.25L50.2243 138.034C41.5557 138.332 32.5632 138.58 24.5825 135.504C19.9802 133.679 15.9058 130.912 12.6787 127.419C7.51465 121.954 4.07925 114.907 2.34699 107.826C-0.484307 96.2427 0.414575 84.2229 0.199862 72.3617C0.0761296 65.4531 -0.429719 58.4851 0.876753 51.6757C2.18322 44.8662 5.55676 38.0799 11.7034 34.0028C19.968 28.5249 30.791 29.0634 40.453 27.9103C50.6428 26.6945 59.3769 22.178 68.4566 18.0976C77.9695 13.8289 88.8034 11.5425 99.4298 12.4577C110.173 13.3895 117.961 17.83 123.98 25.9808C128.132 31.6055 130.656 38.0891 131.32 44.8332C132.095 52.7627 130.268 60.8177 131.564 68.6976C134.111 84.137 148.173 96.6788 149.734 112.227C150.553 120.345 146.587 124.237 140.775 127.412Z" fill="#F5A623"/>
<g clip-path="url(#clip0_13999_31732)">
<path d="M73.4664 22.127C73.3845 23.9909 73.6667 25.8383 73.7578 27.7146C73.8281 28.4085 73.7524 29.1081 73.5347 29.7765C73.0248 31.0631 71.6407 31.8672 70.3477 32.5765C69.5282 33.026 68.5949 33.6693 68.7087 34.5352C68.7875 34.8617 68.9809 35.1562 69.2599 35.3748C69.539 35.5933 69.8887 35.7241 70.2567 35.7476C70.9946 35.7774 71.7297 35.6474 72.4011 35.3682C73.7748 34.9635 75.0336 34.2906 76.0889 33.3971C78.1513 31.4548 78.2196 28.4486 78.0648 25.7558C77.9328 23.496 77.7188 21.0136 76.4531 19.0012C74.4134 15.7847 73.5393 20.5146 73.4664 22.127Z" fill="#F5A623"/>
<path d="M73.4664 22.127C73.3845 23.9909 73.6667 25.8383 73.7578 27.7146C73.8281 28.4085 73.7524 29.1081 73.5347 29.7765C73.0248 31.0631 71.6407 31.8672 70.3477 32.5765C69.5282 33.026 68.5949 33.6693 68.7087 34.5352C68.7875 34.8617 68.9809 35.1562 69.2599 35.3748C69.539 35.5933 69.8887 35.7241 70.2567 35.7476C70.9946 35.7774 71.7297 35.6474 72.4011 35.3682C73.7748 34.9635 75.0336 34.2906 76.0889 33.3971C78.1513 31.4548 78.2196 28.4486 78.0648 25.7558C77.9328 23.496 77.7188 21.0136 76.4531 19.0012C74.4134 15.7847 73.5393 20.5146 73.4664 22.127Z" fill="url(#paint0_linear_13999_31732)"/>
<path d="M67.3836 33.3026C66.4412 33.0057 65.4396 32.6015 64.4971 32.8902C64.4071 32.9085 64.3233 32.9461 64.2527 32.9999C64.1822 33.0538 64.127 33.1222 64.0919 33.1995C64.0721 33.3129 64.0895 33.429 64.142 33.5335L65.2347 36.4655C65.2841 36.6114 65.3562 36.7502 65.4487 36.8778C65.6657 37.1018 65.9588 37.2541 66.2819 37.3108C67.4682 37.6077 68.7281 37.5543 69.8786 37.1583C71.0714 36.7459 71.1762 35.418 70.5433 34.4861C69.9105 33.5541 68.4763 33.6448 67.3836 33.3026Z" fill="url(#paint1_linear_13999_31732)"/>
<path d="M65.1614 28.0039C65.471 28.074 65.3526 28.239 65.3845 28.5235C65.5985 30.3297 65.4164 32.3627 65.8398 34.1318C66.2632 35.9008 67.5653 37.4678 67.8066 39.274C66.8459 37.4926 65.9855 35.8019 65.4983 33.8472C65.4118 33.3647 64.6925 28.0039 65.1614 28.0039Z" fill="#664E26"/>
<path d="M73.3888 44.9307C73.3888 44.9307 64.3469 54.7121 70.3748 63.0956C76.4028 71.4792 87.0975 77.7142 91.1677 84.0565C95.238 90.3988 87.8532 97.2772 85.29 98.5638C82.7267 99.8504 59.3752 115.442 73.8396 131.455H122.66C122.66 131.455 138.481 116.947 112.111 99.4256C112.111 99.4256 93.2757 90.7204 110.904 78.3575C128.533 65.9946 131.697 54.2255 123.338 45.0379L73.3888 44.9307Z" fill="#F5A623"/>
<path d="M73.3888 44.9307C73.3888 44.9307 64.3469 54.7121 70.3748 63.0956C76.4028 71.4792 87.0975 77.7142 91.1677 84.0565C95.238 90.3988 87.8532 97.2772 85.29 98.5638C82.7267 99.8504 59.3752 115.442 73.8396 131.455H122.66C122.66 131.455 138.481 116.947 112.111 99.4256C112.111 99.4256 93.2757 90.7204 110.904 78.3575C128.533 65.9946 131.697 54.2255 123.338 45.0379L73.3888 44.9307Z" fill="url(#paint2_linear_13999_31732)"/>
<path d="M126.108 40.9277H69.598C68.3207 40.9277 67.2852 41.8656 67.2852 43.0226V43.0267C67.2852 44.1837 68.3207 45.1216 69.598 45.1216H126.108C127.385 45.1216 128.421 44.1837 128.421 43.0267V43.0226C128.421 41.8656 127.385 40.9277 126.108 40.9277Z" fill="#F5A623"/>
<path d="M126.108 131.62H69.598C68.3207 131.62 67.2852 132.558 67.2852 133.715V133.719C67.2852 134.876 68.3207 135.814 69.598 135.814H126.108C127.385 135.814 128.421 134.876 128.421 133.719V133.715C128.421 132.558 127.385 131.62 126.108 131.62Z" fill="#F5A623"/>
<path d="M126.108 40.9277H69.598C68.3207 40.9277 67.2852 41.8656 67.2852 43.0226V43.0267C67.2852 44.1837 68.3207 45.1216 69.598 45.1216H126.108C127.385 45.1216 128.421 44.1837 128.421 43.0267V43.0226C128.421 41.8656 127.385 40.9277 126.108 40.9277Z" fill="url(#paint3_linear_13999_31732)"/>
<path d="M126.108 131.62H69.598C68.3207 131.62 67.2852 132.558 67.2852 133.715V133.719C67.2852 134.876 68.3207 135.814 69.598 135.814H126.108C127.385 135.814 128.421 134.876 128.421 133.719V133.715C128.421 132.558 127.385 131.62 126.108 131.62Z" fill="url(#paint4_linear_13999_31732)"/>
<path d="M118.54 109.183C110.268 105.183 82.896 104.519 77.7012 107.946C82.55 102.131 89.2108 98.7087 89.2108 98.7087C95.7669 94.9973 103.224 98.2221 103.224 98.2221C103.224 98.2221 112.708 102.618 118.54 109.183Z" fill="url(#paint5_linear_13999_31732)"/>
<path d="M118.368 131.134H77.4559L75.8761 129.848C71.2049 122.607 72.3522 116.211 75.4208 111.122C76.0935 110.022 76.8544 108.967 77.6972 107.967C82.892 104.52 110.264 105.184 118.536 109.204C119.383 110.151 120.144 111.158 120.813 112.215C121.255 112.913 121.641 113.64 121.969 114.388C126.048 123.72 118.368 131.134 118.368 131.134Z" fill="#F5A623"/>
<path d="M120.827 112.194C118.874 118.635 99.3965 108.808 90.3227 108.07C84.3311 107.587 78.0027 110.891 78.0027 110.891C78.0027 110.891 75.9585 111.563 75.4121 111.113C76.0848 110.013 76.8457 108.958 77.6885 107.959C82.8833 104.511 110.255 105.175 118.528 109.196C119.382 110.138 120.15 111.14 120.827 112.194Z" fill="url(#paint6_linear_13999_31732)"/>
<path d="M77.6035 68.3622C77.6035 68.3622 91.6172 78.3581 92.5232 80.2922C93.4292 82.2262 100.718 83.3561 102.995 81.6365C105.271 79.9169 111.053 76.6385 116.781 69.22C122.508 61.8014 103.673 66.6427 97.3447 67.7189C91.0162 68.7952 80.1668 61.8055 77.6035 68.3622Z" fill="#F5A623"/>
<path d="M77.6037 68.3626C77.6037 68.3626 83.0307 71.5874 87.8522 70.6183C92.6736 69.6492 95.8379 66.8574 102.467 67.3935C109.096 67.9296 115.725 70.5111 117.837 67.7193C119.95 64.9275 117.687 62.6636 111.053 63.4183C104.42 64.1729 93.4249 64.276 88.1527 63.9543C82.8805 63.6327 73.2375 64.3873 77.6037 68.3626Z" fill="#F5A623"/>
<path d="M77.6037 68.3626C77.6037 68.3626 83.0307 71.5874 87.8522 70.6183C92.6736 69.6492 95.8379 66.8574 102.467 67.3935C109.096 67.9296 115.725 70.5111 117.837 67.7193C119.95 64.9275 117.687 62.6636 111.053 63.4183C104.42 64.1729 93.4249 64.276 88.1527 63.9543C82.8805 63.6327 73.2375 64.3873 77.6037 68.3626Z" fill="url(#paint7_linear_13999_31732)"/>
<path d="M97.2 84.9897C96.8148 85.219 96.5012 85.5343 96.2894 85.9052C96.2133 86.0191 96.1642 86.1461 96.1454 86.2782C96.1266 86.4103 96.1384 86.5445 96.1802 86.6722C96.2445 86.8122 96.3542 86.9314 96.4948 87.0138C96.6355 87.0963 96.8004 87.1382 96.9678 87.134C97.2536 87.1093 97.5255 87.0105 97.7509 86.8495C98.2062 86.5814 98.707 86.2392 98.6387 85.8227C98.5704 85.4062 97.8602 85.1093 97.2501 84.9443" fill="#F5A623"/>
<path d="M99.7411 88.8032C99.5876 88.8386 99.4436 88.9018 99.3177 88.9887C99.2539 89.0382 99.2175 89.0918 99.2676 89.1454C99.3709 89.2154 99.4987 89.2492 99.6273 89.2403C99.7492 89.2336 99.8699 89.2143 99.9869 89.1826C100.196 89.1248 100.442 89.0547 100.392 88.9722C100.342 88.8898 100.037 88.8279 99.7593 88.7949" fill="#F5A623"/>
<path d="M97.2898 90.0121C97.1364 90.0476 96.9924 90.1107 96.8664 90.1977C96.8027 90.2472 96.7708 90.3049 96.8163 90.3544C96.9196 90.4244 97.0474 90.4581 97.176 90.4493C97.2982 90.4447 97.4192 90.4253 97.5357 90.3915C97.7451 90.3379 97.991 90.2678 97.9455 90.1812C97.8999 90.0946 97.5858 90.0369 97.3081 90.0039" fill="#F5A623"/>
<path d="M101.185 95.6401C100.987 95.5639 100.775 95.5233 100.561 95.5205C100.443 95.5205 100.338 95.5453 100.311 95.6236C100.313 95.6883 100.333 95.7516 100.368 95.8082C100.403 95.8648 100.452 95.9131 100.511 95.9494C100.63 96.0308 100.762 96.0948 100.902 96.1391C101.162 96.2298 101.453 96.3205 101.54 96.2257C101.626 96.1308 101.412 95.8587 101.207 95.6401" fill="#F5A623"/>
<path d="M93.9559 102.972C93.76 102.896 93.5497 102.856 93.3367 102.853C93.2138 102.853 93.1091 102.881 93.0863 102.956C93.0636 103.03 93.1318 103.17 93.2821 103.281C93.4017 103.364 93.5355 103.428 93.6782 103.471C93.9331 103.562 94.2291 103.653 94.311 103.558C94.393 103.463 94.1836 103.191 93.9832 102.972" fill="#F5A623"/>
<path d="M74.4683 19.5539C74.3991 18.4575 74.7181 17.3697 75.3788 16.4488C76.0391 15.5357 76.9223 14.7724 77.9603 14.2178C78.5271 13.8476 79.2153 13.6616 79.9135 13.69C80.4917 13.756 82.4949 11.7848 82.9639 12.0982C84.2842 12.9848 84.0201 16.2632 85.1401 17.356C85.434 18.822 85.6165 20.3045 85.6865 21.7931L86.3557 33.0344C86.465 34.8942 86.5196 36.9189 85.2904 38.3952C82.1947 37.3765 79.1823 36.1611 76.2757 34.7581C75.9406 34.6497 75.6577 34.4388 75.4757 34.1618C75.2937 33.8848 75.224 33.5591 75.2787 33.2406C75.1557 30.4447 75.1557 27.6405 75.2787 24.8447C75.3333 23.3436 74.6048 21.055 74.4683 19.5539Z" fill="#F5A623"/>
<path d="M74.4683 19.5539C74.3991 18.4575 74.7181 17.3697 75.3788 16.4488C76.0391 15.5357 76.9223 14.7724 77.9603 14.2178C78.5271 13.8476 79.2153 13.6616 79.9135 13.69C80.4917 13.756 82.4949 11.7848 82.9639 12.0982C84.2842 12.9848 84.0201 16.2632 85.1401 17.356C85.434 18.822 85.6165 20.3045 85.6865 21.7931L86.3557 33.0344C86.465 34.8942 86.5196 36.9189 85.2904 38.3952C82.1947 37.3765 79.1823 36.1611 76.2757 34.7581C75.9406 34.6497 75.6577 34.4388 75.4757 34.1618C75.2937 33.8848 75.224 33.5591 75.2787 33.2406C75.1557 30.4447 75.1557 27.6405 75.2787 24.8447C75.3333 23.3436 74.6048 21.055 74.4683 19.5539Z" fill="url(#paint8_linear_13999_31732)"/>
<path d="M71.9824 11.1128V11.4345C71.9702 11.8385 72.0924 12.2364 72.333 12.5768C72.7883 13.0881 73.6169 13.1087 74.3226 13.0139C74.8726 12.8874 75.4433 12.8525 76.0071 12.9108C76.5671 13.0221 77.1863 15.1005 77.7235 15.1829C78.7024 15.3355 80.7785 14.2469 81.4523 13.6984C81.5206 13.6448 80.7375 12.0489 80.7648 11.9623C80.7876 11.8783 80.7876 11.7906 80.7648 11.7066L79.6722 7.10458C79.5709 6.44965 79.3079 5.82383 78.9027 5.27365C78.5802 4.91783 78.1701 4.63537 77.7053 4.4489C76.1619 3.80973 73.8991 4.03653 72.77 5.30664C72.1736 5.9788 72.1827 7.14581 72.0871 7.97056C71.9652 9.01412 71.9302 10.0645 71.9824 11.1128Z" fill="url(#paint9_linear_13999_31732)"/>
<path d="M80.0306 43.2983C77.0166 45.0592 73.5747 46.0983 70.1737 47.1169C69.336 47.3685 68.3526 47.6076 67.6104 47.2035C67.1909 46.9366 66.859 46.5718 66.6498 46.1478C65.3113 43.8468 61.9649 43.1623 63.6085 41.0303C64.3051 40.1231 68.2524 37.1499 69.2267 36.4942C71.1571 35.1952 73.1786 33.8592 75.5506 33.5004C76.6648 33.354 77.7964 33.354 78.9106 33.5004C81.0641 33.7354 86.4957 34.486 86.0404 36.9891C85.5851 39.4922 82.2114 42.0117 80.0306 43.2983Z" fill="#664E26"/>
<path d="M80.9409 21.4182C80.9409 23.0677 81.1321 24.7171 80.5312 26.2677C79.7253 28.3295 77.6219 29.744 75.523 30.8574C74.2255 31.5501 72.8186 32.2471 72.122 33.4512C71.4255 34.6553 71.9172 36.5192 73.3968 36.7502C73.9715 36.8035 74.5519 36.7269 75.0859 36.5275C77.9506 35.6698 80.7178 34.5651 83.3494 33.2285C84.4284 32.6759 85.5211 32.0532 86.1858 31.1089C86.762 30.1528 87.0745 29.0846 87.0964 27.9955C87.3121 25.6584 87.2358 23.3067 86.8687 20.9852C86.4446 19.1566 85.6546 17.4138 84.5377 15.8429C80.9409 11.4305 80.9409 18.9852 80.9409 21.4182Z" fill="#F5A623"/>
<path d="M80.9409 21.4182C80.9409 23.0677 81.1321 24.7171 80.5312 26.2677C79.7253 28.3295 77.6219 29.744 75.523 30.8574C74.2255 31.5501 72.8186 32.2471 72.122 33.4512C71.4255 34.6553 71.9172 36.5192 73.3968 36.7502C73.9715 36.8035 74.5519 36.7269 75.0859 36.5275C77.9506 35.6698 80.7178 34.5651 83.3494 33.2285C84.4284 32.6759 85.5211 32.0532 86.1858 31.1089C86.762 30.1528 87.0745 29.0846 87.0964 27.9955C87.3121 25.6584 87.2358 23.3067 86.8687 20.9852C86.4446 19.1566 85.6546 17.4138 84.5377 15.8429C80.9409 11.4305 80.9409 18.9852 80.9409 21.4182Z" fill="url(#paint10_linear_13999_31732)"/>
<path d="M61.1496 50.5604L60.3711 64.0573C62.1922 63.9543 63.0209 62.0408 63.4579 60.4615C64.6963 55.9804 65.9362 51.4992 67.1776 47.0181C67.5418 45.6903 67.9152 44.3089 67.6329 42.9645C67.4326 42.0119 66.4856 40.3583 65.2244 40.2552C63.8813 40.148 63.1756 41.7109 62.7113 42.6511C61.4956 45.1212 61.2999 47.9047 61.1496 50.5604Z" fill="url(#paint11_linear_13999_31732)"/>
<path d="M63.8591 51.4715L64.3872 64.9767C66.1674 64.7293 66.8275 62.7582 67.1189 61.1499C67.9202 56.5891 68.723 52.0269 69.5274 47.4633C69.7641 46.1107 69.9827 44.7086 69.5911 43.3891C69.2997 42.4571 68.1979 40.886 66.9323 40.8818C65.5664 40.8818 65.0337 42.4901 64.6558 43.4674C63.6815 46.0117 63.7544 48.8324 63.8591 51.4715Z" fill="url(#paint12_linear_13999_31732)"/>
<path d="M63.1045 61.3152L61.4109 61.4266C61.2353 61.4173 61.0595 61.4407 60.8943 61.4953C60.729 61.5499 60.5779 61.6346 60.4502 61.7441C60.3118 61.9376 60.2434 62.1653 60.2544 62.3956C60.2089 63.2204 60.1998 64.0451 60.2544 64.8369C60.2454 64.8693 60.2454 64.9034 60.2544 64.9358C60.2803 64.9636 60.3134 64.985 60.3509 64.998C60.3883 65.0109 60.4287 65.0151 60.4684 65.0101C61.1162 65.0051 61.752 64.8519 62.3169 64.5647C62.557 64.4629 62.764 64.3067 62.9179 64.1111C63.0575 63.8755 63.128 63.6114 63.1227 63.3441C63.1683 62.6554 63.1865 61.9626 63.1592 61.2822L63.1045 61.3152Z" fill="#F5A623"/>
<path d="M63.0659 64.0902C63.0624 64.032 63.0436 63.9755 63.0112 63.9252C62.9684 63.8849 62.9114 63.8591 62.8501 63.8524C62.7887 63.8456 62.7266 63.8582 62.6743 63.8881C62.5733 63.9535 62.4842 64.0328 62.4103 64.1232C62.1177 64.4359 61.7071 64.6388 61.2584 64.6922C60.8016 64.6826 60.3447 64.7074 59.8925 64.7665C59.5664 64.8819 59.2702 65.0574 59.0229 65.2819L57.5478 66.4366C57.2018 66.7046 56.8239 67.0551 56.9059 67.4634C56.9702 67.6421 57.0905 67.8 57.2522 67.9179C57.4139 68.0358 57.6099 68.1085 57.8164 68.1273C58.5622 68.2011 59.3167 68.1164 60.02 67.8799C60.6761 67.7207 61.3208 67.5252 61.9504 67.2943C62.2808 67.1875 62.5755 67.0058 62.8063 66.7665C63.3117 66.152 63.1433 64.8118 63.0659 64.0902Z" fill="#664E26"/>
<path d="M67.1704 61.4962L65.4631 61.6158C65.2868 61.6069 65.1105 61.6305 64.9446 61.6851C64.7787 61.7396 64.6267 61.8241 64.4979 61.9333C64.3635 62.1282 64.2968 62.3552 64.3066 62.5849C64.2566 63.4096 64.252 64.2344 64.2839 65.0261C64.2844 65.0614 64.2922 65.0964 64.3066 65.1292C64.3322 65.1559 64.3648 65.1763 64.4014 65.1885C64.4381 65.2008 64.4775 65.2045 64.5161 65.1993C65.1656 65.1969 65.8036 65.0435 66.3691 64.7539C66.6091 64.6539 66.8162 64.499 66.9701 64.3045C67.1043 64.0672 67.173 63.804 67.1704 63.5374C67.222 62.8447 67.2356 62.1574 67.2114 61.4756L67.1704 61.4962Z" fill="#F5A623"/>
<path d="M67.1331 64.2594C67.1327 64.2001 67.1154 64.1419 67.083 64.0903C67.0393 64.0496 66.9812 64.024 66.9189 64.018C66.8565 64.0119 66.7938 64.0259 66.7415 64.0574C66.6409 64.1217 66.5531 64.2012 66.482 64.2924C66.1887 64.6036 65.7782 64.805 65.3302 64.8574C64.8733 64.8509 64.4166 64.8771 63.9643 64.9357C63.637 65.0495 63.3393 65.2236 63.0902 65.447L61.615 66.6017C61.2736 66.8739 60.8957 67.2244 60.9731 67.6285C61.0379 67.807 61.1584 67.9646 61.32 68.0824C61.4815 68.2002 61.6773 68.2732 61.8837 68.2924C62.6309 68.3685 63.3875 68.2838 64.0918 68.045C64.7483 67.8871 65.3931 67.6915 66.0222 67.4594C66.3515 67.353 66.6448 67.1711 66.8736 66.9316C67.3789 66.3171 67.2105 64.9893 67.1331 64.2594Z" fill="#664E26"/>
<path d="M68.6174 34.5814C67.6249 34.6268 66.5277 34.5814 65.7719 35.1752C65.6967 35.2208 65.6348 35.282 65.5912 35.3538C65.5476 35.4255 65.5237 35.5057 65.5215 35.5876C65.549 35.6993 65.6124 35.8011 65.7036 35.8804L67.9299 38.2268C68.0362 38.3527 68.1638 38.4626 68.3078 38.5526C68.601 38.6839 68.9337 38.7245 69.2548 38.668C70.4788 38.5439 71.6264 38.0669 72.5283 37.3072C73.4389 36.5196 73.0155 35.2453 72.0412 34.6062C71.0669 33.967 69.7738 34.5278 68.6174 34.5814Z" fill="url(#paint13_linear_13999_31732)"/>
<path d="M80.0524 0.952359C83.1756 1.19566 85.9711 2.98535 87.8651 5.24515C89.8365 7.59567 91.4117 10.7173 94.5987 11.3359C96.0329 11.6163 97.5308 11.2988 98.9877 11.4348C100.346 11.5872 101.618 12.1195 102.627 12.9577C103.636 13.796 104.331 14.8983 104.615 16.1111C104.956 17.7153 104.538 19.373 104.72 20.9978C105.079 24.2019 107.747 27.2493 106.75 30.338C105.958 32.7792 102.653 34.2596 100.017 33.3277C97.2121 32.3339 95.9965 29.4349 94.0979 27.307C93.2739 26.3792 92.0674 25.5091 90.7743 25.7277C90.1324 25.839 89.5724 26.206 88.9532 26.3545C87.4963 26.6967 85.9802 25.7689 85.2381 24.5813C84.496 23.3936 84.3275 21.9916 84.0953 20.6472C83.7584 18.7503 83.1847 16.8039 81.8189 15.3483C80.1252 13.5668 77.3708 12.6802 76.0914 10.6349C75.3356 9.42248 75.2036 7.99155 74.5161 6.75855C73.906 5.67402 72.736 5.10907 73.2504 3.82659C74.1109 1.707 77.8898 0.78741 80.0524 0.952359Z" fill="#664E26"/>
<path d="M71.4855 3.7807C71.4117 4.12733 71.4307 4.48492 71.5408 4.82356C71.6509 5.16219 71.849 5.47201 72.1184 5.7271C72.6656 6.23196 73.2769 6.67629 73.9395 7.05081C74.6002 7.4292 75.1463 7.95076 75.5285 8.56834C75.5678 8.67257 75.6333 8.76714 75.7197 8.84462C75.7645 8.88001 75.8219 8.89951 75.8813 8.89951C75.9407 8.89951 75.9982 8.88001 76.0429 8.84462C76.0869 8.78958 76.1093 8.72283 76.1067 8.65493C76.1977 7.50029 75.9655 6.34978 75.9655 5.19514C75.9655 4.41163 76.2251 3.41369 75.706 2.72091C74.709 1.3807 71.8862 2.45699 71.4855 3.7807Z" fill="#664E26"/>
<path d="M62.8666 29.1584C62.8081 29.4771 62.8845 29.8041 63.0806 30.0739C63.4903 30.5481 64.3918 30.4244 64.8198 29.9667C65.2076 29.4669 65.3705 28.8519 65.2751 28.2471C65.229 28.7968 65.3553 29.3471 65.6393 29.8347C65.9716 30.2883 66.7365 30.5316 67.1964 30.177C67.3215 30.0649 67.4178 29.9291 67.4784 29.7795C67.5389 29.6298 67.5624 29.4698 67.5469 29.311C67.5353 28.7569 67.2854 28.2287 66.8503 27.8389C67.0877 28.1512 67.4392 28.3776 67.8429 28.478C68.0438 28.5295 68.2566 28.5295 68.4575 28.478C68.658 28.405 68.8255 28.273 68.9329 28.1031C69.0403 27.9332 69.0814 27.7355 69.0494 27.542C69.011 27.3498 68.9272 27.1675 68.8039 27.0073C68.6805 26.8472 68.5204 26.7131 68.3346 26.6141C67.9604 26.4139 67.5506 26.2744 67.1235 26.2017C67.4286 26.0038 67.7791 25.8677 68.0796 25.6657C68.2369 25.5746 68.3705 25.4537 68.4711 25.3113C68.5717 25.1689 68.637 25.0084 68.6624 24.8409C68.6943 24.2718 67.9931 23.8553 67.3648 23.9007C66.7445 24.0024 66.1765 24.2813 65.744 24.6966C65.3399 24.3488 64.8543 24.088 64.3235 23.9337C64.0571 23.8598 63.7737 23.8522 63.5029 23.9117C63.2322 23.9712 62.9841 24.0956 62.7847 24.2718C62.6772 24.3985 62.6011 24.5446 62.5615 24.7002C62.5219 24.8559 62.5197 25.0174 62.5551 25.1739C62.5906 25.3303 62.6627 25.4781 62.7667 25.607C62.8708 25.736 63.0042 25.8432 63.158 25.9213C62.7617 25.9578 62.3635 25.9757 61.9651 25.9749C61.7649 25.9786 61.5687 26.0262 61.3934 26.1139C61.2181 26.2015 61.069 26.3265 60.959 26.478C60.8734 26.6658 60.8635 26.8748 60.9309 27.0686C60.9984 27.2623 61.1388 27.4284 61.3277 27.5378C61.5205 27.642 61.7357 27.7074 61.9589 27.7295C62.182 27.7515 62.4077 27.7298 62.6207 27.6657C62.8939 27.5914 63.4038 27.2079 63.6497 27.3811C63.3902 28.0286 62.944 28.4574 62.8666 29.1584Z" fill="#F5A623"/>
<path d="M65.3247 27.447C66.1771 27.447 66.8681 26.9799 66.8681 26.4037C66.8681 25.8275 66.1771 25.3604 65.3247 25.3604C64.4723 25.3604 63.7812 25.8275 63.7812 26.4037C63.7812 26.9799 64.4723 27.447 65.3247 27.447Z" fill="white"/>
</g>
<defs>
<linearGradient id="paint0_linear_13999_31732" x1="81.5978" y1="29.4053" x2="65.3529" y2="23.6946" gradientUnits="userSpaceOnUse">
<stop offset="0.01"/>
<stop offset="0.13" stop-opacity="0.69"/>
<stop offset="1" stop-opacity="0"/>
</linearGradient>
<linearGradient id="paint1_linear_13999_31732" x1="63.7253" y1="34.0427" x2="70.4923" y2="37.0583" gradientUnits="userSpaceOnUse">
<stop stop-color="#E5C5D5"/>
<stop offset="0.42" stop-color="#EAD4D1"/>
<stop offset="1" stop-color="#F0E9CB"/>
</linearGradient>
<linearGradient id="paint2_linear_13999_31732" x1="68.3033" y1="88.1926" x2="127.754" y2="88.1926" gradientUnits="userSpaceOnUse">
<stop offset="0.02" stop-color="white" stop-opacity="0"/>
<stop offset="0.32" stop-color="white" stop-opacity="0.39"/>
<stop offset="0.68" stop-color="white" stop-opacity="0.68"/>
<stop offset="1" stop-color="white"/>
</linearGradient>
<linearGradient id="paint3_linear_13999_31732" x1="97.6117" y1="47.3071" x2="97.9854" y2="39.225" gradientUnits="userSpaceOnUse">
<stop offset="0.01"/>
<stop offset="0.13" stop-opacity="0.69"/>
<stop offset="1" stop-opacity="0"/>
</linearGradient>
<linearGradient id="paint4_linear_13999_31732" x1="97.853" y1="123.88" x2="97.853" y2="143.228" gradientUnits="userSpaceOnUse">
<stop offset="0.01"/>
<stop offset="0.13" stop-opacity="0.69"/>
<stop offset="1" stop-opacity="0"/>
</linearGradient>
<linearGradient id="paint5_linear_13999_31732" x1="100.593" y1="97.4138" x2="98.0014" y2="111.662" gradientUnits="userSpaceOnUse">
<stop offset="0.02" stop-color="white" stop-opacity="0"/>
<stop offset="0.32" stop-color="white" stop-opacity="0.39"/>
<stop offset="0.68" stop-color="white" stop-opacity="0.68"/>
<stop offset="1" stop-color="white"/>
</linearGradient>
<linearGradient id="paint6_linear_13999_31732" x1="100.949" y1="98.9359" x2="95.2282" y2="130.384" gradientUnits="userSpaceOnUse">
<stop offset="0.01"/>
<stop offset="0.13" stop-opacity="0.69"/>
<stop offset="1" stop-opacity="0"/>
</linearGradient>
<linearGradient id="paint7_linear_13999_31732" x1="97.7546" y1="71.8636" x2="97.3175" y2="57.0897" gradientUnits="userSpaceOnUse">
<stop offset="0.01"/>
<stop offset="0.13" stop-opacity="0.69"/>
<stop offset="1" stop-opacity="0"/>
</linearGradient>
<linearGradient id="paint8_linear_13999_31732" x1="89.1057" y1="25.0591" x2="68.9974" y2="25.8933" gradientUnits="userSpaceOnUse">
<stop offset="0.01"/>
<stop offset="0.13" stop-opacity="0.69"/>
<stop offset="1" stop-opacity="0"/>
</linearGradient>
<linearGradient id="paint9_linear_13999_31732" x1="71.9596" y1="9.65716" x2="81.4705" y2="9.65716" gradientUnits="userSpaceOnUse">
<stop stop-color="#E5C5D5"/>
<stop offset="0.42" stop-color="#EAD4D1"/>
<stop offset="1" stop-color="#F0E9CB"/>
</linearGradient>
<linearGradient id="paint10_linear_13999_31732" x1="95.7149" y1="26.445" x2="68.9091" y2="24.9479" gradientUnits="userSpaceOnUse">
<stop offset="0.01"/>
<stop offset="0.13" stop-opacity="0.69"/>
<stop offset="1" stop-opacity="0"/>
</linearGradient>
<linearGradient id="paint11_linear_13999_31732" x1="60.9439" y1="52.0125" x2="66.9162" y2="52.5905" gradientUnits="userSpaceOnUse">
<stop stop-color="#E5C5D5"/>
<stop offset="0.42" stop-color="#EAD4D1"/>
<stop offset="1" stop-color="#F0E9CB"/>
</linearGradient>
<linearGradient id="paint12_linear_13999_31732" x1="63.7999" y1="52.9313" x2="69.8097" y2="52.9313" gradientUnits="userSpaceOnUse">
<stop stop-color="#E5C5D5"/>
<stop offset="0.42" stop-color="#EAD4D1"/>
<stop offset="1" stop-color="#F0E9CB"/>
</linearGradient>
<linearGradient id="paint13_linear_13999_31732" x1="65.5169" y1="36.5031" x2="73.0428" y2="36.5031" gradientUnits="userSpaceOnUse">
<stop stop-color="#E5C5D5"/>
<stop offset="0.42" stop-color="#EAD4D1"/>
<stop offset="1" stop-color="#F0E9CB"/>
</linearGradient>
<clipPath id="clip0_13999_31732">
<rect width="71.2185" height="137.34" fill="white" transform="translate(56.875 0.865234)"/>
</clipPath>
</defs>
</svg>
