<svg width="28" height="22" viewBox="0 0 28 22" fill="none" xmlns="http://www.w3.org/2000/svg">
<path opacity="0.3" d="M24.666 0.332031H3.33268C1.85992 0.332031 0.666016 1.52594 0.666016 2.9987V18.9987C0.666016 20.4715 1.85992 21.6654 3.33268 21.6654H24.666C26.1388 21.6654 27.3327 20.4715 27.3327 18.9987V2.9987C27.3327 1.52594 26.1388 0.332031 24.666 0.332031Z" fill="#138340"/>
<path opacity="0.3" fill-rule="evenodd" clip-rule="evenodd" d="M3.33398 21.668L12.0007 9.66797L20.6673 21.668H3.33398Z" fill="#138340"/>
<path fill-rule="evenodd" clip-rule="evenodd" d="M12.666 21.668L18.666 13.668L24.666 21.668H12.666Z" fill="#138340"/>
<path opacity="0.3" d="M22.666 8.33203C23.7706 8.33203 24.666 7.4366 24.666 6.33203C24.666 5.22746 23.7706 4.33203 22.666 4.33203C21.5614 4.33203 20.666 5.22746 20.666 6.33203C20.666 7.4366 21.5614 8.33203 22.666 8.33203Z" fill="#138340"/>
</svg>
