<svg width="24" height="22" viewBox="0 0 24 22" fill="none" xmlns="http://www.w3.org/2000/svg">
<path d="M13.4726 1.34722C13.3241 1.08856 13.11 0.873668 12.8519 0.724228C12.5938 0.574787 12.3008 0.496094 12.0026 0.496094C11.7043 0.496094 11.4113 0.574787 11.1532 0.724228C10.8951 0.873668 10.681 1.08856 10.5326 1.34722L0.247053 18.8477C-0.438447 20.0147 0.383553 21.4982 1.71705 21.4982H22.2866C23.6201 21.4982 24.4436 20.0132 23.7566 18.8477L13.4726 1.34722ZM11.9996 6.49822C12.8021 6.49822 13.4306 7.19122 13.3496 7.99072L12.8246 13.2512C12.8069 13.4579 12.7124 13.6504 12.5596 13.7907C12.4068 13.931 12.207 14.0088 11.9996 14.0088C11.7921 14.0088 11.5923 13.931 11.4395 13.7907C11.2867 13.6504 11.1922 13.4579 11.1746 13.2512L10.6496 7.99072C10.6307 7.80207 10.6516 7.61156 10.7108 7.43147C10.7701 7.25138 10.8664 7.08569 10.9936 6.94509C11.1207 6.80448 11.276 6.69208 11.4492 6.61511C11.6225 6.53814 11.81 6.49833 11.9996 6.49822ZM12.0026 15.4982C12.4004 15.4982 12.7819 15.6563 13.0632 15.9376C13.3445 16.2189 13.5026 16.6004 13.5026 16.9982C13.5026 17.396 13.3445 17.7776 13.0632 18.0589C12.7819 18.3402 12.4004 18.4982 12.0026 18.4982C11.6047 18.4982 11.2232 18.3402 10.9419 18.0589C10.6606 17.7776 10.5026 17.396 10.5026 16.9982C10.5026 16.6004 10.6606 16.2189 10.9419 15.9376C11.2232 15.6563 11.6047 15.4982 12.0026 15.4982Z" fill="#D4001A"/>
</svg>
