<svg width="18" height="22" viewBox="0 0 18 22" fill="none" xmlns="http://www.w3.org/2000/svg">
<path d="M0 15.75C0 16.7456 0.43875 17.6288 1.125 18.2475V20.25C1.125 20.8688 1.63125 21.375 2.25 21.375H3.375C3.99938 21.375 4.5 20.8688 4.5 20.25V19.125H13.5V20.25C13.5 20.8688 14.0006 21.375 14.625 21.375H15.75C16.3687 21.375 16.875 20.8688 16.875 20.25V18.2475C17.5613 17.6288 18 16.7456 18 15.75V4.5C18 0.5625 13.9725 0 9 0C4.0275 0 0 0.5625 0 4.5V15.75ZM3.9375 16.875C3.00375 16.875 2.25 16.1213 2.25 15.1875C2.25 14.2538 3.00375 13.5 3.9375 13.5C4.87125 13.5 5.625 14.2538 5.625 15.1875C5.625 16.1213 4.87125 16.875 3.9375 16.875ZM14.0625 16.875C13.1287 16.875 12.375 16.1213 12.375 15.1875C12.375 14.2538 13.1287 13.5 14.0625 13.5C14.9963 13.5 15.75 14.2538 15.75 15.1875C15.75 16.1213 14.9963 16.875 14.0625 16.875ZM15.75 10.125H2.25V4.5H15.75V10.125Z" fill="black"/>
</svg>
