<svg width="36" height="36" viewBox="0 0 36 36" fill="none" xmlns="http://www.w3.org/2000/svg">
<circle cx="18" cy="18" r="18" fill="#F4F5F4"/>
<path d="M9 22.75C9 23.7456 9.43875 24.6288 10.125 25.2475V27.25C10.125 27.8688 10.6313 28.375 11.25 28.375H12.375C12.9994 28.375 13.5 27.8688 13.5 27.25V26.125H22.5V27.25C22.5 27.8688 23.0006 28.375 23.625 28.375H24.75C25.3687 28.375 25.875 27.8688 25.875 27.25V25.2475C26.5613 24.6288 27 23.7456 27 22.75V11.5C27 7.5625 22.9725 7 18 7C13.0275 7 9 7.5625 9 11.5V22.75ZM12.9375 23.875C12.0038 23.875 11.25 23.1213 11.25 22.1875C11.25 21.2538 12.0038 20.5 12.9375 20.5C13.8713 20.5 14.625 21.2538 14.625 22.1875C14.625 23.1213 13.8713 23.875 12.9375 23.875ZM23.0625 23.875C22.1287 23.875 21.375 23.1213 21.375 22.1875C21.375 21.2538 22.1287 20.5 23.0625 20.5C23.9963 20.5 24.75 21.2538 24.75 22.1875C24.75 23.1213 23.9963 23.875 23.0625 23.875ZM24.75 17.125H11.25V11.5H24.75V17.125Z" fill="#BFBFBF"/>
</svg>
