<svg width="24" height="24" viewBox="0 0 24 24" fill="none" xmlns="http://www.w3.org/2000/svg">
<circle cx="12" cy="12" r="12" fill="#54A7F5"/>
<path fill-rule="evenodd" clip-rule="evenodd" d="M8.0625 5C6.85438 5 5.875 5.97938 5.875 7.1875V15.0625C5.875 15.7782 6.21868 16.4136 6.75 16.8127V18.5625C6.75 18.8041 6.94588 19 7.1875 19H8.9375C9.17912 19 9.375 18.8041 9.375 18.5625V17.25H14.625V18.5625C14.625 18.8041 14.8209 19 15.0625 19H16.8125C17.0541 19 17.25 18.8041 17.25 18.5625V16.8127C17.7813 16.4136 18.125 15.7782 18.125 15.0625V7.1875C18.125 5.97938 17.1456 5 15.9375 5H8.0625ZM7.625 7.625C7.625 7.14175 8.01675 6.75 8.5 6.75H15.5C15.9832 6.75 16.375 7.14175 16.375 7.625V11.038C16.375 11.5843 15.8831 11.9928 15.3513 11.9069C14.5591 11.779 13.0568 11.5625 12 11.5625C10.9432 11.5625 9.44095 11.779 8.64869 11.9069C8.11692 11.9928 7.625 11.5843 7.625 11.038V7.625ZM8.5 15.5C8.98325 15.5 9.375 15.1082 9.375 14.625C9.375 14.1418 8.98325 13.75 8.5 13.75C8.01675 13.75 7.625 14.1418 7.625 14.625C7.625 15.1082 8.01675 15.5 8.5 15.5ZM15.5 15.5C15.9832 15.5 16.375 15.1082 16.375 14.625C16.375 14.1418 15.9832 13.75 15.5 13.75C15.0168 13.75 14.625 14.1418 14.625 14.625C14.625 15.1082 15.0168 15.5 15.5 15.5ZM11.125 13.75C10.6418 13.75 10.25 14.1418 10.25 14.625C10.25 15.1082 10.6418 15.5 11.125 15.5H12.875C13.3582 15.5 13.75 15.1082 13.75 14.625C13.75 14.1418 13.3582 13.75 12.875 13.75H11.125Z" fill="#FEFFFE"/>
</svg>
