<svg width="36" height="36" viewBox="0 0 36 36" fill="none" xmlns="http://www.w3.org/2000/svg">
<circle cx="18" cy="18" r="18" fill="#0C1026"/>
<path d="M18.3913 9C13.2109 9 9 13.0355 9 18C9 22.9645 13.2109 27 18.3913 27C23.5717 27 27.7826 22.9645 27.7826 18C27.7826 13.0355 23.5717 9 18.3913 9ZM24.9046 22.7214C21.6631 23.5343 18.2209 22.8956 15.5247 21.0194C16.3313 20.0903 17.3083 19.2956 18.4216 18.6677C21.6139 20.377 24.4729 20.3044 26.2792 20.0431C26.0028 21.023 25.5295 21.9302 24.9046 22.7214ZM26.5254 18.831C25.6014 18.998 24.6736 19.0633 23.7534 19.0089C24.0829 16.0476 23.2384 13.0972 21.4132 10.7238C23.655 11.5802 27.0252 14.2875 26.5254 18.831ZM19.391 10.2266C21.7502 12.5093 22.8976 15.6847 22.5492 18.8673C21.3072 18.6641 20.1067 18.2504 18.982 17.6444C18.9442 15.0024 18.0088 12.4839 16.2972 10.4262C17.8195 10.0452 18.9215 10.1722 19.391 10.2266ZM15.0778 10.8399C15.6875 11.5222 16.2139 12.2589 16.6229 13.0464C13.7865 14.2512 11.541 16.4286 10.3065 19.125C9.53015 14.0008 13.6654 11.4423 15.0778 10.8399ZM10.8631 21.0629C11.7454 17.9601 14.044 15.4161 17.0962 14.1133C17.5317 15.2456 17.7589 16.4504 17.7741 17.6843C15.4035 19.0343 13.5972 21.0774 12.5937 23.5234C11.8666 22.8194 11.2721 21.9883 10.8631 21.0629ZM13.5783 24.3254C13.885 23.4835 14.2902 22.6851 14.7938 21.9556C16.5926 23.2113 19.5539 24.5649 23.4467 24.1512C21.4586 25.6536 17.3613 26.9782 13.5783 24.3254Z" fill="#A5F2C4"/>
</svg>
