<svg width="36" height="36" viewBox="0 0 36 36" fill="none" xmlns="http://www.w3.org/2000/svg">
  <rect width="36" height="36" rx="4" fill="#E6F7EC"/>
  <path d="M12 12L24 24M13.5 21.5C12.6716 21.5 12 20.8284 12 20C12 19.1716 12.6716 18.5 13.5 18.5C14.3284 18.5 15 19.1716 15 20C15 20.8284 14.3284 21.5 13.5 21.5ZM22.5 12.5C21.6716 12.5 21 13.1716 21 14C21 14.8284 21.6716 15.5 22.5 15.5C23.3284 15.5 24 14.8284 24 14C24 13.1716 23.3284 12.5 22.5 12.5ZM11 25H25C25.5523 25 26 24.5523 26 24V12C26 11.4477 25.5523 11 25 11H11C10.4477 11 10 11.4477 10 12V24C10 24.5523 10.4477 25 11 25Z" stroke="#28A745" stroke-width="1.5" stroke-linecap="round" stroke-linejoin="round"/>
</svg>