<svg width="19" height="16" viewBox="0 0 19 16" fill="none" xmlns="http://www.w3.org/2000/svg">
<path d="M1.03528 6.00412C0.897991 5.49176 0.969862 4.94585 1.23508 4.48648C1.50029 4.02711 1.93713 3.69191 2.44949 3.55463L14.0406 0.448799C14.553 0.311513 15.0989 0.383383 15.5582 0.6486C16.0176 0.913816 16.3528 1.35065 16.4901 1.86301L17.7842 6.69264L2.32937 10.8337L1.03528 6.00412ZM12.4022 3.99362C12.2742 4.02795 12.1649 4.11175 12.0986 4.22659C12.0323 4.34143 12.0144 4.47791 12.0487 4.606L12.3075 5.57192C12.3418 5.70001 12.4256 5.80922 12.5405 5.87553C12.6553 5.94183 12.7918 5.9598 12.9199 5.92548L14.8517 5.40784C14.9798 5.37352 15.089 5.28972 15.1553 5.17487C15.2216 5.06003 15.2396 4.92356 15.2053 4.79547L14.9465 3.82954C14.9121 3.70145 14.8283 3.59224 14.7135 3.52594C14.5987 3.45963 14.4622 3.44166 14.3341 3.47599L12.4022 3.99362ZM2.84701 12.7656L3.10583 13.7315C3.24312 14.2439 3.57831 14.6807 4.03768 14.9459C4.49705 15.2112 5.04296 15.283 5.55532 15.1457L17.1464 12.0399C17.6588 11.9026 18.0956 11.5674 18.3608 11.1081C18.6261 10.6487 18.6979 10.1028 18.5606 9.59042L18.3018 8.62449L2.84701 12.7656Z" fill="#FEFFFE"/>
</svg>
