<svg width="160" height="126" viewBox="0 0 160 126" fill="none" xmlns="http://www.w3.org/2000/svg">
<path d="M156.999 87.6729C155.897 92.3495 152.874 96.1801 149.218 99.3783C147.35 101.013 145.37 102.517 143.294 103.878C139.558 106.407 135.626 108.722 131.317 110.01C119.296 113.585 105.856 108.732 94.0469 112.907C89.4709 114.516 85.4794 117.391 81.214 119.681C71.5722 124.877 60.3429 126.787 49.4863 125.695C34.6795 124.199 20.8344 116.14 11.5791 104.873C-1.04211 89.5307 -5.1395 68.242 8.44102 49.4895C15.6765 39.5177 26.7562 33.0798 35.2524 24.1565C38.9334 20.3076 42.1174 15.9919 46.1895 12.566C50.9656 8.54927 56.7723 5.94194 62.6527 3.84503C74.4364 -0.337276 88.3252 -2.3629 98.8321 4.40145C112.537 13.2443 114.396 32.6292 124.785 45.1991C130.753 52.4118 139.24 57.0195 146.264 63.2113C153.288 69.4032 159.159 78.5633 156.999 87.6729Z" fill="#A5F2C4"/>
<path d="M159.809 102.343C159.483 103.756 158.118 104.643 156.843 105.334C153.279 107.266 149.529 108.833 145.79 110.4L119.944 121.215C116.005 122.868 112.004 124.535 107.792 125.329C103.526 126.134 99.1454 126.045 94.8043 125.916C76.0863 125.433 57.336 124.954 38.7361 122.8C36.2898 122.517 33.4459 121.927 32.4108 119.702C31.4796 117.709 32.572 115.244 34.3199 113.906C36.0677 112.568 38.2992 112.088 40.4554 111.645L53.9692 108.861C73.3104 104.879 92.6517 100.894 112.197 98.1534C116.896 97.4951 162.599 90.2002 159.809 102.343Z" fill="url(#paint0_linear_9585_100943)"/>
<path d="M144.332 85.2808C131.796 87.4739 118.272 76.8805 107.519 96.0746C105.987 99.1335 105.546 105.351 105.435 111.627C118.283 107.96 146.582 98.7686 147.094 98.3286C147.996 97.5594 147.996 94.5398 147.961 91.8423C147.946 90.819 146.352 88.2861 144.332 85.2808Z" fill="#1A1A1A"/>
<path d="M143.809 92.5181C142.642 92.5503 138.96 95.9133 138.87 100.156C138.791 103.992 139.851 107.312 140.854 107.838L144.687 108.138L144.235 107.376C145.059 106.267 145.693 103.441 145.761 100.142C145.851 95.9026 144.977 92.4895 143.809 92.5181Z" fill="#3F3D56"/>
<path d="M143.809 92.5181C142.642 92.5503 138.96 95.9133 138.87 100.156C138.791 103.992 139.851 107.312 140.854 107.838L144.687 108.138L144.235 107.376C145.059 106.267 145.693 103.441 145.761 100.142C145.851 95.9026 144.977 92.4895 143.809 92.5181Z" fill="url(#paint1_linear_9585_100943)"/>
<path d="M147.051 100.407C146.961 104.647 145.94 108.11 144.773 108.138C143.605 108.167 142.731 104.757 142.821 100.518C142.91 96.2784 143.928 92.8116 145.099 92.783C146.27 92.7544 147.14 96.1639 147.051 100.407Z" fill="#3F3D56"/>
<path d="M146.481 100.429C146.428 102.933 145.822 104.99 145.135 105.008C144.447 105.026 143.924 103.005 143.974 100.493C144.024 97.9816 144.633 95.9316 145.324 95.9137C146.016 95.8958 146.531 97.9172 146.481 100.429Z" fill="url(#paint2_linear_9585_100943)"/>
<path d="M145.994 100.447C145.969 101.656 145.679 102.647 145.346 102.654C145.013 102.661 144.762 101.688 144.787 100.479C144.812 99.2697 145.102 98.2786 145.435 98.2679C145.768 98.2572 145.994 99.2339 145.994 100.447Z" fill="#3F3D56"/>
<path d="M111.141 94.3794C109.106 94.4331 100.396 100.597 100.234 107.974C100.095 114.654 101.309 120.139 103.067 121.104L112.684 121.58L111.896 120.249C113.329 118.317 114.436 113.395 114.558 107.656C114.697 100.275 113.175 94.3257 111.141 94.3794Z" fill="#3F3D56"/>
<path d="M111.141 94.3794C109.106 94.4331 100.396 100.597 100.234 107.974C100.095 114.654 101.309 120.139 103.067 121.104L112.684 121.58L111.896 120.249C113.329 118.317 114.436 113.395 114.558 107.656C114.697 100.275 113.175 94.3257 111.141 94.3794Z" fill="url(#paint3_linear_9585_100943)"/>
<path d="M116.785 108.113C116.631 115.497 114.855 121.525 112.82 121.579C110.786 121.633 109.264 115.69 109.421 108.306C109.579 100.922 111.352 94.8897 113.383 94.8361C115.414 94.7824 116.939 100.728 116.785 108.113Z" fill="#3F3D56"/>
<path d="M115.793 108.146C115.704 112.518 114.651 116.092 113.447 116.121C112.244 116.149 111.341 112.632 111.431 108.25C111.52 103.867 112.573 100.304 113.78 100.272C114.987 100.239 115.886 103.778 115.793 108.146Z" fill="url(#paint4_linear_9585_100943)"/>
<path d="M114.926 108.181C114.883 110.289 114.375 112.013 113.795 112.027C113.214 112.042 112.781 110.346 112.824 108.235C112.867 106.124 113.376 104.403 113.956 104.389C114.536 104.375 114.973 106.071 114.926 108.181Z" fill="#3F3D56"/>
<path d="M51.0572 94.3794C49.0228 94.4331 40.3121 100.597 40.1509 107.974C40.0112 114.654 41.2433 120.139 42.984 121.104L52.5866 121.573L51.7986 120.242C53.2313 118.31 54.3381 113.387 54.4599 107.649C54.6139 100.275 53.0916 94.3257 51.0572 94.3794Z" fill="#3F3D56"/>
<path d="M51.0572 94.3794C49.0228 94.4331 40.3121 100.597 40.1509 107.974C40.0112 114.654 41.2433 120.139 42.984 121.104L52.5866 121.573L51.7986 120.242C53.2313 118.31 54.3381 113.387 54.4599 107.649C54.6139 100.275 53.0916 94.3257 51.0572 94.3794Z" fill="url(#paint5_linear_9585_100943)"/>
<path d="M56.7021 108.113C56.5445 115.497 54.7715 121.526 52.7371 121.579C50.7027 121.633 49.1805 115.69 49.338 108.306C49.4956 100.922 51.2686 94.9079 53.2994 94.8363C55.3303 94.7648 56.8561 100.729 56.7021 108.113Z" fill="#3F3D56"/>
<path d="M55.7098 108.146C55.6167 112.518 54.5672 116.092 53.3638 116.121C52.1603 116.149 51.2541 112.632 51.3473 108.25C51.4404 103.867 52.4898 100.304 53.6969 100.272C54.9039 100.239 55.8029 103.778 55.7098 108.146Z" fill="url(#paint6_linear_9585_100943)"/>
<path d="M54.843 108.181C54.8001 110.289 54.2914 112.013 53.7112 112.027C53.131 112.042 52.6976 110.346 52.7406 108.235C52.7836 106.124 53.2921 104.403 53.8724 104.389C54.4526 104.375 54.8896 106.071 54.843 108.181Z" fill="#3F3D56"/>
<path d="M138.311 92.8941C137.036 92.9263 131.864 96.7079 131.771 101.334C131.685 105.52 132.459 108.969 133.562 109.562L139.293 109.938L138.798 109.104C139.701 107.895 140.389 104.811 140.464 101.212C140.539 96.5863 139.586 92.8619 138.311 92.8941Z" fill="#3F3D56"/>
<path d="M138.311 92.8941C137.036 92.9263 131.864 96.7079 131.771 101.334C131.685 105.52 132.459 108.969 133.562 109.562L139.293 109.938L138.798 109.104C139.701 107.895 140.389 104.811 140.464 101.212C140.539 96.5863 139.586 92.8619 138.311 92.8941Z" fill="url(#paint7_linear_9585_100943)"/>
<path d="M141.85 101.497C141.75 106.127 140.64 109.905 139.365 109.937C138.089 109.969 137.137 106.249 137.233 101.619C137.33 96.9895 138.444 93.2151 139.716 93.1793C140.987 93.1436 141.947 96.8715 141.85 101.497Z" fill="#3F3D56"/>
<path d="M141.227 101.523C141.17 104.263 140.511 106.503 139.755 106.531C138.999 106.56 138.437 104.345 138.494 101.601C138.551 98.8572 139.21 96.6247 139.966 96.5925C140.722 96.5603 141.284 98.782 141.227 101.523Z" fill="url(#paint8_linear_9585_100943)"/>
<path d="M140.683 101.545C140.657 102.865 140.324 103.945 139.966 103.953C139.608 103.96 139.329 102.897 139.354 101.577C139.379 100.257 139.712 99.1765 140.07 99.1657C140.428 99.155 140.711 100.221 140.683 101.545Z" fill="#3F3D56"/>
<path d="M107.519 96.1014C118.265 76.9072 131.793 87.515 144.332 85.3076C141.034 80.3597 136.66 74.131 136.56 71.2545C136.399 66.6251 136.793 60.3713 135.568 59.6021C134.343 58.8329 116.144 45.1806 106.778 40.73C97.4118 36.2794 45.1939 37.7176 43.6072 42.7335C42.0205 47.7493 38.2347 73.5192 37.2676 89.3825C36.5692 100.709 36.6551 101.708 36.7661 110.881C36.7661 110.881 90.166 113.149 99.3638 113.149C99.9584 113.149 102.211 112.576 105.435 111.653C105.546 105.378 105.986 99.1603 107.519 96.1014Z" fill="#A5F2C4"/>
<path d="M100.782 42.4815C98.8982 40.9825 46.8809 41.326 45.3121 41.7338C44.6587 41.8937 44.0662 42.2406 43.6073 42.732C43.1712 43.5564 42.8173 44.4215 42.5507 45.3151C41.7556 48.0166 41.1288 50.7647 40.6738 53.5437C39.7641 59.2178 38.5714 68.0904 37.7404 80.4083C37.6473 81.8859 37.5577 83.4207 37.4753 85.002C37.4467 86.4116 37.504 89.1342 38.3278 89.5385C39.4417 90.0823 93.0027 90.5581 95.5493 88.7192C98.0959 86.8803 98.1783 85.1773 98.6332 78.6409C99.0881 72.1045 100.424 54.6026 101.14 50.9248C101.857 47.247 102.655 43.9806 100.782 42.4815Z" fill="url(#paint9_linear_9585_100943)"/>
<path d="M100.782 42.4815C98.8982 40.9825 46.8809 41.326 45.3121 41.7338C44.6587 41.8937 44.0662 42.2406 43.6073 42.732C43.1712 43.5564 42.8173 44.4215 42.5507 45.3151C41.7556 48.0166 41.1288 50.7647 40.6738 53.5437C39.7641 59.2178 38.5714 68.0904 37.7404 80.4083C37.6473 81.8859 37.5577 83.4207 37.4753 85.002C37.4467 86.4116 37.504 89.1342 38.3278 89.5385C39.0887 89.6561 39.8574 89.7159 40.6273 89.7173C41.3436 78.0864 40.8887 74.845 43.3458 59.8654C45.2548 51.0858 48.3172 51.8514 52.6833 51.8514C51.7807 65.3392 50.2227 76.4764 49.5493 89.9642C65.8891 90.1073 93.8981 89.9105 95.5493 88.7192C98.0995 86.8803 98.1783 85.1773 98.6332 78.6409C99.0881 72.1045 100.424 54.6026 101.14 50.9248C101.857 47.247 102.655 43.9806 100.782 42.4815Z" fill="url(#paint10_linear_9585_100943)"/>
<path d="M100.782 42.4815C98.8983 40.9825 46.881 41.326 45.3122 41.7338C44.6588 41.8937 44.0663 42.2406 43.6073 42.732C43.1713 43.5564 42.8174 44.4215 42.5507 45.3151C42.2391 46.2953 41.8917 47.6083 41.5228 49.2505L101.391 49.7299C102.014 46.5529 102.462 43.816 100.782 42.4815Z" fill="url(#paint11_linear_9585_100943)"/>
<path d="M43.36 102.217C43.36 102.217 40.0755 101.419 38.5748 96.0852C36.9129 93.0692 36.2968 98.1209 36.4258 101.974C36.5225 104.797 41.5333 104.918 43.0448 104.618C44.5563 104.317 45.0971 103.04 43.36 102.217Z" fill="#3F3D56"/>
<path d="M44.2268 102.865L44.1803 102.808C43.9691 102.571 43.7053 102.387 43.4102 102.271C42.4605 101.966 41.6171 101.398 40.9782 100.632C39.9392 99.4735 39.1731 98.0971 38.736 96.6039C37.5147 95.3052 37.0598 99.1083 37.1637 102.081C37.2496 104.46 41.759 104.564 43.1201 104.31C44.1301 104.106 44.6566 103.466 44.2268 102.865Z" fill="#3F3D56"/>
<path d="M39.6852 98.8114C39.291 98.1065 38.9729 97.3617 38.736 96.5897C37.8334 95.6273 37.3499 97.4662 37.1995 99.6915C37.6436 99.0654 38.7826 98.8436 39.6852 98.8114Z" fill="#A5F2C4"/>
<path d="M52.6476 39.5939C52.6476 39.5939 99.2099 39.5939 106.373 40.771C110.313 41.7334 145.375 62.4802 145.375 62.4802L143.638 59.5751C143.638 59.5751 117.645 40.3238 108.44 36.6781C99.235 33.0325 54.5029 30.5926 52.6476 39.5939Z" fill="#A5F2C4"/>
<path style="mix-blend-mode:multiply" opacity="0.5" d="M52.6476 39.5939C52.6476 39.5939 99.2099 39.5939 106.373 40.771C110.313 41.7334 145.375 62.4802 145.375 62.4802L143.638 59.5751C143.638 59.5751 117.645 40.3238 108.44 36.6781C99.235 33.0325 54.5029 30.5926 52.6476 39.5939Z" fill="url(#paint12_linear_9585_100943)"/>
<path d="M149.2 95.7375C149.164 93.04 148.731 75.8529 148.569 71.227C148.408 66.6011 148.587 64.5976 147.362 63.8248C146.137 63.052 124.379 47.822 115.012 43.3892C105.646 38.9565 105.209 40.2159 103.626 45.2317C102.043 50.2476 100.266 71.9461 99.7292 84.8185C99.2278 96.9002 99.371 115.508 99.371 115.508L109.12 112.47C109.07 111.375 109.056 110.231 109.081 109.054C109.253 100.907 111.209 94.2564 113.454 94.1955C115.7 94.1347 117.394 100.696 117.204 108.842C117.204 109.2 117.183 109.583 117.169 109.948C123.788 107.873 131.08 105.565 136.968 103.673C136.947 103.05 136.94 102.403 136.968 101.737C137.072 96.6749 138.29 92.5427 139.683 92.5069C141.077 92.4711 142.122 96.5425 142.015 101.605C142.015 101.752 142.015 101.898 142.015 102.045L142.674 101.83C142.674 101.394 142.674 100.947 142.674 100.489C142.771 95.9844 143.852 92.3065 145.092 92.26C146.331 92.2135 147.241 95.8377 147.165 100.295C147.613 100.158 148.048 99.9836 148.466 99.7731C149.325 99.0182 149.218 98.4386 149.2 95.7375Z" fill="#A5F2C4"/>
<path d="M149.2 95.7375C149.164 93.04 148.731 75.8529 148.569 71.227C148.408 66.6011 148.587 64.5976 147.362 63.8248C146.137 63.052 124.379 47.822 115.012 43.3892C105.646 38.9565 105.209 40.2159 103.626 45.2317C102.043 50.2476 100.266 71.9461 99.7292 84.8185C99.2278 96.9002 99.371 115.508 99.371 115.508L109.12 112.47C109.07 111.375 109.056 110.231 109.081 109.054C109.253 100.907 111.209 94.2564 113.454 94.1955C115.7 94.1347 117.394 100.696 117.204 108.842C117.204 109.2 117.183 109.583 117.169 109.948C123.788 107.873 131.08 105.565 136.968 103.673C136.947 103.05 136.94 102.403 136.968 101.737C137.072 96.6749 138.29 92.5427 139.683 92.5069C141.077 92.4711 142.122 96.5425 142.015 101.605C142.015 101.752 142.015 101.898 142.015 102.045L142.674 101.83C142.674 101.394 142.674 100.947 142.674 100.489C142.771 95.9844 143.852 92.3065 145.092 92.26C146.331 92.2135 147.241 95.8377 147.165 100.295C147.613 100.158 148.048 99.9836 148.466 99.7731C149.325 99.0182 149.218 98.4386 149.2 95.7375Z" fill="url(#paint13_linear_9585_100943)"/>
<path d="M104.901 82.6374C106.602 73.5574 108.644 66.538 118.153 68.291C124.547 69.4788 140.697 75.5501 148.079 78.4444C148.079 78.4444 148.079 76.4123 148.039 75.8327C147.839 71.7757 147.989 69.7042 146.75 69.1103C145.511 68.5164 124.146 54.3918 114.686 51.29C105.227 48.1882 104.833 49.5012 103.361 54.7425C102.286 58.5348 101.312 71.0959 100.754 82.6482L104.887 82.7197C104.89 82.692 104.895 82.6645 104.901 82.6374Z" fill="url(#paint14_linear_9585_100943)"/>
<path d="M103.053 82.6905L104.887 82.7191C104.885 82.6917 104.885 82.6642 104.887 82.6368C105.251 80.5091 105.73 78.4025 106.32 76.3258C104.83 77.9143 103.83 80.1181 103.053 82.6905Z" fill="url(#paint15_linear_9585_100943)"/>
<g style="mix-blend-mode:multiply">
<path d="M123.429 55.2647L123.218 55.1573L122.799 69.468L123.01 69.5288L123.429 55.2647Z" fill="#CDCDCD"/>
<path d="M134.01 61.2775L133.798 61.1487L133.623 73.048L133.834 73.1231L134.01 61.2775Z" fill="#CDCDCD"/>
<path d="M142.226 66.3166L142.015 66.1842V76.1229L142.226 76.2016V66.3166Z" fill="#CDCDCD"/>
</g>
<path d="M36.5297 105.542C36.5297 105.542 36.7697 106.221 40.355 106.289C43.9403 106.357 98.0958 107.173 99.9225 106.146C99.9476 109.588 100.223 115.505 99.3566 115.91C98.2821 116.414 43.0914 115.62 40.5412 115.276C37.991 114.933 37.0347 114.529 36.7159 112.146C36.3972 109.763 36.5297 105.542 36.5297 105.542Z" fill="#A5F2C4"/>
<path d="M36.5297 105.542C36.5297 105.542 36.7697 106.221 40.355 106.289C43.9403 106.357 98.0958 107.173 99.9225 106.146C99.9476 109.588 100.223 115.505 99.3566 115.91C98.2821 116.414 43.0914 115.62 40.5412 115.276C37.991 114.933 37.0347 114.529 36.7159 112.146C36.3972 109.763 36.5297 105.542 36.5297 105.542Z" fill="url(#paint16_linear_9585_100943)"/>
<g style="mix-blend-mode:multiply">
<path d="M108.999 82.4623L110.177 49.9557L109.966 49.9056L107.817 108.325L100.435 110.472C100.299 97.7031 100.793 85.9756 100.947 82.6376H100.732C100.553 86.4872 99.962 100.758 100.302 115.194L100.514 115.123C100.48 113.744 100.456 112.372 100.442 111.005L107.795 108.858L107.648 112.919L107.863 112.837L108.028 108.815H108.05V108.543L108.981 83.0133L119.099 83.9077L118.68 109.492L118.895 109.409L119.314 83.9256L127.993 84.6948L127.634 106.676L127.846 106.601L128.204 84.7127L136.008 85.4031L135.708 104.1L135.922 104.014L136.22 85.4103L148.985 86.5408V85.997L108.999 82.4623Z" fill="#CDCDCD"/>
</g>
<path opacity="0.6" d="M102.362 82.677C102.362 82.5267 102.39 82.3765 102.401 82.2262L103.139 70.4915C103.293 68.0372 102.756 65.9908 101.892 65.4613C101.434 70.5881 101.04 76.7488 100.753 82.6341L102.362 82.677Z" fill="#191919"/>
<path d="M38.3279 89.5424C39.4454 90.0862 93.0028 90.562 95.5494 88.7231C97.967 86.9808 98.164 85.3565 98.5652 79.6144C97.1719 78.7021 94.457 78.0223 90.9146 77.525C90.0765 77.4069 89.1918 77.2996 88.2678 77.203C86.5915 77.0277 84.7827 76.881 82.8952 76.7665L81.8028 76.7021C80.4345 76.6258 79.0293 76.5638 77.5871 76.5161L76.0434 76.4696C74.6429 76.4338 73.2138 76.4052 71.7811 76.3873C71.0218 76.3873 70.2553 76.3694 69.4924 76.3658H68.4C64.4601 76.3658 60.5202 76.4159 56.8454 76.5125C46.5623 76.7916 38.3744 77.3926 37.9411 77.7683C37.8766 78.6341 37.8121 79.5106 37.7512 80.4158C37.6557 81.8969 37.5674 83.4281 37.4862 85.0095C37.4504 86.4119 37.5077 89.1345 38.3279 89.5424Z" fill="url(#paint17_linear_9585_100943)"/>
<path d="M50.7206 76.7949C55.4413 76.6697 60.6025 76.6089 65.6563 76.6697L66.0503 68.4661C66.0503 65.6899 62.6835 63.4574 58.5574 63.5004C54.4312 63.5433 51.0895 65.8115 51.1038 68.5914L50.7206 76.7949Z" fill="url(#paint18_linear_9585_100943)"/>
<path d="M76.0326 76.4648C81.5878 76.6187 86.8064 76.9442 90.9146 77.5381L91.373 68.0287C91.373 65.2525 88.0062 63.02 83.8765 63.0594C79.7468 63.0987 76.4122 65.3741 76.423 68.1539L76.0326 76.4648Z" fill="url(#paint19_linear_9585_100943)"/>
<path d="M70.2302 73.2313C70.3519 73.4433 70.5356 73.6131 70.7567 73.7178C72.0389 74.4799 73.357 75.1811 74.6966 75.8108C74.9208 75.9386 75.1728 76.0098 75.4308 76.0183C75.8188 75.9507 76.1696 75.7463 76.4194 75.4423C77.2467 74.6552 78.0956 73.8287 78.5111 72.759C78.7635 71.9884 78.8952 71.1835 78.9015 70.3727C78.987 69.1993 78.9799 68.021 78.88 66.8487C78.7475 65.7754 78.4323 65.0134 77.7446 65.5751C77.4581 65.8076 75.2374 72.2832 74.9938 72.1079L73.4501 71.0668C73.0996 70.7786 72.6728 70.5984 72.2216 70.548C71.3548 70.548 70.7889 71.421 70.3949 72.1938C70.2936 72.3444 70.2264 72.5152 70.198 72.6944C70.1695 72.8736 70.1805 73.0568 70.2302 73.2313Z" fill="#A5F2C4"/>
<path d="M70.7567 73.7178C72.0389 74.4799 73.357 75.1811 74.6966 75.8108C74.9208 75.9385 75.1728 76.0098 75.4308 76.0183C75.8188 75.9507 76.1696 75.7463 76.4194 75.4423C77.2468 74.6552 78.0956 73.8287 78.5111 72.759C78.7635 71.9884 78.8952 71.1835 78.9015 70.3727C78.987 69.1993 78.9799 68.021 78.88 66.8487C78.7081 66.677 78.4502 69.049 78.1637 69.2923C77.8771 69.5355 75.703 73.6284 75.4344 73.4423C74.9222 73.0846 74.4065 72.7447 73.8907 72.4012C73.5402 72.1131 73.1133 71.9328 72.6622 71.8825C71.7954 71.8825 71.2295 72.7554 70.8391 73.5282C70.814 73.5962 70.7782 73.657 70.7567 73.7178Z" fill="url(#paint20_linear_9585_100943)"/>
<path d="M77.5833 76.5108C79.016 76.5609 80.4213 76.6229 81.799 76.6968L82.8915 76.7612C84.7898 76.8757 86.5985 77.0224 88.264 77.1977C88.264 76.7648 88.3142 73.849 88.2927 73.4376C88.1816 71.4269 89.6752 67.9674 89.3135 65.9853C89.1344 64.9943 81.0003 62.8155 78.7689 64.4362C78.3325 64.7165 77.9819 65.1113 77.7553 65.5775C77.5934 66.0873 77.5577 66.6287 77.6514 67.1552C77.8018 68.6972 77.9487 70.232 78.0955 71.774C78.1349 72.1425 77.7553 74.679 77.5833 76.5108Z" fill="#A5F2C4"/>
<path d="M77.5835 76.513C79.0162 76.5631 80.4214 76.6251 81.7992 76.699L82.4439 76.7348L82.8916 76.7634C84.7899 76.8779 86.5987 77.0246 88.2642 77.1999C88.2642 76.767 88.3143 73.8512 88.2928 73.4398C88.2891 72.7169 88.372 71.9963 88.54 71.2932C88.9196 69.4686 89.5643 67.3792 89.3136 66.0018C89.1345 65.0108 81.0005 62.832 78.7691 64.4527C78.3327 64.733 77.982 65.1278 77.7554 65.594C77.5935 66.1037 77.5579 66.6451 77.6516 67.1717C77.802 68.7137 77.9488 70.2485 78.0957 71.7905C78.1351 72.1446 77.7554 74.6812 77.5835 76.513Z" fill="url(#paint21_linear_9585_100943)"/>
<path d="M82.4368 76.7341L82.8845 76.7627C84.7828 76.8772 86.5915 77.0239 88.257 77.1992C88.257 76.7663 88.3072 73.8505 88.2857 73.4391C88.2819 72.7162 88.3649 71.9956 88.5328 71.2925C88.4146 71.0313 88.2929 70.7701 88.1747 70.5125C88.0705 70.187 87.9171 69.8794 87.7198 69.6002C87.3616 69.7791 87.598 70.7272 87.5192 71.0993C87.4547 71.3962 86.7348 73.7038 86.2835 74.3943C86.1971 74.5482 86.0741 74.6784 85.9253 74.7735C85.7003 74.8721 85.4531 74.9091 85.209 74.8808C84.1345 74.8451 83.06 74.8021 82.007 74.7413C81.9317 75.4103 82.3544 76.0507 82.4368 76.7341Z" fill="url(#paint22_linear_9585_100943)"/>
<path d="M83.4646 75.0947C83.9696 75.3917 83.3607 76.2431 83.9481 76.2539C84.9546 76.2539 88.0456 75.9462 89.052 75.9641C90.1265 75.9641 91.2011 75.2486 91.8744 74.4078C92.0694 74.1413 92.2084 73.8382 92.2829 73.5166C92.3574 73.195 92.3658 72.8616 92.3078 72.5367C92.1879 71.8881 91.9806 71.2587 91.6918 70.6656C91.3515 69.8857 89.7863 65.4708 88.9052 65.8179C88.547 65.9645 88.2426 66.4583 88.0277 67.0915C87.6334 68.3257 87.4802 69.6241 87.5764 70.916C87.6552 71.306 88.5936 71.9893 88.2927 72.2791C88.1996 72.3558 88.0943 72.4163 87.9811 72.458C86.5842 73.0646 85.0839 73.3986 83.5613 73.4418C83.2783 73.9391 82.956 74.7978 83.4646 75.0947Z" fill="#A5F2C4"/>
<path d="M83.9481 76.2545C84.9546 76.2545 88.0456 75.9469 89.052 75.9648C90.1265 75.9648 91.2011 75.2492 91.8744 74.4085C92.0694 74.142 92.2084 73.8388 92.2829 73.5172C92.3574 73.1956 92.3658 72.8623 92.3078 72.5374C92.201 72.9156 92.0089 73.2645 91.7463 73.5572C91.4837 73.8499 91.1575 74.0786 90.7927 74.226C89.4389 74.709 84.3457 74.9881 84.3457 74.9881L83.4753 75.0954C83.9696 75.3923 83.3607 76.2438 83.9481 76.2545Z" fill="url(#paint23_linear_9585_100943)"/>
<path d="M84.3206 75.2308C84.2682 75.5527 84.1167 75.8503 83.8873 76.0823C83.8188 76.0051 83.7751 75.9091 83.7619 75.8068C83.7028 75.5956 83.6898 75.3742 83.7238 75.1576C83.7578 74.9409 83.8379 74.7341 83.9589 74.5511C84.3887 73.9894 84.3708 74.9553 84.3206 75.2308Z" fill="#191919"/>
<path d="M84.7218 63.2774C84.7576 63.9678 84.7218 64.7084 84.2705 65.2486C84.013 65.5235 83.6989 65.7395 83.35 65.8819C83.0271 66.0516 82.6689 66.1435 82.3041 66.1502C82.1221 66.1501 81.9437 66.1 81.7882 66.0053C81.6328 65.9107 81.5065 65.7751 81.423 65.6136C81.2098 65.0703 81.1443 64.4802 81.2332 63.9034C81.441 63.2416 81.4732 62.5153 81.8135 61.9071C82.1537 61.2989 83.3643 61.1916 84.138 61.2417C84.4962 61.2667 84.6645 61.3812 84.7039 61.7318C84.7469 62.2255 84.6931 62.7765 84.7218 63.2774Z" fill="url(#paint24_linear_9585_100943)"/>
<path d="M83.443 64.2477C83.2289 64.7466 82.8662 65.1675 82.4043 65.4534C82.2319 65.5613 82.0345 65.6229 81.8312 65.6323C81.7293 65.6364 81.6277 65.6169 81.5345 65.5753C81.4413 65.5337 81.359 65.4712 81.294 65.3926C81.1787 65.1948 81.1298 64.9654 81.1543 64.7379V63.0922C81.146 62.9771 81.1656 62.8617 81.2116 62.7559C81.2657 62.6778 81.3358 62.6122 81.4174 62.5634C81.4989 62.5147 81.59 62.4839 81.6844 62.4732C82.193 62.348 83.1672 62.1155 83.5934 62.5519C84.0197 62.9884 83.6436 63.8041 83.443 64.2477Z" fill="url(#paint25_linear_9585_100943)"/>
<path d="M78.7796 61.9229C78.8333 62.7565 79.0375 63.7117 79.7681 64.1017C80.0534 64.2413 80.3642 64.3217 80.6815 64.3378C81.4597 64.4383 82.2505 64.3219 82.9666 64.0015C83.7517 63.5728 84.3539 62.8734 84.6608 62.0338C84.9594 61.1997 85.105 60.3186 85.0906 59.4328C85.0906 58.1699 84.8398 56.7067 83.7403 56.0877C83.3024 55.865 82.8203 55.7427 82.3291 55.73C81.2223 55.662 78.7044 55.5761 78.8476 57.1396C78.9909 58.703 78.6578 60.3058 78.7796 61.9229Z" fill="url(#paint26_linear_9585_100943)"/>
<path d="M78.658 55.2432C78.7634 54.9427 78.933 54.6686 79.1551 54.44C79.3771 54.2115 79.6462 54.0338 79.9438 53.9195C80.4802 53.7553 81.0439 53.6994 81.6021 53.7549C82.1788 53.78 82.7554 53.8086 83.3321 53.8444C83.979 53.845 84.6194 53.9739 85.2161 54.2236C85.517 54.3548 85.7618 54.588 85.9074 54.8819C85.9769 55.1168 86.0319 55.3558 86.0721 55.5974C86.1581 55.9051 86.3443 56.177 86.4303 56.4775C86.5555 57.0749 86.5071 57.6956 86.2906 58.2664C86.0399 59.1608 85.7498 60.116 85.0155 60.6813C85.1731 60.1964 85.1528 59.6714 84.9582 59.2001C84.799 59.3218 84.6664 59.4747 84.5685 59.6494C84.4705 59.8242 84.4094 60.017 84.3887 60.2162C84.2096 60.2162 84.1774 59.955 84.1953 59.7761C84.2803 59.2715 84.3175 58.76 84.3063 58.2485C84.2988 57.9918 84.236 57.7398 84.1223 57.5095C84.0086 57.2793 83.8466 57.0762 83.6473 56.914C82.999 56.4489 82.1107 56.6779 81.3263 56.8174C80.7174 56.9283 79.5856 57.1752 78.9911 56.9319C78.3965 56.6886 78.4753 55.7584 78.658 55.2432Z" fill="#3F3D56"/>
<path d="M68.3891 76.3589H69.4815C69.7573 73.5218 72.4078 71.2929 75.6241 71.2929C78.9695 71.2929 81.7131 73.7043 81.7919 76.6952C82.15 76.7167 82.5082 76.7345 82.8843 76.7596C82.8306 73.139 79.5963 70.2053 75.6241 70.2053C71.8024 70.2232 68.6613 72.9243 68.3891 76.3589Z" fill="#191919"/>
<g opacity="0.5">
<path d="M100.739 73.5321C100.306 75.482 98.0065 76.9846 95.6032 76.888C93.1998 76.7878 91.6024 75.1278 92.0214 73.1779L93.8123 65.1533C94.2457 63.2034 96.5451 61.7008 98.9485 61.801C101.352 61.8976 102.949 63.5576 102.53 65.5074L100.739 73.5321Z" fill="#191919"/>
<path d="M110.08 73.9107C109.647 75.8605 104.944 85.1445 102.537 85.0443L100.747 84.3038C98.3432 84.2036 98.5294 83.2877 98.9557 81.3379L103.146 65.5354C103.58 63.582 105.879 62.0794 108.282 62.1795C110.689 62.2761 112.283 63.9362 111.864 65.886L110.08 73.9107Z" fill="#191919"/>
</g>
<path d="M84.2849 102.271C84.2849 102.271 90.3738 100.976 94.3818 97.5057C97.5408 94.7795 99.2708 99.3482 98.4757 102.815C97.6805 106.282 88.7835 105.473 85.911 105.198C83.0385 104.922 82.5979 102.726 84.2849 102.271Z" fill="#3F3D56"/>
<path d="M84.9439 102.281C84.9439 102.281 90.6424 101.172 94.4139 98.2025C97.376 95.8698 99.0021 99.7802 98.2535 102.746C97.505 105.712 89.1631 105.018 86.4697 104.785C83.7762 104.553 83.3608 102.667 84.9439 102.281Z" fill="#3F3D56"/>
<path d="M98.1926 102.921C98.2167 102.864 98.2371 102.806 98.2535 102.746C99.0021 99.7802 97.376 95.8698 94.4139 98.2025C94.088 98.4565 93.7513 98.6998 93.4003 98.918C95.7965 99.4797 97.5408 100.882 98.1926 102.921Z" fill="#A5F2C4"/>
<path d="M95.2806 102.339C95.2806 103.517 94.4568 104.486 93.4432 104.486C92.4296 104.486 91.6058 103.531 91.6058 102.339C91.6058 101.148 92.4296 100.193 93.4432 100.193C94.4568 100.193 95.2806 101.162 95.2806 102.339Z" fill="#A5F2C4"/>
<path d="M90.209 103.036C90.209 103.927 89.5858 104.646 88.8193 104.646C88.0528 104.646 87.4332 103.93 87.4332 103.036C87.4332 102.141 88.0528 101.426 88.8193 101.426C89.5858 101.426 90.209 102.145 90.209 103.036Z" fill="#A5F2C4"/>
<path d="M37.1494 101.527C37.1494 102.45 37.7905 103.198 38.5821 103.198C39.3736 103.198 40.0148 102.45 40.0148 101.527C40.0148 100.604 39.3736 99.8527 38.5821 99.8527C37.7905 99.8527 37.1494 100.604 37.1494 101.527Z" fill="#A5F2C4"/>
<path d="M40.0148 102.683C40.0477 102.889 40.139 103.081 40.278 103.237C40.417 103.393 40.5977 103.505 40.7989 103.562C41 103.618 41.2131 103.615 41.4129 103.554C41.6127 103.493 41.7908 103.376 41.926 103.217C42.0613 103.059 42.1481 102.864 42.1761 102.657C42.2042 102.451 42.1723 102.24 42.0842 102.051C41.9962 101.862 41.8556 101.702 41.6793 101.59C41.503 101.478 41.2982 101.419 41.0893 101.42C40.7804 101.448 40.4949 101.596 40.294 101.832C40.0931 102.068 39.9929 102.374 40.0148 102.683Z" fill="#A5F2C4"/>
<path d="M39.6852 98.8114C39.291 98.1065 38.9729 97.3617 38.736 96.5897C37.8334 95.6273 37.3499 97.4662 37.1995 99.6915C37.6436 99.0654 38.7826 98.8436 39.6852 98.8114Z" fill="url(#paint27_linear_9585_100943)"/>
<path d="M98.1926 102.921C98.2167 102.864 98.2371 102.806 98.2535 102.746C99.0021 99.7802 97.376 95.8698 94.4139 98.2025C94.088 98.4565 93.7513 98.6998 93.4003 98.918C95.7965 99.4797 97.5408 100.882 98.1926 102.921Z" fill="url(#paint28_linear_9585_100943)"/>
<path d="M95.2806 102.339C95.2806 103.517 94.4568 104.486 93.4432 104.486C92.4296 104.486 91.6058 103.531 91.6058 102.339C91.6058 101.148 92.4296 100.193 93.4432 100.193C94.4568 100.193 95.2806 101.162 95.2806 102.339Z" fill="url(#paint29_linear_9585_100943)"/>
<path d="M90.209 103.036C90.209 103.927 89.5858 104.646 88.8193 104.646C88.0528 104.646 87.4332 103.93 87.4332 103.036C87.4332 102.141 88.0528 101.426 88.8193 101.426C89.5858 101.426 90.209 102.145 90.209 103.036Z" fill="url(#paint30_linear_9585_100943)"/>
<path d="M37.1494 101.527C37.1494 102.45 37.7905 103.198 38.5821 103.198C39.3736 103.198 40.0148 102.45 40.0148 101.527C40.0148 100.604 39.3736 99.8527 38.5821 99.8527C37.7905 99.8527 37.1494 100.604 37.1494 101.527Z" fill="url(#paint31_linear_9585_100943)"/>
<path d="M40.0148 102.683C40.0477 102.889 40.139 103.081 40.278 103.237C40.417 103.393 40.5977 103.505 40.7989 103.562C41 103.618 41.2131 103.615 41.4129 103.554C41.6127 103.493 41.7908 103.376 41.926 103.217C42.0613 103.059 42.1481 102.864 42.1761 102.657C42.2042 102.451 42.1723 102.24 42.0842 102.051C41.9962 101.862 41.8556 101.702 41.6793 101.59C41.503 101.478 41.2982 101.419 41.0893 101.42C40.7804 101.448 40.4949 101.596 40.294 101.832C40.0931 102.068 39.9929 102.374 40.0148 102.683Z" fill="url(#paint32_linear_9585_100943)"/>
<path d="M105.811 90.2933C105.811 90.4078 105.85 90.4972 105.897 90.4901L107.111 90.3398C107.158 90.3398 107.193 90.2361 107.193 90.1216V89.635C107.193 89.5205 107.158 89.4347 107.111 89.4418L105.893 89.5921C105.847 89.5921 105.811 89.6923 105.811 89.8067V90.2933Z" fill="url(#paint33_linear_9585_100943)"/>
<path d="M123.626 103.992C123.626 104.078 123.655 104.143 123.691 104.139L124.593 104.028C124.629 104.028 124.654 103.95 124.654 103.867V103.509C124.654 103.424 124.626 103.359 124.593 103.363L123.687 103.477C123.655 103.477 123.626 103.552 123.626 103.638V103.992Z" fill="url(#paint34_linear_9585_100943)"/>
<path d="M132.004 102.375C132.004 102.443 132.026 102.497 132.054 102.493L132.796 102.422C132.824 102.422 132.846 102.357 132.846 102.289V101.993C132.846 101.921 132.824 101.871 132.796 101.874L132.054 101.964C132.026 101.964 132.004 102.028 132.004 102.096V102.375Z" fill="url(#paint35_linear_9585_100943)"/>
<path opacity="0.18" d="M79.926 41.354L49.5495 89.9636L38.328 89.5343L65.9931 41.7905L79.926 41.354Z" fill="#A5F2C4"/>
<path opacity="0.18" d="M139.282 64.7659L131.134 72.372L120.851 68.9696L131.155 59.6927L139.282 64.7659Z" fill="#A5F2C4"/>
<path d="M52.06 97.8167H74.8469V104.775H52.06V97.8167Z" fill="url(#paint36_linear_9585_100943)"/>
<path d="M95.4921 93.2727C95.5575 92.87 95.5379 92.4582 95.4348 92.0635C93.7908 96.7967 80.7247 100.55 65.5239 100.55C51.0788 100.55 39.7355 97.1545 38.6216 92.7575C38.5636 92.923 38.5193 93.0929 38.4891 93.2656C37.633 98.2314 49.7034 102.263 65.4415 102.263C81.1795 102.263 94.6325 98.2421 95.4921 93.2727Z" fill="url(#paint37_linear_9585_100943)"/>
<path d="M72.7373 70.474C72.8976 70.5654 73.0387 70.6869 73.1528 70.8318C73.2679 71.0524 73.3246 71.2987 73.3176 71.5473C73.3491 71.7254 73.3175 71.9089 73.228 72.0661C73.117 72.2092 72.8484 72.2271 72.7839 72.0661C72.776 72.1617 72.7469 72.2544 72.6985 72.3374C72.6502 72.4203 72.5839 72.4914 72.5045 72.5455C72.4235 72.5967 72.3267 72.6169 72.2319 72.6025C72.1371 72.588 72.0508 72.5398 71.9888 72.4668C72.0265 72.6502 71.9999 72.8409 71.9135 73.007C71.8061 73.1609 71.5303 73.1931 71.4515 73.0249C71.4157 73.2181 71.344 73.4506 71.1542 73.4972C71.0868 73.5074 71.0179 73.4992 70.9548 73.4734C70.8917 73.4475 70.8368 73.4051 70.796 73.3505C70.7155 73.2394 70.6481 73.1194 70.5955 72.9927C70.5784 72.956 70.5526 72.9241 70.5203 72.8997C70.4757 72.8873 70.4287 72.8873 70.3842 72.8997C70.2818 72.9105 70.1785 72.9105 70.0761 72.8997C70.026 72.8977 69.978 72.8788 69.94 72.846C69.9207 72.8134 69.9096 72.7766 69.9078 72.7387C69.8684 72.2128 70.266 71.7799 70.5489 71.3076C70.7574 70.9317 71.0711 70.6246 71.4515 70.4239C71.6253 70.2977 71.8266 70.2143 72.0389 70.1807C72.2951 70.2093 72.5376 70.3111 72.7373 70.474Z" fill="url(#paint38_linear_9585_100943)"/>
<path d="M83.4288 73.4435C83.6457 73.5394 83.8385 73.6822 83.9934 73.8616C84.1482 74.041 84.2612 74.2526 84.3242 74.481C84.3767 74.713 84.3349 74.9562 84.2079 75.1574C84.081 75.3587 83.8794 75.5014 83.6473 75.5543C83.4235 75.5551 83.201 75.52 82.9882 75.4505C82.5083 75.3468 81.9746 75.3969 81.5556 75.1321L81.423 75.3217C81.3071 75.3371 81.1891 75.319 81.0831 75.2696C80.9771 75.2201 80.8875 75.1414 80.8249 75.0427C80.6852 74.8566 80.6064 74.6277 80.4667 74.4345C80.327 74.2413 80.1372 74.0445 80.0154 73.8191C79.9522 73.7005 79.9132 73.5705 79.9008 73.4367C79.8884 73.3028 79.9028 73.1679 79.9431 73.0397C79.9835 72.9115 80.049 72.7926 80.1358 72.6899C80.2226 72.5873 80.329 72.5029 80.4488 72.4417C80.5956 72.3847 80.7523 72.3575 80.9098 72.3618C81.0673 72.3661 81.2223 72.4018 81.3657 72.4668C81.6988 72.6027 81.9424 72.8746 82.2576 73.0213C82.6337 73.1966 83.0563 73.2395 83.4288 73.4435Z" fill="url(#paint39_linear_9585_100943)"/>
<path d="M87.5764 70.9166C87.6552 71.3066 88.5936 71.9899 88.2927 72.2797C88.4959 72.2305 88.6859 72.1373 88.8492 72.0069C89.0126 71.8765 89.1454 71.712 89.2383 71.5248C89.4388 71.1098 89.0771 70.4909 88.5685 69.4784C88.2415 68.7097 88.0687 67.8844 88.0599 67.0492L88.0169 67.0921C87.6263 68.327 87.4767 69.6254 87.5764 70.9166Z" fill="url(#paint40_linear_9585_100943)"/>
<path d="M86.5126 64.7671L85.2769 68.6095L83.2819 68.4986C83.2819 68.4986 84.6716 63.8941 84.7146 63.2787C84.7576 62.6634 86.6201 63.243 86.5126 64.7671Z" fill="white"/>
<path d="M80.9071 68.1569C80.2061 68.2034 79.5024 68.1854 78.8047 68.1032C78.8906 66.8081 79.4816 65.5988 80.0654 64.4468C80.0781 64.4135 80.0991 64.384 80.1263 64.361C80.1654 64.3386 80.2104 64.3286 80.2553 64.3324H80.8104C80.9239 64.3173 81.0393 64.3386 81.1399 64.3932C81.3548 64.5327 81.0468 65.7885 81.0218 66.0711C80.9609 66.7508 80.9215 67.4556 80.9071 68.1569Z" fill="white"/>
<g clip-path="url(#clip0_9585_100943)">
<path d="M37.6521 27.5503C37.6521 31.9344 35.9105 36.139 32.8105 39.239C29.7105 42.339 25.506 44.0806 21.1219 44.0806C16.7378 44.0806 12.5333 42.339 9.43326 39.239C6.33325 36.139 4.59167 31.9344 4.59167 27.5503C4.59167 23.1663 6.33325 18.9617 9.43326 15.8617C12.5333 12.7617 16.7378 11.0201 21.1219 11.0201C25.506 11.0201 29.7105 12.7617 32.8105 15.8617C35.9105 18.9617 37.6521 23.1663 37.6521 27.5503ZM29.449 21.2895C29.3014 21.1425 29.1256 21.0266 28.9323 20.949C28.7389 20.8714 28.5318 20.8336 28.3235 20.8379C28.1152 20.8421 27.9099 20.8883 27.7198 20.9737C27.5298 21.0592 27.3589 21.182 27.2174 21.335L20.0412 30.4783L15.7165 26.1515C15.4227 25.8777 15.0342 25.7287 14.6327 25.7358C14.2312 25.7429 13.8482 25.9055 13.5642 26.1895C13.2803 26.4734 13.1177 26.8564 13.1106 27.2579C13.1035 27.6594 13.2525 28.048 13.5263 28.3417L18.9936 33.8112C19.1409 33.9582 19.3163 34.074 19.5093 34.1518C19.7024 34.2296 19.9091 34.2677 20.1171 34.2638C20.3252 34.2599 20.5304 34.2142 20.7204 34.1294C20.9104 34.0445 21.0814 33.9222 21.2231 33.7698L29.4717 23.4591C29.7529 23.1667 29.9083 22.7758 29.9044 22.3701C29.9005 21.9645 29.7378 21.5765 29.451 21.2895H29.449Z" fill="#138340"/>
</g>
<defs>
<linearGradient id="paint0_linear_9585_100943" x1="76.6844" y1="57.2428" x2="114.053" y2="159.037" gradientUnits="userSpaceOnUse">
<stop offset="0.01"/>
<stop offset="0.83" stop-opacity="0.07"/>
<stop offset="1" stop-opacity="0"/>
</linearGradient>
<linearGradient id="paint1_linear_9585_100943" x1="138.866" y1="100.328" x2="145.768" y2="100.328" gradientUnits="userSpaceOnUse">
<stop offset="0.01"/>
<stop offset="0.83" stop-opacity="0.07"/>
<stop offset="1" stop-opacity="0"/>
</linearGradient>
<linearGradient id="paint2_linear_9585_100943" x1="143.97" y1="100.461" x2="146.481" y2="100.461" gradientUnits="userSpaceOnUse">
<stop stop-color="white"/>
<stop offset="0.43" stop-color="#FDFDFD"/>
<stop offset="0.68" stop-color="#F5F5F5"/>
<stop offset="0.87" stop-color="#E7E7E8"/>
<stop offset="0.97" stop-color="#DDDEDF"/>
</linearGradient>
<linearGradient id="paint3_linear_9585_100943" x1="94.7973" y1="105.517" x2="126.142" y2="111.182" gradientUnits="userSpaceOnUse">
<stop offset="0.01"/>
<stop offset="0.83" stop-opacity="0.07"/>
<stop offset="1" stop-opacity="0"/>
</linearGradient>
<linearGradient id="paint4_linear_9585_100943" x1="111.424" y1="108.21" x2="115.797" y2="108.21" gradientUnits="userSpaceOnUse">
<stop stop-color="white"/>
<stop offset="0.43" stop-color="#FDFDFD"/>
<stop offset="0.68" stop-color="#F5F5F5"/>
<stop offset="0.87" stop-color="#E7E7E8"/>
<stop offset="0.97" stop-color="#DDDEDF"/>
</linearGradient>
<linearGradient id="paint5_linear_9585_100943" x1="34.7138" y1="105.517" x2="66.0588" y2="111.182" gradientUnits="userSpaceOnUse">
<stop offset="0.01"/>
<stop offset="0.83" stop-opacity="0.07"/>
<stop offset="1" stop-opacity="0"/>
</linearGradient>
<linearGradient id="paint6_linear_9585_100943" x1="51.3401" y1="108.21" x2="55.7134" y2="108.21" gradientUnits="userSpaceOnUse">
<stop stop-color="white"/>
<stop offset="0.43" stop-color="#FDFDFD"/>
<stop offset="0.68" stop-color="#F5F5F5"/>
<stop offset="0.87" stop-color="#E7E7E8"/>
<stop offset="0.97" stop-color="#DDDEDF"/>
</linearGradient>
<linearGradient id="paint7_linear_9585_100943" x1="131.764" y1="101.416" x2="140.45" y2="101.416" gradientUnits="userSpaceOnUse">
<stop offset="0.01"/>
<stop offset="0.83" stop-opacity="0.07"/>
<stop offset="1" stop-opacity="0"/>
</linearGradient>
<linearGradient id="paint8_linear_9585_100943" x1="138.487" y1="101.558" x2="141.231" y2="101.558" gradientUnits="userSpaceOnUse">
<stop stop-color="white"/>
<stop offset="0.43" stop-color="#FDFDFD"/>
<stop offset="0.68" stop-color="#F5F5F5"/>
<stop offset="0.87" stop-color="#E7E7E8"/>
<stop offset="0.97" stop-color="#DDDEDF"/>
</linearGradient>
<linearGradient id="paint9_linear_9585_100943" x1="118.522" y1="57.8118" x2="5.0347" y2="75.5354" gradientUnits="userSpaceOnUse">
<stop offset="0.01"/>
<stop offset="0.83" stop-opacity="0.07"/>
<stop offset="1" stop-opacity="0"/>
</linearGradient>
<linearGradient id="paint10_linear_9585_100943" x1="73.1815" y1="33.7449" x2="67.7495" y2="82.6707" gradientUnits="userSpaceOnUse">
<stop offset="0.01"/>
<stop offset="0.83" stop-opacity="0.07"/>
<stop offset="1" stop-opacity="0"/>
</linearGradient>
<linearGradient id="paint11_linear_9585_100943" x1="69.8362" y1="56.302" x2="74.4896" y2="36.6512" gradientUnits="userSpaceOnUse">
<stop offset="0.01"/>
<stop offset="0.83" stop-opacity="0.07"/>
<stop offset="1" stop-opacity="0"/>
</linearGradient>
<linearGradient id="paint12_linear_9585_100943" x1="113.225" y1="47.0319" x2="73.1694" y2="53.3533" gradientUnits="userSpaceOnUse">
<stop stop-color="#2B2B2B"/>
<stop offset="0.22" stop-color="#2E2E2E"/>
<stop offset="0.41" stop-color="#383939"/>
<stop offset="0.6" stop-color="#494A4B"/>
<stop offset="0.77" stop-color="#616264"/>
<stop offset="0.94" stop-color="#7F8184"/>
<stop offset="1" stop-color="#8D8F92"/>
</linearGradient>
<linearGradient id="paint13_linear_9585_100943" x1="128.182" y1="121.396" x2="120.145" y2="64.2051" gradientUnits="userSpaceOnUse">
<stop offset="0.01"/>
<stop offset="0.83" stop-opacity="0.07"/>
<stop offset="1" stop-opacity="0"/>
</linearGradient>
<linearGradient id="paint14_linear_9585_100943" x1="129.715" y1="44.2206" x2="120.159" y2="97.281" gradientUnits="userSpaceOnUse">
<stop offset="0.01"/>
<stop offset="0.83" stop-opacity="0.07"/>
<stop offset="1" stop-opacity="0"/>
</linearGradient>
<linearGradient id="paint15_linear_9585_100943" x1="107.441" y1="60.0189" x2="108.549" y2="52.1369" gradientUnits="userSpaceOnUse">
<stop stop-color="white" stop-opacity="0"/>
<stop offset="0.12" stop-color="white" stop-opacity="0.04"/>
<stop offset="0.33" stop-color="white" stop-opacity="0.14"/>
<stop offset="0.59" stop-color="white" stop-opacity="0.3"/>
<stop offset="0.89" stop-color="white" stop-opacity="0.52"/>
<stop offset="1" stop-color="white" stop-opacity="0.6"/>
</linearGradient>
<linearGradient id="paint16_linear_9585_100943" x1="64.75" y1="129.365" x2="73.0056" y2="82.8273" gradientUnits="userSpaceOnUse">
<stop offset="0.01"/>
<stop offset="0.83" stop-opacity="0.07"/>
<stop offset="1" stop-opacity="0"/>
</linearGradient>
<linearGradient id="paint17_linear_9585_100943" x1="98.5652" y1="83.192" x2="37.4718" y2="83.192" gradientUnits="userSpaceOnUse">
<stop offset="0.01"/>
<stop offset="0.83" stop-opacity="0.07"/>
<stop offset="1" stop-opacity="0"/>
</linearGradient>
<linearGradient id="paint18_linear_9585_100943" x1="66.0682" y1="70.1476" x2="50.7385" y2="70.1476" gradientUnits="userSpaceOnUse">
<stop offset="0.01"/>
<stop offset="0.83" stop-opacity="0.07"/>
<stop offset="1" stop-opacity="0"/>
</linearGradient>
<linearGradient id="paint19_linear_9585_100943" x1="93.7835" y1="63.7928" x2="65.2197" y2="86.7286" gradientUnits="userSpaceOnUse">
<stop offset="0.01"/>
<stop offset="0.83" stop-opacity="0.07"/>
<stop offset="1" stop-opacity="0"/>
</linearGradient>
<linearGradient id="paint20_linear_9585_100943" x1="80.3628" y1="74.3296" x2="75.1413" y2="70.5066" gradientUnits="userSpaceOnUse">
<stop offset="0.01"/>
<stop offset="0.83" stop-opacity="0.07"/>
<stop offset="1" stop-opacity="0"/>
</linearGradient>
<linearGradient id="paint21_linear_9585_100943" x1="85.0335" y1="80.9135" x2="83.0071" y2="68.5448" gradientUnits="userSpaceOnUse">
<stop offset="0.01"/>
<stop offset="0.83" stop-opacity="0.07"/>
<stop offset="1" stop-opacity="0"/>
</linearGradient>
<linearGradient id="paint22_linear_9585_100943" x1="89.7542" y1="79.9253" x2="83.4958" y2="70.8315" gradientUnits="userSpaceOnUse">
<stop offset="0.01"/>
<stop offset="0.83" stop-opacity="0.07"/>
<stop offset="1" stop-opacity="0"/>
</linearGradient>
<linearGradient id="paint23_linear_9585_100943" x1="85.4488" y1="83.1523" x2="89.3125" y2="69.0397" gradientUnits="userSpaceOnUse">
<stop offset="0.01"/>
<stop offset="0.83" stop-opacity="0.07"/>
<stop offset="1" stop-opacity="0"/>
</linearGradient>
<linearGradient id="paint24_linear_9585_100943" x1="84.7325" y1="63.6888" x2="81.1831" y2="63.6888" gradientUnits="userSpaceOnUse">
<stop stop-color="#E5C5D5"/>
<stop offset="0.42" stop-color="#EAD4D1"/>
<stop offset="1" stop-color="#F0E9CB"/>
</linearGradient>
<linearGradient id="paint25_linear_9585_100943" x1="81.7023" y1="59.7614" x2="82.9031" y2="66.3733" gradientUnits="userSpaceOnUse">
<stop offset="0.01"/>
<stop offset="0.83" stop-opacity="0.07"/>
<stop offset="1" stop-opacity="0"/>
</linearGradient>
<linearGradient id="paint26_linear_9585_100943" x1="85.0906" y1="60.0339" x2="78.7581" y2="60.0339" gradientUnits="userSpaceOnUse">
<stop stop-color="#E5C5D5"/>
<stop offset="0.42" stop-color="#EAD4D1"/>
<stop offset="1" stop-color="#F0E9CB"/>
</linearGradient>
<linearGradient id="paint27_linear_9585_100943" x1="39.6852" y1="98.01" x2="37.1995" y2="98.01" gradientUnits="userSpaceOnUse">
<stop offset="0.02" stop-color="white" stop-opacity="0"/>
<stop offset="0.39" stop-color="white" stop-opacity="0.39"/>
<stop offset="1" stop-color="white"/>
</linearGradient>
<linearGradient id="paint28_linear_9585_100943" x1="98.4362" y1="100.206" x2="93.4003" y2="100.206" gradientUnits="userSpaceOnUse">
<stop offset="0.02" stop-color="white" stop-opacity="0"/>
<stop offset="0.39" stop-color="white" stop-opacity="0.39"/>
<stop offset="1" stop-color="white"/>
</linearGradient>
<linearGradient id="paint29_linear_9585_100943" x1="95.2806" y1="102.339" x2="91.6058" y2="102.339" gradientUnits="userSpaceOnUse">
<stop offset="0.02" stop-color="white" stop-opacity="0"/>
<stop offset="0.39" stop-color="white" stop-opacity="0.39"/>
<stop offset="1" stop-color="white"/>
</linearGradient>
<linearGradient id="paint30_linear_9585_100943" x1="90.209" y1="103.036" x2="87.4332" y2="103.036" gradientUnits="userSpaceOnUse">
<stop offset="0.02" stop-color="white" stop-opacity="0"/>
<stop offset="0.39" stop-color="white" stop-opacity="0.39"/>
<stop offset="1" stop-color="white"/>
</linearGradient>
<linearGradient id="paint31_linear_9585_100943" x1="40.0076" y1="101.527" x2="37.1494" y2="101.527" gradientUnits="userSpaceOnUse">
<stop offset="0.02" stop-color="white" stop-opacity="0"/>
<stop offset="0.39" stop-color="white" stop-opacity="0.39"/>
<stop offset="1" stop-color="white"/>
</linearGradient>
<linearGradient id="paint32_linear_9585_100943" x1="42.1746" y1="102.683" x2="40.0148" y2="102.683" gradientUnits="userSpaceOnUse">
<stop offset="0.02" stop-color="white" stop-opacity="0"/>
<stop offset="0.39" stop-color="white" stop-opacity="0.39"/>
<stop offset="1" stop-color="white"/>
</linearGradient>
<linearGradient id="paint33_linear_9585_100943" x1="108.519" y1="88.797" x2="108.567" y2="89.7838" gradientUnits="userSpaceOnUse">
<stop offset="0.01"/>
<stop offset="0.83" stop-opacity="0.07"/>
<stop offset="1" stop-opacity="0"/>
</linearGradient>
<linearGradient id="paint34_linear_9585_100943" x1="126.289" y1="102.643" x2="126.325" y2="103.374" gradientUnits="userSpaceOnUse">
<stop offset="0.01"/>
<stop offset="0.83" stop-opacity="0.07"/>
<stop offset="1" stop-opacity="0"/>
</linearGradient>
<linearGradient id="paint35_linear_9585_100943" x1="133.071" y1="87.1452" x2="131.817" y2="116.332" gradientUnits="userSpaceOnUse">
<stop offset="0.01"/>
<stop offset="0.83" stop-opacity="0.07"/>
<stop offset="1" stop-opacity="0"/>
</linearGradient>
<linearGradient id="paint36_linear_9585_100943" x1="62.1676" y1="127.883" x2="64.0509" y2="88.8866" gradientUnits="userSpaceOnUse">
<stop offset="0.01"/>
<stop offset="0.83" stop-opacity="0.07"/>
<stop offset="1" stop-opacity="0"/>
</linearGradient>
<linearGradient id="paint37_linear_9585_100943" x1="71.2474" y1="82.7651" x2="57.3417" y2="117.132" gradientUnits="userSpaceOnUse">
<stop offset="0.01"/>
<stop offset="0.83" stop-opacity="0.07"/>
<stop offset="1" stop-opacity="0"/>
</linearGradient>
<linearGradient id="paint38_linear_9585_100943" x1="73.3247" y1="71.8407" x2="69.9042" y2="71.8407" gradientUnits="userSpaceOnUse">
<stop stop-color="#E5C5D5"/>
<stop offset="0.42" stop-color="#EAD4D1"/>
<stop offset="1" stop-color="#F0E9CB"/>
</linearGradient>
<linearGradient id="paint39_linear_9585_100943" x1="84.3386" y1="73.9479" x2="79.9187" y2="73.9479" gradientUnits="userSpaceOnUse">
<stop stop-color="#E5C5D5"/>
<stop offset="0.42" stop-color="#EAD4D1"/>
<stop offset="1" stop-color="#F0E9CB"/>
</linearGradient>
<linearGradient id="paint40_linear_9585_100943" x1="85.3235" y1="71.6465" x2="89.2391" y2="69.0092" gradientUnits="userSpaceOnUse">
<stop offset="0.01"/>
<stop offset="0.83" stop-opacity="0.07"/>
<stop offset="1" stop-opacity="0"/>
</linearGradient>
<clipPath id="clip0_9585_100943">
<rect width="33.0604" height="33.0604" fill="white" transform="translate(4.59167 11.0201)"/>
</clipPath>
</defs>
</svg>
