<svg width="25" height="24" viewBox="0 0 25 24" fill="none" xmlns="http://www.w3.org/2000/svg">
<path d="M10.625 0H14.375C14.9984 0 15.5 0.501562 15.5 1.125V9H19.6109C20.4453 9 20.8625 10.0078 20.2719 10.5984L13.1422 17.7328C12.7906 18.0844 12.2141 18.0844 11.8625 17.7328L4.72344 10.5984C4.13281 10.0078 4.55 9 5.38437 9H9.5V1.125C9.5 0.501562 10.0016 0 10.625 0ZM24.5 17.625V22.875C24.5 23.4984 23.9984 24 23.375 24H1.625C1.00156 24 0.5 23.4984 0.5 22.875V17.625C0.5 17.0016 1.00156 16.5 1.625 16.5H8.50156L10.7984 18.7969C11.7406 19.7391 13.2594 19.7391 14.2016 18.7969L16.4984 16.5H23.375C23.9984 16.5 24.5 17.0016 24.5 17.625ZM18.6875 21.75C18.6875 21.2344 18.2656 20.8125 17.75 20.8125C17.2344 20.8125 16.8125 21.2344 16.8125 21.75C16.8125 22.2656 17.2344 22.6875 17.75 22.6875C18.2656 22.6875 18.6875 22.2656 18.6875 21.75ZM21.6875 21.75C21.6875 21.2344 21.2656 20.8125 20.75 20.8125C20.2344 20.8125 19.8125 21.2344 19.8125 21.75C19.8125 22.2656 20.2344 22.6875 20.75 22.6875C21.2656 22.6875 21.6875 22.2656 21.6875 21.75Z" fill="#FEFFFE"/>
</svg>
