<svg width="540" height="182" viewBox="0 0 540 182" fill="none" xmlns="http://www.w3.org/2000/svg">
<path d="M169.291 179C35.5366 179 82.2392 156.895 61.7948 111.831C24.8947 30.4958 173.137 42.3284 274.75 28.1615C406.563 9.78499 418.42 49.1851 450.545 87.2286C481.296 123.644 568.798 179 435.049 179" fill="#F3F9FF"/>
<path d="M470.876 151.7L463.951 145.685C463.951 145.685 457.84 144.871 455.804 149.154C453.768 153.433 433.247 143.243 433.247 143.243C433.247 143.243 425.235 148.953 423.706 148.097C422.177 147.236 407.19 123.169 404.82 129.636C402.523 135.901 393.213 129.69 388.258 133.795C383.304 137.9 368.904 128.521 368.904 128.521C368.904 128.521 348.198 138.027 346.454 140.361C344.711 142.695 338.811 132.163 338.811 132.163L327.915 120.396L313.492 133.799C313.492 133.799 303.206 142.695 301.462 140.361C299.719 138.031 288.688 130.06 288.688 130.06C288.688 130.06 264.613 137.9 259.658 133.799C254.704 129.694 245.393 135.905 243.096 129.64C240.727 123.177 229.945 138.031 228.417 138.887C226.888 139.744 214.666 143.251 214.666 143.251C214.666 143.251 194.145 153.44 192.109 149.162C190.073 144.883 183.962 145.693 183.962 145.693L168.776 151.824L109.688 168.313L34.1683 178.954H511.531L492.872 168.313L470.876 151.712V151.7Z" fill="#D2EECD"/>
<path d="M95.1595 152.968H85.2078V178.998H95.1595V152.968Z" fill="black"/>
<path d="M106.286 140.437H97.5331V178.995H106.286V140.437Z" fill="#E6E3DE"/>
<path d="M116.376 156.779H99.561V178.998H116.376V156.779Z" fill="black"/>
<path d="M101.908 164.696H92.0406V178.994H101.908V164.696Z" fill="black"/>
<path d="M118.612 147.721H112.048V178.999H118.612V147.721Z" fill="#E6E3DE"/>
<path d="M137.359 129.167H122.741V178.998H137.359V129.167Z" fill="#E6E3DE"/>
<path d="M152.811 110.278H144.073V178.998H152.811V110.278Z" fill="#E6E3DE"/>
<path d="M165.344 124.638H154.693V178.999H165.344V124.638Z" fill="#E6E3DE"/>
<path d="M131.932 159.789H116.376V178.999H131.932V159.789Z" fill="black"/>
<path d="M147.165 144.904H138.588V178.994H147.165V144.904Z" fill="#E6E3DE"/>
<path d="M141.757 168.242H135.496V178.999H141.757V168.242Z" fill="black"/>
<path d="M88.3342 168.242H82.0736V178.999H88.3342V168.242Z" fill="black"/>
<path d="M156.552 157.486H144.073V178.998H156.552V157.486Z" fill="#E6E3DE"/>
<path d="M191.654 150.198H163.996V178.999H191.654V150.198Z" fill="black"/>
<path d="M270.599 168.211H242.937V178.998H270.599V168.211Z" fill="black"/>
<path d="M196.716 166.792H191.654V178.995H196.716V166.792Z" fill="black"/>
<path d="M212.233 147.35H194.185V178.998H212.233V147.35Z" fill="#E6E3DE"/>
<path d="M228.423 159.163H214.93V178.994H228.423V159.163Z" fill="black"/>
<path d="M232.809 144.252H225.05V178.999H232.809V144.252Z" fill="#E6E3DE"/>
<path d="M174.45 119.668H168.716V178.998H174.45V119.668Z" fill="#E6E3DE"/>
<path d="M189.545 159.897H184.752V178.999H189.545V159.897Z" fill="black"/>
<path d="M21.407 152.967H11.4553V178.998H21.407V152.967Z" fill="#C7B299"/>
<path d="M32.5379 140.436H23.7845V178.994H32.5379V140.436Z" fill="#C7B299"/>
<path d="M42.628 156.779H25.8126V178.998H42.628V156.779Z" fill="#C7B299"/>
<path d="M28.1593 164.696H18.2921V178.994H28.1593V164.696Z" fill="#C7B299"/>
<path d="M44.8595 147.72H38.2993V178.998H44.8595V147.72Z" fill="#C7B299"/>
<path d="M63.6105 129.167H48.9922V178.998H63.6105V129.167Z" fill="#C7B299"/>
<path d="M79.0624 97.4104H70.3244V178.994H79.0624V97.4104Z" fill="#C7B299"/>
<path d="M91.5953 124.637H80.9407V178.998H91.5953V124.637Z" fill="#C7B299"/>
<path d="M58.1834 159.788H42.6279V178.998H58.1834V159.788Z" fill="#C7B299"/>
<path d="M73.4162 144.904H64.8395V178.994H73.4162V144.904Z" fill="#C7B299"/>
<path d="M68.0084 168.242H61.7478V178.998H68.0084V168.242Z" fill="#C7B299"/>
<path d="M14.5856 168.242H8.32501V178.998H14.5856V168.242Z" fill="#C7B299"/>
<path d="M82.8034 157.485H70.3244V178.998H82.8034V157.485Z" fill="#C7B299"/>
<path d="M117.905 150.197H90.247V178.998H117.905V150.197Z" fill="#C7B299"/>
<path d="M196.851 150.197H169.189V178.998H196.851V150.197Z" fill="#C7B299"/>
<path d="M122.967 166.791H117.905V178.994H122.967V166.791Z" fill="#C7B299"/>
<path d="M138.485 147.35H120.436V178.998H138.485V147.35Z" fill="#C7B299"/>
<path d="M141.181 131.381H135.447V178.998H141.181V131.381Z" fill="#C7B299"/>
<path d="M154.674 159.163H141.181V178.994H154.674V159.163Z" fill="#C7B299"/>
<path d="M159.06 144.251H151.302V178.998H159.06V144.251Z" fill="#C7B299"/>
<path d="M175.925 134.167H157.374V178.998H175.925V134.167Z" fill="#C7B299"/>
<path d="M100.702 119.668H94.9674V178.998H100.702V119.668Z" fill="#C7B299"/>
<path d="M115.796 159.896H111.003V178.998H115.796V159.896Z" fill="#C7B299"/>
<path d="M256.929 162.204H244.627V178.998H256.929V162.204Z" fill="#C7B299"/>
<path d="M241.693 154.121H230.869V178.998H241.693V154.121Z" fill="#C7B299"/>
<path d="M239.181 164.665H218.39V178.998H239.181V164.665Z" fill="#C7B299"/>
<path d="M248.483 169.773H236.281V178.998H248.483V169.773Z" fill="#C7B299"/>
<path d="M223.744 158.82H215.632V178.998H223.744V158.82Z" fill="#C7B299"/>
<path d="M210.52 146.849H192.449V178.995H210.52V146.849Z" fill="#C7B299"/>
<path d="M184.145 126.366H173.341V178.998H184.145V126.366Z" fill="#C7B299"/>
<path d="M171.017 148.712H157.847V178.998H171.017V148.712Z" fill="#C7B299"/>
<path d="M218.39 166.606H199.159V178.998H218.39V166.606Z" fill="#C7B299"/>
<path d="M190.928 157.003H180.323V178.998H190.928V157.003Z" fill="#C7B299"/>
<path d="M194.75 172.057H187.01V178.998H194.75V172.057Z" fill="#C7B299"/>
<path d="M260.801 172.057H253.062V178.998H260.801V172.057Z" fill="#C7B299"/>
<path d="M184.145 165.117H168.712V178.994H184.145V165.117Z" fill="#C7B299"/>
<path d="M159.513 160.417H125.314V178.998H159.513V160.417Z" fill="#C7B299"/>
<path d="M61.9091 167.594H21.4071V178.998H61.9091V167.594Z" fill="#C7B299"/>
<path d="M125.314 171.124H119.058V178.998H125.314V171.124Z" fill="#C7B299"/>
<path d="M122.188 158.582H99.8723V178.999H122.188V158.582Z" fill="#C7B299"/>
<path d="M103.629 148.276H96.5385V178.994H103.629V148.276Z" fill="#C7B299"/>
<path d="M96.5384 166.2H79.8536V178.994H96.5384V166.2Z" fill="#C7B299"/>
<path d="M84.0249 156.583H74.4304V178.998H84.0249V156.583Z" fill="#C7B299"/>
<path d="M76.5161 150.074H53.5784V178.994H76.5161V150.074Z" fill="#C7B299"/>
<path d="M153.675 146.628H146.585V178.998H153.675V146.628Z" fill="#C7B299"/>
<path d="M133.853 166.675H127.926V178.998H133.853V166.675Z" fill="#C7B299"/>
<path d="M57.233 141.482H55.1369V146.282H57.233V141.482Z" fill="#D3D4DD"/>
<path d="M77.5919 150.312H34.7779V179.044H77.5919V150.312Z" fill="#F2F2F8"/>
<path d="M78.1726 148.298H34.2V150.313H78.1726V148.298Z" fill="#D3D4DD"/>
<path d="M68.3127 146.282H44.0598V148.297H68.3127V146.282Z" fill="#F2F2F8"/>
<path d="M77.5919 170.465H34.7779V177.779H77.5919V170.465Z" fill="#937669"/>
<path d="M37.1723 170.465H34.7779V177.776H37.1723V170.465Z" fill="#F2F2F8"/>
<path d="M45.2558 170.465H42.8614V177.776H45.2558V170.465Z" fill="#F2F2F8"/>
<path d="M53.3418 170.465H50.9474V177.776H53.3418V170.465Z" fill="#F2F2F8"/>
<path d="M61.4253 170.465H59.0309V177.776H61.4253V170.465Z" fill="#F2F2F8"/>
<path d="M69.5086 170.465H67.1142V177.776H69.5086V170.465Z" fill="#F2F2F8"/>
<path d="M77.5921 170.465H75.1977V177.776H77.5921V170.465Z" fill="#F2F2F8"/>
<path d="M77.5919 161.483H34.7779V168.794H77.5919V161.483Z" fill="#937669"/>
<path d="M37.1723 161.483H34.7779V168.797H37.1723V161.483Z" fill="#F2F2F8"/>
<path d="M45.2556 161.483H42.8612V168.797H45.2556V161.483Z" fill="#F2F2F8"/>
<path d="M53.3417 161.483H50.9473V168.797H53.3417V161.483Z" fill="#F2F2F8"/>
<path d="M61.425 161.483H59.0306V168.797H61.425V161.483Z" fill="#F2F2F8"/>
<path d="M69.5085 161.483H67.1141V168.797H69.5085V161.483Z" fill="#F2F2F8"/>
<path d="M77.5919 161.483H75.1975V168.797H77.5919V161.483Z" fill="#F2F2F8"/>
<path d="M77.5919 152.499H34.7779V159.813H77.5919V152.499Z" fill="#937669"/>
<path d="M37.1723 152.499H34.7779V159.809H37.1723V152.499Z" fill="#F2F2F8"/>
<path d="M45.2556 152.499H42.8612V159.809H45.2556V152.499Z" fill="#F2F2F8"/>
<path d="M53.3417 152.499H50.9473V159.809H53.3417V152.499Z" fill="#F2F2F8"/>
<path d="M61.425 152.499H59.0306V159.809H61.425V152.499Z" fill="#F2F2F8"/>
<path d="M69.5085 152.499H67.1141V159.809H69.5085V152.499Z" fill="#F2F2F8"/>
<path d="M77.5919 152.499H75.1975V159.809H77.5919V152.499Z" fill="#F2F2F8"/>
<path d="M78.1726 169.631H34.2V170.465H78.1726V169.631Z" fill="#D3D4DD"/>
<path d="M78.1726 178.211H34.2V179.045H78.1726V178.211Z" fill="#D3D4DD"/>
<path d="M78.1726 160.646H34.2V161.48H78.1726V160.646Z" fill="#D3D4DD"/>
<path d="M78.1726 151.665H34.2V152.499H78.1726V151.665Z" fill="#D3D4DD"/>
<path opacity="0.1" d="M78.1726 179.045H34.8552L78.1726 150.348V179.045Z" fill="#020041"/>
<path d="M464.25 153.185H442.307V170.365H464.25V153.185Z" fill="#F8F8F8"/>
<path d="M465.183 149.616H441.37V153.185H465.183V149.616Z" fill="#A1867B"/>
<path d="M465.183 149.617H441.37L443.025 145.909H463.528L465.183 149.617Z" fill="#B29B92"/>
<path d="M465.183 151.399H441.37V153.181H465.183V151.399Z" fill="#805C4D"/>
<path d="M455.02 163.37H451.475V169.242H455.02V163.37Z" fill="#A1867B"/>
<path d="M462.057 161.264H456.802V162.028H462.057V161.264Z" fill="#A1867B"/>
<path d="M455.873 161.264H450.619V162.028H455.873V161.264Z" fill="#A1867B"/>
<path d="M449.693 161.264H444.439V162.028H449.693V161.264Z" fill="#A1867B"/>
<path d="M462.057 167.429H456.802V168.193H462.057V167.429Z" fill="#A1867B"/>
<path d="M449.693 167.429H444.439V168.193H449.693V167.429Z" fill="#A1867B"/>
<path d="M461.726 161.265H457.133V155.393H461.726V161.265ZM455.547 155.393H450.953V161.265H455.547V155.393ZM449.367 155.393H444.773V161.265H449.367V155.393ZM461.73 163.371H457.137V167.426H461.73V163.371ZM449.367 163.371H444.773V167.426H449.367V163.371Z" fill="#805C4D"/>
<path d="M456.722 169.243H449.77V170.366H456.722V169.243Z" fill="#B29B92"/>
<path opacity="0.1" d="M464.246 170.365H442.303L464.246 153.201V170.365Z" fill="#B3A6A1"/>
<path d="M464.25 153.185H442.307V154.234H464.25V153.185Z" fill="#E6E6E6"/>
<path d="M451.383 144.894H447.999V146.923H451.383V144.894Z" fill="#805C4D"/>
<path d="M405.439 173.14L489.216 179.093H71.6284L34.1683 178.946L98.1035 166.801L106.461 164.088C106.461 164.088 113.836 163.722 116.294 165.651C118.752 167.584 143.011 164.393 143.011 164.393C143.011 164.393 152.932 161.341 154.779 160.952C156.627 160.566 170.915 156.631 177.771 157.819C184.631 159.011 191.84 156.866 197.82 158.718C203.801 160.57 216.921 157.557 221.177 156.337C225.432 155.118 246.169 160.628 248.274 161.681C250.379 162.734 384.107 169.062 388.531 171.307C392.956 173.549 405.435 173.14 405.435 173.14H405.439Z" fill="#A6DC9B"/>
<path d="M488.501 171.67L534.308 179.097H198.024L162.58 175.424L204.887 172.106L218.204 170.563C218.204 170.563 229.957 170.355 233.875 171.454C237.792 172.554 276.454 170.741 276.454 170.741C276.454 170.741 298.244 172.504 301.182 172.284C304.12 172.064 320.916 166.327 331.848 167.006C342.775 167.685 354.271 166.462 363.8 167.515C373.329 168.568 394.239 166.855 401.022 166.161C407.801 165.466 440.848 168.599 444.205 169.197C447.558 169.795 460.294 166.238 467.346 167.511C474.398 168.784 488.501 171.67 488.501 171.67Z" fill="#79CA69"/>
<path d="M94.903 136.638L91.549 140.922L92.4194 140.741L92.0557 141.809L88.5029 145.243L90.4611 145.256L88.6831 147.816L86.6161 149.555L88.4656 150.77L84.0424 154.389L88.0304 155.669L82.2861 160.04L86.0721 161.801L80.9589 165.666L84.8474 165.632L85.8545 166.1L91.6205 167.218L101.521 166.528L109.027 164.261L104.132 162.784L106.308 161.801L101.412 156.78L103.37 156.412L100.542 151.41L103.261 150.376L99.6898 147.317L102.354 146.489L98.49 144.272L99.8888 143.679L97.3865 141.047L98.1481 140.135L94.903 136.638Z" fill="#5DB66A"/>
<path d="M95.8696 170.262H92.7021L93.3611 166.125H95.537L95.5618 167.948L95.8696 170.262Z" fill="#5DB66A"/>
<path d="M91.6204 167.219L101.521 166.529L109.027 164.262L104.132 162.785L106.307 161.802L101.412 156.781L103.37 156.412L100.541 151.41L102.599 150.63L99.6897 147.317L100.147 146.49L98.4899 144.273L99.8887 143.68L97.3864 141.048L98.148 140.136L95.1422 137.017L95.4282 139.742L93.9051 140.629L96.1897 141.519L95.9721 144.37L93.5072 145.16L96.1897 147.72L94.2843 151.41L99.5996 154.748L98.5707 155.791L94.3309 157.106L97.374 161.221L100.541 163.335L85.7177 166.063L85.8544 166.101L91.6204 167.219Z" fill="#2E944D"/>
<g opacity="0.2">
<path d="M88.0304 155.668L82.2862 160.04L94.3311 157.105L89.0966 156.63L88.0304 155.668Z" fill="black"/>
<path d="M88.4654 150.77L84.0422 154.388L88.0303 155.668L90.4424 151.129L88.4654 150.77Z" fill="black"/>
<path d="M86.6161 149.555L87.3404 150.03L92.6339 146.489L89.6903 146.367L88.6832 147.816L86.6161 149.555Z" fill="black"/>
<path d="M86.0721 161.801L80.9589 165.666L91.0859 162.097L86.0721 161.801Z" fill="black"/>
<path d="M92.1366 141.568L92.0558 141.809L88.5029 145.243L89.0966 145.246L93.669 141.568H92.1366Z" fill="black"/>
<path d="M92.1024 140.81L93.9425 139.336L94.903 136.638L91.5491 140.922L92.1024 140.81Z" fill="black"/>
</g>
<path d="M93.3518 170.262L93.6688 166.125H93.3611L92.7021 170.262H93.3518Z" fill="#2E944D"/>
<g opacity="0.2">
<path d="M89.8488 150.492L91.0362 149.571V150.367L89.8488 150.492Z" fill="black"/>
<path d="M96.0438 150.03L97.2312 149.109V149.905L96.0438 150.03Z" fill="black"/>
<path d="M92.8764 144.085V144.919L93.495 144.5L92.8764 144.085Z" fill="black"/>
<path d="M89.0967 154.748H90.4426V153.687L89.0967 154.748Z" fill="black"/>
<path d="M95.6989 140.55H97.0448V139.492L95.6989 140.55Z" fill="black"/>
<path d="M99.0714 153.04H100.417V151.981L99.0714 153.04Z" fill="black"/>
<path d="M89.1744 161.267L87.8502 160.105L87.2068 160.958L89.1744 161.267Z" fill="black"/>
<path d="M90.0042 163.734L89.2769 164.895H88.189L90.0042 163.734Z" fill="black"/>
<path d="M92.2112 144.94L91.5025 145.552L90.887 144.94H92.2112Z" fill="black"/>
<path d="M92.7366 155.597L93.9209 155.291L92.4475 154.676L92.7366 155.597Z" fill="black"/>
</g>
<g opacity="0.5">
<path d="M104.312 161.71H103.006L104.312 162.513V161.71Z" fill="#2E944D"/>
<path d="M97.6756 157.854H96.3701L97.6756 158.659V157.854Z" fill="#2E944D"/>
<path d="M100.395 165.073H99.0898L100.395 165.875V165.073Z" fill="#2E944D"/>
<path d="M100.542 155.668L98.947 156.074L100.542 156.708V155.668Z" fill="#2E944D"/>
<path d="M95.9007 151.41L97.3741 151.816L96.1898 152.512L95.9007 151.41Z" fill="#2E944D"/>
<path d="M97.0228 141.971L98.4962 142.377L97.315 143.073L97.0228 141.971Z" fill="#2E944D"/>
<path d="M98.5336 148.2H97.7596L98.5336 148.943V148.2Z" fill="#2E944D"/>
</g>
<path d="M478.669 163.312C477.202 162.88 475.95 161.785 475.378 160.226C474.756 158.528 475.105 156.719 476.131 155.395C474.998 152.159 476.53 148.601 479.657 147.344C480.402 147.047 481.166 146.908 481.923 146.908C480.978 143.752 482.514 140.364 485.548 139.145C488.763 137.853 492.435 139.485 493.753 142.791C494.294 144.145 494.344 145.569 494.006 146.869C494.014 146.873 494.018 146.881 494.025 146.884C496.967 146.248 500.048 147.861 501.235 150.827C501.415 151.279 501.534 151.738 501.611 152.197C502.537 152.895 502.905 154.18 502.429 155.326C502.176 155.939 501.722 156.402 501.181 156.68C501.757 159.115 500.459 161.646 498.077 162.529C495.957 163.312 493.645 162.541 492.362 160.789C491.483 161.487 490.307 161.812 489.117 161.58C488.46 162.896 487.357 163.976 485.902 164.562C484.903 164.964 483.862 165.083 482.864 164.96C482.649 165.573 482.176 166.086 481.523 166.329C480.356 166.761 479.057 166.16 478.627 164.983C478.424 164.423 478.454 163.833 478.666 163.324L478.669 163.312Z" fill="#1A9735"/>
<path d="M488.402 165.554C488.383 164.917 488.383 164.416 488.433 163.617C486.655 163.004 485.621 158.054 485.621 158.054C486.962 160.947 488.037 162.429 488.594 162.583C488.656 161.962 488.736 160.484 488.771 159.863C488.802 159.311 488.836 158.794 488.909 158.366C489.024 157.691 488.683 154.651 488.982 154.361C488.982 154.361 489.543 158.81 489.777 158.316C490.511 156.769 490.91 156.533 491.786 155.226C491.894 155.064 489.777 159.566 489.8 159.821C489.889 160.835 490.004 162.309 490.146 164.439C490.807 164.068 491.817 163.347 492.377 162.868C491.993 161.553 493.23 158.972 493.23 158.972C493.192 160.365 492.662 162.216 492.911 162.39C493.453 161.742 496.176 159.697 496.818 158.856C496.818 158.856 493.011 163.875 490.246 165.812C490.373 167.44 490.422 170.126 490.492 170.646C490.63 171.734 490.845 172.992 491.064 173.941H487.838C487.891 173.471 488.01 173.019 488.022 172.518C488.041 171.515 488.072 167.984 488.187 167.282C484.17 165.276 480.793 160.442 480.793 160.442C483.682 163.277 487.208 165.465 488.41 165.558L488.402 165.554Z" fill="#AAE3B6"/>
<path d="M487.104 140.6C484.166 140.985 483.278 141.927 481.842 143.443C482.318 141.549 483.632 139.913 485.548 139.145C488.763 137.853 492.435 139.485 493.753 142.791C494.294 144.145 494.344 145.569 494.006 146.869C494.014 146.873 494.018 146.881 494.025 146.884C496.967 146.248 500.048 147.861 501.235 150.827C501.35 151.121 501.442 151.422 501.515 151.719C497.54 147.162 489.578 150.04 491.102 148.864C494.413 146.31 492.654 139.878 487.104 140.603V140.6Z" fill="#1A9735"/>
<path d="M483.248 148.223C482.191 148.319 480.202 148.585 478.604 149.322C478.016 149.592 476.711 150.445 476.307 150.607C476.941 149.164 478.101 147.968 479.66 147.339C480.405 147.042 481.17 146.903 481.926 146.903C481.926 146.903 485.068 148.053 483.248 148.223Z" fill="#1A9735"/>
<path d="M494.448 151.167C494.448 151.645 494.832 152.031 495.308 152.031C495.784 152.031 496.168 151.645 496.168 151.167C496.168 150.688 495.784 150.302 495.308 150.302C494.832 150.302 494.448 150.688 494.448 151.167Z" fill="#1A9735"/>
<path d="M495.719 153.057C495.719 153.837 496.349 154.469 497.125 154.469C497.901 154.469 498.531 153.837 498.531 153.057C498.531 152.278 497.901 151.645 497.125 151.645C496.349 151.645 495.719 152.278 495.719 153.057Z" fill="#1A9735"/>
<path d="M496.722 150.612C496.722 150.835 496.902 151.017 497.125 151.017C497.348 151.017 497.528 150.835 497.528 150.612C497.528 150.388 497.348 150.207 497.125 150.207C496.902 150.207 496.722 150.388 496.722 150.612Z" fill="#1A9735"/>
<g opacity="0.5">
<path d="M475.378 160.226C474.756 158.528 475.105 156.719 476.131 155.395C477.582 155.951 478.808 155.476 478.808 155.476C478.808 155.476 478.07 159.805 482.376 160.886C486.347 161.881 488.794 156.537 488.794 156.537C488.794 156.537 492.281 158.725 496.779 158.331C498.907 158.146 498.934 155.77 499.871 154.365C500.804 152.961 500.497 155.48 501.592 155.106C501.98 154.975 502.318 154.851 502.59 154.751C502.556 154.94 502.51 155.133 502.429 155.318C502.176 155.932 501.722 156.395 501.181 156.672C501.757 159.107 500.459 161.638 498.077 162.521C495.957 163.305 493.645 162.533 492.362 160.781C491.483 161.48 490.307 161.804 489.117 161.572C488.46 162.888 487.357 163.968 485.902 164.555C484.903 164.956 483.862 165.075 482.864 164.952C482.649 165.565 482.176 166.079 481.523 166.322C480.356 166.754 479.057 166.152 478.627 164.975C478.424 164.416 478.454 163.825 478.666 163.316C477.198 162.884 475.946 161.788 475.374 160.23L475.378 160.226Z" fill="#AAE3B6"/>
<path d="M479.43 156.626C479.43 157.379 480.037 157.988 480.786 157.988C481.535 157.988 482.145 157.379 482.145 156.626C482.145 155.874 481.539 155.264 480.786 155.264C480.033 155.264 479.43 155.874 479.43 156.626Z" fill="#AAE3B6"/>
<path d="M478.201 153.247C478.201 153.725 478.585 154.111 479.061 154.111C479.537 154.111 479.922 153.725 479.922 153.247C479.922 152.769 479.537 152.383 479.061 152.383C478.585 152.383 478.201 152.769 478.201 153.247Z" fill="#AAE3B6"/>
<path d="M479.925 154.427C479.925 154.778 480.21 155.064 480.559 155.064C480.909 155.064 481.193 154.778 481.193 154.427C481.193 154.076 480.909 153.791 480.559 153.791C480.21 153.791 479.925 154.076 479.925 154.427Z" fill="#AAE3B6"/>
<path d="M487.888 142.514C487.888 143.019 488.295 143.428 488.798 143.428C489.301 143.428 489.708 143.019 489.708 142.514C489.708 142.008 489.301 141.599 488.798 141.599C488.295 141.599 487.888 142.008 487.888 142.514Z" fill="#AAE3B6"/>
<path d="M489.766 144.365C489.766 144.774 490.096 145.102 490.499 145.102C490.903 145.102 491.233 144.774 491.233 144.365C491.233 143.956 490.906 143.628 490.499 143.628C490.092 143.628 489.766 143.96 489.766 144.365Z" fill="#AAE3B6"/>
</g>
<path d="M489.942 166.476V165.867L490.246 165.944C490.369 167.58 490.419 170.138 490.48 170.643C490.618 171.731 490.833 172.989 491.052 173.938H490.342L489.939 171.631V166.476H489.942Z" fill="#C5E3B0"/>
<path d="M493.587 160.619C493.587 161.098 493.971 161.484 494.448 161.484C494.924 161.484 495.308 161.098 495.308 160.619C495.308 160.141 494.924 159.755 494.448 159.755C493.971 159.755 493.587 160.141 493.587 160.619Z" fill="#AAE3B6"/>
<path d="M492.796 159.226C492.796 159.535 493.046 159.782 493.349 159.782C493.653 159.782 493.902 159.535 493.902 159.226C493.902 158.918 493.657 158.671 493.349 158.671C493.042 158.671 492.796 158.922 492.796 159.226Z" fill="#AAE3B6"/>
<path opacity="0.5" d="M288.158 78.1876C286.91 78.1645 285.692 78.1529 284.494 78.1491C283.629 76.328 271.765 74.6575 257.204 74.3604C242.067 74.0517 229.78 75.3481 229.753 77.2501C229.742 78.342 233.771 79.3952 240.059 80.1553C233.89 80.4562 229.707 81.197 229.692 82.1461C229.677 83.535 238.603 84.839 249.638 85.0628C258.602 85.2441 266.2 84.6538 268.738 83.6816C273.685 84.4031 280.518 84.9278 288.077 85.0821C303.214 85.3907 315.505 84.0944 315.532 82.1924C315.555 80.2903 303.302 78.4963 288.162 78.1876H288.158Z" fill="#CECECE"/>
<path d="M142.32 83.3396C143.902 83.3088 145.442 83.2933 146.96 83.2817C148.058 81.3141 163.076 79.4622 181.504 79.088C200.663 78.6983 216.207 80.0486 216.237 82.105C216.249 83.2818 211.148 84.4353 203.19 85.2803C210.998 85.585 216.291 86.3644 216.303 87.3906C216.322 88.8876 205.022 90.3344 191.057 90.616C179.711 90.8475 170.093 90.2379 166.886 89.2001C160.622 89.9987 151.972 90.589 142.408 90.7819C123.25 91.1716 107.698 89.8174 107.671 87.7649C107.648 85.7085 123.158 83.7293 142.316 83.3396H142.32Z" fill="white"/>
<path d="M262.301 88.2246C266.315 86.3033 292.172 84.9723 320.045 85.25C336.031 85.4082 349.174 86.0641 356.76 86.9515C364.657 86.2339 377.842 85.8249 391.716 85.9638C412.042 86.1644 426.153 87.4646 423.207 88.8612C420.849 89.9994 407.936 90.852 392.288 91.0218C400.081 91.7432 403.907 92.6615 401.917 93.6221C397.896 95.5435 372.043 96.8745 344.169 96.5968C316.292 96.319 296.931 94.5404 300.94 92.619C301.271 92.4609 301.805 92.3104 302.408 92.1599C276.236 91.7857 258.453 90.0688 262.305 88.2246H262.301Z" fill="white"/>
<path d="M217.121 120.128C216.402 120.849 215.998 121.829 215.998 122.85V132.804H196.833C194.716 132.804 193 134.528 193 136.654V152.052C193 154.178 194.716 155.902 196.833 155.902H215.998V179H223.664V155.902H237.2C238.338 155.902 239.417 155.395 240.145 154.517L247.556 145.585C248.148 144.871 248.148 143.835 247.556 143.121L240.145 134.189C239.417 133.312 238.338 132.804 237.2 132.804H223.664V122.85C223.664 121.829 223.26 120.849 222.541 120.128C221.044 118.624 218.617 118.624 217.121 120.128Z" fill="#138340"/>
<path d="M216.837 146.007V145.878C216.841 145.278 216.897 144.801 217.006 144.446C217.119 144.091 217.278 143.806 217.484 143.591C217.689 143.372 217.939 143.172 218.234 142.989C218.436 142.863 218.617 142.726 218.776 142.577C218.939 142.424 219.066 142.255 219.159 142.07C219.252 141.881 219.298 141.67 219.298 141.438C219.298 141.176 219.237 140.949 219.114 140.757C218.992 140.565 218.826 140.416 218.617 140.31C218.412 140.204 218.181 140.151 217.926 140.151C217.691 140.151 217.467 140.202 217.255 140.305C217.046 140.404 216.872 140.557 216.733 140.762C216.597 140.964 216.521 141.221 216.504 141.533H214.734C214.751 140.903 214.903 140.376 215.192 139.952C215.483 139.527 215.868 139.209 216.345 138.997C216.826 138.785 217.356 138.679 217.936 138.679C218.569 138.679 219.126 138.79 219.606 139.012C220.09 139.234 220.467 139.551 220.735 139.962C221.007 140.369 221.143 140.853 221.143 141.413C221.143 141.791 221.081 142.129 220.959 142.428C220.839 142.726 220.669 142.991 220.447 143.223C220.225 143.455 219.961 143.662 219.656 143.844C219.388 144.01 219.167 144.183 218.995 144.362C218.826 144.54 218.7 144.751 218.617 144.993C218.538 145.232 218.496 145.527 218.493 145.878V146.007H216.837ZM217.702 149.109C217.404 149.109 217.147 149.003 216.932 148.791C216.716 148.579 216.609 148.321 216.609 148.016C216.609 147.717 216.716 147.462 216.932 147.25C217.147 147.038 217.404 146.932 217.702 146.932C217.997 146.932 218.253 147.038 218.468 147.25C218.687 147.462 218.796 147.717 218.796 148.016C218.796 148.218 218.745 148.402 218.642 148.567C218.543 148.733 218.41 148.866 218.244 148.965C218.082 149.061 217.901 149.109 217.702 149.109Z" fill="white"/>
</svg>
