<svg width="220" height="136" viewBox="0 0 220 136" fill="none" xmlns="http://www.w3.org/2000/svg">
<g clip-path="url(#clip0_9663_677)">
<path d="M169.988 94.5866C168.795 99.641 165.522 103.781 161.564 107.238C159.541 109.004 157.397 110.629 155.149 112.101C151.104 114.834 146.847 117.336 142.181 118.728C129.166 122.592 114.614 117.346 101.828 121.859C96.8734 123.598 92.5516 126.705 87.9333 129.18C77.4937 134.796 65.3354 136.861 53.5806 135.68C37.5488 134.063 22.5582 125.353 12.5371 113.177C-1.12833 96.5944 -5.56472 73.5862 9.1394 53.319C16.9735 42.5417 28.9699 35.5838 38.169 25.9397C42.1545 21.7799 45.602 17.1157 50.011 13.4131C55.1822 9.07186 61.4694 6.25392 67.8363 3.98764C80.595 -0.532488 95.6329 -2.72173 107.009 4.589C121.848 14.1461 123.86 35.0968 135.11 48.682C141.571 56.4773 150.76 61.4572 158.365 68.1492C165.97 74.8412 172.327 84.7412 169.988 94.5866Z" fill="white"/>
<path opacity="0.55" d="M31.3997 125.949C30.0769 126.019 28.7031 126.029 27.4863 125.506C27.2594 125.433 27.066 125.282 26.9407 125.079C26.6188 124.431 27.6001 123.943 28.3145 123.874L38.5866 122.883C40.4432 122.703 42.5295 122.401 43.6325 120.897C44.2624 120.039 44.6137 118.773 45.6598 118.546C46.3035 118.409 47.0945 118.728 47.5655 118.27C47.8265 118.019 47.8716 117.625 48.0365 117.304C48.4702 116.465 49.585 116.305 50.5309 116.277C57.2136 116.081 63.8334 117.415 70.4905 118.003C76.1761 118.504 81.8966 118.464 87.5748 117.886C86.568 119.749 84.1932 120.332 82.0795 120.542C77.2241 121.026 72.2666 120.558 67.4936 121.522C67.6511 122.112 67.9706 122.646 68.416 123.065C66.9009 123.653 65.2464 123.718 63.6253 123.784L46.804 124.495C44.3704 124.593 41.8072 124.415 39.4384 124.887C36.7871 125.429 34.1009 125.783 31.3997 125.949Z" fill="#A5F2C4"/>
<path d="M54.9781 68.7686C54.9075 77.4333 59.4156 79.8252 60.8345 84.2996C61.0092 84.8501 60.5205 85.0342 60.3615 85.5886C60.2026 86.143 59.551 86.5936 59.0368 86.3291C58.7679 86.192 58.6129 85.9079 58.4676 85.6415C56.6601 82.323 54.4738 82.7872 53.4257 79.1572C53.2 78.3736 52.7172 74.1088 52.7899 73.3017C52.8989 72.4837 53.143 71.6893 53.5121 70.9509C53.6514 70.6433 51.9145 65.7556 52.1736 65.5362C52.4327 65.3168 54.8015 67.076 54.9781 68.7666" fill="#A5F2C4"/>
<path d="M55.0135 68.6982C54.9429 77.363 59.451 79.7549 60.8699 84.2293C61.0446 84.7798 60.5559 84.9639 60.3969 85.5183C60.2379 86.0727 59.5864 86.5233 59.0722 86.2588C58.8033 86.1217 58.6483 85.8376 58.503 85.5732C56.6955 82.2526 54.5092 82.7169 53.4611 79.0888C53.2354 78.3052 52.7507 74.0385 52.8253 73.2314C52.9343 72.4134 53.1784 71.619 53.5475 70.8806C53.6868 70.573 51.9499 65.6853 52.209 65.4659C52.4681 65.2465 54.8369 67.0057 55.0135 68.6963" fill="url(#paint0_linear_9663_677)"/>
<path d="M78.9021 91.7389C79.3771 93.12 79.8834 94.4933 80.2936 95.892C81.9912 101.601 82.2856 107.619 82.5722 113.566C82.5977 114.13 82.5859 114.789 82.1404 115.133C81.6576 115.513 79.7853 115.553 79.3928 115.075C79.0003 114.597 78.8962 113.956 78.804 113.349C78.5567 111.635 77.4851 107.681 77.128 105.989C75.8935 100.131 74.7179 96.846 71.5954 91.735C70.2216 94.0545 69.7369 97.9039 68.6417 100.364C68.0922 101.597 67.5368 102.901 66.4829 103.736C65.8176 104.261 64.22 105.64 63.4468 105.989C59.8945 107.591 57.9711 108.947 54.6446 110.976C54.4903 111.084 54.3162 111.16 54.1323 111.2C53.467 111.306 52.105 109.35 52.311 108.71C52.5171 108.069 53.1137 107.652 53.6711 107.272C56.6896 105.212 59.542 102.919 62.2025 100.415C62.8599 99.7963 63.5154 99.1518 63.9453 98.3584C64.534 97.2614 64.6498 95.9802 64.7519 94.7401C64.9547 92.2391 65.1575 89.7388 65.3603 87.2391C65.4918 85.6268 65.6802 83.8813 66.7871 82.7C67.6447 81.7871 68.9459 81.3738 70.1941 81.3953C71.4423 81.4169 72.6611 81.8263 73.7935 82.3611C74.2587 82.5805 74.6355 82.7235 75.1516 82.6569C75.5029 82.6119 75.7011 82.2416 76.0603 82.461C76.5215 82.7529 76.8002 85.0254 76.9631 85.5857C77.5558 87.6557 78.2021 89.7068 78.9021 91.7389Z" fill="#606161"/>
<path d="M78.9021 91.7389C79.3771 93.12 79.8834 94.4933 80.2936 95.892C81.9912 101.601 82.2856 107.619 82.5722 113.566C82.5977 114.13 82.5859 114.789 82.1404 115.133C81.6576 115.513 79.7853 115.553 79.3928 115.075C79.0003 114.597 78.8962 113.956 78.804 113.349C78.5567 111.635 77.4851 107.681 77.128 105.989C75.8935 100.131 74.7179 96.846 71.5954 91.735C70.2216 94.0545 69.7369 97.9039 68.6417 100.364C68.0922 101.597 67.5368 102.901 66.4829 103.736C65.8176 104.261 64.22 105.64 63.4468 105.989C59.8945 107.591 57.9711 108.947 54.6446 110.976C54.4903 111.084 54.3162 111.16 54.1323 111.2C53.467 111.306 52.105 109.35 52.311 108.71C52.5171 108.069 53.1137 107.652 53.6711 107.272C56.6896 105.212 59.542 102.919 62.2025 100.415C62.8599 99.7963 63.5154 99.1518 63.9453 98.3584C64.534 97.2614 64.6498 95.9802 64.7519 94.7401C64.9547 92.2391 65.1575 89.7388 65.3603 87.2391C65.4918 85.6268 65.6802 83.8813 66.7871 82.7C67.6447 81.7871 68.9459 81.3738 70.1941 81.3953C71.4423 81.4169 72.6611 81.8263 73.7935 82.3611C74.2587 82.5805 74.6355 82.7235 75.1516 82.6569C75.5029 82.6119 75.7011 82.2416 76.0603 82.461C76.5215 82.7529 76.8002 85.0254 76.9631 85.5857C77.5558 87.6557 78.2021 89.7068 78.9021 91.7389Z" fill="url(#paint1_linear_9663_677)"/>
<path d="M49.3122 100.553C49.0266 101.761 48.6708 102.953 48.2465 104.12C47.2122 106.81 45.4714 109.161 43.7522 111.474L39.042 117.81C38.8457 118.08 38.6024 118.374 38.2569 118.417C38.0294 118.427 37.8037 118.371 37.6073 118.256C37.0362 117.982 36.471 117.624 36.157 117.081C35.7429 116.358 35.8469 115.433 36.2002 114.681C36.5534 113.929 37.1245 113.31 37.6603 112.663C39.1794 110.851 40.457 108.851 41.7307 106.857C42.3372 105.909 42.9515 104.943 43.2733 103.862C43.6325 102.657 43.6089 101.377 43.6246 100.122C43.6718 96.5952 44.0469 93.0807 44.7453 89.6234C45.1711 87.5038 46.0602 84.8513 48.6174 84.6946C50.1738 84.6005 51.5338 85.4507 51.9833 86.9337C52.5387 88.7693 51.787 90.8635 51.3278 92.6325C50.6566 95.2732 49.9847 97.9133 49.3122 100.553Z" fill="#606161"/>
<path d="M49.3122 100.553C49.0266 101.761 48.6708 102.953 48.2465 104.12C47.2122 106.81 45.4714 109.161 43.7522 111.474L39.042 117.81C38.8457 118.08 38.6024 118.374 38.2569 118.417C38.0294 118.427 37.8037 118.371 37.6073 118.256C37.0362 117.982 36.471 117.624 36.157 117.081C35.7429 116.358 35.8469 115.433 36.2002 114.681C36.5534 113.929 37.1245 113.31 37.6603 112.663C39.1794 110.851 40.457 108.851 41.7307 106.857C42.3372 105.909 42.9515 104.943 43.2733 103.862C43.6325 102.657 43.6089 101.377 43.6246 100.122C43.6718 96.5952 44.0469 93.0807 44.7453 89.6234C45.1711 87.5038 46.0602 84.8513 48.6174 84.6946C50.1738 84.6005 51.5338 85.4507 51.9833 86.9337C52.5387 88.7693 51.787 90.8635 51.3278 92.6325C50.6566 95.2732 49.9847 97.9133 49.3122 100.553Z" fill="url(#paint2_linear_9663_677)"/>
<path d="M57.4511 102.283C58.0399 104.046 58.5855 105.809 59.133 107.573L61.1309 114.037C61.3429 114.721 61.5568 115.444 61.3959 116.141C61.235 116.839 60.552 117.469 59.8553 117.305C59.3175 117.18 58.9819 116.658 58.7091 116.178C55.569 110.615 53.4651 104.424 49.6066 99.331C48.1838 97.4523 46.5352 95.7382 45.2889 93.7321C44.0427 91.7261 43.238 89.3205 43.7189 87.0167C43.8366 86.4564 44.0682 85.8648 44.5667 85.5827C44.9298 85.377 45.3694 85.373 45.7874 85.373C50.1051 85.3887 51.422 86.6366 53.0804 90.2569C54.8075 94.0084 56.144 98.3868 57.4511 102.283Z" fill="#606161"/>
<path d="M57.4511 102.283C58.0399 104.046 58.5855 105.809 59.133 107.573L61.1309 114.037C61.3429 114.721 61.5568 115.444 61.3959 116.141C61.235 116.839 60.552 117.469 59.8553 117.305C59.3175 117.18 58.9819 116.658 58.7091 116.178C55.569 110.615 53.4651 104.424 49.6066 99.331C48.1838 97.4523 46.5352 95.7382 45.2889 93.7321C44.0427 91.7261 43.238 89.3205 43.7189 87.0167C43.8366 86.4564 44.0682 85.8648 44.5667 85.5827C44.9298 85.377 45.3694 85.373 45.7874 85.373C50.1051 85.3887 51.422 86.6366 53.0804 90.2569C54.8075 94.0084 56.144 98.3868 57.4511 102.283Z" fill="url(#paint3_linear_9663_677)"/>
<path d="M59.2371 117.199L59.3431 120.833C59.3647 121.519 59.4333 122.304 59.9868 122.712C60.3132 122.911 60.6841 123.026 61.0662 123.047C63.0092 123.307 64.9914 123.568 66.9187 123.242C67.421 123.187 67.9023 123.011 68.3219 122.729C68.3812 122.689 68.4297 122.636 68.4632 122.573C68.4897 122.5 68.4959 122.423 68.4809 122.347C68.3847 121.642 67.7959 121.117 67.2111 120.708C66.5115 120.217 65.7638 119.799 64.9796 119.46C64.4556 119.262 63.9477 119.023 63.4606 118.747C62.3517 118.043 61.6942 116.831 60.7915 115.873C60.7096 115.774 60.608 115.694 60.4931 115.638C60.1458 115.497 59.6846 115.822 59.4726 116.088C59.2371 116.394 59.2233 116.831 59.2371 117.199Z" fill="#606161"/>
<path d="M33.2092 119.852C33.0561 120.071 32.9011 120.32 32.9423 120.582C32.981 120.753 33.069 120.908 33.1955 121.029C33.6626 121.536 34.3181 121.822 34.9265 122.148C36.0864 122.769 37.1501 123.587 38.3924 124.016C39.6347 124.445 41.1734 124.394 42.0801 123.442C42.1671 123.364 42.228 123.261 42.2548 123.147C42.2862 122.935 42.1076 122.755 41.9349 122.622C41.5293 122.31 41.0804 122.059 40.6023 121.877C40.2627 121.748 39.8997 121.648 39.621 121.407C39.424 121.212 39.2673 120.98 39.1598 120.725C38.7689 119.907 38.4967 119.037 38.3512 118.141C38.2629 117.589 38.2158 117.007 37.9253 116.529C37.1403 115.25 36.3552 116.276 35.6899 116.921C34.7697 117.815 33.9389 118.797 33.2092 119.852Z" fill="#606161"/>
<path d="M78.1014 74.8098C78.0209 75.1859 77.9208 75.5934 77.6107 75.8245C77.1593 76.1556 76.5136 75.9264 76.0583 75.6032C74.661 74.6099 73.9741 72.9174 73.3971 71.3051C72.9123 69.9534 72.4511 68.5488 72.5453 67.1148C72.5396 66.9493 72.5908 66.7868 72.6905 66.6544C72.7969 66.5579 72.9292 66.4945 73.0713 66.4722C74.0682 66.2417 75.1081 66.274 76.0887 66.5659C77.0694 66.8579 77.9571 67.3994 78.6646 68.1374C79.4889 69.0091 79.1867 69.6458 78.9531 70.7644C78.6692 72.1122 78.3853 73.4607 78.1014 74.8098Z" fill="#A5F2C4"/>
<path d="M78.1014 74.8098C78.0209 75.1859 77.9208 75.5934 77.6107 75.8245C77.1593 76.1556 76.5136 75.9264 76.0583 75.6032C74.661 74.6099 73.9741 72.9174 73.3971 71.3051C72.9123 69.9534 72.4511 68.5488 72.5453 67.1148C72.5396 66.9493 72.5908 66.7868 72.6905 66.6544C72.7969 66.5579 72.9292 66.4945 73.0713 66.4722C74.0682 66.2417 75.1081 66.274 76.0887 66.5659C77.0694 66.8579 77.9571 67.3994 78.6646 68.1374C79.4889 69.0091 79.1867 69.6458 78.9531 70.7644C78.6692 72.1122 78.3853 73.4607 78.1014 74.8098Z" fill="url(#paint4_linear_9663_677)"/>
<path d="M68.0824 63.8971C67.5957 68.4362 66.632 74.7324 65.9235 79.244C65.7803 80.1746 65.6134 81.1325 65.8372 82.0474C66.159 83.3677 68.0942 82.6723 69.3522 83.1934C70.6102 83.7145 72.0056 83.8007 73.3676 83.7909C74.1527 83.7909 74.9828 83.7341 75.5991 83.258C76.5804 82.5077 76.5922 81.0757 76.5274 79.8513C76.3998 77.4104 76.2978 74.9538 76.6628 72.5305C77.1319 69.4353 78.3663 66.3224 77.6873 63.2663C77.5821 62.7046 77.3609 62.1708 77.0377 61.6991C76.7969 61.3938 76.5246 61.1148 76.2251 60.8665L74.6727 59.4815C74.2135 59.0741 73.7307 58.6509 73.1341 58.502C72.141 58.2552 70.3865 58.9918 69.5641 59.6167C68.4101 60.512 68.2237 62.5709 68.0824 63.8971Z" fill="#A5F2C4"/>
<path d="M70.8809 60.8838C71.1877 61.0298 71.4745 61.2141 71.7347 61.4323L74.6942 63.7106C74.8155 63.7912 74.9201 63.8943 75.0024 64.0143C75.0806 64.1632 75.1235 64.3281 75.128 64.4962C75.2143 65.4757 75.1123 66.4552 75.2065 67.4347C75.3007 68.4142 75.6226 69.4231 76.384 70.05C76.8649 69.6268 76.8747 68.8961 76.8452 68.2575C76.7628 66.5061 76.6608 64.7554 76.5391 63.0054C76.5622 62.7935 76.5111 62.5801 76.3945 62.4016C76.2778 62.223 76.1029 62.0903 75.8993 62.0259L70.824 59.4792C70.7096 59.3901 70.5679 59.343 70.4228 59.3458C70.2777 59.3487 70.138 59.4013 70.0272 59.4948C69.6131 59.7515 68.6083 60.0825 69.2167 60.4939C69.4993 60.6722 70.5414 60.8838 70.8809 60.8838Z" fill="url(#paint5_linear_9663_677)"/>
<path d="M70.2373 72.4145C70.6809 71.3096 71.2284 70.2302 71.4051 69.0548C71.5188 68.2282 71.4449 67.3867 71.1888 66.5925C70.9326 65.7984 70.5008 65.0719 69.9253 64.4668C68.6153 67.1009 67.5827 69.8635 66.844 72.7103C66.1142 75.4785 65.7 78.3201 65.6096 81.1811C65.566 81.6073 65.6273 82.0376 65.7882 82.4348C66.061 82.9853 66.687 83.2929 67.2993 83.3497C68.626 83.4751 68.9479 83.3144 68.9695 82.1939C68.9911 81.0733 68.7968 79.9939 68.8478 78.8812C68.9479 76.6636 69.4175 74.4781 70.2373 72.4145Z" fill="url(#paint6_linear_9663_677)"/>
<path d="M77.2731 70.2623C77.7166 70.5601 78.2838 70.6091 78.7686 70.8343C79.1414 71.0107 79.5909 71.2888 79.9186 71.0302C80.2464 70.7717 80.0815 70.2466 79.901 69.8548C78.5566 66.9712 78.8098 63.633 78.2661 60.4986C78.1327 59.7248 77.9325 58.9314 77.4203 58.3261C76.0877 56.7686 76.0464 59.8188 76.0347 60.4966C76.0347 61.4389 76.0955 62.3655 76.1721 63.3039C76.3114 65.069 75.5715 69.1202 77.2731 70.2623Z" fill="url(#paint7_linear_9663_677)"/>
<path d="M77.5184 59.6241C77.4713 59.8749 77.3948 60.1491 77.5184 60.3764C77.5639 60.4513 77.6157 60.5221 77.6735 60.5879C77.7954 60.747 77.8769 60.9332 77.911 61.1306C77.8796 61.1854 77.7971 61.1658 77.7422 61.1306C77.3031 60.9042 76.9088 60.6002 76.5784 60.2334C76.6967 60.0505 76.7644 59.8396 76.7746 59.6221C76.7565 59.402 76.7744 59.1803 76.8276 58.9659C76.912 58.77 77.2339 58.4585 77.4596 58.6074C77.6853 58.7563 77.5557 59.4204 77.5184 59.6241Z" fill="url(#paint8_linear_9663_677)"/>
<path d="M78.8746 53.6371C79.0201 53.7874 79.1472 53.9545 79.2533 54.1347C79.4712 54.5578 79.0198 55.4766 79.1474 55.9507C79.2239 56.2406 79.2965 57.4121 79.3279 57.7138C79.3809 58.2075 77.6519 58.3603 77.2927 58.613C76.5881 59.1106 76.9002 59.7237 76.6078 60.6327C76.5096 60.9285 76.4292 61.2537 76.2153 61.4535C75.9582 61.7023 75.5872 61.6788 75.2654 61.5946C74.1742 61.3086 73.1988 60.4427 72.659 59.2751C72.273 58.3623 72.06 57.3858 72.031 56.3954C71.9741 55.4159 71.823 54.217 72.1056 53.2943C72.4883 52.0366 73.5226 51.1844 74.5588 50.6751C75.2752 50.3264 76.9591 49.9404 77.5832 50.7221C77.8108 51.0061 77.8305 51.7212 77.9659 52.0836C78.1742 52.6511 78.4819 53.1771 78.8746 53.6371Z" fill="url(#paint9_linear_9663_677)"/>
<path d="M76.3486 59.416C76.4454 59.4498 76.5337 59.5039 76.6077 59.5747C76.7647 59.747 76.7156 60.0154 76.6567 60.2427C76.6466 60.3074 76.6148 60.3668 76.5665 60.4112C76.5304 60.4287 76.4908 60.4377 76.4507 60.4377C76.4106 60.4377 76.371 60.4287 76.3349 60.4112C75.9109 60.2624 75.5168 60.0395 75.1711 59.7529C74.7629 59.4434 74.3664 59.1162 73.9935 58.7734C73.7839 58.5952 73.6009 58.3881 73.4499 58.1583C73.3439 57.98 73.1123 57.359 73.5264 57.4805C73.7894 57.5549 74.1701 58.0682 74.3978 58.2464C74.9983 58.7136 75.6533 59.1063 76.3486 59.416Z" fill="url(#paint10_linear_9663_677)"/>
<path d="M71.1792 41.6774C70.7957 41.3282 70.3842 41.0111 69.9486 40.7292C69.8114 40.628 69.6519 40.5609 69.4835 40.5333C69.2813 40.53 69.084 40.5957 68.9242 40.7194C68.1156 41.2679 67.8016 42.2866 67.5504 43.225C66.7025 46.2915 65.8554 49.3606 65.0088 52.4323C64.9284 52.7262 64.8498 53.0534 64.9931 53.3217C65.1153 53.5083 65.2892 53.6553 65.4936 53.7449C67.1383 54.6306 69.0041 55.0237 70.8671 54.8772C71.1892 54.8762 71.5044 54.7838 71.7758 54.6108C72.0898 54.3737 71.9839 53.8017 72.0957 53.4236C72.606 51.7095 73.3518 50.1658 73.862 48.4516C74.2546 47.1117 74.6471 45.6248 74.0583 44.3553C73.6049 43.3758 72.6629 42.7411 71.7542 42.1652L71.8288 42.8939" fill="#A5F2C4"/>
<path d="M72.6963 43.2188C72.6963 43.4147 72.7277 43.5988 72.7238 43.7908C72.7304 43.9842 72.6598 44.1723 72.5276 44.3139C72.4075 44.4177 72.2526 44.4723 72.0938 44.4667C71.9472 44.4609 71.8033 44.4253 71.671 44.3619C71.5387 44.2986 71.4208 44.2089 71.3245 44.0984C71.1329 43.8763 70.9928 43.6148 70.9143 43.3324C70.7397 42.7603 70.7167 42.1529 70.8476 41.5693C70.8933 41.2614 71.0529 40.9818 71.2951 40.7857C71.6876 40.5271 72.2312 40.6897 72.5511 41.0247C72.7807 41.2656 73.1595 41.8749 73.1104 42.2275C73.0908 42.3862 72.9142 42.4998 72.8357 42.6389C72.7428 42.8181 72.695 43.0171 72.6963 43.2188Z" fill="url(#paint11_linear_9663_677)"/>
<path d="M71.8799 42.8044C71.9639 42.9079 72.068 42.9932 72.1861 43.0552C72.2456 43.0847 72.3111 43.1 72.3775 43.1C72.4439 43.1 72.5094 43.0847 72.5688 43.0552C72.7101 42.9788 72.7749 42.8142 72.8632 42.681C73.0261 42.4322 73.3087 42.2265 73.3087 41.9287C73.3042 41.8466 73.2825 41.7663 73.245 41.6931C73.2075 41.6199 73.155 41.5553 73.0909 41.5036C72.9608 41.4022 72.8149 41.3228 72.6591 41.2685C72.3399 41.1429 72.0119 41.0407 71.6778 40.9629C71.0498 40.818 71.089 41.1099 71.2539 41.6192C71.3788 42.053 71.5919 42.4565 71.8799 42.8044Z" fill="url(#paint12_linear_9663_677)"/>
<path d="M51.4985 51.8694C49.7322 51.4012 47.7441 52.0889 46.4841 53.4229C45.3203 54.6552 44.706 56.3713 43.3773 57.4213C41.8269 58.6457 39.6347 58.7123 37.9586 59.7603C36.6673 60.5694 35.7821 61.9152 35.2405 63.3375C34.7557 64.6167 34.5378 66.1232 35.2405 67.3025C35.5172 67.7727 35.9313 68.1762 36.0706 68.7032C36.2669 69.4261 35.8901 70.1607 35.7017 70.8856C35.5093 71.6517 35.5164 72.4543 35.7226 73.2169C35.9287 73.9795 36.3269 74.6768 36.8792 75.2424C37.0396 75.4253 37.2506 75.5568 37.4857 75.6205C37.7414 75.6477 37.9992 75.5928 38.2216 75.4638C41.1557 74.0454 41.7248 69.716 44.6707 68.3212C45.4067 67.9705 46.2408 67.8373 46.9178 67.3691C47.5184 66.9479 47.9188 66.2956 48.221 65.6276C48.745 64.4718 49.0335 63.2043 49.7008 62.1249C50.0579 61.5795 50.4653 61.0686 50.9176 60.5988C51.6673 59.778 52.4425 58.9748 53.1451 58.1109C53.675 57.4585 54.566 56.5221 54.6642 55.6464C54.8585 53.9421 52.9842 52.2612 51.4985 51.8694Z" fill="#606161"/>
<path d="M54.668 55.6439C54.5698 56.5216 53.6749 57.4599 53.1489 58.1123C52.4424 58.9762 51.6672 59.7794 50.9155 60.5963C50.4823 61.0528 50.0884 61.5449 49.738 62.0675C49.7236 62.0837 49.7111 62.1014 49.7007 62.1204C49.0314 63.2018 48.7469 64.4712 48.2209 65.6251C47.9186 66.2931 47.5202 66.9454 46.9197 67.3666C46.2504 67.8388 45.4085 67.9739 44.6706 68.3187C41.7267 69.7155 41.1536 74.0449 38.2215 75.4632C38.1504 75.5006 38.077 75.5333 38.0017 75.5612C37.8371 75.6255 37.6586 75.6464 37.4836 75.6219C37.246 75.5552 37.034 75.4186 36.8752 75.2301C36.3233 74.665 35.9254 73.9684 35.7193 73.2065C35.5132 72.4446 35.5057 71.6428 35.6976 70.8772C35.8939 70.1504 36.255 69.4138 36.0666 68.6948C35.9233 68.1679 35.5112 67.7643 35.2325 67.2902C34.5397 66.1148 34.7595 64.6123 35.2325 63.3272C35.7742 61.903 36.6613 60.5591 37.9526 59.748C39.6228 58.7059 41.8189 58.6373 43.3674 57.4149C44.698 56.3629 45.3143 54.6448 46.4801 53.4146C47.7342 52.0785 49.7124 51.3948 51.4945 51.8611C52.9841 52.2587 54.8544 53.9396 54.668 55.6439Z" fill="url(#paint13_linear_9663_677)"/>
<path d="M49.742 62.0673C49.7277 62.0835 49.7152 62.1012 49.7048 62.1202C49.0355 63.2016 48.7509 64.471 48.225 65.6249C47.9227 66.2929 47.5243 66.9452 46.9238 67.3664C46.2545 67.8386 45.4126 67.9737 44.6746 68.3185C41.7308 69.7153 41.1577 74.0447 38.2256 75.463C38.1545 75.5004 38.0811 75.5331 38.0058 75.561C37.8463 75.1061 37.7979 74.6199 37.8645 74.1426C38.0136 72.6774 38.511 71.2689 39.3152 70.0341C40.1194 68.7993 41.2073 67.7739 42.4883 67.0432C43.2027 66.6514 43.976 66.3379 44.5785 65.7894C45.5186 64.9333 45.8777 63.6345 46.4056 62.4807C47.067 61.0016 48.7136 58.9544 49.5458 61.3248C49.6285 61.5675 49.694 61.8156 49.742 62.0673V62.0673Z" fill="url(#paint14_linear_9663_677)"/>
<path d="M53.938 55.625C54.0832 56.0736 54.0969 56.6045 54.4306 56.9278C54.7151 57.2079 55.2156 57.347 55.2529 57.7427C55.2468 57.9137 55.2039 58.0814 55.1273 58.2344C54.8663 58.9671 55.2823 60.4364 54.931 61.1259C54.6622 61.6412 52.8134 62.3307 52.4955 62.8166C51.8733 63.7706 52.5661 65.9784 52.1265 65.9862C51.5377 65.998 49.4181 66.5622 48.951 66.1978C48.323 65.7081 48.8019 63.4748 48.8058 62.6716C48.8115 61.2539 48.9356 59.8392 49.1767 58.4421C49.3475 57.4469 49.5967 56.4223 50.2385 55.6407C51.0039 54.7063 53.4198 54.0226 53.938 55.625Z" fill="url(#paint15_linear_9663_677)"/>
<path d="M52.3679 55.3901C52.2128 56.0483 52.466 56.7379 52.3777 57.4079C52.1814 58.9085 50.8469 59.886 49.7478 59.8743C47.4673 59.8547 46.119 63.8746 45.5675 64.5759C43.6618 61.3004 45.5675 58.7713 45.96 57.4275C46.2642 56.3206 48.4427 53.9698 49.4024 53.3429C50.2856 52.7552 51.5612 52.3458 52.6387 52.5593C53.3963 52.7062 53.5964 54.1402 53.2078 54.3499C53.0023 54.4544 52.8212 54.6011 52.6765 54.7803C52.5317 54.9596 52.4265 55.1674 52.3679 55.3901Z" fill="#606161"/>
<path d="M55.6828 76.7458C55.1333 78.1504 54.5858 79.5452 54.0441 80.9479C53.4278 82.5151 52.9764 86.6897 52.1561 88.161C51.6517 89.0621 47.2614 89.4657 45.1418 88.4078C44.8324 88.27 44.5575 88.0653 44.3371 87.8083C43.608 86.9407 43.2133 85.8416 43.2243 84.7092C43.2538 82.9461 43.8484 81.2417 44.2311 79.5237C44.6785 77.4603 44.8834 75.3519 44.8415 73.2411V72.8141C44.8258 71.4428 44.8042 70.044 45.3439 68.7903C46.5097 66.1201 50.3897 63.6655 52.998 66.0144C53.8635 66.7882 55.991 75.9583 55.6828 76.7458Z" fill="#A5F2C4"/>
<path d="M47.0965 73.64C46.8708 74.8643 46.969 76.1161 46.8257 77.3484C46.5784 79.5248 45.6481 81.5798 45.4126 83.7563C45.3077 84.7928 45.3506 85.8389 45.5402 86.8633C45.6148 87.2845 45.6972 87.7487 45.4735 88.117C45.3889 88.2403 45.2749 88.3407 45.1418 88.4089C44.8324 88.2712 44.5575 88.0664 44.3371 87.8095C43.608 86.9418 43.2133 85.8428 43.2243 84.7103C43.2538 82.9472 43.8484 81.2429 44.2311 79.5248C44.6785 77.4614 44.8834 75.353 44.8415 73.2423V72.8152C44.9619 72.6513 45.093 72.4956 45.234 72.349C45.5716 71.9826 46.0014 71.6359 46.5038 71.5987C48.0288 71.4635 47.2319 72.9132 47.0965 73.64Z" fill="url(#paint16_linear_9663_677)"/>
<path d="M74.1015 42.1435C74.6652 41.8144 75.0853 41.2869 75.2791 40.6644C75.4722 40.0463 75.5559 39.3993 75.5264 38.7524C75.5344 38.1009 75.4274 37.453 75.2104 36.8385C75.0978 36.5056 74.8938 36.211 74.6216 35.9883C74.1506 35.6435 73.4853 35.667 72.9554 35.9119C72.4383 36.1861 71.986 36.5675 71.6287 37.0305C71.3629 37.3136 71.149 37.6412 70.9967 37.9982C70.882 38.34 70.8301 38.6998 70.8437 39.06C70.8437 40.0395 71.0556 41.0837 71.8249 41.7517C72.4608 42.31 73.3087 42.5686 74.1015 42.1435Z" fill="url(#paint17_linear_9663_677)"/>
<path d="M75.3851 35.1944C75.5225 35.3646 75.6209 35.5628 75.6734 35.775C75.726 35.9872 75.7314 36.2082 75.6893 36.4227C75.672 36.5332 75.626 36.6373 75.5558 36.7244C75.391 36.9066 75.1084 36.8988 74.8689 36.9615C74.5726 37.0379 74.3253 37.2377 74.0466 37.3533C73.7679 37.4688 73.4029 37.5139 73.185 37.2984C73.1696 37.4 73.1278 37.4958 73.0638 37.5762C72.9997 37.6567 72.9157 37.7189 72.82 37.7568C72.6282 37.8312 72.4468 37.9299 72.2803 38.0507C72.0232 38.2858 71.9859 38.6697 71.9663 39.0184C71.8406 38.8695 71.5953 38.7226 71.4835 38.8813C71.4508 38.9347 71.437 38.9974 71.4442 39.0596C71.4442 39.3495 71.5286 39.6336 71.56 39.9235C71.6099 40.2121 71.5467 40.5088 71.3834 40.7521C71.297 40.8694 71.168 40.948 71.024 40.9711C70.8801 40.9942 70.7328 40.9599 70.614 40.8756C70.5236 40.7805 70.4564 40.6659 70.4178 40.5406C69.9742 39.3377 69.7682 37.9939 70.1273 36.7695C70.4865 35.5451 71.5011 34.4461 72.765 34.2522C73.293 34.1699 73.6874 34.3344 74.1624 34.5323C74.6099 34.7262 75.0652 34.8046 75.3851 35.1944Z" fill="#606161"/>
<path d="M75.3851 35.1944C75.5225 35.3646 75.6209 35.5628 75.6734 35.775C75.726 35.9872 75.7314 36.2082 75.6893 36.4227C75.672 36.5332 75.626 36.6373 75.5558 36.7244C75.391 36.9066 75.1084 36.8988 74.8689 36.9615C74.5726 37.0379 74.3253 37.2377 74.0466 37.3533C73.7679 37.4688 73.4029 37.5139 73.185 37.2984C73.1696 37.4 73.1278 37.4958 73.0638 37.5762C72.9997 37.6567 72.9157 37.7189 72.82 37.7568C72.6282 37.8312 72.4468 37.9299 72.2803 38.0507C72.0232 38.2858 71.9859 38.6697 71.9663 39.0184C71.8406 38.8695 71.5953 38.7226 71.4835 38.8813C71.4508 38.9347 71.437 38.9974 71.4442 39.0596C71.4442 39.3495 71.5286 39.6336 71.56 39.9235C71.6099 40.2121 71.5467 40.5088 71.3834 40.7521C71.297 40.8694 71.168 40.948 71.024 40.9711C70.8801 40.9942 70.7328 40.9599 70.614 40.8756C70.5236 40.7805 70.4564 40.6659 70.4178 40.5406C69.9742 39.3377 69.7682 37.9939 70.1273 36.7695C70.4865 35.5451 71.5011 34.4461 72.765 34.2522C73.293 34.1699 73.6874 34.3344 74.1624 34.5323C74.6099 34.7262 75.0652 34.8046 75.3851 35.1944Z" fill="url(#paint18_linear_9663_677)"/>
<path d="M68.4847 35.6628C67.896 35.9115 67.5034 36.4601 67.2267 37.0341C66.95 37.6081 66.7949 38.2271 66.528 38.7972C66.4299 39.0702 66.2352 39.2981 65.9805 39.4378C66.3612 39.2419 66.8126 39.2419 67.2228 39.1204C68.2708 38.807 69.0362 37.7295 69.6741 36.9028C69.8958 36.6148 70.2903 36.1192 69.9822 35.7685C69.6073 35.3591 68.9263 35.6059 68.4847 35.6628Z" fill="#606161"/>
<path d="M68.3355 34.4131C67.8834 34.6601 67.4081 34.8622 66.9165 35.0165C68.1863 35.2457 69.5385 35.3201 70.7298 34.8206C71.0821 34.701 71.3828 34.4646 71.5816 34.1506C71.715 33.8998 71.7288 33.461 71.5109 33.2436C71.2931 33.0261 70.8927 33.128 70.6062 33.2122C69.776 33.4571 69.0832 34.0037 68.3355 34.4131Z" fill="#606161"/>
<path d="M68.4847 35.6628C67.896 35.9115 67.5034 36.4601 67.2267 37.0341C66.95 37.6081 66.7949 38.2271 66.528 38.7972C66.4299 39.0702 66.2352 39.2981 65.9805 39.4378C66.3612 39.2419 66.8126 39.2419 67.2228 39.1204C68.2708 38.807 69.0362 37.7295 69.6741 36.9028C69.8958 36.6148 70.2903 36.1192 69.9822 35.7685C69.6073 35.3591 68.9263 35.6059 68.4847 35.6628Z" fill="url(#paint19_linear_9663_677)"/>
<path d="M68.3355 34.4131C67.8834 34.6601 67.4081 34.8622 66.9165 35.0165C68.1863 35.2457 69.5385 35.3201 70.7298 34.8206C71.0821 34.701 71.3828 34.4646 71.5816 34.1506C71.715 33.8998 71.7288 33.461 71.5109 33.2436C71.2931 33.0261 70.8927 33.128 70.6062 33.2122C69.776 33.4571 69.0832 34.0037 68.3355 34.4131Z" fill="url(#paint20_linear_9663_677)"/>
<path d="M69.8152 36.0017C69.7261 35.9936 69.6367 36.0144 69.5604 36.0609C69.484 36.1075 69.4247 36.1774 69.3913 36.2603C69.3759 36.3242 69.3757 36.3907 69.3907 36.4547C69.4057 36.5186 69.4355 36.5782 69.4777 36.6286C69.5615 36.7298 69.6608 36.8171 69.7721 36.8872C69.8032 36.915 69.8424 36.9322 69.8839 36.9362C69.9253 36.932 69.964 36.9141 69.9938 36.8852C70.1312 36.7775 70.3667 36.4934 70.3334 36.3093C70.3 36.1251 69.986 36.0115 69.8152 36.0017Z" fill="#A5F2C4"/>
<path d="M71.3698 33.9881C71.2809 33.9798 71.1917 34.0003 71.1153 34.0465C71.039 34.0927 70.9796 34.1622 70.9458 34.2448C70.9306 34.3089 70.9305 34.3758 70.9455 34.44C70.9605 34.5042 70.9901 34.5641 71.0322 34.615C71.1165 34.7157 71.2158 34.8029 71.3266 34.8736C71.3577 34.9014 71.3969 34.9185 71.4385 34.9226C71.4798 34.9184 71.5185 34.9005 71.5484 34.8716C71.6857 34.7639 71.9212 34.4798 71.8879 34.2839C71.8545 34.088 71.5405 33.9979 71.3698 33.9881Z" fill="#A5F2C4"/>
<path d="M66.3122 36.2378C65.537 34.7529 65.0208 33.123 64.5086 31.5048C64.2711 30.7526 63.9198 29.8749 63.2859 29.6849C62.652 29.4949 62.1084 30.1668 62.0789 30.9191C62.0495 31.6713 62.391 32.4275 62.809 33.0544C63.0425 33.4011 63.2996 33.7263 63.5077 34.0946C63.7215 34.5019 63.9051 34.9242 64.0572 35.3582C65.0881 38.0481 66.3571 40.6409 67.8489 43.1061C67.9392 43.2781 68.0603 43.4321 68.2061 43.5606C68.6241 43.8779 69.1324 43.5371 69.3542 43.0708C69.8095 42.1187 69.7703 40.1734 68.9146 39.4408C67.8424 38.5564 66.9577 37.4675 66.3122 36.2378Z" fill="url(#paint21_linear_9663_677)"/>
<path d="M67.6761 59.7302C68.047 59.9986 68.4847 60.2376 68.9381 60.1827C69.2296 60.1265 69.5063 60.0104 69.7506 59.8419L72.773 58.0415C73.0575 57.8711 73.3872 57.5988 73.2911 57.2834C73.252 57.1825 73.191 57.0915 73.1125 57.017C72.0389 55.8416 72.4805 55.0345 70.9536 54.578C69.9723 54.2822 67.1109 54.0785 66.1119 53.8473C64.8873 53.5632 64.8755 54.0432 65.0266 55.2088C65.1415 56.1014 65.4353 56.9618 65.8905 57.7386C66.3457 58.5154 66.953 59.1927 67.6761 59.7302Z" fill="#606161"/>
<path d="M73.2519 46.9781C73.2522 47.0866 73.2323 47.1942 73.193 47.2954C73.1254 47.418 73.0274 47.5212 72.9084 47.5952C72.2138 48.1056 71.449 48.5134 70.6377 48.8058C70.2982 48.9293 69.9312 49.0429 69.7015 49.3211C69.3679 49.7246 69.4405 50.3319 69.6623 50.804C69.7351 50.9273 69.78 51.0651 69.7938 51.2076C69.7854 51.3172 69.7582 51.4245 69.7133 51.5249C69.5724 51.902 69.4903 52.2984 69.47 52.7003C69.4503 53.0922 69.4543 53.5349 69.1383 53.7484C69.0362 53.817 68.9126 53.8483 68.8066 53.9091C68.7496 53.9342 68.7009 53.975 68.6662 54.0267C68.6314 54.0783 68.6121 54.1388 68.6104 54.2009C68.6196 54.2538 68.6389 54.3043 68.6673 54.3498L70.0921 57.0239C70.2884 57.4039 70.5494 57.8251 70.9733 57.9113C71.2487 57.9421 71.5271 57.8939 71.776 57.7722L73.1498 57.2609C73.0046 56.779 72.5846 56.4381 72.3059 56.017C71.9605 55.4919 71.8447 54.8415 71.7701 54.2225C71.6739 53.3958 71.6386 52.5417 71.8604 51.7385C72.0822 50.9353 72.5983 50.1713 73.3559 49.8304C73.6817 49.6796 74.086 49.562 74.1959 49.2231C74.2331 49.0587 74.2331 48.888 74.1959 48.7236C74.137 48.3038 74.137 47.8778 74.1959 47.458C74.2328 47.3118 74.2266 47.1581 74.1782 47.0153C74.131 46.9335 74.0684 46.8617 73.9937 46.8037C73.8838 46.7058 73.56 46.3101 73.3892 46.3394C73.2185 46.3688 73.2597 46.8174 73.2519 46.9781Z" fill="url(#paint22_linear_9663_677)"/>
<path d="M77.0101 47.349C77.2126 47.6254 77.347 47.9456 77.4026 48.2835C77.4278 48.4527 77.4086 48.6255 77.3471 48.7851C77.2855 48.9447 77.1836 49.0857 77.0513 49.1944C76.8827 49.3008 76.6921 49.3678 76.4939 49.3903C75.6108 49.547 74.704 49.4804 73.8091 49.549C72.9142 49.6175 71.9819 49.8507 71.3461 50.4815C71.2604 50.6001 71.1314 50.6804 70.9869 50.7048C70.8979 50.6982 70.813 50.6647 70.7435 50.6088C70.4958 50.4393 70.3056 50.1987 70.198 49.9188C70.0904 49.6389 70.0705 49.333 70.141 49.0416C70.2279 48.7537 70.4194 48.5086 70.6778 48.3543C70.9363 48.1999 71.2432 48.1474 71.5384 48.2071C71.6339 48.2413 71.7325 48.2662 71.8328 48.2815C71.9508 48.2838 72.0681 48.2632 72.1782 48.2208L74.3841 47.5253C74.1686 47.4336 73.9763 47.2948 73.8214 47.1192C73.6666 46.9436 73.553 46.7357 73.4892 46.5106C73.3643 46.0598 73.3074 45.593 73.3204 45.1255C73.3204 44.8572 73.1026 43.6504 73.603 43.6445C73.8503 43.6445 74.5333 44.6417 74.7315 44.8415C75.5068 45.627 76.4488 46.3773 77.0101 47.349Z" fill="url(#paint23_linear_9663_677)"/>
<path d="M74.6923 62.4367C76.225 63.4299 78.062 63.9687 79.4025 65.2048C79.952 65.7083 80.4014 66.3156 80.9568 66.8131C81.5122 67.3107 82.2207 67.7084 82.9665 67.6575C84.1637 67.5772 84.9684 66.437 85.5925 65.4144C85.6367 65.3604 85.6677 65.2969 85.683 65.2289C85.6983 65.1609 85.6976 65.0903 85.6808 65.0226C85.6353 64.9481 85.5662 64.8909 85.4845 64.86C84.7191 64.5191 83.8281 64.86 82.996 64.764C82.0578 64.6465 81.2983 63.9804 80.5918 63.3457C78.309 61.3159 75.9036 59.4278 73.3891 57.692C73.2301 57.5823 73.2184 57.4961 73.0241 57.4961C72.7834 57.502 72.5513 57.5859 72.3627 57.7351C71.9701 58.0642 70.7043 58.7146 70.5198 59.1887C70.2647 59.8293 70.9771 59.8371 71.5816 60.1819C72.186 60.5267 74.0583 62.519 74.6923 62.4367Z" fill="url(#paint24_linear_9663_677)"/>
<path d="M72.2156 49.5071C73.9427 48.606 76.078 49.4601 77.9876 49.0605C78.3173 48.99 78.6784 48.8861 78.9689 49.0429C79.2594 49.1996 79.3084 49.754 78.9689 49.8049C79.2162 49.8049 79.1652 50.2281 78.9552 50.3417C78.7452 50.4553 78.4586 50.4279 78.2584 50.5709C78.1603 50.6414 78.0897 50.7492 77.9896 50.8177C77.7882 50.9166 77.5589 50.9436 77.34 50.8941C76.4513 50.8097 75.5547 50.9022 74.7022 51.1664C74.1272 51.3447 74.0193 51.619 73.6267 52.0754C73.2107 52.5632 73.2499 53.8385 73.4167 54.4262C73.3539 54.4262 72.7043 53.3546 72.6572 53.4036C71.6171 54.4967 72.93 55.1354 72.9752 55.2C73.8034 56.397 72.2333 55.8347 72.7632 56.6086C73.0713 57.0591 71.8271 55.7975 71.5641 55.5174C71.1048 55.0296 70.5573 54.4576 70.4709 53.7797C70.2845 52.191 70.6809 50.3084 72.2156 49.5071Z" fill="#606161"/>
<path d="M81.1906 118.535C81.1924 118.675 81.2102 118.814 81.2436 118.95C81.3358 119.185 81.5111 119.377 81.7362 119.491C82.2955 119.808 82.9824 119.818 83.6144 119.697C84.2463 119.575 84.8508 119.336 85.4749 119.182C86.9802 118.807 88.6857 118.892 89.9143 117.945C89.9927 117.89 90.0594 117.821 90.1106 117.74C90.2872 117.43 90.0046 117.058 89.7082 116.86C87.8536 115.622 85.0353 116.727 83.3023 115.322C82.6213 114.772 81.3869 113.612 80.6352 114.774C79.9718 115.794 81.1101 117.475 81.1906 118.535Z" fill="#606161"/>
<path d="M49.84 109.486C49.5764 109.571 49.3383 109.72 49.1472 109.92C48.9858 110.16 48.8923 110.439 48.8763 110.728C48.7328 111.772 48.6627 112.825 48.6663 113.88C48.6553 114.247 48.6889 114.614 48.7664 114.973C48.8649 115.353 49.0491 115.706 49.3048 116.004C49.5606 116.303 49.8812 116.539 50.2423 116.695C50.7133 116.891 51.4199 116.84 51.5435 116.346C51.6495 115.954 51.2943 115.58 51.2236 115.171C51.1588 114.806 51.3315 114.446 51.4984 114.115L52.9801 111.176C53.1244 110.924 53.2271 110.65 53.2843 110.365C53.3726 109.777 52.988 108.682 52.3246 108.541C51.6613 108.4 50.4366 109.239 49.84 109.486Z" fill="#606161"/>
<path d="M77.0318 66.3126C77.0493 66.5197 77.0996 66.7227 77.181 66.914L77.4695 67.7113C77.5233 67.8842 77.5991 68.0494 77.6952 68.203C78.0268 68.6908 78.6765 68.826 79.2652 68.922C79.3586 68.955 79.4607 68.9534 79.553 68.9174C79.6453 68.8815 79.7215 68.8135 79.7677 68.7261C79.9275 68.5527 80.0492 68.3478 80.1249 68.1246C80.1674 67.9107 80.1627 67.6901 80.1111 67.4782C79.9541 66.6201 79.7186 65.2273 78.7039 65.1861C77.9778 65.1548 77.0043 65.4075 77.0318 66.3126Z" fill="url(#paint25_linear_9663_677)"/>
<path d="M68.1845 60.7098C67.688 61.2485 67.3543 61.9165 67.0266 62.5728C65.9354 64.7669 64.8383 66.9786 64.1887 69.3431C63.6823 71.1826 63.4429 73.1299 62.5048 74.7911C62.0671 75.5747 61.18 83.0523 60.8366 83.8731C60.6815 84.2453 60.5971 84.7311 60.8896 85.0113C61.0467 85.1394 61.2375 85.2197 61.4391 85.2424C62.1857 85.3848 62.9522 85.3881 63.7 85.2522C64.538 83.3696 66.2298 74.9988 67.3288 73.2553C68.3356 71.6626 69.0951 69.9249 69.8606 68.2069C70.4748 66.816 71.095 65.3996 71.2599 63.8971C71.3816 62.7706 71.2226 61.5619 70.6476 60.5667C69.9783 59.4168 68.999 59.8243 68.1845 60.7098Z" fill="#A5F2C4"/>
<path d="M60.9424 88.4951C61.0764 88.7758 61.2445 89.0389 61.4428 89.2787C61.6455 89.4849 61.8714 89.667 62.116 89.8214C62.4143 90.0271 62.8363 90.2269 63.1071 89.9859C63.2916 89.8233 63.2935 89.5412 63.2739 89.2963C63.1993 88.2914 62.9972 87.2218 62.2926 86.5067C61.9803 86.2136 61.6207 85.9751 61.2289 85.8015C60.7029 85.5527 59.8767 85.5488 59.8551 86.3128C59.8355 86.9416 60.6519 87.9485 60.9424 88.4951Z" fill="url(#paint26_linear_9663_677)"/>
<path d="M60.7129 86.6135C60.38 87.4589 60.2903 88.3803 60.4538 89.2738C60.5088 89.5736 60.6501 89.9262 60.9582 89.9654C61.2663 90.0045 61.5038 89.6754 61.651 89.3914L62.5558 87.64C62.964 86.8564 63.384 85.9709 63.1701 85.107C63.146 84.9791 63.0846 84.8612 62.9934 84.7681C62.8981 84.7034 62.7886 84.6626 62.6741 84.6493C62.5596 84.636 62.4436 84.6506 62.336 84.6917C61.2644 84.9699 61.0897 85.6614 60.7129 86.6135Z" fill="url(#paint27_linear_9663_677)"/>
<path d="M41.4834 72.9085C40.7886 73.6 39.2284 75.7158 38.6494 76.515C37.3404 78.3114 37.5877 80.7602 37.8977 82.9602C38.1372 84.6528 38.3943 86.3865 39.2029 87.8949C39.6503 87.9615 40.1253 88.0242 40.5374 87.8381C41.3225 87.4855 42.1193 86.7058 42.1703 85.8497C42.2802 84.0318 42.0074 79.7944 42.2233 79.5104C43.1006 78.3585 44.5529 76.278 45.6048 75.2809C46.6568 74.2837 48.7587 71.5587 49.1041 70.16C49.5692 68.2578 49.95 63.5581 46.0268 67.2215C44.3017 68.8161 43.1732 71.2414 41.4834 72.9085Z" fill="#A5F2C4"/>
<path d="M39.7877 90.2007C40.031 91.0372 40.5845 91.8286 41.3989 92.142C41.4556 92.1672 41.5175 92.1786 41.5795 92.1753C41.6539 92.1625 41.7225 92.1269 41.7758 92.0735C42.1113 91.7854 42.3452 91.3974 42.443 90.9666C42.6275 90.1399 42.288 89.2721 42.4234 88.4375C42.4576 88.2923 42.4773 88.144 42.4823 87.9948C42.4542 87.7098 42.3328 87.442 42.1369 87.2328C41.9395 86.9913 41.7127 86.7755 41.4617 86.5902C41.3821 86.5195 41.2815 86.4768 41.1752 86.4688C40.6571 86.4825 39.7916 87.3503 39.6306 87.8401C39.3951 88.512 39.5934 89.5385 39.7877 90.2007Z" fill="url(#paint28_linear_9663_677)"/>
<path opacity="0.79" d="M73.0201 54.2684C72.948 54.1455 72.8336 54.0529 72.6983 54.0078C72.6855 54.001 72.6715 53.997 72.6571 53.9961C72.6198 53.9961 72.6001 54.0372 72.5884 54.0725C72.564 54.1307 72.5481 54.192 72.5413 54.2547C72.5472 54.3772 72.5866 54.4957 72.6551 54.5975C72.7052 54.7043 72.7752 54.8007 72.8612 54.8816C72.9421 54.9467 73.039 54.9893 73.1418 55.005C73.3793 55.0461 73.4244 54.9227 73.2674 54.7934C73.0574 54.6191 73.1183 54.4996 73.0201 54.2684Z" fill="url(#paint29_linear_9663_677)"/>
<path d="M68.6672 60.1409C68.6672 60.1409 71.6268 58.0604 72.8632 57.4629C72.8632 57.4629 70.3609 59.1731 70.5199 59.5061C70.6789 59.8392 70.6063 59.7177 70.6063 59.7177C70.6063 59.7177 69.0892 60.4053 68.6672 60.1409Z" fill="#606161"/>
<path d="M68.6672 60.1409C68.6672 60.1409 71.6268 58.0604 72.8632 57.4629C72.8632 57.4629 70.3609 59.1731 70.5199 59.5061C70.6789 59.8392 70.6063 59.7177 70.6063 59.7177C70.6063 59.7177 69.0892 60.4053 68.6672 60.1409Z" fill="url(#paint30_linear_9663_677)"/>
<path d="M219.871 105.172C219.509 106.74 217.994 107.725 216.578 108.491C212.62 110.635 208.456 112.374 204.303 114.113L175.602 126.115C171.227 127.949 166.784 129.799 162.107 130.68C157.369 131.574 152.505 131.474 147.684 131.331C126.898 130.795 106.076 130.263 85.4214 127.873C82.7048 127.56 79.5467 126.905 78.3972 124.435C77.3631 122.224 78.5762 119.488 80.5172 118.003C82.4582 116.519 84.9361 115.987 87.3306 115.494L102.337 112.405C123.816 107.987 145.294 103.564 166.999 100.523C172.217 99.7921 222.97 91.6969 219.871 105.172Z" fill="url(#paint31_linear_9663_677)"/>
<path d="M202.685 86.2384C188.764 88.6722 173.745 76.9164 161.804 98.2165C160.102 101.611 159.613 108.511 159.489 115.475C173.757 111.406 205.182 101.206 205.751 100.718C206.754 99.8642 206.754 96.5133 206.714 93.5198C206.698 92.3843 204.928 89.5734 202.685 86.2384Z" fill="#1A1A1A"/>
<path d="M202.104 94.2697C200.807 94.3055 196.718 98.0375 196.619 102.746C196.531 107.002 197.709 110.687 198.822 111.27L203.078 111.604L202.577 110.758C203.492 109.527 204.196 106.391 204.271 102.73C204.371 98.0255 203.4 94.238 202.104 94.2697Z" fill="#3F3D56"/>
<path d="M202.104 94.2697C200.807 94.3055 196.718 98.0375 196.619 102.746C196.531 107.002 197.709 110.687 198.822 111.27L203.078 111.604L202.577 110.758C203.492 109.527 204.196 106.391 204.271 102.73C204.371 98.0255 203.4 94.238 202.104 94.2697Z" fill="url(#paint32_linear_9663_677)"/>
<path d="M205.703 103.025C205.604 107.73 204.47 111.573 203.174 111.605C201.877 111.637 200.907 107.853 201.006 103.148C201.105 98.4435 202.235 94.5964 203.536 94.5647C204.836 94.5329 205.803 98.3165 205.703 103.025Z" fill="#3F3D56"/>
<path d="M205.071 103.048C205.011 105.827 204.339 108.11 203.576 108.129C202.812 108.149 202.231 105.906 202.287 103.119C202.342 100.332 203.019 98.0571 203.786 98.0372C204.554 98.0174 205.127 100.261 205.071 103.048Z" fill="url(#paint33_linear_9663_677)"/>
<path d="M204.53 103.068C204.502 104.41 204.18 105.51 203.81 105.518C203.44 105.526 203.162 104.446 203.19 103.104C203.217 101.762 203.54 100.662 203.91 100.65C204.279 100.639 204.53 101.722 204.53 103.068Z" fill="#3F3D56"/>
<path d="M165.826 96.3344C163.566 96.3939 153.893 103.235 153.714 111.421C153.559 118.834 154.908 124.92 156.86 125.992L167.54 126.52L166.665 125.043C168.256 122.899 169.485 117.436 169.62 111.068C169.775 102.877 168.085 96.2748 165.826 96.3344Z" fill="#3F3D56"/>
<path d="M165.826 96.3344C163.566 96.3939 153.893 103.235 153.714 111.421C153.559 118.834 154.908 124.92 156.86 125.992L167.54 126.52L166.665 125.043C168.256 122.899 169.485 117.436 169.62 111.068C169.775 102.877 168.085 96.2748 165.826 96.3344Z" fill="url(#paint34_linear_9663_677)"/>
<path d="M172.094 111.576C171.923 119.77 169.95 126.46 167.691 126.519C165.432 126.579 163.741 119.985 163.916 111.79C164.091 103.596 166.06 96.9017 168.315 96.8422C170.571 96.7826 172.265 103.381 172.094 111.576Z" fill="#3F3D56"/>
<path d="M170.992 111.612C170.893 116.463 169.724 120.43 168.387 120.461C167.051 120.493 166.048 116.59 166.148 111.727C166.247 106.863 167.417 102.909 168.757 102.873C170.097 102.838 171.096 106.764 170.992 111.612Z" fill="url(#paint35_linear_9663_677)"/>
<path d="M170.03 111.652C169.982 113.99 169.417 115.904 168.773 115.92C168.129 115.936 167.647 114.054 167.695 111.711C167.743 109.369 168.307 107.459 168.952 107.443C169.596 107.428 170.081 109.309 170.03 111.652Z" fill="#3F3D56"/>
<path d="M99.1038 96.3344C96.8446 96.3939 87.1715 103.235 86.9925 111.421C86.8374 118.834 88.2056 124.92 90.1386 125.992L100.802 126.512L99.9272 125.035C101.518 122.891 102.747 117.428 102.882 111.06C103.053 102.877 101.363 96.2748 99.1038 96.3344Z" fill="#3F3D56"/>
<path d="M99.1038 96.3344C96.8446 96.3939 87.1715 103.235 86.9925 111.421C86.8374 118.834 88.2056 124.92 90.1386 125.992L100.802 126.512L99.9272 125.035C101.518 122.891 102.747 117.428 102.882 111.06C103.053 102.877 101.363 96.2748 99.1038 96.3344Z" fill="url(#paint36_linear_9663_677)"/>
<path d="M105.372 111.576C105.197 119.77 103.229 126.46 100.969 126.52C98.7101 126.579 97.0197 119.985 97.1947 111.79C97.3697 103.596 99.3386 96.9219 101.594 96.8425C103.849 96.7631 105.543 103.381 105.372 111.576Z" fill="#3F3D56"/>
<path d="M104.271 111.612C104.167 116.463 103.002 120.43 101.665 120.461C100.329 120.493 99.3226 116.59 99.426 111.727C99.5294 106.863 100.695 102.909 102.035 102.873C103.376 102.838 104.374 106.764 104.271 111.612Z" fill="url(#paint37_linear_9663_677)"/>
<path d="M103.308 111.652C103.26 113.99 102.695 115.904 102.051 115.92C101.407 115.936 100.925 114.054 100.973 111.711C101.021 109.369 101.586 107.459 102.23 107.443C102.874 107.428 103.36 109.309 103.308 111.652Z" fill="#3F3D56"/>
<path d="M195.998 94.6877C194.582 94.7235 188.839 98.92 188.736 104.053C188.64 108.699 189.499 112.526 190.724 113.185L197.088 113.602L196.539 112.677C197.542 111.335 198.305 107.912 198.389 103.918C198.472 98.785 197.414 94.652 195.998 94.6877Z" fill="#3F3D56"/>
<path d="M195.998 94.6877C194.582 94.7235 188.839 98.92 188.736 104.053C188.64 108.699 189.499 112.526 190.724 113.185L197.088 113.602L196.539 112.677C197.542 111.335 198.305 107.912 198.389 103.918C198.472 98.785 197.414 94.652 195.998 94.6877Z" fill="url(#paint38_linear_9663_677)"/>
<path d="M199.928 104.235C199.817 109.372 198.584 113.565 197.168 113.601C195.752 113.636 194.694 109.507 194.801 104.37C194.909 99.2325 196.146 95.0439 197.558 95.0042C198.97 94.9645 200.036 99.1014 199.928 104.235Z" fill="#3F3D56"/>
<path d="M199.236 104.262C199.172 107.304 198.441 109.789 197.601 109.821C196.762 109.852 196.138 107.395 196.201 104.35C196.265 101.305 196.997 98.8271 197.836 98.7914C198.675 98.7557 199.3 101.221 199.236 104.262Z" fill="url(#paint39_linear_9663_677)"/>
<path d="M198.632 104.287C198.604 105.752 198.234 106.951 197.836 106.959C197.438 106.967 197.128 105.787 197.156 104.322C197.184 102.857 197.554 101.658 197.951 101.647C198.349 101.635 198.663 102.818 198.632 104.287Z" fill="#3F3D56"/>
<path d="M161.804 98.2467C173.737 76.9465 188.76 88.7182 202.685 86.2686C199.021 80.7778 194.165 73.8657 194.054 70.6736C193.875 65.5362 194.312 58.5963 192.952 57.7427C191.592 56.8891 171.382 41.7388 160.981 36.7998C150.58 31.8609 92.5928 33.4569 90.8307 39.0232C89.0687 44.5894 84.8646 73.1867 83.7907 90.7906C83.0151 103.36 83.1105 104.468 83.2338 114.648C83.2338 114.648 142.534 117.165 152.748 117.165C153.408 117.165 155.91 116.529 159.49 115.505C159.613 108.541 160.102 101.641 161.804 98.2467Z" fill="#A5F2C4"/>
<path d="M154.323 38.7431C152.231 37.0795 94.4661 37.4607 92.7239 37.9133C91.9983 38.0907 91.3403 38.4757 90.8307 39.021C90.3464 39.9358 89.9534 40.8959 89.6573 41.8875C88.7745 44.8854 88.0784 47.9351 87.5731 51.0189C86.5629 57.3157 85.2384 67.1618 84.3156 80.8312C84.2122 82.4709 84.1128 84.1741 84.0213 85.9289C83.9895 87.4932 84.0531 90.5145 84.9679 90.9631C86.2049 91.5666 145.684 92.0946 148.512 90.054C151.34 88.0133 151.431 86.1235 151.936 78.8699C152.441 71.6163 153.925 52.1941 154.72 48.1127C155.516 44.0314 156.403 40.4066 154.323 38.7431Z" fill="url(#paint40_linear_9663_677)"/>
<path d="M154.323 38.7431C152.231 37.0795 94.4661 37.4607 92.7239 37.9133C91.9983 38.0907 91.3403 38.4757 90.8307 39.021C90.3464 39.9358 89.9534 40.8959 89.6573 41.8875C88.7745 44.8854 88.0784 47.9351 87.5731 51.0189C86.5629 57.3157 85.2384 67.1618 84.3156 80.8312C84.2122 82.4709 84.1128 84.1741 84.0213 85.9289C83.9895 87.4932 84.0531 90.5145 84.9679 90.9631C85.8128 91.0937 86.6665 91.16 87.5214 91.1616C88.3169 78.2545 87.8118 74.6575 90.5403 58.0343C92.6603 48.2914 96.061 49.141 100.91 49.141C99.9072 64.1087 98.177 76.4679 97.4293 91.4356C115.574 91.5944 146.678 91.376 148.512 90.054C151.344 88.0133 151.431 86.1235 151.936 78.8699C152.441 71.6163 153.925 52.1941 154.72 48.1127C155.516 44.0314 156.403 40.4066 154.323 38.7431Z" fill="url(#paint41_linear_9663_677)"/>
<path d="M154.323 38.7431C152.231 37.0795 94.4661 37.4607 92.724 37.9133C91.9984 38.0907 91.3404 38.4757 90.8308 39.021C90.3465 39.9358 89.9535 40.8959 89.6574 41.8875C89.3114 42.9753 88.9256 44.4324 88.5159 46.2547L154.999 46.7867C155.691 43.2611 156.188 40.2239 154.323 38.7431Z" fill="url(#paint42_linear_9663_677)"/>
<path d="M90.5562 105.033C90.5562 105.033 86.9089 104.148 85.2424 98.2285C83.3968 94.8816 82.7127 100.488 82.8559 104.763C82.9633 107.896 88.5277 108.031 90.2062 107.697C91.8847 107.364 92.4853 105.947 90.5562 105.033Z" fill="#3F3D56"/>
<path d="M91.5187 105.752L91.467 105.689C91.2325 105.426 90.9396 105.222 90.6118 105.093C89.5572 104.754 88.6206 104.124 87.9111 103.275C86.7573 101.989 85.9066 100.461 85.4213 98.8042C84.065 97.363 83.5598 101.583 83.6752 104.883C83.7706 107.523 88.7782 107.638 90.2897 107.356C91.4113 107.13 91.996 106.419 91.5187 105.752Z" fill="#3F3D56"/>
<path d="M86.4753 101.254C86.0376 100.472 85.6843 99.6453 85.4213 98.7886C84.419 97.7206 83.882 99.7613 83.715 102.231C84.2082 101.536 85.473 101.29 86.4753 101.254Z" fill="#A5F2C4"/>
<path d="M100.87 35.539C100.87 35.539 152.577 35.539 160.532 36.8452C164.907 37.9132 203.842 60.9364 203.842 60.9364L201.913 57.7126C201.913 57.7126 173.049 36.3489 162.827 32.3033C152.605 28.2576 102.93 25.5499 100.87 35.539Z" fill="#A5F2C4"/>
<path style="mix-blend-mode:multiply" opacity="0.5" d="M100.87 35.539C100.87 35.539 152.577 35.539 160.532 36.8452C164.907 37.9132 203.842 60.9364 203.842 60.9364L201.913 57.7126C201.913 57.7126 173.049 36.3489 162.827 32.3033C152.605 28.2576 102.93 25.5499 100.87 35.539Z" fill="url(#paint43_linear_9663_677)"/>
<path d="M208.09 97.8428C208.05 94.8492 207.569 75.7764 207.39 70.6429C207.211 65.5094 207.41 63.2861 206.05 62.4286C204.689 61.571 180.526 44.6699 170.125 39.7508C159.724 34.8317 159.239 36.2292 157.481 41.7954C155.723 47.3616 153.75 71.4409 153.153 85.7257C152.597 99.1331 152.756 119.782 152.756 119.782L163.582 116.411C163.527 115.197 163.511 113.926 163.539 112.62C163.729 103.58 165.901 96.1991 168.395 96.1316C170.889 96.0641 172.77 103.345 172.559 112.386C172.559 112.783 172.536 113.207 172.52 113.612C179.87 111.31 187.968 108.749 194.507 106.649C194.483 105.958 194.475 105.239 194.507 104.501C194.622 98.883 195.975 94.2974 197.522 94.2577C199.069 94.218 200.23 98.7361 200.111 104.354C200.111 104.517 200.111 104.679 200.111 104.842L200.843 104.604C200.843 104.12 200.843 103.623 200.843 103.115C200.95 98.1167 202.152 94.0354 203.528 93.9837C204.904 93.9321 205.914 97.9539 205.831 102.901C206.328 102.749 206.811 102.555 207.275 102.321C208.229 101.483 208.11 100.84 208.09 97.8428Z" fill="#A5F2C4"/>
<path d="M208.09 97.8428C208.05 94.8492 207.569 75.7764 207.39 70.6429C207.211 65.5094 207.41 63.2861 206.05 62.4286C204.689 61.571 180.526 44.6699 170.125 39.7508C159.724 34.8317 159.239 36.2292 157.481 41.7954C155.723 47.3616 153.75 71.4409 153.153 85.7257C152.597 99.1331 152.756 119.782 152.756 119.782L163.582 116.411C163.527 115.197 163.511 113.926 163.539 112.62C163.729 103.58 165.901 96.1991 168.395 96.1316C170.889 96.0641 172.77 103.345 172.559 112.386C172.559 112.783 172.536 113.207 172.52 113.612C179.87 111.31 187.968 108.749 194.507 106.649C194.483 105.958 194.475 105.239 194.507 104.501C194.622 98.883 195.975 94.2974 197.522 94.2577C199.069 94.218 200.23 98.7361 200.111 104.354C200.111 104.517 200.111 104.679 200.111 104.842L200.843 104.604C200.843 104.12 200.843 103.623 200.843 103.115C200.95 98.1167 202.152 94.0354 203.528 93.9837C204.904 93.9321 205.914 97.9539 205.831 102.901C206.328 102.749 206.811 102.555 207.275 102.321C208.229 101.483 208.11 100.84 208.09 97.8428Z" fill="url(#paint44_linear_9663_677)"/>
<path d="M158.897 83.3046C160.786 73.2282 163.053 65.4386 173.613 67.384C180.713 68.7021 198.647 75.4396 206.845 78.6515C206.845 78.6515 206.845 76.3964 206.801 75.7532C206.578 71.251 206.746 68.9523 205.369 68.2932C203.993 67.6342 180.268 51.9598 169.763 48.5176C159.259 45.0755 158.821 46.5325 157.186 52.3489C155.993 56.5573 154.911 70.4967 154.291 83.3165L158.881 83.3959C158.884 83.3651 158.89 83.3346 158.897 83.3046V83.3046Z" fill="url(#paint45_linear_9663_677)"/>
<path d="M156.844 83.3638L158.881 83.3955C158.879 83.3651 158.879 83.3346 158.881 83.3042C159.286 80.9431 159.817 78.6053 160.472 76.3008C158.817 78.0636 157.708 80.5092 156.844 83.3638Z" fill="url(#paint46_linear_9663_677)"/>
<g style="mix-blend-mode:multiply">
<path d="M179.472 52.9297L179.237 52.8105L178.772 68.6914L179.007 68.7589L179.472 52.9297Z" fill="#CDCDCD"/>
<path d="M191.222 59.6019L190.987 59.459L190.792 72.6639L191.027 72.7473L191.222 59.6019Z" fill="#CDCDCD"/>
<path d="M200.346 65.1938L200.111 65.0469V76.0761L200.346 76.1634V65.1938Z" fill="#CDCDCD"/>
</g>
<path d="M82.9712 108.723C82.9712 108.723 83.2377 109.477 87.2191 109.552C91.2005 109.628 151.34 110.533 153.368 109.394C153.396 113.213 153.702 119.78 152.74 120.228C151.546 120.788 90.2579 119.907 87.4259 119.526C84.594 119.144 83.532 118.696 83.178 116.052C82.824 113.407 82.9712 108.723 82.9712 108.723Z" fill="#A5F2C4"/>
<path d="M82.9712 108.723C82.9712 108.723 83.2377 109.477 87.2191 109.552C91.2005 109.628 151.34 110.533 153.368 109.394C153.396 113.213 153.702 119.78 152.74 120.228C151.546 120.788 90.2579 119.907 87.4259 119.526C84.594 119.144 83.532 118.696 83.178 116.052C82.824 113.407 82.9712 108.723 82.9712 108.723Z" fill="url(#paint47_linear_9663_677)"/>
<g style="mix-blend-mode:multiply">
<path d="M163.447 83.1113L164.756 47.038L164.521 46.9824L162.135 111.812L153.937 114.194C153.786 100.024 154.335 87.01 154.506 83.3058H154.267C154.068 87.5778 153.412 103.415 153.79 119.435L154.025 119.355C153.987 117.825 153.961 116.302 153.945 114.786L162.111 112.403L161.948 116.91L162.186 116.818L162.369 112.356H162.393V112.054L163.427 83.7227L174.663 84.7152L174.198 113.106L174.437 113.015L174.902 84.7351L184.54 85.5887L184.142 109.982L184.376 109.898L184.774 85.6085L193.441 86.3748L193.107 107.123L193.346 107.028L193.676 86.3827L207.851 87.6373V87.0338L163.447 83.1113Z" fill="#CDCDCD"/>
</g>
<path opacity="0.6" d="M156.077 83.3488C156.077 83.182 156.109 83.0153 156.121 82.8485L156.94 69.8262C157.111 67.1027 156.514 64.8317 155.556 64.2441C155.047 69.9334 154.609 76.7701 154.291 83.3011L156.077 83.3488Z" fill="#191919"/>
<path d="M84.968 90.968C86.209 91.5714 145.684 92.0995 148.512 90.0588C151.197 88.1253 151.415 86.3228 151.861 79.9506C150.314 78.9382 147.299 78.1839 143.365 77.6321C142.434 77.501 141.452 77.3819 140.426 77.2747C138.564 77.0802 136.556 76.9174 134.459 76.7904L133.246 76.7189C131.727 76.6342 130.166 76.5654 128.565 76.5125L126.851 76.4608C125.295 76.4211 123.708 76.3894 122.117 76.3695C121.274 76.3695 120.423 76.3497 119.576 76.3457H118.363C113.987 76.3457 109.612 76.4013 105.531 76.5085C94.1122 76.8182 85.0197 77.4852 84.5384 77.902C84.4669 78.8628 84.3953 79.8355 84.3276 80.84C84.2216 82.4836 84.1235 84.1829 84.0333 85.9377C83.9935 87.494 84.0572 90.5154 84.968 90.968Z" fill="url(#paint48_linear_9663_677)"/>
<path d="M98.7299 76.8223C103.972 76.6833 109.704 76.6159 115.316 76.6834L115.753 67.5797C115.753 64.4988 112.015 62.0214 107.433 62.069C102.851 62.1167 99.1396 64.6338 99.1555 67.7186L98.7299 76.8223Z" fill="url(#paint49_linear_9663_677)"/>
<path d="M126.839 76.455C133.008 76.6258 138.803 76.9871 143.365 77.6461L143.874 67.0933C143.874 64.0124 140.135 61.535 135.549 61.5787C130.963 61.6224 127.26 64.1474 127.272 67.2323L126.839 76.455Z" fill="url(#paint50_linear_9663_677)"/>
<path d="M120.395 72.8671C120.53 73.1023 120.734 73.2907 120.98 73.407V73.407C122.404 74.2527 123.867 75.0308 125.355 75.7296C125.604 75.8714 125.884 75.9504 126.17 75.9598C126.601 75.8849 126.991 75.6581 127.268 75.3206C128.187 74.4472 129.13 73.5301 129.591 72.343C129.871 71.4878 130.018 70.5946 130.025 69.6949C130.12 68.3927 130.112 67.0851 130.001 65.7842C129.854 64.5932 129.503 63.7475 128.74 64.3708C128.422 64.6289 125.956 71.815 125.685 71.6204L123.971 70.4651C123.582 70.1453 123.108 69.9453 122.607 69.8894C121.644 69.8894 121.016 70.8581 120.578 71.7157C120.466 71.8828 120.391 72.0724 120.359 72.2712C120.328 72.4701 120.34 72.6734 120.395 72.8671V72.8671Z" fill="#A5F2C4"/>
<path d="M120.98 73.4061C122.404 74.2517 123.867 75.0299 125.355 75.7286C125.604 75.8705 125.884 75.9495 126.17 75.9589C126.601 75.884 126.991 75.6571 127.268 75.3197C128.187 74.4463 129.13 73.5292 129.591 72.3421C129.871 71.4869 130.018 70.5937 130.025 69.6939C130.12 68.3918 130.112 67.0842 130.001 65.7833C129.81 65.5927 129.523 68.225 129.205 68.4949C128.887 68.7649 126.473 73.3068 126.174 73.1004C125.606 72.7034 125.033 72.3262 124.46 71.945C124.071 71.6252 123.597 71.4252 123.096 71.3694C122.133 71.3694 121.505 72.3381 121.071 73.1957C121.043 73.2711 121.004 73.3386 120.98 73.4061Z" fill="url(#paint51_linear_9663_677)"/>
<path d="M128.561 76.5055C130.152 76.5611 131.712 76.6299 133.242 76.712L134.455 76.7834C136.563 76.9105 138.572 77.0732 140.422 77.2678C140.422 76.7874 140.477 73.5517 140.453 73.0951C140.33 70.8638 141.989 67.0247 141.587 64.8252C141.388 63.7254 132.355 61.3076 129.877 63.1061C129.393 63.4171 129.003 63.8553 128.752 64.3726C128.572 64.9383 128.532 65.5391 128.636 66.1234C128.803 67.8346 128.966 69.5378 129.13 71.249C129.173 71.6579 128.752 74.4728 128.561 76.5055Z" fill="#A5F2C4"/>
<path d="M128.561 76.5092C130.152 76.5647 131.712 76.6336 133.242 76.7156L133.958 76.7553L134.456 76.7871C136.564 76.9141 138.572 77.0769 140.422 77.2714C140.422 76.791 140.477 73.5553 140.454 73.0988C140.449 72.2966 140.541 71.4969 140.728 70.7166C141.15 68.6918 141.866 66.3732 141.587 64.8447C141.388 63.745 132.355 61.3271 129.877 63.1256C129.393 63.4366 129.003 63.8748 128.752 64.3921C128.572 64.9578 128.533 65.5586 128.637 66.143C128.804 67.8541 128.967 69.5573 129.13 71.2685C129.173 71.6615 128.752 74.4764 128.561 76.5092Z" fill="url(#paint52_linear_9663_677)"/>
<path d="M133.95 76.7545L134.448 76.7862C136.556 76.9133 138.564 77.0761 140.414 77.2706C140.414 76.7902 140.469 73.5545 140.446 73.0979C140.441 72.2958 140.534 71.496 140.72 70.7158C140.589 70.426 140.454 70.1361 140.322 69.8503C140.207 69.4891 140.036 69.1477 139.817 68.8379C139.419 69.0364 139.682 70.0885 139.594 70.5014C139.523 70.8309 138.723 73.3917 138.222 74.158C138.126 74.3287 137.99 74.4733 137.824 74.5788C137.575 74.6882 137.3 74.7293 137.029 74.6979C135.836 74.6582 134.642 74.6106 133.473 74.5431C133.39 75.2855 133.859 75.9962 133.95 76.7545Z" fill="url(#paint53_linear_9663_677)"/>
<path d="M135.092 74.9354C135.653 75.2649 134.976 76.2098 135.629 76.2217C136.746 76.2217 140.179 75.8803 141.297 75.9002C142.49 75.9002 143.683 75.1061 144.431 74.1731C144.647 73.8774 144.802 73.541 144.884 73.1841C144.967 72.8272 144.977 72.4573 144.912 72.0967C144.779 71.3769 144.549 70.6785 144.228 70.0203C143.85 69.1548 142.112 64.2556 141.134 64.6407C140.736 64.8034 140.398 65.3513 140.159 66.0541C139.721 67.4237 139.551 68.8645 139.658 70.2982C139.745 70.731 140.788 71.4893 140.453 71.8108C140.35 71.8959 140.233 71.963 140.107 72.0094C138.556 72.6825 136.89 73.0531 135.199 73.1012C134.885 73.653 134.527 74.6059 135.092 74.9354Z" fill="#A5F2C4"/>
<path d="M135.629 76.2227C136.746 76.2227 140.179 75.8813 141.297 75.9011C142.49 75.9011 143.683 75.1071 144.431 74.1741C144.647 73.8784 144.802 73.5419 144.884 73.185C144.967 72.8282 144.977 72.4583 144.912 72.0977C144.794 72.5174 144.58 72.9045 144.289 73.2294C143.997 73.5542 143.635 73.8081 143.23 73.9716C141.726 74.5076 136.07 74.8172 136.07 74.8172L135.104 74.9363C135.653 75.2659 134.976 76.2108 135.629 76.2227Z" fill="url(#paint54_linear_9663_677)"/>
<path d="M136.042 75.0864C135.984 75.4436 135.816 75.7739 135.561 76.0313C135.485 75.9456 135.437 75.8391 135.422 75.7256C135.356 75.4913 135.342 75.2455 135.38 75.0051C135.417 74.7647 135.506 74.5352 135.641 74.3321C136.118 73.7088 136.098 74.7807 136.042 75.0864Z" fill="#191919"/>
<path d="M136.488 61.8199C136.528 62.5862 136.488 63.408 135.987 64.0075C135.701 64.3125 135.352 64.5523 134.965 64.7102C134.606 64.8985 134.208 65.0005 133.803 65.008C133.601 65.0079 133.403 64.9522 133.23 64.8472C133.058 64.7422 132.917 64.5918 132.825 64.4124C132.588 63.8095 132.515 63.1548 132.614 62.5147C132.845 61.7802 132.88 60.9742 133.258 60.2993C133.636 59.6244 134.98 59.5053 135.84 59.5609C136.237 59.5886 136.424 59.7157 136.468 60.1048C136.516 60.6527 136.456 61.2641 136.488 61.8199Z" fill="url(#paint55_linear_9663_677)"/>
<path d="M135.068 62.8978C134.83 63.4514 134.427 63.9185 133.914 64.2358C133.723 64.3555 133.504 64.4239 133.278 64.4343C133.165 64.4388 133.052 64.4171 132.949 64.371C132.845 64.3249 132.754 64.2555 132.681 64.1683C132.553 63.9488 132.499 63.6942 132.526 63.4417V61.6154C132.517 61.4877 132.539 61.3597 132.59 61.2422C132.65 61.1556 132.728 61.0828 132.818 61.0287C132.909 60.9746 133.01 60.9405 133.115 60.9286C133.68 60.7896 134.762 60.5316 135.235 61.0159C135.708 61.5003 135.291 62.4055 135.068 62.8978Z" fill="url(#paint56_linear_9663_677)"/>
<path d="M129.889 60.3176C129.949 61.2426 130.176 62.3027 130.987 62.7354C131.304 62.8904 131.649 62.9796 132.001 62.9974C132.865 63.109 133.744 62.9798 134.539 62.6242C135.411 62.1485 136.079 61.3723 136.42 60.4406C136.752 59.515 136.914 58.5372 136.897 57.5543C136.897 56.1528 136.619 54.529 135.398 53.8422C134.912 53.595 134.376 53.4593 133.831 53.4451C132.602 53.3697 129.806 53.2744 129.965 55.0094C130.124 56.7444 129.754 58.523 129.889 60.3176Z" fill="url(#paint57_linear_9663_677)"/>
<path d="M129.754 52.9051C129.871 52.5716 130.06 52.2675 130.306 52.0138C130.553 51.7602 130.852 51.5631 131.182 51.4362C131.778 51.254 132.404 51.1919 133.024 51.2535C133.664 51.2813 134.304 51.3131 134.945 51.3528C135.663 51.3535 136.374 51.4966 137.037 51.7736C137.371 51.9193 137.643 52.178 137.804 52.5042C137.882 52.7649 137.943 53.03 137.987 53.2982C138.083 53.6396 138.29 53.9414 138.385 54.2749C138.524 54.9378 138.47 55.6266 138.23 56.26C137.952 57.2525 137.629 58.3126 136.814 58.9399C136.989 58.4018 136.966 57.8192 136.75 57.2962C136.574 57.4313 136.426 57.6009 136.318 57.7948C136.209 57.9887 136.141 58.2027 136.118 58.4237C135.919 58.4237 135.883 58.1339 135.903 57.9354C135.998 57.3754 136.039 56.8078 136.027 56.2401C136.018 55.9553 135.948 55.6756 135.822 55.4201C135.696 55.1646 135.516 54.9392 135.295 54.7592C134.575 54.2431 133.588 54.4972 132.717 54.652C132.041 54.7751 130.784 55.0491 130.124 54.7791C129.464 54.5091 129.551 53.4769 129.754 52.9051Z" fill="#3F3D56"/>
<path d="M118.351 76.3385H119.564C119.87 73.1901 122.813 70.7167 126.385 70.7167C130.1 70.7167 133.147 73.3926 133.234 76.7117C133.632 76.7355 134.03 76.7554 134.447 76.7832C134.388 72.7653 130.796 69.5098 126.385 69.5098C122.141 69.5296 118.653 72.5271 118.351 76.3385Z" fill="#191919"/>
<g opacity="0.5">
<path d="M154.275 73.2013C153.794 75.365 151.24 77.0325 148.572 76.9253C145.903 76.8142 144.129 74.972 144.594 72.8082L146.583 63.9031C147.064 61.7393 149.618 60.0718 152.286 60.183C154.955 60.2902 156.729 62.1324 156.264 64.2961L154.275 73.2013Z" fill="#191919"/>
<path d="M164.648 73.6212C164.167 75.785 158.945 86.0876 156.272 85.9765L154.283 85.1546C151.614 85.0435 151.821 84.0271 152.294 81.8633L156.948 64.327C157.429 62.1592 159.983 60.4917 162.652 60.6029C165.325 60.7101 167.095 62.5523 166.629 64.716L164.648 73.6212Z" fill="#191919"/>
</g>
<path d="M136.003 105.093C136.003 105.093 142.764 103.655 147.215 99.8042C150.723 96.7789 152.644 101.849 151.761 105.696C150.878 109.543 140.998 108.646 137.808 108.34C134.619 108.034 134.129 105.597 136.003 105.093Z" fill="#3F3D56"/>
<path d="M136.735 105.103C136.735 105.103 143.063 103.873 147.251 100.577C150.54 97.9887 152.346 102.328 151.515 105.619C150.683 108.911 141.42 108.141 138.429 107.882C135.438 107.624 134.976 105.532 136.735 105.103Z" fill="#3F3D56"/>
<path d="M151.447 105.814C151.474 105.751 151.496 105.686 151.515 105.619C152.346 102.328 150.54 97.9887 147.251 100.577C146.889 100.859 146.515 101.129 146.125 101.371C148.786 101.995 150.723 103.551 151.447 105.814Z" fill="#A5F2C4"/>
<path d="M148.213 105.169C148.213 106.475 147.299 107.551 146.173 107.551C145.047 107.551 144.132 106.491 144.132 105.169C144.132 103.847 145.047 102.787 146.173 102.787C147.299 102.787 148.213 103.863 148.213 105.169Z" fill="#A5F2C4"/>
<path d="M142.581 105.941C142.581 106.929 141.889 107.727 141.038 107.727C140.187 107.727 139.499 106.933 139.499 105.941C139.499 104.948 140.187 104.154 141.038 104.154C141.889 104.154 142.581 104.952 142.581 105.941Z" fill="#A5F2C4"/>
<path d="M83.6594 104.268C83.6594 105.293 84.3713 106.122 85.2503 106.122C86.1293 106.122 86.8413 105.293 86.8413 104.268C86.8413 103.244 86.1293 102.41 85.2503 102.41C84.3713 102.41 83.6594 103.244 83.6594 104.268Z" fill="#A5F2C4"/>
<path d="M86.8413 105.55C86.8778 105.779 86.9793 105.992 87.1336 106.165C87.2879 106.338 87.4887 106.463 87.712 106.525C87.9354 106.588 88.172 106.585 88.3939 106.517C88.6157 106.45 88.8135 106.32 88.9637 106.144C89.1139 105.967 89.2103 105.751 89.2415 105.522C89.2726 105.292 89.2372 105.059 89.1394 104.849C89.0416 104.639 88.8855 104.461 88.6897 104.337C88.4939 104.213 88.2665 104.148 88.0346 104.148C87.6915 104.18 87.3744 104.344 87.1514 104.606C86.9283 104.868 86.817 105.207 86.8413 105.55V105.55Z" fill="#A5F2C4"/>
<path d="M86.4753 101.254C86.0376 100.472 85.6843 99.6453 85.4213 98.7886C84.419 97.7206 83.882 99.7613 83.715 102.231C84.2082 101.536 85.473 101.29 86.4753 101.254Z" fill="url(#paint58_linear_9663_677)"/>
<path d="M151.447 105.814C151.474 105.751 151.496 105.686 151.515 105.619C152.346 102.328 150.54 97.9887 147.251 100.577C146.889 100.859 146.515 101.129 146.125 101.371C148.786 101.995 150.723 103.551 151.447 105.814Z" fill="url(#paint59_linear_9663_677)"/>
<path d="M148.213 105.169C148.213 106.475 147.299 107.551 146.173 107.551C145.047 107.551 144.132 106.491 144.132 105.169C144.132 103.847 145.047 102.787 146.173 102.787C147.299 102.787 148.213 103.863 148.213 105.169Z" fill="url(#paint60_linear_9663_677)"/>
<path d="M142.581 105.941C142.581 106.929 141.889 107.727 141.038 107.727C140.187 107.727 139.499 106.933 139.499 105.941C139.499 104.948 140.187 104.154 141.038 104.154C141.889 104.154 142.581 104.952 142.581 105.941Z" fill="url(#paint61_linear_9663_677)"/>
<path d="M83.6594 104.268C83.6594 105.293 84.3713 106.122 85.2503 106.122C86.1293 106.122 86.8413 105.293 86.8413 104.268C86.8413 103.244 86.1293 102.41 85.2503 102.41C84.3713 102.41 83.6594 103.244 83.6594 104.268Z" fill="url(#paint62_linear_9663_677)"/>
<path d="M86.8413 105.55C86.8778 105.779 86.9793 105.992 87.1336 106.165C87.2879 106.338 87.4887 106.463 87.712 106.525C87.9354 106.588 88.172 106.585 88.3939 106.517C88.6157 106.45 88.8135 106.32 88.9637 106.144C89.1139 105.967 89.2103 105.751 89.2415 105.522C89.2726 105.292 89.2372 105.059 89.1394 104.849C89.0416 104.639 88.8855 104.461 88.6897 104.337C88.4939 104.213 88.2665 104.148 88.0346 104.148C87.6915 104.18 87.3744 104.344 87.1514 104.606C86.9283 104.868 86.817 105.207 86.8413 105.55V105.55Z" fill="url(#paint63_linear_9663_677)"/>
<path d="M159.907 91.8008C159.907 91.9279 159.951 92.0271 160.003 92.0192L161.351 91.8525C161.403 91.8525 161.442 91.7373 161.442 91.6103V91.0703C161.442 90.9433 161.403 90.848 161.351 90.8559L159.999 91.0227C159.947 91.0227 159.907 91.1338 159.907 91.2609V91.8008Z" fill="url(#paint64_linear_9663_677)"/>
<path d="M179.691 107.004C179.691 107.099 179.723 107.17 179.763 107.166L180.765 107.043C180.805 107.043 180.833 106.956 180.833 106.865V106.468C180.833 106.372 180.801 106.301 180.765 106.305L179.759 106.432C179.723 106.432 179.691 106.515 179.691 106.611V107.004Z" fill="url(#paint65_linear_9663_677)"/>
<path d="M188.994 105.208C188.994 105.284 189.018 105.343 189.05 105.339L189.873 105.26C189.905 105.26 189.929 105.189 189.929 105.113V104.784C189.929 104.704 189.905 104.649 189.873 104.653L189.05 104.752C189.018 104.752 188.994 104.823 188.994 104.899V105.208Z" fill="url(#paint66_linear_9663_677)"/>
<path opacity="0.18" d="M131.162 37.4922L97.4295 91.4353L84.9681 90.9589L115.69 37.9766L131.162 37.4922Z" fill="#A5F2C4"/>
<path opacity="0.18" d="M197.076 63.4735L188.028 71.9141L176.608 68.1385L188.052 57.8438L197.076 63.4735Z" fill="#A5F2C4"/>
<path d="M100.217 100.15H125.522V107.872H100.217V100.15Z" fill="url(#paint67_linear_9663_677)"/>
<path d="M148.448 95.1075C148.521 94.6607 148.499 94.2036 148.385 93.7656C146.559 99.0182 132.049 103.183 115.169 103.183C99.1278 103.183 86.5312 99.4152 85.2942 94.5358C85.2299 94.7195 85.1807 94.908 85.1471 95.0996C84.1965 100.61 97.6005 105.085 115.077 105.085C132.554 105.085 147.494 100.622 148.448 95.1075Z" fill="url(#paint68_linear_9663_677)"/>
<path d="M123.179 69.808C123.357 69.9094 123.514 70.0442 123.641 70.205C123.769 70.4498 123.831 70.7231 123.824 70.999C123.859 71.1966 123.824 71.4002 123.724 71.5747C123.601 71.7335 123.303 71.7534 123.231 71.5747C123.222 71.6809 123.19 71.7837 123.136 71.8758C123.083 71.9678 123.009 72.0467 122.921 72.1067C122.831 72.1636 122.723 72.186 122.618 72.17C122.513 72.1539 122.417 72.1004 122.348 72.0194C122.39 72.2229 122.36 72.4345 122.265 72.6189C122.145 72.7896 121.839 72.8253 121.751 72.6387C121.712 72.8531 121.632 73.1112 121.421 73.1628C121.346 73.1742 121.27 73.1651 121.2 73.1364C121.13 73.1077 121.069 73.0606 121.024 73C120.934 72.8768 120.859 72.7436 120.801 72.603C120.782 72.5623 120.753 72.5268 120.717 72.4998C120.668 72.4861 120.616 72.4861 120.566 72.4998C120.452 72.5117 120.338 72.5117 120.224 72.4998C120.168 72.4975 120.115 72.4765 120.073 72.4402C120.051 72.404 120.039 72.3631 120.037 72.3211C119.993 71.7375 120.435 71.2571 120.749 70.733C120.981 70.3159 121.329 69.9751 121.751 69.7524C121.944 69.6123 122.168 69.5197 122.404 69.4824C122.688 69.5142 122.958 69.6272 123.179 69.808V69.808Z" fill="url(#paint69_linear_9663_677)"/>
<path d="M135.052 73.1032C135.293 73.2096 135.507 73.3681 135.679 73.5672C135.851 73.7664 135.976 74.0011 136.046 74.2546C136.105 74.512 136.058 74.782 135.917 75.0053C135.776 75.2285 135.552 75.3869 135.295 75.4456C135.046 75.4465 134.799 75.4076 134.563 75.3305C134.03 75.2154 133.437 75.2709 132.972 74.9771L132.825 75.1876C132.696 75.2047 132.565 75.1846 132.447 75.1297C132.329 75.0748 132.23 74.9874 132.16 74.8779C132.005 74.6714 131.918 74.4173 131.763 74.203C131.607 73.9886 131.397 73.7702 131.261 73.5201C131.191 73.3884 131.148 73.2442 131.134 73.0957C131.12 72.9472 131.136 72.7974 131.181 72.6551C131.226 72.5129 131.299 72.3809 131.395 72.267C131.492 72.1531 131.61 72.0594 131.743 71.9916C131.906 71.9282 132.08 71.8981 132.255 71.9028C132.43 71.9076 132.602 71.9472 132.761 72.0193C133.131 72.1702 133.401 72.472 133.751 72.6347C134.169 72.8293 134.638 72.8769 135.052 73.1032Z" fill="url(#paint70_linear_9663_677)"/>
<path d="M139.658 70.2976C139.745 70.7304 140.787 71.4887 140.453 71.8103C140.679 71.7556 140.89 71.6523 141.071 71.5076C141.253 71.3628 141.4 71.1802 141.503 70.9726C141.726 70.512 141.324 69.8252 140.76 68.7016C140.396 67.8486 140.205 66.9327 140.195 66.0059L140.147 66.0535C139.713 67.4239 139.547 68.8647 139.658 70.2976Z" fill="url(#paint71_linear_9663_677)"/>
<path d="M138.477 63.475L137.104 67.739L134.889 67.6159C134.889 67.6159 136.432 62.5063 136.48 61.8234C136.528 61.1405 138.596 61.7837 138.477 63.475Z" fill="white"/>
<path d="M132.252 67.2357C131.473 67.2873 130.692 67.2674 129.917 67.1762C130.012 65.739 130.669 64.397 131.317 63.1186C131.331 63.0817 131.354 63.0489 131.385 63.0233C131.428 62.9985 131.478 62.9874 131.528 62.9916H132.144C132.27 62.9748 132.399 62.9985 132.51 63.0591C132.749 63.2139 132.407 64.6074 132.379 64.9211C132.311 65.6754 132.268 66.4576 132.252 67.2357Z" fill="white"/>
</g>
<defs>
<linearGradient id="paint0_linear_9663_677" x1="57.455" y1="75.3706" x2="47.0865" y2="78.8338" gradientUnits="userSpaceOnUse">
<stop offset="0.12" stop-color="#010101" stop-opacity="0"/>
<stop offset="0.95" stop-color="#010101"/>
</linearGradient>
<linearGradient id="paint1_linear_9663_677" x1="56.3599" y1="99.7238" x2="97.285" y2="96.8965" gradientUnits="userSpaceOnUse">
<stop offset="0.12" stop-color="#010101" stop-opacity="0"/>
<stop offset="0.95" stop-color="#010101"/>
</linearGradient>
<linearGradient id="paint2_linear_9663_677" x1="35.8999" y1="101.558" x2="52.1795" y2="101.558" gradientUnits="userSpaceOnUse">
<stop offset="0.12" stop-color="#010101" stop-opacity="0"/>
<stop offset="0.95" stop-color="#010101"/>
</linearGradient>
<linearGradient id="paint3_linear_9663_677" x1="43.5893" y1="101.364" x2="61.4528" y2="101.364" gradientUnits="userSpaceOnUse">
<stop offset="0.12" stop-color="#010101" stop-opacity="0"/>
<stop offset="0.95" stop-color="#010101"/>
</linearGradient>
<linearGradient id="paint4_linear_9663_677" x1="79.2318" y1="71.9379" x2="73.7652" y2="70.5933" gradientUnits="userSpaceOnUse">
<stop offset="0.12" stop-color="#010101" stop-opacity="0"/>
<stop offset="0.95" stop-color="#010101"/>
</linearGradient>
<linearGradient id="paint5_linear_9663_677" x1="71.0105" y1="66.1614" x2="86.5881" y2="55.923" gradientUnits="userSpaceOnUse">
<stop offset="0.12" stop-color="#010101" stop-opacity="0"/>
<stop offset="0.95" stop-color="#010101"/>
</linearGradient>
<linearGradient id="paint6_linear_9663_677" x1="73.8465" y1="74.209" x2="46.6454" y2="72.6183" gradientUnits="userSpaceOnUse">
<stop offset="0.12" stop-color="#010101" stop-opacity="0"/>
<stop offset="0.95" stop-color="#010101"/>
</linearGradient>
<linearGradient id="paint7_linear_9663_677" x1="76.0347" y1="64.5165" x2="80.1129" y2="64.5165" gradientUnits="userSpaceOnUse">
<stop stop-color="#E5C6D6"/>
<stop offset="0.42" stop-color="#EAD4D0"/>
<stop offset="1" stop-color="#F0E9CB"/>
</linearGradient>
<linearGradient id="paint8_linear_9663_677" x1="78.8785" y1="59.9336" x2="70.9929" y2="59.5365" gradientUnits="userSpaceOnUse">
<stop offset="0.12" stop-color="#010101" stop-opacity="0"/>
<stop offset="0.95" stop-color="#010101"/>
</linearGradient>
<linearGradient id="paint9_linear_9663_677" x1="71.9447" y1="55.9605" x2="79.3299" y2="55.9605" gradientUnits="userSpaceOnUse">
<stop stop-color="#E5C6D6"/>
<stop offset="0.42" stop-color="#EAD4D0"/>
<stop offset="1" stop-color="#F0E9CB"/>
</linearGradient>
<linearGradient id="paint10_linear_9663_677" x1="75.646" y1="57.9702" x2="71.7676" y2="63.4974" gradientUnits="userSpaceOnUse">
<stop offset="0.12" stop-color="#010101" stop-opacity="0"/>
<stop offset="0.95" stop-color="#010101"/>
</linearGradient>
<linearGradient id="paint11_linear_9663_677" x1="70.7863" y1="42.7146" x2="73.1528" y2="42.4071" gradientUnits="userSpaceOnUse">
<stop stop-color="#E5C6D6"/>
<stop offset="0.42" stop-color="#EAD4D0"/>
<stop offset="1" stop-color="#F0E9CB"/>
</linearGradient>
<linearGradient id="paint12_linear_9663_677" x1="71.536" y1="42.9563" x2="73.5627" y2="38.8579" gradientUnits="userSpaceOnUse">
<stop offset="0.12" stop-color="#010101" stop-opacity="0"/>
<stop offset="0.95" stop-color="#010101"/>
</linearGradient>
<linearGradient id="paint13_linear_9663_677" x1="42.7158" y1="62.1439" x2="54.8722" y2="71.992" gradientUnits="userSpaceOnUse">
<stop offset="0.12" stop-color="#010101" stop-opacity="0"/>
<stop offset="0.95" stop-color="#010101"/>
</linearGradient>
<linearGradient id="paint14_linear_9663_677" x1="37.8409" y1="67.9012" x2="49.742" y2="67.9012" gradientUnits="userSpaceOnUse">
<stop offset="0.12" stop-color="#010101" stop-opacity="0"/>
<stop offset="0.95" stop-color="#010101"/>
</linearGradient>
<linearGradient id="paint15_linear_9663_677" x1="48.6213" y1="60.4932" x2="55.2568" y2="60.4932" gradientUnits="userSpaceOnUse">
<stop stop-color="#E5C6D6"/>
<stop offset="0.42" stop-color="#EAD4D0"/>
<stop offset="1" stop-color="#F0E9CB"/>
</linearGradient>
<linearGradient id="paint16_linear_9663_677" x1="49.2024" y1="80.1321" x2="32.0377" y2="79.4322" gradientUnits="userSpaceOnUse">
<stop offset="0.12" stop-color="#010101" stop-opacity="0"/>
<stop offset="0.95" stop-color="#010101"/>
</linearGradient>
<linearGradient id="paint17_linear_9663_677" x1="70.8164" y1="39.3981" x2="75.5729" y2="38.7801" gradientUnits="userSpaceOnUse">
<stop stop-color="#E5C6D6"/>
<stop offset="0.42" stop-color="#EAD4D0"/>
<stop offset="1" stop-color="#F0E9CB"/>
</linearGradient>
<linearGradient id="paint18_linear_9663_677" x1="69.9507" y1="37.6158" x2="75.7168" y2="37.6158" gradientUnits="userSpaceOnUse">
<stop offset="0.12" stop-color="#010101" stop-opacity="0"/>
<stop offset="0.95" stop-color="#010101"/>
</linearGradient>
<linearGradient id="paint19_linear_9663_677" x1="65.9805" y1="37.4905" x2="70.096" y2="37.4905" gradientUnits="userSpaceOnUse">
<stop offset="0.12" stop-color="#010101" stop-opacity="0"/>
<stop offset="0.95" stop-color="#010101"/>
</linearGradient>
<linearGradient id="paint20_linear_9663_677" x1="66.9165" y1="34.1506" x2="71.6797" y2="34.1506" gradientUnits="userSpaceOnUse">
<stop offset="0.12" stop-color="#010101" stop-opacity="0"/>
<stop offset="0.95" stop-color="#010101"/>
</linearGradient>
<linearGradient id="paint21_linear_9663_677" x1="63.7086" y1="37.2456" x2="68.2579" y2="35.9825" gradientUnits="userSpaceOnUse">
<stop stop-color="#E5C6D6"/>
<stop offset="0.42" stop-color="#EAD4D0"/>
<stop offset="1" stop-color="#F0E9CB"/>
</linearGradient>
<linearGradient id="paint22_linear_9663_677" x1="64.4771" y1="48.4532" x2="91.7131" y2="61.486" gradientUnits="userSpaceOnUse">
<stop offset="0.12" stop-color="#010101" stop-opacity="0"/>
<stop offset="0.95" stop-color="#010101"/>
</linearGradient>
<linearGradient id="paint23_linear_9663_677" x1="69.7701" y1="47.5938" x2="77.0804" y2="46.3683" gradientUnits="userSpaceOnUse">
<stop stop-color="#E5C6D6"/>
<stop offset="0.42" stop-color="#EAD4D0"/>
<stop offset="1" stop-color="#F0E9CB"/>
</linearGradient>
<linearGradient id="paint24_linear_9663_677" x1="70.9882" y1="63.4897" x2="85.2536" y2="61.6361" gradientUnits="userSpaceOnUse">
<stop stop-color="#E5C6D6"/>
<stop offset="0.42" stop-color="#EAD4D0"/>
<stop offset="1" stop-color="#F0E9CB"/>
</linearGradient>
<linearGradient id="paint25_linear_9663_677" x1="77.0318" y1="67.0589" x2="80.1464" y2="67.0589" gradientUnits="userSpaceOnUse">
<stop stop-color="#E5C6D6"/>
<stop offset="0.42" stop-color="#EAD4D0"/>
<stop offset="1" stop-color="#F0E9CB"/>
</linearGradient>
<linearGradient id="paint26_linear_9663_677" x1="59.8512" y1="87.8741" x2="63.2818" y2="87.8741" gradientUnits="userSpaceOnUse">
<stop stop-color="#E5C6D6"/>
<stop offset="0.42" stop-color="#EAD4D0"/>
<stop offset="1" stop-color="#F0E9CB"/>
</linearGradient>
<linearGradient id="paint27_linear_9663_677" x1="60.3734" y1="87.3089" x2="63.227" y2="87.3089" gradientUnits="userSpaceOnUse">
<stop stop-color="#E5C6D6"/>
<stop offset="0.42" stop-color="#EAD4D0"/>
<stop offset="1" stop-color="#F0E9CB"/>
</linearGradient>
<linearGradient id="paint28_linear_9663_677" x1="39.5207" y1="89.323" x2="42.4921" y2="89.323" gradientUnits="userSpaceOnUse">
<stop stop-color="#E5C6D6"/>
<stop offset="0.42" stop-color="#EAD4D0"/>
<stop offset="1" stop-color="#F0E9CB"/>
</linearGradient>
<linearGradient id="paint29_linear_9663_677" x1="72.7199" y1="54.5995" x2="73.734" y2="54.2025" gradientUnits="userSpaceOnUse">
<stop offset="0.12" stop-color="#010101" stop-opacity="0"/>
<stop offset="0.95" stop-color="#010101"/>
</linearGradient>
<linearGradient id="paint30_linear_9663_677" x1="68.6672" y1="58.8322" x2="72.8632" y2="58.8322" gradientUnits="userSpaceOnUse">
<stop offset="0.12" stop-color="#010101" stop-opacity="0"/>
<stop offset="0.95" stop-color="#010101"/>
</linearGradient>
<linearGradient id="paint31_linear_9663_677" x1="127.562" y1="55.1233" x2="169.009" y2="168.105" gradientUnits="userSpaceOnUse">
<stop offset="0.01"/>
<stop offset="0.83" stop-opacity="0.07"/>
<stop offset="1" stop-opacity="0"/>
</linearGradient>
<linearGradient id="paint32_linear_9663_677" x1="196.615" y1="102.937" x2="204.279" y2="102.937" gradientUnits="userSpaceOnUse">
<stop offset="0.01"/>
<stop offset="0.83" stop-opacity="0.07"/>
<stop offset="1" stop-opacity="0"/>
</linearGradient>
<linearGradient id="paint33_linear_9663_677" x1="202.283" y1="103.083" x2="205.071" y2="103.083" gradientUnits="userSpaceOnUse">
<stop stop-color="white"/>
<stop offset="0.43" stop-color="#FDFDFD"/>
<stop offset="0.68" stop-color="#F5F5F5"/>
<stop offset="0.87" stop-color="#E7E7E8"/>
<stop offset="0.97" stop-color="#DDDEDF"/>
</linearGradient>
<linearGradient id="paint34_linear_9663_677" x1="147.677" y1="108.694" x2="182.483" y2="114.989" gradientUnits="userSpaceOnUse">
<stop offset="0.01"/>
<stop offset="0.83" stop-opacity="0.07"/>
<stop offset="1" stop-opacity="0"/>
</linearGradient>
<linearGradient id="paint35_linear_9663_677" x1="166.14" y1="111.683" x2="170.996" y2="111.683" gradientUnits="userSpaceOnUse">
<stop stop-color="white"/>
<stop offset="0.43" stop-color="#FDFDFD"/>
<stop offset="0.68" stop-color="#F5F5F5"/>
<stop offset="0.87" stop-color="#E7E7E8"/>
<stop offset="0.97" stop-color="#DDDEDF"/>
</linearGradient>
<linearGradient id="paint36_linear_9663_677" x1="80.9547" y1="108.694" x2="115.761" y2="114.989" gradientUnits="userSpaceOnUse">
<stop offset="0.01"/>
<stop offset="0.83" stop-opacity="0.07"/>
<stop offset="1" stop-opacity="0"/>
</linearGradient>
<linearGradient id="paint37_linear_9663_677" x1="99.418" y1="111.683" x2="104.274" y2="111.683" gradientUnits="userSpaceOnUse">
<stop stop-color="white"/>
<stop offset="0.43" stop-color="#FDFDFD"/>
<stop offset="0.68" stop-color="#F5F5F5"/>
<stop offset="0.87" stop-color="#E7E7E8"/>
<stop offset="0.97" stop-color="#DDDEDF"/>
</linearGradient>
<linearGradient id="paint38_linear_9663_677" x1="188.728" y1="104.145" x2="198.373" y2="104.145" gradientUnits="userSpaceOnUse">
<stop offset="0.01"/>
<stop offset="0.83" stop-opacity="0.07"/>
<stop offset="1" stop-opacity="0"/>
</linearGradient>
<linearGradient id="paint39_linear_9663_677" x1="196.193" y1="104.302" x2="199.24" y2="104.302" gradientUnits="userSpaceOnUse">
<stop stop-color="white"/>
<stop offset="0.43" stop-color="#FDFDFD"/>
<stop offset="0.68" stop-color="#F5F5F5"/>
<stop offset="0.87" stop-color="#E7E7E8"/>
<stop offset="0.97" stop-color="#DDDEDF"/>
</linearGradient>
<linearGradient id="paint40_linear_9663_677" x1="174.023" y1="55.7554" x2="48.0005" y2="75.4501" gradientUnits="userSpaceOnUse">
<stop offset="0.01"/>
<stop offset="0.83" stop-opacity="0.07"/>
<stop offset="1" stop-opacity="0"/>
</linearGradient>
<linearGradient id="paint41_linear_9663_677" x1="123.672" y1="29.0478" x2="117.649" y2="83.3428" gradientUnits="userSpaceOnUse">
<stop offset="0.01"/>
<stop offset="0.83" stop-opacity="0.07"/>
<stop offset="1" stop-opacity="0"/>
</linearGradient>
<linearGradient id="paint42_linear_9663_677" x1="119.958" y1="54.08" x2="125.118" y2="32.2714" gradientUnits="userSpaceOnUse">
<stop offset="0.01"/>
<stop offset="0.83" stop-opacity="0.07"/>
<stop offset="1" stop-opacity="0"/>
</linearGradient>
<linearGradient id="paint43_linear_9663_677" x1="168.141" y1="43.793" x2="123.661" y2="50.8175" gradientUnits="userSpaceOnUse">
<stop stop-color="#2B2B2B"/>
<stop offset="0.22" stop-color="#2E2E2E"/>
<stop offset="0.41" stop-color="#383939"/>
<stop offset="0.6" stop-color="#494A4B"/>
<stop offset="0.77" stop-color="#616264"/>
<stop offset="0.94" stop-color="#7F8184"/>
<stop offset="1" stop-color="#8D8F92"/>
</linearGradient>
<linearGradient id="paint44_linear_9663_677" x1="184.75" y1="126.317" x2="175.837" y2="62.8489" gradientUnits="userSpaceOnUse">
<stop offset="0.01"/>
<stop offset="0.83" stop-opacity="0.07"/>
<stop offset="1" stop-opacity="0"/>
</linearGradient>
<linearGradient id="paint45_linear_9663_677" x1="186.453" y1="40.6725" x2="175.854" y2="99.5574" gradientUnits="userSpaceOnUse">
<stop offset="0.01"/>
<stop offset="0.83" stop-opacity="0.07"/>
<stop offset="1" stop-opacity="0"/>
</linearGradient>
<linearGradient id="paint46_linear_9663_677" x1="161.717" y1="58.2046" x2="162.945" y2="49.4576" gradientUnits="userSpaceOnUse">
<stop stop-color="white" stop-opacity="0"/>
<stop offset="0.12" stop-color="white" stop-opacity="0.04"/>
<stop offset="0.33" stop-color="white" stop-opacity="0.14"/>
<stop offset="0.59" stop-color="white" stop-opacity="0.3"/>
<stop offset="0.89" stop-color="white" stop-opacity="0.52"/>
<stop offset="1" stop-color="white" stop-opacity="0.6"/>
</linearGradient>
<linearGradient id="paint47_linear_9663_677" x1="114.31" y1="135.16" x2="123.465" y2="83.514" gradientUnits="userSpaceOnUse">
<stop offset="0.01"/>
<stop offset="0.83" stop-opacity="0.07"/>
<stop offset="1" stop-opacity="0"/>
</linearGradient>
<linearGradient id="paint48_linear_9663_677" x1="151.861" y1="83.9208" x2="84.0174" y2="83.9208" gradientUnits="userSpaceOnUse">
<stop offset="0.01"/>
<stop offset="0.83" stop-opacity="0.07"/>
<stop offset="1" stop-opacity="0"/>
</linearGradient>
<linearGradient id="paint49_linear_9663_677" x1="115.773" y1="69.4457" x2="98.7498" y2="69.4457" gradientUnits="userSpaceOnUse">
<stop offset="0.01"/>
<stop offset="0.83" stop-opacity="0.07"/>
<stop offset="1" stop-opacity="0"/>
</linearGradient>
<linearGradient id="paint50_linear_9663_677" x1="146.551" y1="62.3926" x2="114.848" y2="87.8663" gradientUnits="userSpaceOnUse">
<stop offset="0.01"/>
<stop offset="0.83" stop-opacity="0.07"/>
<stop offset="1" stop-opacity="0"/>
</linearGradient>
<linearGradient id="paint51_linear_9663_677" x1="131.647" y1="74.085" x2="125.852" y2="69.8387" gradientUnits="userSpaceOnUse">
<stop offset="0.01"/>
<stop offset="0.83" stop-opacity="0.07"/>
<stop offset="1" stop-opacity="0"/>
</linearGradient>
<linearGradient id="paint52_linear_9663_677" x1="136.834" y1="81.3925" x2="134.587" y2="67.6662" gradientUnits="userSpaceOnUse">
<stop offset="0.01"/>
<stop offset="0.83" stop-opacity="0.07"/>
<stop offset="1" stop-opacity="0"/>
</linearGradient>
<linearGradient id="paint53_linear_9663_677" x1="142.076" y1="80.2959" x2="135.133" y2="70.1998" gradientUnits="userSpaceOnUse">
<stop offset="0.01"/>
<stop offset="0.83" stop-opacity="0.07"/>
<stop offset="1" stop-opacity="0"/>
</linearGradient>
<linearGradient id="paint54_linear_9663_677" x1="137.295" y1="83.8772" x2="141.58" y2="68.2148" gradientUnits="userSpaceOnUse">
<stop offset="0.01"/>
<stop offset="0.83" stop-opacity="0.07"/>
<stop offset="1" stop-opacity="0"/>
</linearGradient>
<linearGradient id="paint55_linear_9663_677" x1="136.5" y1="62.2765" x2="132.558" y2="62.2765" gradientUnits="userSpaceOnUse">
<stop stop-color="#E5C5D5"/>
<stop offset="0.42" stop-color="#EAD4D1"/>
<stop offset="1" stop-color="#F0E9CB"/>
</linearGradient>
<linearGradient id="paint56_linear_9663_677" x1="133.135" y1="57.9192" x2="134.467" y2="65.257" gradientUnits="userSpaceOnUse">
<stop offset="0.01"/>
<stop offset="0.83" stop-opacity="0.07"/>
<stop offset="1" stop-opacity="0"/>
</linearGradient>
<linearGradient id="paint57_linear_9663_677" x1="136.897" y1="58.2213" x2="129.865" y2="58.2213" gradientUnits="userSpaceOnUse">
<stop stop-color="#E5C5D5"/>
<stop offset="0.42" stop-color="#EAD4D1"/>
<stop offset="1" stop-color="#F0E9CB"/>
</linearGradient>
<linearGradient id="paint58_linear_9663_677" x1="86.4753" y1="100.365" x2="83.715" y2="100.365" gradientUnits="userSpaceOnUse">
<stop offset="0.02" stop-color="white" stop-opacity="0"/>
<stop offset="0.39" stop-color="white" stop-opacity="0.39"/>
<stop offset="1" stop-color="white"/>
</linearGradient>
<linearGradient id="paint59_linear_9663_677" x1="151.718" y1="102.801" x2="146.125" y2="102.801" gradientUnits="userSpaceOnUse">
<stop offset="0.02" stop-color="white" stop-opacity="0"/>
<stop offset="0.39" stop-color="white" stop-opacity="0.39"/>
<stop offset="1" stop-color="white"/>
</linearGradient>
<linearGradient id="paint60_linear_9663_677" x1="148.213" y1="105.169" x2="144.132" y2="105.169" gradientUnits="userSpaceOnUse">
<stop offset="0.02" stop-color="white" stop-opacity="0"/>
<stop offset="0.39" stop-color="white" stop-opacity="0.39"/>
<stop offset="1" stop-color="white"/>
</linearGradient>
<linearGradient id="paint61_linear_9663_677" x1="142.581" y1="105.941" x2="139.499" y2="105.941" gradientUnits="userSpaceOnUse">
<stop offset="0.02" stop-color="white" stop-opacity="0"/>
<stop offset="0.39" stop-color="white" stop-opacity="0.39"/>
<stop offset="1" stop-color="white"/>
</linearGradient>
<linearGradient id="paint62_linear_9663_677" x1="86.8334" y1="104.268" x2="83.6594" y2="104.268" gradientUnits="userSpaceOnUse">
<stop offset="0.02" stop-color="white" stop-opacity="0"/>
<stop offset="0.39" stop-color="white" stop-opacity="0.39"/>
<stop offset="1" stop-color="white"/>
</linearGradient>
<linearGradient id="paint63_linear_9663_677" x1="89.2397" y1="105.55" x2="86.8413" y2="105.55" gradientUnits="userSpaceOnUse">
<stop offset="0.02" stop-color="white" stop-opacity="0"/>
<stop offset="0.39" stop-color="white" stop-opacity="0.39"/>
<stop offset="1" stop-color="white"/>
</linearGradient>
<linearGradient id="paint64_linear_9663_677" x1="162.914" y1="90.1403" x2="162.967" y2="91.2355" gradientUnits="userSpaceOnUse">
<stop offset="0.01"/>
<stop offset="0.83" stop-opacity="0.07"/>
<stop offset="1" stop-opacity="0"/>
</linearGradient>
<linearGradient id="paint65_linear_9663_677" x1="182.648" y1="105.506" x2="182.687" y2="106.317" gradientUnits="userSpaceOnUse">
<stop offset="0.01"/>
<stop offset="0.83" stop-opacity="0.07"/>
<stop offset="1" stop-opacity="0"/>
</linearGradient>
<linearGradient id="paint66_linear_9663_677" x1="190.18" y1="88.3072" x2="188.789" y2="120.696" gradientUnits="userSpaceOnUse">
<stop offset="0.01"/>
<stop offset="0.83" stop-opacity="0.07"/>
<stop offset="1" stop-opacity="0"/>
</linearGradient>
<linearGradient id="paint67_linear_9663_677" x1="111.442" y1="133.516" x2="113.53" y2="90.2404" gradientUnits="userSpaceOnUse">
<stop offset="0.01"/>
<stop offset="0.83" stop-opacity="0.07"/>
<stop offset="1" stop-opacity="0"/>
</linearGradient>
<linearGradient id="paint68_linear_9663_677" x1="121.525" y1="83.4471" x2="106.101" y2="121.593" gradientUnits="userSpaceOnUse">
<stop offset="0.01"/>
<stop offset="0.83" stop-opacity="0.07"/>
<stop offset="1" stop-opacity="0"/>
</linearGradient>
<linearGradient id="paint69_linear_9663_677" x1="123.832" y1="71.3246" x2="120.033" y2="71.3246" gradientUnits="userSpaceOnUse">
<stop stop-color="#E5C5D5"/>
<stop offset="0.42" stop-color="#EAD4D1"/>
<stop offset="1" stop-color="#F0E9CB"/>
</linearGradient>
<linearGradient id="paint70_linear_9663_677" x1="136.062" y1="73.663" x2="131.154" y2="73.663" gradientUnits="userSpaceOnUse">
<stop stop-color="#E5C5D5"/>
<stop offset="0.42" stop-color="#EAD4D1"/>
<stop offset="1" stop-color="#F0E9CB"/>
</linearGradient>
<linearGradient id="paint71_linear_9663_677" x1="137.156" y1="71.1076" x2="141.502" y2="68.1781" gradientUnits="userSpaceOnUse">
<stop offset="0.01"/>
<stop offset="0.83" stop-opacity="0.07"/>
<stop offset="1" stop-opacity="0"/>
</linearGradient>
<clipPath id="clip0_9663_677">
<rect width="220" height="136" fill="white"/>
</clipPath>
</defs>
</svg>
