<svg width="17" height="20" viewBox="0 0 17 20" fill="none" xmlns="http://www.w3.org/2000/svg">
<mask id="mask0_1235_15017" style="mask-type:alpha" maskUnits="userSpaceOnUse" x="0" y="0" width="17" height="20">
<g clip-path="url(#clip0_1235_15017)">
<path d="M13.1182 4.83886C13.1182 5.77393 12.8399 6.688 12.3184 7.46547C11.7969 8.24295 11.0556 8.84892 10.1884 9.20676C9.3212 9.56459 8.36693 9.65822 7.44629 9.4758C6.52565 9.29337 5.67999 8.8431 5.01624 8.18191C4.3525 7.52071 3.90048 6.6783 3.71736 5.76121C3.53423 4.84411 3.62822 3.89351 3.98743 3.02962C4.34665 2.16573 4.95496 1.42735 5.73544 0.907858C6.51592 0.388363 7.43352 0.111084 8.37219 0.111084C9.63092 0.111084 10.8381 0.609188 11.7281 1.49582C12.6182 2.38245 13.1182 3.58498 13.1182 4.83886Z" fill="black"/>
<path d="M11.6944 10.7485H11.0752C10.2277 11.1378 9.3055 11.3394 8.37221 11.3394C7.43892 11.3394 6.51673 11.1378 5.66919 10.7485H5.04998C3.72841 10.7488 2.46105 11.2719 1.52656 12.2028C0.592068 13.1337 0.0669453 14.3962 0.0666504 15.7127L0.0666504 17.2492C0.0666504 17.7194 0.25416 18.1704 0.587931 18.5029C0.921701 18.8354 1.37439 19.0221 1.84641 19.0221H14.898C15.37 19.0221 15.8227 18.8354 16.1565 18.5029C16.4903 18.1704 16.6778 17.7194 16.6778 17.2492V15.7127C16.6775 14.3962 16.1523 13.1337 15.2179 12.2028C14.2834 11.2719 13.016 10.7488 11.6944 10.7485Z" fill="black"/>
</g>
</mask>
<g mask="url(#mask0_1235_15017)">
<circle cx="8.5" cy="6.24438" r="11.5" fill="#54A7F5"/>
</g>
<defs>
<clipPath id="clip0_1235_15017">
<rect width="16.6111" height="18.9111" fill="white" transform="translate(0.0666504 0.111084)"/>
</clipPath>
</defs>
</svg>
