<svg width="90" height="90" viewBox="0 0 90 90" fill="none" xmlns="http://www.w3.org/2000/svg">
<circle opacity="0.2" cx="45" cy="45" r="45" fill="#54A7F5"/>
<mask id="mask0_1213_25356" style="mask-type:alpha" maskUnits="userSpaceOnUse" x="12" y="20" width="65" height="74">
<g clip-path="url(#clip0_1213_25356)">
<path opacity="0.4" d="M63.0713 38.5C63.0713 42.159 61.9821 45.7357 59.9415 48.778C57.9008 51.8204 55.0004 54.1916 51.6069 55.5918C48.2134 56.992 44.4793 57.3584 40.8768 56.6445C37.2743 55.9307 33.9652 54.1687 31.3679 51.5815C28.7707 48.9942 27.0019 45.6978 26.2853 42.1092C25.5687 38.5205 25.9365 34.8008 27.3421 31.4204C28.7478 28.0399 31.1281 25.1506 34.1822 23.1178C37.2362 21.085 40.8268 20 44.4999 20C49.4254 20 54.1491 21.9491 57.6319 25.4185C61.1147 28.8879 63.0713 33.5935 63.0713 38.5Z" fill="black"/>
<path d="M57.5 61.625H55.077C51.7606 63.1483 48.152 63.9371 44.5 63.9371C40.848 63.9371 37.2394 63.1483 33.923 61.625H31.5C26.3286 61.6261 21.3694 63.6731 17.7127 67.3157C14.056 70.9584 12.0012 75.8985 12 81.05L12 87.0625C12 88.9024 12.7337 90.667 14.0398 91.9681C15.3458 93.2691 17.1172 94 18.9643 94H70.0357C71.8828 94 73.6542 93.2691 74.9602 91.9681C76.2663 90.667 77 88.9024 77 87.0625V81.05C76.9988 75.8985 74.944 70.9584 71.2873 67.3157C67.6306 63.6731 62.6714 61.6261 57.5 61.625Z" fill="black"/>
</g>
</mask>
<g mask="url(#mask0_1213_25356)">
<circle cx="45" cy="44" r="45" fill="#54A7F5"/>
</g>
<defs>
<clipPath id="clip0_1213_25356">
<rect width="65" height="74" fill="white" transform="translate(12 20)"/>
</clipPath>
</defs>
</svg>
