<svg width="18" height="16" viewBox="0 0 18 16" fill="none" xmlns="http://www.w3.org/2000/svg">
<path d="M6.10984 11.7134C5.96341 11.5669 5.96341 11.3295 6.10984 11.183L16.2083 1.08459L16.1862 1.0625L13.375 1.07319C13.1679 1.07319 13 0.905281 13 0.698187V0.385719C13 0.178594 13.1679 0.0107187 13.375 0.0107187L17.625 0C17.8321 0 18 0.167875 18 0.375L17.9893 4.625C17.9893 4.83209 17.8214 5 17.6143 5H17.3018C17.0947 5 16.9268 4.83209 16.9268 4.625L16.9375 1.81381L16.9154 1.79172L6.81697 11.8902C6.67053 12.0366 6.43309 12.0366 6.28662 11.8902L6.10984 11.7134ZM13.3598 6.84984L13.1098 7.09984C13.0395 7.17017 13 7.26555 13 7.365V14.5C13 14.7762 12.7761 15 12.5 15H1.5C1.22388 15 1 14.7762 1 14.5V3.5C1 3.22384 1.22388 3 1.5 3H12.1243C12.2237 3 12.3191 2.9605 12.3894 2.89016L12.6394 2.64016C12.8757 2.40391 12.7083 2 12.3743 2H1.5C0.671562 2 0 2.67156 0 3.5V14.5C0 15.3284 0.671562 16 1.5 16H12.5C13.3284 16 14 15.3284 14 14.5V7.11503C14 6.78094 13.5961 6.61363 13.3598 6.84984Z" fill="#138340"/>
</svg>
