<svg width="195" height="154" viewBox="0 0 195 154" fill="none" xmlns="http://www.w3.org/2000/svg">
<path d="M191.126 106.731C189.784 112.424 186.104 117.087 181.654 120.981C179.38 122.971 176.97 124.801 174.442 126.458C169.894 129.537 165.107 132.356 159.862 133.923C145.228 138.276 128.866 132.367 114.49 137.45C108.92 139.409 104.06 142.908 98.8679 145.696C87.1301 152.022 73.4598 154.348 60.2433 153.018C42.218 151.196 25.3633 141.386 14.096 127.67C-1.26864 108.992 -6.2567 83.0761 10.2759 60.2472C19.0841 48.1078 32.5723 40.2705 42.9153 29.4075C47.3965 24.7219 51.2726 19.4681 56.2299 15.2976C62.0442 10.4077 69.1132 7.23356 76.2718 4.68085C90.617 -0.410592 107.525 -2.87654 120.316 5.35821C137 16.1233 139.262 39.7219 151.91 55.0242C159.176 63.8048 169.507 69.414 178.058 76.9518C186.608 84.4896 193.756 95.641 191.126 106.731Z" fill="#FEFFFE"/>
<path d="M194.547 124.589C194.15 126.31 192.489 127.39 190.937 128.231C186.598 130.582 182.033 132.49 177.481 134.398L146.017 147.564C141.221 149.576 136.35 151.606 131.223 152.573C126.029 153.553 120.697 153.444 115.412 153.287C92.6252 152.699 69.7991 152.115 47.1561 149.493C44.1781 149.149 40.716 148.431 39.4559 145.722C38.3222 143.296 39.6521 140.295 41.7799 138.666C43.9077 137.037 46.6242 136.453 49.2491 135.913L65.7004 132.525C89.246 127.677 112.792 122.826 136.586 119.489C142.306 118.688 197.944 109.807 194.547 124.589Z" fill="url(#paint0_linear_9604_100391)"/>
<path d="M175.706 103.818C160.445 106.488 143.981 93.5921 130.891 116.959C129.025 120.682 128.489 128.252 128.354 135.891C143.994 131.427 178.445 120.238 179.068 119.702C180.167 118.766 180.167 115.09 180.123 111.806C180.106 110.561 178.166 107.477 175.706 103.818Z" fill="#1A1A1A"/>
<path d="M175.069 112.629C173.648 112.668 169.165 116.762 169.056 121.928C168.96 126.597 170.251 130.639 171.472 131.279L176.137 131.645L175.588 130.717C176.591 129.367 177.363 125.926 177.445 121.91C177.554 116.749 176.491 112.594 175.069 112.629Z" fill="#3F3D56"/>
<path d="M175.069 112.629C173.648 112.668 169.165 116.762 169.056 121.928C168.96 126.597 170.251 130.639 171.472 131.279L176.137 131.645L175.588 130.717C176.591 129.367 177.363 125.926 177.445 121.91C177.554 116.749 176.491 112.594 175.069 112.629Z" fill="url(#paint1_linear_9604_100391)"/>
<path d="M179.016 122.233C178.907 127.394 177.664 131.61 176.243 131.645C174.821 131.68 173.757 127.529 173.866 122.368C173.975 117.207 175.214 112.986 176.639 112.952C178.065 112.917 179.125 117.067 179.016 122.233Z" fill="#3F3D56"/>
<path d="M178.322 122.259C178.257 125.307 177.52 127.812 176.683 127.834C175.845 127.855 175.209 125.395 175.27 122.337C175.331 119.28 176.072 116.784 176.914 116.762C177.755 116.741 178.383 119.201 178.322 122.259Z" fill="url(#paint2_linear_9604_100391)"/>
<path d="M177.729 122.281C177.699 123.753 177.346 124.959 176.94 124.968C176.535 124.977 176.23 123.792 176.26 122.32C176.291 120.848 176.644 119.642 177.049 119.629C177.455 119.615 177.729 120.804 177.729 122.281Z" fill="#3F3D56"/>
<path d="M135.3 114.894C132.824 114.96 122.219 122.464 122.023 131.445C121.853 139.576 123.331 146.253 125.472 147.429L137.179 148.008L136.22 146.388C137.964 144.036 139.312 138.043 139.46 131.057C139.63 122.072 137.777 114.829 135.3 114.894Z" fill="#3F3D56"/>
<path d="M135.3 114.894C132.824 114.96 122.219 122.464 122.023 131.445C121.853 139.576 123.331 146.253 125.472 147.429L137.179 148.008L136.22 146.388C137.964 144.036 139.312 138.043 139.46 131.057C139.63 122.072 137.777 114.829 135.3 114.894Z" fill="url(#paint3_linear_9604_100391)"/>
<path d="M142.172 131.613C141.984 140.603 139.821 147.941 137.345 148.007C134.868 148.072 133.015 140.838 133.207 131.848C133.399 122.859 135.557 115.516 138.029 115.451C140.502 115.385 142.359 122.624 142.172 131.613Z" fill="#3F3D56"/>
<path d="M140.964 131.654C140.855 136.976 139.573 141.327 138.108 141.362C136.643 141.397 135.544 137.116 135.653 131.78C135.762 126.445 137.044 122.107 138.513 122.068C139.983 122.029 141.077 126.336 140.964 131.654Z" fill="url(#paint4_linear_9604_100391)"/>
<path d="M139.909 131.697C139.857 134.262 139.237 136.362 138.531 136.379C137.825 136.396 137.297 134.332 137.349 131.762C137.402 129.193 138.021 127.098 138.727 127.08C139.434 127.063 139.966 129.127 139.909 131.697Z" fill="#3F3D56"/>
<path d="M62.1552 114.894C59.6786 114.96 49.0743 122.464 48.8781 131.445C48.7081 139.576 50.208 146.253 52.3271 147.429L64.0171 147.999L63.0578 146.379C64.8019 144.027 66.1492 138.034 66.2975 131.048C66.485 122.072 64.6319 114.829 62.1552 114.894Z" fill="#3F3D56"/>
<path d="M62.1552 114.894C59.6786 114.96 49.0743 122.464 48.8781 131.445C48.7081 139.576 50.208 146.253 52.3271 147.429L64.0171 147.999L63.0578 146.379C64.8019 144.027 66.1492 138.034 66.2975 131.048C66.485 122.072 64.6319 114.829 62.1552 114.894Z" fill="url(#paint5_linear_9604_100391)"/>
<path d="M69.028 131.614C68.8361 140.603 66.6778 147.942 64.2011 148.007C61.7245 148.072 59.8714 140.838 60.0632 131.849C60.2551 122.859 62.4134 115.538 64.8857 115.451C67.358 115.364 69.2155 122.624 69.028 131.614Z" fill="#3F3D56"/>
<path d="M67.8201 131.654C67.7067 136.976 66.4291 141.327 64.9641 141.362C63.499 141.397 62.3959 137.116 62.5092 131.78C62.6226 126.445 63.9002 122.107 65.3696 122.068C66.839 122.029 67.9334 126.336 67.8201 131.654Z" fill="url(#paint6_linear_9604_100391)"/>
<path d="M66.7644 131.697C66.7121 134.262 66.0929 136.362 65.3866 136.379C64.6802 136.396 64.1526 134.332 64.2049 131.762C64.2573 129.193 64.8764 127.098 65.5828 127.08C66.2891 127.063 66.8211 129.127 66.7644 131.697Z" fill="#3F3D56"/>
<path d="M168.376 113.087C166.824 113.126 160.528 117.729 160.414 123.361C160.31 128.457 161.252 132.655 162.595 133.378L169.571 133.835L168.969 132.821C170.068 131.348 170.905 127.594 170.997 123.213C171.088 117.581 169.929 113.047 168.376 113.087Z" fill="#3F3D56"/>
<path d="M168.376 113.087C166.824 113.126 160.528 117.729 160.414 123.361C160.31 128.457 161.252 132.655 162.595 133.378L169.571 133.835L168.969 132.821C170.068 131.348 170.905 127.594 170.997 123.213C171.088 117.581 169.929 113.047 168.376 113.087Z" fill="url(#paint7_linear_9604_100391)"/>
<path d="M172.684 123.56C172.562 129.196 171.21 133.795 169.658 133.834C168.106 133.873 166.946 129.344 167.064 123.708C167.182 118.072 168.538 113.477 170.085 113.434C171.633 113.39 172.802 117.929 172.684 123.56Z" fill="#3F3D56"/>
<path d="M171.926 123.591C171.856 126.927 171.054 129.653 170.134 129.688C169.214 129.723 168.529 127.027 168.599 123.687C168.669 120.346 169.471 117.628 170.391 117.589C171.311 117.55 171.996 120.255 171.926 123.591Z" fill="url(#paint8_linear_9604_100391)"/>
<path d="M171.263 123.618C171.233 125.225 170.827 126.54 170.391 126.549C169.955 126.558 169.615 125.264 169.646 123.657C169.676 122.05 170.082 120.735 170.518 120.722C170.954 120.709 171.298 122.007 171.263 123.618Z" fill="#3F3D56"/>
<path d="M130.891 116.991C143.972 93.6247 160.441 106.538 175.706 103.851C171.69 97.8276 166.366 90.245 166.244 86.7433C166.048 81.1075 166.528 73.4943 165.036 72.5579C163.545 71.6215 141.391 55.0015 129.988 49.5834C118.586 44.1654 55.0176 45.9162 53.086 52.0224C51.1544 58.1286 46.5456 89.5002 45.3683 108.812C44.518 122.601 44.6227 123.816 44.7578 134.983C44.7578 134.983 109.765 137.744 120.963 137.744C121.686 137.744 124.429 137.048 128.353 135.924C128.488 128.285 129.025 120.715 130.891 116.991Z" fill="#A5F2C4"/>
<path d="M122.69 51.7158C120.397 49.8909 57.0721 50.309 55.1623 50.8055C54.3668 51.0002 53.6455 51.4225 53.0868 52.0207C52.556 53.0242 52.1251 54.0775 51.8005 55.1652C50.8327 58.454 50.0697 61.7995 49.5157 65.1825C48.4082 72.0901 46.9563 82.8914 45.9447 97.8868C45.8313 99.6856 45.7223 101.554 45.622 103.479C45.5871 105.195 45.6569 108.51 46.6598 109.002C48.0158 109.664 113.22 110.243 116.32 108.004C119.42 105.766 119.52 103.693 120.074 95.7353C120.628 87.7781 122.254 66.4717 123.126 61.9944C123.998 57.5171 124.971 53.5407 122.69 51.7158Z" fill="url(#paint9_linear_9604_100391)"/>
<path d="M122.69 51.7158C120.397 49.8909 57.0721 50.309 55.1623 50.8055C54.3668 51.0002 53.6455 51.4225 53.0868 52.0207C52.556 53.0242 52.1251 54.0775 51.8005 55.1652C50.8327 58.454 50.0697 61.7995 49.5157 65.1825C48.4082 72.0901 46.9563 82.8914 45.9447 97.8868C45.8313 99.6856 45.7223 101.554 45.622 103.479C45.5871 105.195 45.6569 108.51 46.6598 109.002C47.586 109.145 48.5218 109.218 49.4591 109.219C50.3311 95.0602 49.7774 91.1143 52.7685 72.8784C55.0926 62.1904 58.8206 63.1224 64.1358 63.1224C63.037 79.5421 61.1403 93.1003 60.3205 109.52C80.2122 109.694 114.31 109.455 116.32 108.004C119.424 105.766 119.52 103.693 120.074 95.7353C120.628 87.7781 122.254 66.4717 123.126 61.9944C123.998 57.5171 124.971 53.5407 122.69 51.7158Z" fill="url(#paint10_linear_9604_100391)"/>
<path d="M122.69 51.7158C120.396 49.8909 57.072 50.309 55.1622 50.8055C54.3667 51.0002 53.6454 51.4225 53.0867 52.0207C52.5558 53.0242 52.125 54.0775 51.8004 55.1652C51.4211 56.3586 50.9981 57.957 50.549 59.9561L123.431 60.5397C124.19 56.6722 124.735 53.3403 122.69 51.7158Z" fill="url(#paint11_linear_9604_100391)"/>
<path d="M52.7851 124.437C52.7851 124.437 48.7867 123.465 46.9597 116.972C44.9365 113.3 44.1866 119.45 44.3435 124.14C44.4613 127.577 50.5613 127.725 52.4014 127.359C54.2414 126.993 54.8998 125.438 52.7851 124.437Z" fill="#3F3D56"/>
<path d="M53.8409 125.225L53.7842 125.155C53.5271 124.867 53.206 124.644 52.8468 124.502C51.6906 124.131 50.6639 123.439 49.8861 122.507C48.6212 121.096 47.6886 119.421 47.1566 117.603C45.6697 116.022 45.116 120.652 45.2424 124.271C45.347 127.167 50.8367 127.294 52.4936 126.985C53.7232 126.736 54.3641 125.957 53.8409 125.225Z" fill="#3F3D56"/>
<path d="M48.3115 120.29C47.8317 119.432 47.4444 118.525 47.156 117.585C46.0573 116.414 45.4686 118.652 45.2855 121.361C45.8262 120.599 47.2127 120.329 48.3115 120.29Z" fill="#A5F2C4"/>
<path d="M64.0911 48.2005C64.0911 48.2005 120.775 48.2005 129.495 49.6334C134.292 50.805 176.975 76.0616 176.975 76.0616L174.86 72.5251C174.86 72.5251 143.217 49.0889 132.011 44.6508C120.805 40.2127 66.3497 37.2424 64.0911 48.2005Z" fill="#A5F2C4"/>
<path style="mix-blend-mode:multiply" opacity="0.5" d="M64.0911 48.2005C64.0911 48.2005 120.775 48.2005 129.495 49.6334C134.292 50.805 176.975 76.0616 176.975 76.0616L174.86 72.5251C174.86 72.5251 143.217 49.0889 132.011 44.6508C120.805 40.2127 66.3497 37.2424 64.0911 48.2005Z" fill="url(#paint12_linear_9604_100391)"/>
<path d="M181.632 116.548C181.588 113.264 181.06 92.3413 180.864 86.7098C180.668 81.0783 180.886 78.6393 179.395 77.6986C177.904 76.7578 151.415 58.2171 140.013 52.8208C128.611 47.4246 128.079 48.9577 126.151 55.0639C124.224 61.17 122.061 87.5852 121.407 103.256C120.797 117.964 120.971 140.616 120.971 140.616L132.84 136.918C132.779 135.586 132.762 134.192 132.792 132.759C133.001 122.842 135.382 114.745 138.116 114.671C140.85 114.597 142.912 122.585 142.681 132.502C142.681 132.937 142.655 133.403 142.638 133.848C150.695 131.322 159.573 128.512 166.741 126.208C166.715 125.451 166.706 124.662 166.741 123.852C166.868 117.689 168.35 112.659 170.046 112.615C171.743 112.572 173.016 117.528 172.885 123.691C172.885 123.87 172.885 124.048 172.885 124.227L173.687 123.965C173.687 123.434 173.687 122.89 173.687 122.332C173.805 116.849 175.122 112.372 176.63 112.315C178.139 112.258 179.247 116.67 179.155 122.097C179.7 121.93 180.229 121.717 180.738 121.461C181.784 120.542 181.653 119.837 181.632 116.548Z" fill="#A5F2C4"/>
<path d="M181.632 116.548C181.588 113.264 181.06 92.3413 180.864 86.7098C180.668 81.0783 180.886 78.6393 179.395 77.6986C177.904 76.7578 151.415 58.2171 140.013 52.8208C128.611 47.4246 128.079 48.9577 126.151 55.0639C124.224 61.17 122.061 87.5852 121.407 103.256C120.797 117.964 120.971 140.616 120.971 140.616L132.84 136.918C132.779 135.586 132.762 134.192 132.792 132.759C133.001 122.842 135.382 114.745 138.116 114.671C140.85 114.597 142.912 122.585 142.681 132.502C142.681 132.937 142.655 133.403 142.638 133.848C150.695 131.322 159.573 128.512 166.741 126.208C166.715 125.451 166.706 124.662 166.741 123.852C166.868 117.689 168.35 112.659 170.046 112.615C171.743 112.572 173.016 117.528 172.885 123.691C172.885 123.87 172.885 124.048 172.885 124.227L173.687 123.965C173.687 123.434 173.687 122.89 173.687 122.332C173.805 116.849 175.122 112.372 176.63 112.315C178.139 112.258 179.247 116.67 179.155 122.097C179.7 121.93 180.229 121.717 180.738 121.461C181.784 120.542 181.653 119.837 181.632 116.548Z" fill="url(#paint13_linear_9604_100391)"/>
<path d="M127.703 100.601C129.774 89.5466 132.26 81.0014 143.836 83.1356C151.62 84.5815 171.28 91.9726 180.267 95.496C180.267 95.496 180.267 93.0222 180.219 92.3166C179.974 87.3777 180.158 84.8559 178.649 84.1329C177.14 83.41 151.131 66.215 139.616 62.439C128.1 58.6629 127.62 60.2613 125.828 66.6419C124.52 71.2585 123.334 86.5502 122.654 100.614L127.686 100.701C127.69 100.667 127.695 100.633 127.703 100.601Z" fill="url(#paint14_linear_9604_100391)"/>
<path d="M125.454 100.665L127.687 100.7C127.684 100.666 127.684 100.633 127.687 100.6C128.13 98.0095 128.713 95.4449 129.431 92.9168C127.617 94.8506 126.4 97.5335 125.454 100.665Z" fill="url(#paint15_linear_9604_100391)"/>
<g style="mix-blend-mode:multiply">
<path d="M150.259 67.2774L150.002 67.1467L149.491 84.5681L149.749 84.6421L150.259 67.2774Z" fill="#CDCDCD"/>
<path d="M163.14 74.5972L162.882 74.4404L162.669 88.9263L162.926 89.0178L163.14 74.5972Z" fill="#CDCDCD"/>
<path d="M173.142 80.7319L172.884 80.5707V92.6699L173.142 92.7657V80.7319Z" fill="#CDCDCD"/>
</g>
<path d="M44.4704 128.483C44.4704 128.483 44.7625 129.311 49.1272 129.394C53.4918 129.476 119.419 130.469 121.643 129.219C121.674 133.409 122.009 140.613 120.954 141.105C119.646 141.719 52.4585 140.752 49.3539 140.334C46.2494 139.916 45.0852 139.424 44.6971 136.523C44.3091 133.623 44.4704 128.483 44.4704 128.483Z" fill="#A5F2C4"/>
<path d="M44.4704 128.483C44.4704 128.483 44.7625 129.311 49.1272 129.394C53.4918 129.476 119.419 130.469 121.643 129.219C121.674 133.409 122.009 140.613 120.954 141.105C119.646 141.719 52.4585 140.752 49.3539 140.334C46.2494 139.916 45.0852 139.424 44.6971 136.523C44.3091 133.623 44.4704 128.483 44.4704 128.483Z" fill="url(#paint16_linear_9604_100391)"/>
<g style="mix-blend-mode:multiply">
<path d="M132.692 100.388L134.126 60.8149L133.869 60.7539L131.253 131.872L122.266 134.486C122.101 118.941 122.702 104.665 122.89 100.601H122.628C122.41 105.287 121.691 122.661 122.105 140.235L122.362 140.148C122.322 138.469 122.293 136.798 122.275 135.135L131.227 132.521L131.048 137.465L131.31 137.365L131.51 132.469H131.536V132.138L132.67 101.058L144.988 102.147L144.478 133.292L144.739 133.192L145.249 102.169L155.814 103.105L155.378 129.865L155.636 129.773L156.072 103.127L165.573 103.968L165.207 126.729L165.468 126.624L165.83 103.976L181.37 105.353V104.691L132.692 100.388Z" fill="#CDCDCD"/>
</g>
<path opacity="0.6" d="M124.613 100.649C124.613 100.466 124.648 100.283 124.661 100.1L125.559 85.8143C125.746 82.8266 125.092 80.3353 124.041 79.6907C123.483 85.9319 123.004 93.4318 122.655 100.596L124.613 100.649Z" fill="#191919"/>
<path d="M46.6589 109.006C48.0193 109.669 113.219 110.248 116.319 108.009C119.262 105.888 119.502 103.911 119.99 96.9204C118.294 95.8098 114.989 94.9823 110.677 94.3769C109.656 94.2332 108.579 94.1025 107.454 93.9849C105.414 93.7715 103.212 93.5929 100.914 93.4535L99.5841 93.3751C97.9184 93.2822 96.2078 93.2067 94.452 93.1487L92.5727 93.0921C90.8679 93.0485 89.1281 93.0137 87.384 92.9919C86.4596 92.9919 85.5265 92.9701 84.5978 92.9657H83.2679C78.4716 92.9657 73.6752 93.0267 69.2016 93.1443C56.6832 93.484 46.7156 94.2157 46.188 94.673C46.1095 95.727 46.031 96.7941 45.9569 97.896C45.8406 99.6991 45.733 101.563 45.6342 103.488C45.5906 105.196 45.6604 108.51 46.6589 109.006Z" fill="url(#paint17_linear_9604_100391)"/>
<path d="M61.7452 93.4876C67.4921 93.3352 73.7752 93.2612 79.9276 93.3352L80.4072 83.3484C80.4072 79.9686 76.3086 77.2509 71.2855 77.3032C66.2625 77.3554 62.1943 80.1167 62.2118 83.5008L61.7452 93.4876Z" fill="url(#paint18_linear_9604_100391)"/>
<path d="M92.5593 93.0859C99.3221 93.2731 105.675 93.6695 110.676 94.3925L111.234 82.8159C111.234 79.4362 107.136 76.7185 102.108 76.7664C97.0809 76.8143 93.0214 79.5843 93.0345 82.9684L92.5593 93.0859Z" fill="url(#paint19_linear_9604_100391)"/>
<path d="M85.4967 89.1497C85.6449 89.4078 85.8685 89.6145 86.1376 89.7421C87.6986 90.6697 89.3032 91.5234 90.934 92.2899C91.2069 92.4455 91.5137 92.5322 91.8278 92.5425C92.3001 92.4603 92.7271 92.2115 93.0313 91.8413C94.0385 90.8832 95.0719 89.8771 95.5777 88.5748C95.8849 87.6367 96.0453 86.6568 96.0529 85.6698C96.1571 84.2413 96.1483 82.8069 96.0268 81.3798C95.8654 80.0732 95.4817 79.1455 94.6446 79.8293C94.2957 80.1124 91.5924 87.9956 91.2959 87.7821L89.4166 86.5147C88.9898 86.1639 88.4703 85.9445 87.921 85.8832C86.8658 85.8832 86.1769 86.9459 85.6972 87.8867C85.574 88.07 85.4922 88.278 85.4575 88.4961C85.4229 88.7142 85.4362 88.9373 85.4967 89.1497Z" fill="#A5F2C4"/>
<path d="M86.1376 89.7419C87.6986 90.6696 89.3032 91.5232 90.934 92.2898C91.2069 92.4454 91.5137 92.5321 91.8278 92.5424C92.3001 92.4602 92.7271 92.2113 93.0313 91.8412C94.0385 90.883 95.0719 89.8769 95.5777 88.5747C95.8849 87.6366 96.0453 86.6567 96.0529 85.6696C96.1571 84.2412 96.1483 82.8067 96.0268 81.3796C95.8175 81.1706 95.5035 84.0582 95.1547 84.3543C94.8059 84.6505 92.1592 89.633 91.8322 89.4065C91.2087 88.971 90.5808 88.5572 89.9529 88.1391C89.5262 87.7883 89.0066 87.5689 88.4573 87.5076C87.4021 87.5076 86.7132 88.5703 86.2379 89.5111C86.2074 89.5938 86.1638 89.6679 86.1376 89.7419Z" fill="url(#paint20_linear_9604_100391)"/>
<path d="M94.4489 93.142C96.1931 93.203 97.9037 93.2785 99.581 93.3685L100.911 93.4469C103.222 93.5862 105.424 93.7648 107.451 93.9782C107.451 93.4512 107.512 89.9016 107.486 89.4008C107.351 86.9531 109.169 82.7414 108.729 80.3286C108.511 79.1221 98.6087 76.4697 95.8922 78.4427C95.361 78.7839 94.9341 79.2646 94.6582 79.8321C94.4612 80.4527 94.4178 81.1117 94.5318 81.7528C94.7149 83.6299 94.8937 85.4984 95.0725 87.3755C95.1204 87.8241 94.6582 90.9121 94.4489 93.142Z" fill="#A5F2C4"/>
<path d="M94.4483 93.1446C96.1924 93.2056 97.9031 93.2811 99.5804 93.3711L100.365 93.4147L100.91 93.4495C103.221 93.5889 105.423 93.7675 107.451 93.9809C107.451 93.4539 107.512 89.9043 107.486 89.4034C107.481 88.5235 107.582 87.6461 107.786 86.7902C108.249 84.569 109.033 82.0254 108.728 80.3486C108.51 79.1422 98.608 76.4898 95.8916 78.4628C95.3604 78.804 94.9334 79.2847 94.6576 79.8521C94.4605 80.4727 94.4171 81.1318 94.5312 81.7728C94.7143 83.65 94.8931 85.5184 95.0718 87.3956C95.1198 87.8268 94.6576 90.9147 94.4483 93.1446Z" fill="url(#paint21_linear_9604_100391)"/>
<path d="M100.356 93.414L100.901 93.4489C103.212 93.5882 105.414 93.7668 107.442 93.9802C107.442 93.4532 107.503 89.9036 107.476 89.4028C107.472 88.5228 107.573 87.6455 107.777 86.7895C107.633 86.4716 107.485 86.1537 107.341 85.8401C107.215 85.4438 107.028 85.0693 106.788 84.7295C106.352 84.9472 106.639 86.1014 106.543 86.5544C106.465 86.9158 105.588 89.7251 105.039 90.5656C104.934 90.753 104.784 90.9115 104.603 91.0273C104.329 91.1473 104.028 91.1924 103.731 91.158C102.423 91.1144 101.115 91.0621 99.8329 90.9881C99.7413 91.8026 100.256 92.5822 100.356 93.414Z" fill="url(#paint22_linear_9604_100391)"/>
<path d="M101.608 91.418C102.223 91.7795 101.482 92.8161 102.197 92.8291C103.422 92.8291 107.185 92.4546 108.41 92.4764C109.718 92.4764 111.026 91.6053 111.846 90.5818C112.083 90.2574 112.253 89.8883 112.343 89.4968C112.434 89.1053 112.444 88.6995 112.374 88.3039C112.228 87.5143 111.975 86.7481 111.624 86.0261C111.209 85.0766 109.304 79.7021 108.231 80.1246C107.795 80.3032 107.425 80.9042 107.163 81.6751C106.683 83.1776 106.497 84.7582 106.614 86.331C106.71 86.8057 107.852 87.6376 107.486 87.9903C107.372 88.0837 107.244 88.1573 107.106 88.2081C105.406 88.9466 103.579 89.3531 101.726 89.4058C101.381 90.0112 100.989 91.0565 101.608 91.418Z" fill="#A5F2C4"/>
<path d="M102.197 92.8302C103.422 92.8302 107.185 92.4556 108.41 92.4774C109.718 92.4774 111.026 91.6063 111.846 90.5828C112.083 90.2584 112.253 89.8893 112.343 89.4978C112.434 89.1063 112.444 88.7006 112.374 88.305C112.244 88.7655 112.01 89.1901 111.69 89.5464C111.37 89.9028 110.973 90.1813 110.529 90.3607C108.881 90.9487 102.681 91.2884 102.681 91.2884L101.621 91.419C102.223 91.7805 101.482 92.8171 102.197 92.8302Z" fill="url(#paint23_linear_9604_100391)"/>
<path d="M102.65 91.584C102.586 91.9758 102.401 92.3381 102.122 92.6205C102.039 92.5265 101.986 92.4097 101.97 92.2852C101.898 92.0281 101.882 91.7585 101.923 91.4948C101.964 91.2311 102.062 90.9793 102.209 90.7565C102.733 90.0727 102.711 91.2486 102.65 91.584Z" fill="#191919"/>
<path d="M103.138 77.0317C103.181 77.8722 103.138 78.7738 102.588 79.4315C102.275 79.7661 101.893 80.0291 101.468 80.2023C101.075 80.4089 100.639 80.5208 100.195 80.529C99.973 80.5289 99.7557 80.4678 99.5665 80.3526C99.3773 80.2374 99.2235 80.0724 99.1219 79.8757C98.8623 79.2143 98.7826 78.496 98.8908 77.7938C99.1437 76.9881 99.183 76.104 99.5972 75.3636C100.011 74.6231 101.485 74.4925 102.427 74.5535C102.863 74.584 103.068 74.7233 103.116 75.1501C103.168 75.7512 103.103 76.4219 103.138 77.0317Z" fill="url(#paint24_linear_9604_100391)"/>
<path d="M101.581 78.2134C101.321 78.8207 100.879 79.3332 100.317 79.6812C100.107 79.8125 99.8667 79.8875 99.6193 79.8989C99.4951 79.9039 99.3715 79.8801 99.2581 79.8295C99.1446 79.7789 99.0444 79.7028 98.9653 79.6071C98.825 79.3664 98.7654 79.0871 98.7952 78.8101V76.8067C98.7851 76.6666 98.809 76.5261 98.865 76.3972C98.9308 76.3022 99.0162 76.2223 99.1155 76.163C99.2147 76.1036 99.3256 76.0662 99.4405 76.0532C100.06 75.9007 101.246 75.6176 101.765 76.149C102.283 76.6803 101.826 77.6734 101.581 78.2134Z" fill="url(#paint25_linear_9604_100391)"/>
<path d="M95.9039 75.3833C95.9693 76.3981 96.2178 77.561 97.1073 78.0358C97.4546 78.2058 97.8329 78.3036 98.2192 78.3232C99.1665 78.4456 100.129 78.3039 101.001 77.9138C101.957 77.3919 102.69 76.5404 103.063 75.5184C103.427 74.5029 103.604 73.4303 103.587 72.352C103.587 70.8146 103.281 69.0333 101.943 68.2798C101.41 68.0086 100.823 67.8598 100.225 67.8442C98.8776 67.7615 95.8123 67.657 95.9867 69.5603C96.1611 71.4635 95.7556 73.4147 95.9039 75.3833Z" fill="url(#paint26_linear_9604_100391)"/>
<path d="M95.7552 67.2516C95.8836 66.8857 96.09 66.552 96.3603 66.2738C96.6306 65.9955 96.9583 65.7793 97.3205 65.6401C97.9735 65.4403 98.6598 65.3721 99.3393 65.4397C100.041 65.4702 100.743 65.5051 101.445 65.5486C102.233 65.5494 103.012 65.7064 103.739 66.0103C104.105 66.17 104.403 66.4539 104.58 66.8117C104.665 67.0977 104.732 67.3886 104.781 67.6827C104.886 68.0573 105.112 68.3883 105.217 68.7542C105.37 69.4814 105.31 70.237 105.047 70.9318C104.742 72.0207 104.389 73.1836 103.495 73.8717C103.687 73.2815 103.662 72.6423 103.425 72.0686C103.231 72.2167 103.07 72.4029 102.95 72.6156C102.831 72.8283 102.757 73.063 102.732 73.3055C102.514 73.3055 102.474 72.9876 102.496 72.7698C102.6 72.1555 102.645 71.5328 102.631 70.9101C102.622 70.5976 102.546 70.2908 102.407 70.0105C102.269 69.7302 102.072 69.4829 101.829 69.2855C101.04 68.7193 99.9585 68.9981 99.0036 69.1679C98.2624 69.3029 96.8845 69.6035 96.1607 69.3073C95.4369 69.0111 95.5328 67.8787 95.7552 67.2516Z" fill="#3F3D56"/>
<path d="M83.2553 92.9571H84.5852C84.9209 89.5033 88.1475 86.79 92.0631 86.79C96.1356 86.79 99.4756 89.7255 99.5715 93.3665C100.008 93.3927 100.444 93.4145 100.901 93.4449C100.836 89.0373 96.8986 85.4659 92.0631 85.4659C87.4106 85.4877 83.5866 88.776 83.2553 92.9571Z" fill="#191919"/>
<g opacity="0.5">
<path d="M122.637 89.5159C122.109 91.8896 119.31 93.7188 116.384 93.6012C113.459 93.4793 111.514 91.4584 112.024 89.0847L114.204 79.3157C114.732 76.942 117.531 75.1128 120.457 75.2347C123.383 75.3523 125.327 77.3732 124.817 79.7469L122.637 89.5159Z" fill="#191919"/>
<path d="M134.009 89.977C133.481 92.3507 127.756 103.653 124.826 103.531L122.646 102.629C119.72 102.507 119.947 101.392 120.466 99.0187L125.567 79.7812C126.095 77.4031 128.894 75.5739 131.82 75.6959C134.75 75.8134 136.69 77.8343 136.18 80.208L134.009 89.977Z" fill="#191919"/>
</g>
<path d="M102.606 124.502C102.606 124.502 110.018 122.925 114.897 118.7C118.743 115.382 120.849 120.943 119.881 125.164C118.913 129.384 108.082 128.4 104.585 128.064C101.088 127.729 100.552 125.055 102.606 124.502Z" fill="#3F3D56"/>
<path d="M103.409 124.514C103.409 124.514 110.346 123.164 114.937 119.549C118.543 116.709 120.523 121.47 119.611 125.08C118.7 128.691 108.545 127.846 105.266 127.563C101.987 127.28 101.481 124.984 103.409 124.514Z" fill="#3F3D56"/>
<path d="M119.537 125.294C119.567 125.224 119.591 125.153 119.611 125.08C120.523 121.47 118.543 116.709 114.937 119.549C114.54 119.858 114.13 120.154 113.703 120.42C116.62 121.104 118.744 122.811 119.537 125.294Z" fill="#A5F2C4"/>
<path d="M115.992 124.585C115.992 126.018 114.989 127.199 113.755 127.199C112.521 127.199 111.519 126.036 111.519 124.585C111.519 123.135 112.521 121.972 113.755 121.972C114.989 121.972 115.992 123.152 115.992 124.585Z" fill="#A5F2C4"/>
<path d="M109.818 125.433C109.818 126.517 109.06 127.393 108.127 127.393C107.193 127.393 106.439 126.522 106.439 125.433C106.439 124.344 107.193 123.473 108.127 123.473C109.06 123.473 109.818 124.349 109.818 125.433Z" fill="#A5F2C4"/>
<path d="M45.2247 123.596C45.2247 124.72 46.0051 125.63 46.9688 125.63C47.9324 125.63 48.7129 124.72 48.7129 123.596C48.7129 122.472 47.9324 121.558 46.9688 121.558C46.0051 121.558 45.2247 122.472 45.2247 123.596Z" fill="#A5F2C4"/>
<path d="M48.7123 125.003C48.7523 125.254 48.8635 125.488 49.0327 125.677C49.2018 125.867 49.4219 126.004 49.6668 126.073C49.9117 126.141 50.1711 126.138 50.4143 126.064C50.6575 125.99 50.8743 125.847 51.039 125.654C51.2036 125.46 51.3093 125.224 51.3434 124.972C51.3776 124.72 51.3387 124.464 51.2315 124.234C51.1243 124.003 50.9533 123.808 50.7386 123.672C50.5239 123.536 50.2747 123.464 50.0204 123.465C49.6443 123.5 49.2967 123.68 49.0522 123.967C48.8076 124.255 48.6856 124.626 48.7123 125.003Z" fill="#A5F2C4"/>
<path d="M48.3115 120.29C47.8317 119.432 47.4444 118.525 47.156 117.585C46.0573 116.414 45.4686 118.652 45.2855 121.361C45.8262 120.599 47.2127 120.329 48.3115 120.29Z" fill="url(#paint27_linear_9604_100391)"/>
<path d="M119.537 125.294C119.567 125.224 119.591 125.153 119.611 125.08C120.523 121.47 118.543 116.709 114.937 119.549C114.54 119.858 114.13 120.154 113.703 120.42C116.62 121.104 118.744 122.811 119.537 125.294Z" fill="url(#paint28_linear_9604_100391)"/>
<path d="M115.992 124.585C115.992 126.018 114.989 127.199 113.755 127.199C112.521 127.199 111.519 126.036 111.519 124.585C111.519 123.135 112.521 121.972 113.755 121.972C114.989 121.972 115.992 123.152 115.992 124.585Z" fill="url(#paint29_linear_9604_100391)"/>
<path d="M109.818 125.433C109.818 126.517 109.06 127.393 108.127 127.393C107.193 127.393 106.439 126.522 106.439 125.433C106.439 124.344 107.193 123.473 108.127 123.473C109.06 123.473 109.818 124.349 109.818 125.433Z" fill="url(#paint30_linear_9604_100391)"/>
<path d="M45.2247 123.596C45.2247 124.72 46.0051 125.63 46.9688 125.63C47.9324 125.63 48.7129 124.72 48.7129 123.596C48.7129 122.472 47.9324 121.558 46.9688 121.558C46.0051 121.558 45.2247 122.472 45.2247 123.596Z" fill="url(#paint31_linear_9604_100391)"/>
<path d="M48.7123 125.003C48.7523 125.254 48.8635 125.488 49.0327 125.677C49.2018 125.867 49.4219 126.004 49.6668 126.073C49.9117 126.141 50.1711 126.138 50.4143 126.064C50.6575 125.99 50.8743 125.847 51.039 125.654C51.2036 125.46 51.3093 125.224 51.3434 124.972C51.3776 124.72 51.3387 124.464 51.2315 124.234C51.1243 124.003 50.9533 123.808 50.7386 123.672C50.5239 123.536 50.2747 123.464 50.0204 123.465C49.6443 123.5 49.2967 123.68 49.0522 123.967C48.8076 124.255 48.6856 124.626 48.7123 125.003Z" fill="url(#paint32_linear_9604_100391)"/>
<path d="M128.811 109.92C128.811 110.06 128.859 110.168 128.916 110.16L130.394 109.977C130.451 109.977 130.494 109.851 130.494 109.711V109.119C130.494 108.979 130.451 108.875 130.394 108.884L128.911 109.067C128.855 109.067 128.811 109.189 128.811 109.328V109.92Z" fill="url(#paint33_linear_9604_100391)"/>
<path d="M150.5 126.598C150.5 126.702 150.534 126.781 150.578 126.776L151.677 126.641C151.72 126.641 151.751 126.545 151.751 126.445V126.01C151.751 125.905 151.716 125.827 151.677 125.831L150.574 125.97C150.534 125.97 150.5 126.062 150.5 126.166V126.598Z" fill="url(#paint34_linear_9604_100391)"/>
<path d="M160.699 124.629C160.699 124.712 160.725 124.777 160.76 124.773L161.663 124.685C161.697 124.685 161.724 124.607 161.724 124.524V124.163C161.724 124.076 161.697 124.015 161.663 124.019L160.76 124.128C160.725 124.128 160.699 124.206 160.699 124.289V124.629Z" fill="url(#paint35_linear_9604_100391)"/>
<path opacity="0.18" d="M97.2998 50.343L60.3202 109.519L46.6594 108.996L80.3383 50.8744L97.2998 50.343Z" fill="#A5F2C4"/>
<path opacity="0.18" d="M169.558 78.8439L159.638 88.1033L147.12 83.9614L159.664 72.668L169.558 78.8439Z" fill="#A5F2C4"/>
<path d="M63.376 119.079H91.1162V127.55H63.376V119.079Z" fill="url(#paint36_linear_9604_100391)"/>
<path d="M116.25 113.547C116.329 113.057 116.306 112.556 116.18 112.075C114.179 117.837 98.2724 122.406 79.7673 122.406C62.1823 122.406 48.3732 118.273 47.0172 112.92C46.9466 113.122 46.8927 113.329 46.8559 113.539C45.8137 119.584 60.5079 124.492 79.667 124.492C98.8261 124.492 115.203 119.597 116.25 113.547Z" fill="url(#paint37_linear_9604_100391)"/>
<path d="M88.5487 85.793C88.7438 85.9043 88.9155 86.0521 89.0545 86.2285C89.1946 86.4971 89.2636 86.7969 89.2551 87.0996C89.2935 87.3163 89.2549 87.5397 89.146 87.7311C89.0109 87.9053 88.6839 87.9271 88.6054 87.7311C88.5958 87.8475 88.5603 87.9604 88.5015 88.0614C88.4426 88.1623 88.3619 88.2489 88.2653 88.3147C88.1666 88.3771 88.0488 88.4017 87.9334 88.3841C87.818 88.3665 87.7129 88.3078 87.6374 88.2189C87.6833 88.4421 87.651 88.6743 87.5458 88.8766C87.415 89.0638 87.0793 89.103 86.9833 88.8983C86.9397 89.1335 86.8525 89.4166 86.6214 89.4732C86.5394 89.4858 86.4555 89.4758 86.3787 89.4443C86.3019 89.4128 86.2351 89.3611 86.1854 89.2947C86.0873 89.1595 86.0054 89.0133 85.9412 88.8591C85.9205 88.8145 85.889 88.7756 85.8497 88.7459C85.7955 88.7309 85.7382 88.7309 85.684 88.7459C85.5593 88.759 85.4337 88.759 85.309 88.7459C85.248 88.7434 85.1896 88.7204 85.1433 88.6806C85.1198 88.6409 85.1063 88.596 85.1041 88.5499C85.0561 87.9097 85.5401 87.3827 85.8845 86.8078C86.1384 86.3501 86.5202 85.9763 86.9833 85.732C87.195 85.5783 87.44 85.4768 87.6984 85.4358C88.0103 85.4707 88.3056 85.5947 88.5487 85.793Z" fill="url(#paint38_linear_9604_100391)"/>
<path d="M101.565 89.4081C101.829 89.5248 102.063 89.6987 102.252 89.9171C102.44 90.1356 102.578 90.3931 102.655 90.6711C102.719 90.9535 102.668 91.2497 102.513 91.4947C102.359 91.7396 102.113 91.9133 101.831 91.9777C101.558 91.9787 101.287 91.9361 101.028 91.8514C100.444 91.7251 99.7944 91.7861 99.2842 91.4638L99.1229 91.6946C98.9817 91.7134 98.8381 91.6914 98.7091 91.6312C98.5801 91.571 98.471 91.4751 98.3948 91.3549C98.2247 91.1285 98.1288 90.8497 97.9587 90.6145C97.7887 90.3793 97.5576 90.1398 97.4093 89.8654C97.3323 89.721 97.2849 89.5627 97.2698 89.3998C97.2547 89.2369 97.2722 89.0726 97.3213 88.9166C97.3704 88.7605 97.4502 88.6157 97.5558 88.4907C97.6615 88.3658 97.7911 88.263 97.9369 88.1886C98.1156 88.1191 98.3064 88.086 98.4981 88.0913C98.6898 88.0965 98.8785 88.14 99.0532 88.2191C99.4587 88.3846 99.7552 88.7156 100.139 88.8942C100.597 89.1076 101.111 89.1598 101.565 89.4081Z" fill="url(#paint39_linear_9604_100391)"/>
<path d="M106.613 86.332C106.709 86.8067 107.852 87.6386 107.485 87.9914C107.733 87.9314 107.964 87.818 108.163 87.6593C108.362 87.5005 108.523 87.3002 108.637 87.0724C108.881 86.5672 108.44 85.8137 107.821 84.5811C107.423 83.6453 107.213 82.6406 107.202 81.6238L107.15 81.6761C106.674 83.1794 106.492 84.76 106.613 86.332Z" fill="url(#paint40_linear_9604_100391)"/>
<path d="M105.318 78.8454L103.813 83.523L101.385 83.388C101.385 83.388 103.077 77.7826 103.129 77.0335C103.181 76.2844 105.449 76.99 105.318 78.8454Z" fill="white"/>
<path d="M98.4935 82.9722C97.6401 83.0288 96.7834 83.0069 95.934 82.9068C96.0387 81.3302 96.7581 79.8581 97.4688 78.4557C97.4843 78.4151 97.5098 78.3792 97.543 78.3511C97.5905 78.3239 97.6453 78.3117 97.6999 78.3163H98.3758C98.514 78.2979 98.6544 78.3239 98.7769 78.3904C99.0385 78.5602 98.6636 80.0889 98.633 80.433C98.5589 81.2605 98.5109 82.1185 98.4935 82.9722Z" fill="white"/>
<defs>
<linearGradient id="paint0_linear_9604_100391" x1="93.3534" y1="69.686" x2="138.845" y2="193.607" gradientUnits="userSpaceOnUse">
<stop offset="0.01"/>
<stop offset="0.83" stop-opacity="0.07"/>
<stop offset="1" stop-opacity="0"/>
</linearGradient>
<linearGradient id="paint1_linear_9604_100391" x1="169.052" y1="122.137" x2="177.454" y2="122.137" gradientUnits="userSpaceOnUse">
<stop offset="0.01"/>
<stop offset="0.83" stop-opacity="0.07"/>
<stop offset="1" stop-opacity="0"/>
</linearGradient>
<linearGradient id="paint2_linear_9604_100391" x1="175.266" y1="122.298" x2="178.322" y2="122.298" gradientUnits="userSpaceOnUse">
<stop stop-color="white"/>
<stop offset="0.43" stop-color="#FDFDFD"/>
<stop offset="0.68" stop-color="#F5F5F5"/>
<stop offset="0.87" stop-color="#E7E7E8"/>
<stop offset="0.97" stop-color="#DDDEDF"/>
</linearGradient>
<linearGradient id="paint3_linear_9604_100391" x1="115.404" y1="128.453" x2="153.563" y2="135.349" gradientUnits="userSpaceOnUse">
<stop offset="0.01"/>
<stop offset="0.83" stop-opacity="0.07"/>
<stop offset="1" stop-opacity="0"/>
</linearGradient>
<linearGradient id="paint4_linear_9604_100391" x1="135.644" y1="131.732" x2="140.968" y2="131.732" gradientUnits="userSpaceOnUse">
<stop stop-color="white"/>
<stop offset="0.43" stop-color="#FDFDFD"/>
<stop offset="0.68" stop-color="#F5F5F5"/>
<stop offset="0.87" stop-color="#E7E7E8"/>
<stop offset="0.97" stop-color="#DDDEDF"/>
</linearGradient>
<linearGradient id="paint5_linear_9604_100391" x1="42.2592" y1="128.453" x2="80.4177" y2="135.349" gradientUnits="userSpaceOnUse">
<stop offset="0.01"/>
<stop offset="0.83" stop-opacity="0.07"/>
<stop offset="1" stop-opacity="0"/>
</linearGradient>
<linearGradient id="paint6_linear_9604_100391" x1="62.5005" y1="131.732" x2="67.8244" y2="131.732" gradientUnits="userSpaceOnUse">
<stop stop-color="white"/>
<stop offset="0.43" stop-color="#FDFDFD"/>
<stop offset="0.68" stop-color="#F5F5F5"/>
<stop offset="0.87" stop-color="#E7E7E8"/>
<stop offset="0.97" stop-color="#DDDEDF"/>
</linearGradient>
<linearGradient id="paint7_linear_9604_100391" x1="160.406" y1="123.461" x2="170.979" y2="123.461" gradientUnits="userSpaceOnUse">
<stop offset="0.01"/>
<stop offset="0.83" stop-opacity="0.07"/>
<stop offset="1" stop-opacity="0"/>
</linearGradient>
<linearGradient id="paint8_linear_9604_100391" x1="168.59" y1="123.634" x2="171.93" y2="123.634" gradientUnits="userSpaceOnUse">
<stop stop-color="white"/>
<stop offset="0.43" stop-color="#FDFDFD"/>
<stop offset="0.68" stop-color="#F5F5F5"/>
<stop offset="0.87" stop-color="#E7E7E8"/>
<stop offset="0.97" stop-color="#DDDEDF"/>
</linearGradient>
<linearGradient id="paint9_linear_9604_100391" x1="144.287" y1="70.3785" x2="6.12959" y2="91.9547" gradientUnits="userSpaceOnUse">
<stop offset="0.01"/>
<stop offset="0.83" stop-opacity="0.07"/>
<stop offset="1" stop-opacity="0"/>
</linearGradient>
<linearGradient id="paint10_linear_9604_100391" x1="89.0897" y1="41.08" x2="82.4769" y2="100.641" gradientUnits="userSpaceOnUse">
<stop offset="0.01"/>
<stop offset="0.83" stop-opacity="0.07"/>
<stop offset="1" stop-opacity="0"/>
</linearGradient>
<linearGradient id="paint11_linear_9604_100391" x1="85.0171" y1="68.5405" x2="90.682" y2="44.6181" gradientUnits="userSpaceOnUse">
<stop offset="0.01"/>
<stop offset="0.83" stop-opacity="0.07"/>
<stop offset="1" stop-opacity="0"/>
</linearGradient>
<linearGradient id="paint12_linear_9604_100391" x1="137.837" y1="57.2552" x2="89.0739" y2="64.9507" gradientUnits="userSpaceOnUse">
<stop stop-color="#2B2B2B"/>
<stop offset="0.22" stop-color="#2E2E2E"/>
<stop offset="0.41" stop-color="#383939"/>
<stop offset="0.6" stop-color="#494A4B"/>
<stop offset="0.77" stop-color="#616264"/>
<stop offset="0.94" stop-color="#7F8184"/>
<stop offset="1" stop-color="#8D8F92"/>
</linearGradient>
<linearGradient id="paint13_linear_9604_100391" x1="156.046" y1="147.785" x2="146.261" y2="78.1615" gradientUnits="userSpaceOnUse">
<stop offset="0.01"/>
<stop offset="0.83" stop-opacity="0.07"/>
<stop offset="1" stop-opacity="0"/>
</linearGradient>
<linearGradient id="paint14_linear_9604_100391" x1="157.911" y1="53.8328" x2="146.278" y2="118.427" gradientUnits="userSpaceOnUse">
<stop offset="0.01"/>
<stop offset="0.83" stop-opacity="0.07"/>
<stop offset="1" stop-opacity="0"/>
</linearGradient>
<linearGradient id="paint15_linear_9604_100391" x1="130.795" y1="73.0651" x2="132.144" y2="63.4699" gradientUnits="userSpaceOnUse">
<stop stop-color="white" stop-opacity="0"/>
<stop offset="0.12" stop-color="white" stop-opacity="0.04"/>
<stop offset="0.33" stop-color="white" stop-opacity="0.14"/>
<stop offset="0.59" stop-color="white" stop-opacity="0.3"/>
<stop offset="0.89" stop-color="white" stop-opacity="0.52"/>
<stop offset="1" stop-color="white" stop-opacity="0.6"/>
</linearGradient>
<linearGradient id="paint16_linear_9604_100391" x1="78.8251" y1="157.486" x2="88.8753" y2="100.832" gradientUnits="userSpaceOnUse">
<stop offset="0.01"/>
<stop offset="0.83" stop-opacity="0.07"/>
<stop offset="1" stop-opacity="0"/>
</linearGradient>
<linearGradient id="paint17_linear_9604_100391" x1="119.99" y1="101.276" x2="45.6168" y2="101.276" gradientUnits="userSpaceOnUse">
<stop offset="0.01"/>
<stop offset="0.83" stop-opacity="0.07"/>
<stop offset="1" stop-opacity="0"/>
</linearGradient>
<linearGradient id="paint18_linear_9604_100391" x1="80.429" y1="85.3954" x2="61.767" y2="85.3954" gradientUnits="userSpaceOnUse">
<stop offset="0.01"/>
<stop offset="0.83" stop-opacity="0.07"/>
<stop offset="1" stop-opacity="0"/>
</linearGradient>
<linearGradient id="paint19_linear_9604_100391" x1="114.169" y1="77.6592" x2="79.3959" y2="105.581" gradientUnits="userSpaceOnUse">
<stop offset="0.01"/>
<stop offset="0.83" stop-opacity="0.07"/>
<stop offset="1" stop-opacity="0"/>
</linearGradient>
<linearGradient id="paint20_linear_9604_100391" x1="97.8319" y1="90.4867" x2="91.4753" y2="85.8326" gradientUnits="userSpaceOnUse">
<stop offset="0.01"/>
<stop offset="0.83" stop-opacity="0.07"/>
<stop offset="1" stop-opacity="0"/>
</linearGradient>
<linearGradient id="paint21_linear_9604_100391" x1="103.518" y1="98.5017" x2="101.051" y2="83.4444" gradientUnits="userSpaceOnUse">
<stop offset="0.01"/>
<stop offset="0.83" stop-opacity="0.07"/>
<stop offset="1" stop-opacity="0"/>
</linearGradient>
<linearGradient id="paint22_linear_9604_100391" x1="109.264" y1="97.299" x2="101.645" y2="86.2283" gradientUnits="userSpaceOnUse">
<stop offset="0.01"/>
<stop offset="0.83" stop-opacity="0.07"/>
<stop offset="1" stop-opacity="0"/>
</linearGradient>
<linearGradient id="paint23_linear_9604_100391" x1="104.024" y1="101.227" x2="108.727" y2="84.0471" gradientUnits="userSpaceOnUse">
<stop offset="0.01"/>
<stop offset="0.83" stop-opacity="0.07"/>
<stop offset="1" stop-opacity="0"/>
</linearGradient>
<linearGradient id="paint24_linear_9604_100391" x1="103.151" y1="77.5325" x2="98.8298" y2="77.5325" gradientUnits="userSpaceOnUse">
<stop stop-color="#E5C5D5"/>
<stop offset="0.42" stop-color="#EAD4D1"/>
<stop offset="1" stop-color="#F0E9CB"/>
</linearGradient>
<linearGradient id="paint25_linear_9604_100391" x1="99.4623" y1="72.7518" x2="100.924" y2="80.8011" gradientUnits="userSpaceOnUse">
<stop offset="0.01"/>
<stop offset="0.83" stop-opacity="0.07"/>
<stop offset="1" stop-opacity="0"/>
</linearGradient>
<linearGradient id="paint26_linear_9604_100391" x1="103.587" y1="73.0837" x2="95.8777" y2="73.0837" gradientUnits="userSpaceOnUse">
<stop stop-color="#E5C5D5"/>
<stop offset="0.42" stop-color="#EAD4D1"/>
<stop offset="1" stop-color="#F0E9CB"/>
</linearGradient>
<linearGradient id="paint27_linear_9604_100391" x1="48.3115" y1="119.314" x2="45.2855" y2="119.314" gradientUnits="userSpaceOnUse">
<stop offset="0.02" stop-color="white" stop-opacity="0"/>
<stop offset="0.39" stop-color="white" stop-opacity="0.39"/>
<stop offset="1" stop-color="white"/>
</linearGradient>
<linearGradient id="paint28_linear_9604_100391" x1="119.834" y1="121.988" x2="113.703" y2="121.988" gradientUnits="userSpaceOnUse">
<stop offset="0.02" stop-color="white" stop-opacity="0"/>
<stop offset="0.39" stop-color="white" stop-opacity="0.39"/>
<stop offset="1" stop-color="white"/>
</linearGradient>
<linearGradient id="paint29_linear_9604_100391" x1="115.992" y1="124.585" x2="111.519" y2="124.585" gradientUnits="userSpaceOnUse">
<stop offset="0.02" stop-color="white" stop-opacity="0"/>
<stop offset="0.39" stop-color="white" stop-opacity="0.39"/>
<stop offset="1" stop-color="white"/>
</linearGradient>
<linearGradient id="paint30_linear_9604_100391" x1="109.818" y1="125.433" x2="106.439" y2="125.433" gradientUnits="userSpaceOnUse">
<stop offset="0.02" stop-color="white" stop-opacity="0"/>
<stop offset="0.39" stop-color="white" stop-opacity="0.39"/>
<stop offset="1" stop-color="white"/>
</linearGradient>
<linearGradient id="paint31_linear_9604_100391" x1="48.7042" y1="123.596" x2="45.2247" y2="123.596" gradientUnits="userSpaceOnUse">
<stop offset="0.02" stop-color="white" stop-opacity="0"/>
<stop offset="0.39" stop-color="white" stop-opacity="0.39"/>
<stop offset="1" stop-color="white"/>
</linearGradient>
<linearGradient id="paint32_linear_9604_100391" x1="51.3415" y1="125.003" x2="48.7123" y2="125.003" gradientUnits="userSpaceOnUse">
<stop offset="0.02" stop-color="white" stop-opacity="0"/>
<stop offset="0.39" stop-color="white" stop-opacity="0.39"/>
<stop offset="1" stop-color="white"/>
</linearGradient>
<linearGradient id="paint33_linear_9604_100391" x1="132.107" y1="108.099" x2="132.166" y2="109.3" gradientUnits="userSpaceOnUse">
<stop offset="0.01"/>
<stop offset="0.83" stop-opacity="0.07"/>
<stop offset="1" stop-opacity="0"/>
</linearGradient>
<linearGradient id="paint34_linear_9604_100391" x1="153.741" y1="124.954" x2="153.784" y2="125.845" gradientUnits="userSpaceOnUse">
<stop offset="0.01"/>
<stop offset="0.83" stop-opacity="0.07"/>
<stop offset="1" stop-opacity="0"/>
</linearGradient>
<linearGradient id="paint35_linear_9604_100391" x1="161.998" y1="106.088" x2="160.471" y2="141.619" gradientUnits="userSpaceOnUse">
<stop offset="0.01"/>
<stop offset="0.83" stop-opacity="0.07"/>
<stop offset="1" stop-opacity="0"/>
</linearGradient>
<linearGradient id="paint36_linear_9604_100391" x1="75.6808" y1="155.681" x2="77.9735" y2="108.208" gradientUnits="userSpaceOnUse">
<stop offset="0.01"/>
<stop offset="0.83" stop-opacity="0.07"/>
<stop offset="1" stop-opacity="0"/>
</linearGradient>
<linearGradient id="paint37_linear_9604_100391" x1="86.735" y1="100.756" x2="69.8065" y2="142.594" gradientUnits="userSpaceOnUse">
<stop offset="0.01"/>
<stop offset="0.83" stop-opacity="0.07"/>
<stop offset="1" stop-opacity="0"/>
</linearGradient>
<linearGradient id="paint38_linear_9604_100391" x1="89.2638" y1="87.4567" x2="85.0997" y2="87.4567" gradientUnits="userSpaceOnUse">
<stop stop-color="#E5C5D5"/>
<stop offset="0.42" stop-color="#EAD4D1"/>
<stop offset="1" stop-color="#F0E9CB"/>
</linearGradient>
<linearGradient id="paint39_linear_9604_100391" x1="102.672" y1="90.0222" x2="97.2916" y2="90.0222" gradientUnits="userSpaceOnUse">
<stop stop-color="#E5C5D5"/>
<stop offset="0.42" stop-color="#EAD4D1"/>
<stop offset="1" stop-color="#F0E9CB"/>
</linearGradient>
<linearGradient id="paint40_linear_9604_100391" x1="103.871" y1="87.2205" x2="108.638" y2="84.0099" gradientUnits="userSpaceOnUse">
<stop offset="0.01"/>
<stop offset="0.83" stop-opacity="0.07"/>
<stop offset="1" stop-opacity="0"/>
</linearGradient>
</defs>
</svg>
