<svg width="90" height="90" viewBox="0 0 90 90" fill="none" xmlns="http://www.w3.org/2000/svg">
<circle opacity="0.2" cx="45" cy="45" r="45" fill="#F5A623"/>
<path opacity="0.1" d="M90 45C90 69.8528 69.8528 90 45 90C20.1472 90 0 69.8528 0 45C0 20.1472 20.1472 0 45 0C69.8528 0 90 20.1472 90 45Z" fill="#F5A623"/>
<mask id="mask0_1213_25355" style="mask-type:alpha" maskUnits="userSpaceOnUse" x="12" y="16" width="65" height="74">
<g clip-path="url(#clip0_1213_25355)">
<path opacity="0.4" d="M63.0713 29.875H25.9285V16L35.2142 20.625L44.4999 16L53.7856 20.625L63.0713 16V29.875Z" fill="#F5A623"/>
<path d="M57.5 60.3125H55.0756C51.7598 61.8363 48.1516 62.6254 44.5 62.6254C40.8484 62.6254 37.2402 61.8363 33.9244 60.3125H31.5C26.3283 60.3125 21.3684 62.3591 17.7114 66.0019C14.0545 69.6448 12 74.5857 12 79.7375L12 83.4375C12 85.2774 12.7337 87.042 14.0398 88.3431C15.3458 89.6441 17.1172 90.375 18.9643 90.375H70.0357C71.8828 90.375 73.6542 89.6441 74.9602 88.3431C76.2663 87.042 77 85.2774 77 83.4375V79.7375C77 74.5857 74.9455 69.6448 71.2886 66.0019C67.6316 62.3591 62.6717 60.3125 57.5 60.3125ZM44.5 55.6875C49.4254 55.6875 54.1492 53.7384 57.632 50.269C61.1148 46.7996 63.0714 42.094 63.0714 37.1875V34.875H25.9286V37.1875C25.9286 42.094 27.8852 46.7996 31.368 50.269C34.8508 53.7384 39.5746 55.6875 44.5 55.6875Z" fill="#F5A623"/>
</g>
</mask>
<g mask="url(#mask0_1213_25355)">
<circle cx="44" cy="45" r="45" fill="#F5A623"/>
</g>
<defs>
<clipPath id="clip0_1213_25355">
<rect width="65" height="74" fill="white" transform="translate(12 16)"/>
</clipPath>
</defs>
</svg>
