<?xml version="1.0" encoding="utf-8"?>
<svg viewBox="250.209 100.076 24 24.267" width="24" height="24.267" xmlns="http://www.w3.org/2000/svg">
  <defs>
    <clipPath id="clip0_10620_100612">
      <rect width="19" height="22" fill="white" transform="translate(29 23)"/>
    </clipPath>
  </defs>
  <g style="mix-blend-mode:multiply" transform="matrix(1, 0, 0, 1, 224.209396, 80.342651)">
    <mask id="mask0_10620_100612" style="mask-type:alpha" maskUnits="userSpaceOnUse" x="29" y="23" width="19" height="22">
      <g clip-path="url(#clip0_10620_100612)">
        <path d="M37.9721 35.0476C41.1371 35.0476 43.7023 32.5855 43.7023 29.5476C43.7023 26.5097 41.1371 24.0476 37.9721 24.0476C34.8071 24.0476 32.242 26.5097 32.242 29.5476C32.242 32.5855 34.8071 35.0476 37.9721 35.0476ZM42.2608 36.4484L40.1209 44.6726L38.6884 38.8289L40.1209 36.4226H35.8233L37.2558 38.8289L35.8233 44.6726L33.6834 36.4484C30.4916 36.5945 27.9443 39.0996 27.9443 42.1976V43.9851C27.9443 45.1238 28.9068 46.0476 30.0931 46.0476H45.8511C47.0374 46.0476 47.9999 45.1238 47.9999 43.9851V42.1976C47.9999 39.0996 45.4527 36.5945 42.2608 36.4484V36.4484Z" fill="#A89228"/>
      </g>
    </mask>
    <g mask="url(#mask0_10620_100612)">
      <circle cx="37.9998" cy="31.7333" r="12" fill="#A89228"/>
    </g>
    <circle opacity="0.1" cx="38" cy="32" r="12" fill="#A89228"/>
  </g>
</svg>