<svg width="18" height="20" viewBox="0 0 18 20" fill="none" xmlns="http://www.w3.org/2000/svg">
<mask id="mask0_1213_25486" style="mask-type:alpha" maskUnits="userSpaceOnUse" x="0" y="0" width="18" height="20">
<g clip-path="url(#clip0_1213_25486)">
<path d="M13.8189 3.9666H3.91418V0.266602L6.39038 1.49993L8.86657 0.266602L11.3428 1.49993L13.8189 0.266602V3.9666Z" fill="#F5A623"/>
<path d="M12.3333 12.0834H11.6868C10.8026 12.4897 9.84038 12.7002 8.86662 12.7002C7.89285 12.7002 6.93068 12.4897 6.04647 12.0834H5.39995C4.02083 12.0834 2.69819 12.6291 1.723 13.6006C0.747807 14.572 0.199951 15.8896 0.199951 17.2634L0.199951 18.2501C0.199951 18.7407 0.395614 19.2113 0.743896 19.5582C1.09218 19.9051 1.56455 20.1 2.05709 20.1H15.6761C16.1687 20.1 16.6411 19.9051 16.9893 19.5582C17.3376 19.2113 17.5333 18.7407 17.5333 18.2501V17.2634C17.5333 15.8896 16.9854 14.572 16.0102 13.6006C15.0351 12.6291 13.7124 12.0834 12.3333 12.0834ZM8.86662 10.85C10.1801 10.85 11.4397 10.3303 12.3685 9.40511C13.2972 8.47993 13.819 7.22512 13.819 5.91672V5.30005H3.91424V5.91672C3.91424 7.22512 4.436 8.47993 5.36476 9.40511C6.29351 10.3303 7.55316 10.85 8.86662 10.85Z" fill="#F5A623"/>
</g>
</mask>
<g mask="url(#mask0_1213_25486)">
<circle cx="8.73328" cy="8" r="12" fill="#F5A623"/>
</g>
<defs>
<clipPath id="clip0_1213_25486">
<rect width="17.3333" height="19.7333" fill="white" transform="translate(0.199951 0.266602)"/>
</clipPath>
</defs>
</svg>
