<svg width="24" height="16" viewBox="0 0 24 16" fill="none" xmlns="http://www.w3.org/2000/svg">
<path d="M0 2.75C0 2.15326 0.237053 1.58097 0.65901 1.15901C1.08097 0.737053 1.65326 0.5 2.25 0.5H21.75C22.3467 0.5 22.919 0.737053 23.341 1.15901C23.7629 1.58097 24 2.15326 24 2.75V5C24 5.19891 23.921 5.38968 23.7803 5.53033C23.6397 5.67098 23.4489 5.75 23.25 5.75C22.6533 5.75 22.081 5.98705 21.659 6.40901C21.2371 6.83097 21 7.40326 21 8C21 8.59674 21.2371 9.16903 21.659 9.59099C22.081 10.0129 22.6533 10.25 23.25 10.25C23.4489 10.25 23.6397 10.329 23.7803 10.4697C23.921 10.6103 24 10.8011 24 11V13.25C24 13.8467 23.7629 14.419 23.341 14.841C22.919 15.2629 22.3467 15.5 21.75 15.5H2.25C1.65326 15.5 1.08097 15.2629 0.65901 14.841C0.237053 14.419 0 13.8467 0 13.25L0 11C0 10.8011 0.0790176 10.6103 0.21967 10.4697C0.360322 10.329 0.551088 10.25 0.75 10.25C1.34674 10.25 1.91903 10.0129 2.34099 9.59099C2.76295 9.16903 3 8.59674 3 8C3 7.40326 2.76295 6.83097 2.34099 6.40901C1.91903 5.98705 1.34674 5.75 0.75 5.75C0.551088 5.75 0.360322 5.67098 0.21967 5.53033C0.0790176 5.38968 0 5.19891 0 5V2.75ZM6 1.25V2.75H7.5V1.25H6ZM7.5 5.75V4.25H6V5.75H7.5ZM18 5.75V4.25H16.5V5.75H18ZM16.5 2.75H18V1.25H16.5V2.75ZM7.5 7.25H6V8.75H7.5V7.25ZM18 8.75V7.25H16.5V8.75H18ZM7.5 10.25H6V11.75H7.5V10.25ZM18 11.75V10.25H16.5V11.75H18ZM6 13.25V14.75H7.5V13.25H6ZM16.5 14.75H18V13.25H16.5V14.75Z" fill="#138340"/>
</svg>
