<svg width="24" height="24" viewBox="0 0 24 24" fill="none" xmlns="http://www.w3.org/2000/svg">
<circle cx="12" cy="12" r="12" fill="#E18C00"/>
<g clip-path="url(#clip0_9585_99341)">
<path d="M16.8438 5H7.65625C7.29381 5 7 5.29381 7 5.65625V6.09375C7 6.45619 7.29381 6.75 7.65625 6.75C7.65625 9.23732 9.05122 11.3365 10.9605 12C9.05122 12.6635 7.65625 14.7627 7.65625 17.25C7.29381 17.25 7 17.5438 7 17.9062V18.3438C7 18.7062 7.29381 19 7.65625 19H16.8438C17.2062 19 17.5 18.7062 17.5 18.3438V17.9062C17.5 17.5438 17.2062 17.25 16.8438 17.25C16.8438 14.7627 15.4488 12.6635 13.5395 12C15.4488 11.3365 16.8438 9.23732 16.8438 6.75C17.2062 6.75 17.5 6.45619 17.5 6.09375V5.65625C17.5 5.29381 17.2062 5 16.8438 5ZM14.7908 15.5H9.70922C10.1757 14.2204 11.1337 13.3125 12.25 13.3125C13.3662 13.3125 14.3244 14.2202 14.7908 15.5ZM14.7914 8.5H9.70916C9.5153 7.96811 9.40625 7.37202 9.40625 6.75H15.0938C15.0938 7.37357 14.9847 7.96918 14.7914 8.5Z" fill="white"/>
</g>
<defs>
<clipPath id="clip0_9585_99341">
<rect width="10.5" height="14" fill="white" transform="translate(7 5)"/>
</clipPath>
</defs>
</svg>
