<svg width="167" height="133" viewBox="0 0 167 133" fill="none" xmlns="http://www.w3.org/2000/svg">
<path opacity="0.2" d="M163.937 92.0329C162.787 96.9162 159.63 100.916 155.813 104.256C153.862 105.963 151.795 107.533 149.627 108.954C145.726 111.595 141.62 114.013 137.121 115.357C124.569 119.091 110.534 114.022 98.2034 118.382C93.4253 120.063 89.2573 123.064 84.8035 125.455C74.7354 130.881 63.0098 132.876 51.6734 131.736C36.2122 130.173 21.7552 121.758 12.0908 109.994C-1.08817 93.9728 -5.36665 71.7432 8.81409 52.1619C16.3693 41.7494 27.9388 35.027 36.8104 25.7092C40.6541 21.6902 43.9789 17.1838 48.2309 13.6065C53.2181 9.41223 59.2815 6.68966 65.4217 4.50008C77.7263 0.132924 92.2289 -1.98223 103.2 5.08109C117.511 14.3148 119.452 34.5564 130.301 47.6819C136.532 55.2134 145.394 60.0247 152.728 66.4902C160.063 72.9557 166.193 82.5207 163.937 92.0329Z" fill="#54A7F5"/>
<path d="M166.872 107.351C166.532 108.827 165.107 109.753 163.775 110.474C160.054 112.492 156.138 114.128 152.234 115.764L125.246 127.057C121.132 128.783 116.954 130.524 112.556 131.354C108.101 132.194 103.527 132.101 98.9944 131.966C79.449 131.462 59.87 130.961 40.4481 128.712C37.8937 128.417 34.9241 127.801 33.8433 125.477C32.8708 123.396 34.0116 120.822 35.8367 119.425C37.6618 118.028 39.9918 117.527 42.2433 117.064L56.3544 114.158C76.5505 110 96.7466 105.838 117.156 102.977C122.063 102.289 169.785 94.6719 166.872 107.351Z" fill="url(#paint0_linear_9585_100575)"/>
<path d="M150.711 89.5352C137.621 91.8252 123.499 80.7635 112.271 100.806C110.671 104 110.211 110.493 110.095 117.045C123.51 113.216 153.06 103.619 153.595 103.16C154.537 102.356 154.537 99.2033 154.5 96.3866C154.485 95.3181 152.821 92.6732 150.711 89.5352Z" fill="#1A1A1A"/>
<path d="M150.165 97.0923C148.946 97.126 145.101 100.638 145.008 105.068C144.925 109.073 146.032 112.54 147.08 113.089L151.081 113.403L150.61 112.607C151.47 111.449 152.132 108.498 152.203 105.053C152.297 100.626 151.384 97.0625 150.165 97.0923Z" fill="#3F3D56"/>
<path d="M150.165 97.0923C148.946 97.126 145.101 100.638 145.008 105.068C144.925 109.073 146.032 112.54 147.08 113.089L151.081 113.403L150.61 112.607C151.47 111.449 152.132 108.498 152.203 105.053C152.297 100.626 151.384 97.0625 150.165 97.0923Z" fill="url(#paint1_linear_9585_100575)"/>
<path d="M153.55 105.33C153.456 109.757 152.391 113.373 151.171 113.403C149.952 113.433 149.04 109.872 149.133 105.446C149.227 101.019 150.289 97.3987 151.512 97.3688C152.735 97.339 153.643 100.899 153.55 105.33Z" fill="#3F3D56"/>
<path d="M152.955 105.352C152.899 107.967 152.267 110.115 151.549 110.134C150.831 110.153 150.285 108.042 150.337 105.42C150.39 102.797 151.025 100.656 151.747 100.638C152.469 100.619 153.008 102.73 152.955 105.352Z" fill="url(#paint2_linear_9585_100575)"/>
<path d="M152.447 105.371C152.42 106.634 152.117 107.669 151.77 107.676C151.422 107.684 151.16 106.668 151.186 105.405C151.212 104.142 151.515 103.107 151.863 103.096C152.211 103.085 152.447 104.105 152.447 105.371Z" fill="#3F3D56"/>
<path d="M116.053 99.0357C113.928 99.0917 104.833 105.528 104.664 113.232C104.518 120.206 105.786 125.933 107.623 126.942L117.665 127.439L116.842 126.049C118.338 124.032 119.493 118.891 119.621 112.899C119.766 105.192 118.177 98.9796 116.053 99.0357Z" fill="#3F3D56"/>
<path d="M116.053 99.0357C113.928 99.0917 104.833 105.528 104.664 113.232C104.518 120.206 105.786 125.933 107.623 126.942L117.665 127.439L116.842 126.049C118.338 124.032 119.493 118.891 119.621 112.899C119.766 105.192 118.177 98.9796 116.053 99.0357Z" fill="url(#paint3_linear_9585_100575)"/>
<path d="M121.947 113.376C121.786 121.087 119.931 127.382 117.807 127.438C115.682 127.494 114.093 121.289 114.257 113.578C114.422 105.867 116.273 99.5687 118.394 99.5127C120.514 99.4567 122.108 105.666 121.947 113.376Z" fill="#3F3D56"/>
<path d="M120.911 113.411C120.817 117.976 119.718 121.708 118.461 121.738C117.205 121.768 116.262 118.096 116.356 113.519C116.449 108.943 117.549 105.222 118.809 105.188C120.069 105.155 121.008 108.85 120.911 113.411Z" fill="url(#paint4_linear_9585_100575)"/>
<path d="M120.006 113.448C119.961 115.648 119.43 117.449 118.824 117.464C118.218 117.479 117.766 115.708 117.81 113.504C117.855 111.3 118.386 109.503 118.992 109.488C119.598 109.473 120.054 111.244 120.006 113.448Z" fill="#3F3D56"/>
<path d="M53.3138 99.0357C51.1895 99.0917 42.0938 105.528 41.9255 113.232C41.7796 120.206 43.0662 125.933 44.8838 126.942L54.9108 127.431L54.088 126.042C55.584 124.024 56.7397 118.884 56.8668 112.892C57.0277 105.192 55.4382 98.9796 53.3138 99.0357Z" fill="#3F3D56"/>
<path d="M53.3138 99.0357C51.1895 99.0917 42.0938 105.528 41.9255 113.232C41.7796 120.206 43.0662 125.933 44.8838 126.942L54.9108 127.431L54.088 126.042C55.584 124.024 56.7397 118.884 56.8668 112.892C57.0277 105.192 55.4382 98.9796 53.3138 99.0357Z" fill="url(#paint5_linear_9585_100575)"/>
<path d="M59.2081 113.376C59.0436 121.087 57.1922 127.382 55.0679 127.438C52.9436 127.494 51.3541 121.289 51.5186 113.578C51.6832 105.868 53.5345 99.5877 55.6551 99.513C57.7757 99.4383 59.3689 105.666 59.2081 113.376Z" fill="#3F3D56"/>
<path d="M58.1721 113.411C58.0748 117.976 56.979 121.708 55.7224 121.738C54.4657 121.768 53.5195 118.096 53.6167 113.519C53.714 108.943 54.8098 105.222 56.0702 105.188C57.3306 105.155 58.2693 108.85 58.1721 113.411Z" fill="url(#paint6_linear_9585_100575)"/>
<path d="M57.267 113.448C57.2221 115.648 56.691 117.449 56.0851 117.464C55.4792 117.479 55.0267 115.708 55.0716 113.504C55.1164 111.3 55.6475 109.503 56.2534 109.488C56.8593 109.473 57.3156 111.244 57.267 113.448Z" fill="#3F3D56"/>
<path d="M144.424 97.485C143.093 97.5186 137.692 101.467 137.595 106.298C137.505 110.669 138.313 114.27 139.465 114.89L145.449 115.282L144.933 114.412C145.875 113.149 146.594 109.929 146.672 106.171C146.751 101.34 145.756 97.4513 144.424 97.485Z" fill="#3F3D56"/>
<path d="M144.424 97.485C143.093 97.5186 137.692 101.467 137.595 106.298C137.505 110.669 138.313 114.27 139.465 114.89L145.449 115.282L144.933 114.412C145.875 113.149 146.594 109.929 146.672 106.171C146.751 101.34 145.756 97.4513 144.424 97.485Z" fill="url(#paint7_linear_9585_100575)"/>
<path d="M148.12 106.468C148.015 111.303 146.855 115.248 145.524 115.281C144.193 115.315 143.198 111.43 143.299 106.595C143.4 101.761 144.563 97.8201 145.891 97.7827C147.218 97.7454 148.221 101.638 148.12 106.468Z" fill="#3F3D56"/>
<path d="M147.469 106.495C147.409 109.356 146.721 111.695 145.932 111.725C145.142 111.755 144.555 109.442 144.615 106.577C144.675 103.712 145.363 101.38 146.152 101.347C146.941 101.313 147.529 103.633 147.469 106.495Z" fill="url(#paint8_linear_9585_100575)"/>
<path d="M146.9 106.518C146.874 107.896 146.526 109.025 146.152 109.032C145.778 109.039 145.487 107.93 145.513 106.551C145.539 105.173 145.887 104.045 146.261 104.034C146.635 104.022 146.93 105.136 146.9 106.518Z" fill="#3F3D56"/>
<path d="M112.271 100.834C123.492 80.7914 137.618 91.868 150.711 89.563C147.267 84.3964 142.7 77.8924 142.596 74.8889C142.427 70.0548 142.839 63.5246 141.56 62.7214C140.28 61.9182 121.277 47.6625 111.497 43.0152C101.717 38.3679 47.1914 39.8697 45.5346 45.1072C43.8778 50.3448 39.9245 77.2536 38.9147 93.8181C38.1854 105.646 38.2752 106.688 38.3911 116.266C38.3911 116.266 94.1511 118.635 103.755 118.635C104.376 118.635 106.729 118.037 110.095 117.073C110.211 110.521 110.671 104.028 112.271 100.834Z" fill="#54A7F5"/>
<path d="M105.236 44.8443C103.269 43.279 48.953 43.6376 47.3148 44.0635C46.6325 44.2304 46.0138 44.5927 45.5346 45.1058C45.0793 45.9666 44.7097 46.87 44.4313 47.803C43.6011 50.6239 42.9466 53.4935 42.4715 56.3953C41.5216 62.3202 40.2761 71.585 39.4084 84.4472C39.3112 85.9901 39.2177 87.5928 39.1317 89.244C39.1018 90.7159 39.1616 93.5588 40.0218 93.981C41.185 94.5488 97.1132 95.0456 99.7723 93.1255C102.431 91.2053 102.518 89.427 102.992 82.6018C103.467 75.7765 104.862 57.5011 105.611 53.6607C106.359 49.8203 107.193 46.4095 105.236 44.8443Z" fill="url(#paint9_linear_9585_100575)"/>
<path d="M105.236 44.8443C103.269 43.279 48.953 43.6376 47.3148 44.0635C46.6325 44.2304 46.0138 44.5927 45.5346 45.1058C45.0793 45.9666 44.7097 46.87 44.4313 47.803C43.6011 50.6239 42.9466 53.4935 42.4715 56.3953C41.5216 62.3202 40.2761 71.585 39.4084 84.4472C39.3112 85.9901 39.2177 87.5928 39.1317 89.244C39.1018 90.7159 39.1616 93.5588 40.0218 93.9809C40.8163 94.1038 41.619 94.1662 42.4229 94.1677C43.1709 82.0227 42.6959 78.6381 45.2616 62.9964C47.255 53.8288 50.4527 54.6283 55.0118 54.6283C54.0693 68.7121 52.4424 80.3416 51.7393 94.4255C68.8012 94.5749 98.0482 94.3695 99.7723 93.1254C102.435 91.2053 102.518 89.427 102.992 82.6018C103.467 75.7765 104.862 57.5011 105.611 53.6607C106.359 49.8203 107.193 46.4095 105.236 44.8443Z" fill="url(#paint10_linear_9585_100575)"/>
<path d="M105.237 44.8443C103.269 43.279 48.953 43.6376 47.3149 44.0635C46.6325 44.2304 46.0138 44.5927 45.5346 45.1058C45.0793 45.9666 44.7097 46.87 44.4313 47.803C44.1059 48.8266 43.7431 50.1976 43.3579 51.9123L105.872 52.4129C106.523 49.0956 106.991 46.2377 105.237 44.8443Z" fill="url(#paint11_linear_9585_100575)"/>
<path d="M45.2764 107.22C45.2764 107.22 41.8468 106.387 40.2798 100.817C38.5444 97.6678 37.9011 102.943 38.0357 106.966C38.1367 109.914 43.369 110.041 44.9473 109.727C46.5256 109.413 47.0903 108.079 45.2764 107.22Z" fill="#3F3D56"/>
<path d="M46.1815 107.896L46.1329 107.837C45.9123 107.59 45.6369 107.398 45.3288 107.276C44.3371 106.958 43.4564 106.364 42.7893 105.565C41.7043 104.355 40.9044 102.918 40.448 101.359C39.1727 100.003 38.6977 103.974 38.8062 107.078C38.8959 109.563 43.6046 109.671 45.0258 109.406C46.0805 109.193 46.6303 108.524 46.1815 107.896Z" fill="#3F3D56"/>
<path d="M41.4391 103.664C41.0276 102.928 40.6953 102.15 40.448 101.344C39.5056 100.339 39.0007 102.259 38.8436 104.583C39.3073 103.929 40.4967 103.697 41.4391 103.664Z" fill="#54A7F5"/>
<path d="M54.9744 41.829C54.9744 41.829 103.595 41.829 111.075 43.0581C115.189 44.063 151.8 65.7268 151.8 65.7268L149.986 62.6933C149.986 62.6933 122.845 42.5911 113.233 38.7843C103.621 34.9776 56.9118 32.4298 54.9744 41.829Z" fill="#54A7F5"/>
<path style="mix-blend-mode:multiply" opacity="0.5" d="M54.9744 41.829C54.9744 41.829 103.595 41.829 111.075 43.0581C115.189 44.063 151.8 65.7268 151.8 65.7268L149.986 62.6933C149.986 62.6933 122.845 42.5911 113.233 38.7843C103.621 34.9776 56.9118 32.4298 54.9744 41.829Z" fill="url(#paint12_linear_9585_100575)"/>
<path d="M155.794 100.454C155.757 97.6371 155.304 79.6905 155.136 74.8601C154.967 70.0297 155.154 67.9377 153.875 67.1308C152.596 66.3239 129.876 50.4206 120.096 45.792C110.315 41.1634 109.859 42.4784 108.206 47.7159C106.553 52.9535 104.698 75.611 104.137 89.0523C103.613 101.668 103.763 121.098 103.763 121.098L113.943 117.926C113.891 116.783 113.876 115.588 113.902 114.358C114.082 105.852 116.124 98.9073 118.469 98.8438C120.814 98.7803 122.583 105.632 122.384 114.138C122.384 114.512 122.362 114.911 122.347 115.292C129.259 113.126 136.873 110.716 143.022 108.74C142.999 108.09 142.992 107.414 143.022 106.719C143.13 101.433 144.402 97.1179 145.857 97.0805C147.312 97.0432 148.404 101.294 148.292 106.581C148.292 106.734 148.292 106.887 148.292 107.04L148.98 106.816C148.98 106.36 148.98 105.893 148.98 105.415C149.081 100.712 150.21 96.8713 151.504 96.8228C152.798 96.7742 153.748 100.559 153.67 105.213C154.137 105.07 154.591 104.888 155.027 104.668C155.925 103.88 155.813 103.274 155.794 100.454Z" fill="#54A7F5"/>
<path d="M155.794 100.454C155.757 97.6371 155.304 79.6905 155.136 74.8601C154.967 70.0297 155.154 67.9377 153.875 67.1308C152.596 66.3239 129.876 50.4206 120.096 45.792C110.315 41.1634 109.859 42.4784 108.206 47.7159C106.553 52.9535 104.698 75.611 104.137 89.0523C103.613 101.668 103.763 121.098 103.763 121.098L113.943 117.926C113.891 116.783 113.876 115.588 113.902 114.358C114.082 105.852 116.124 98.9073 118.469 98.8438C120.814 98.7803 122.583 105.632 122.384 114.138C122.384 114.512 122.362 114.911 122.347 115.292C129.259 113.126 136.873 110.716 143.022 108.74C142.999 108.09 142.992 107.414 143.022 106.719C143.13 101.433 144.402 97.1179 145.857 97.0805C147.312 97.0432 148.404 101.294 148.292 106.581C148.292 106.734 148.292 106.887 148.292 107.04L148.98 106.816C148.98 106.36 148.98 105.893 148.98 105.415C149.081 100.712 150.21 96.8713 151.504 96.8228C152.798 96.7742 153.748 100.559 153.67 105.213C154.137 105.07 154.591 104.888 155.027 104.668C155.925 103.88 155.813 103.274 155.794 100.454Z" fill="url(#paint13_linear_9585_100575)"/>
<path d="M109.537 86.7749C111.314 77.2935 113.446 69.9639 123.376 71.7945C130.051 73.0347 146.915 79.3744 154.623 82.3966C154.623 82.3966 154.623 80.2747 154.582 79.6695C154.373 75.4331 154.53 73.2701 153.236 72.65C151.942 72.0298 129.633 57.281 119.755 54.042C109.878 50.8031 109.466 52.1742 107.929 57.6471C106.807 61.607 105.79 74.7233 105.206 86.7861L109.522 86.8609C109.526 86.8319 109.531 86.8032 109.537 86.7749Z" fill="url(#paint14_linear_9585_100575)"/>
<path d="M107.608 86.8302L109.523 86.86C109.521 86.8314 109.521 86.8027 109.523 86.7741C109.903 84.5524 110.403 82.3526 111.019 80.1842C109.463 81.8429 108.419 84.1441 107.608 86.8302Z" fill="url(#paint15_linear_9585_100575)"/>
<g style="mix-blend-mode:multiply">
<path d="M128.884 58.1924L128.664 58.0803L128.226 73.0234L128.447 73.0869L128.884 58.1924Z" fill="#CDCDCD"/>
<path d="M139.933 64.4709L139.712 64.3364L139.529 76.7616L139.749 76.8401L139.933 64.4709Z" fill="#CDCDCD"/>
<path d="M148.512 69.7327L148.291 69.5945V79.9725L148.512 80.0547V69.7327Z" fill="#CDCDCD"/>
</g>
<path d="M38.1442 110.691C38.1442 110.691 38.3948 111.401 42.1385 111.472C45.8823 111.543 102.431 112.395 104.339 111.323C104.365 114.916 104.653 121.095 103.748 121.517C102.626 122.044 44.9959 121.215 42.333 120.856C39.6701 120.498 38.6715 120.075 38.3387 117.587C38.0058 115.099 38.1442 110.691 38.1442 110.691Z" fill="#54A7F5"/>
<path d="M38.1442 110.691C38.1442 110.691 38.3948 111.401 42.1385 111.472C45.8823 111.543 102.431 112.395 104.339 111.323C104.365 114.916 104.653 121.095 103.748 121.517C102.626 122.044 44.9959 121.215 42.333 120.856C39.6701 120.498 38.6715 120.075 38.3387 117.587C38.0058 115.099 38.1442 110.691 38.1442 110.691Z" fill="url(#paint16_linear_9585_100575)"/>
<g style="mix-blend-mode:multiply">
<path d="M113.816 86.592L115.047 52.6487L114.826 52.5964L112.582 113.598L104.874 115.839C104.732 102.506 105.248 90.2606 105.409 86.7751H105.184C104.997 90.7948 104.38 105.697 104.735 120.771L104.956 120.696C104.921 119.256 104.896 117.823 104.881 116.396L112.559 114.155L112.406 118.395L112.63 118.309L112.803 114.11H112.825V113.826L113.797 87.1673L124.363 88.1013L123.925 114.816L124.15 114.73L124.587 88.12L133.649 88.9231L133.275 111.876L133.496 111.797L133.87 88.9418L142.02 89.6628L141.705 109.186L141.93 109.096L142.24 89.6703L155.57 90.8508V90.283L113.816 86.592Z" fill="#CDCDCD"/>
</g>
<path opacity="0.6" d="M106.886 86.8162C106.886 86.6593 106.916 86.5024 106.927 86.3455L107.697 74.0921C107.858 71.5294 107.297 69.3925 106.396 68.8396C105.917 74.193 105.506 80.626 105.207 86.7713L106.886 86.8162Z" fill="#191919"/>
<path d="M40.0218 93.9849C41.1887 94.5528 97.1132 95.0496 99.7724 93.1295C102.297 91.3101 102.503 89.6141 102.921 83.6182C101.467 82.6655 98.6316 81.9557 94.9328 81.4365C94.0576 81.3132 93.1338 81.2011 92.1689 81.1002C90.4186 80.9172 88.5299 80.764 86.5589 80.6445L85.4182 80.5772C83.9895 80.4975 82.5221 80.4328 81.0162 80.383L79.4042 80.3344C77.9419 80.2971 76.4496 80.2672 74.9536 80.2485C74.1607 80.2485 73.3604 80.2298 72.5637 80.2261H71.423C67.309 80.2261 63.195 80.2784 59.3577 80.3792C48.6201 80.6706 40.0705 81.2982 39.6179 81.6905C39.5506 82.5946 39.4833 83.5098 39.4197 84.455C39.32 86.0016 39.2277 87.6005 39.1429 89.2517C39.1055 90.7161 39.1654 93.5591 40.0218 93.9849Z" fill="url(#paint17_linear_9585_100575)"/>
<path d="M52.9622 80.6742C57.8915 80.5434 63.2809 80.4799 68.5581 80.5434L68.9695 71.9773C68.9695 69.0783 65.4538 66.7472 61.1453 66.792C56.8368 66.8368 53.3474 69.2053 53.3624 72.108L52.9622 80.6742Z" fill="url(#paint18_linear_9585_100575)"/>
<path d="M79.3929 80.3294C85.1937 80.4901 90.6429 80.83 94.9327 81.4502L95.4114 71.5205C95.4114 68.6215 91.8958 66.2904 87.5836 66.3315C83.2713 66.3726 79.7894 68.7485 79.8006 71.6512L79.3929 80.3294Z" fill="url(#paint19_linear_9585_100575)"/>
<path d="M73.3341 76.9529C73.4612 77.1743 73.6531 77.3516 73.8839 77.461C75.2228 78.2567 76.5991 78.9889 77.9979 79.6464C78.232 79.7799 78.4952 79.8542 78.7646 79.8631C79.1697 79.7926 79.536 79.5791 79.7969 79.2616C80.6608 78.4398 81.5472 77.5768 81.981 76.4598C82.2446 75.6551 82.3821 74.8146 82.3887 73.968C82.478 72.7428 82.4705 71.5124 82.3663 70.2883C82.2279 69.1676 81.8988 68.3718 81.1807 68.9584C80.8815 69.2012 78.5627 75.9629 78.3083 75.7799L76.6964 74.6928C76.3304 74.3919 75.8847 74.2037 75.4136 74.1511C74.5085 74.1511 73.9175 75.0626 73.5061 75.8696C73.4004 76.0268 73.3302 76.2052 73.3005 76.3923C73.2708 76.5794 73.2823 76.7707 73.3341 76.9529Z" fill="#54A7F5"/>
<path d="M73.8839 77.4611C75.2228 78.2569 76.5991 78.9891 77.9979 79.6466C78.232 79.78 78.4952 79.8544 78.7646 79.8632C79.1697 79.7927 79.536 79.5793 79.7969 79.2618C80.6608 78.4399 81.5472 77.5769 81.981 76.46C82.2446 75.6553 82.3821 74.8148 82.3887 73.9682C82.478 72.7429 82.4705 71.5125 82.3663 70.2885C82.1867 70.1091 81.9175 72.5859 81.6182 72.84C81.319 73.094 79.0489 77.3677 78.7684 77.1735C78.2335 76.7999 77.695 76.445 77.1564 76.0864C76.7904 75.7855 76.3447 75.5973 75.8736 75.5447C74.9685 75.5447 74.3776 76.4562 73.9699 77.2631C73.9437 77.3341 73.9063 77.3976 73.8839 77.4611Z" fill="url(#paint20_linear_9585_100575)"/>
<path d="M81.0124 80.3774C82.5084 80.4297 83.9757 80.4945 85.4144 80.5717L86.5551 80.6389C88.5373 80.7585 90.426 80.9116 92.1651 81.0947C92.1651 80.6426 92.2175 77.598 92.195 77.1684C92.0791 75.0689 93.6387 71.4564 93.2609 69.3867C93.0739 68.3519 84.5803 66.0768 82.2503 67.7692C81.7947 68.0618 81.4285 68.4741 81.1919 68.9609C81.0228 69.4932 80.9856 70.0585 81.0834 70.6083C81.2405 72.2185 81.3938 73.8211 81.5472 75.4312C81.5883 75.816 81.1919 78.4647 81.0124 80.3774Z" fill="#54A7F5"/>
<path d="M81.0125 80.3798C82.5085 80.4321 83.9759 80.4969 85.4145 80.5741L86.0877 80.6114L86.5552 80.6413C88.5374 80.7608 90.4262 80.914 92.1653 81.0971C92.1653 80.645 92.2176 77.6004 92.1952 77.1708C92.1913 76.416 92.2779 75.6635 92.4532 74.9293C92.8497 73.024 93.5229 70.8424 93.2611 69.4041C93.0741 68.3693 84.5805 66.0942 82.2505 67.7865C81.7948 68.0792 81.4287 68.4915 81.192 68.9782C81.023 69.5105 80.9858 70.0758 81.0836 70.6257C81.2407 72.2358 81.394 73.8384 81.5473 75.4486C81.5885 75.8184 81.192 78.4671 81.0125 80.3798Z" fill="url(#paint21_linear_9585_100575)"/>
<path d="M86.0802 80.6108L86.5477 80.6407C88.5299 80.7602 90.4186 80.9134 92.1578 81.0964C92.1578 80.6444 92.2101 77.5997 92.1877 77.1701C92.1838 76.4153 92.2704 75.6628 92.4457 74.9286C92.3223 74.6559 92.1952 74.3832 92.0717 74.1142C91.963 73.7744 91.8028 73.4531 91.5968 73.1616C91.2228 73.3484 91.4696 74.3384 91.3873 74.7269C91.32 75.037 90.5682 77.4466 90.097 78.1676C90.0068 78.3283 89.8784 78.4643 89.723 78.5636C89.488 78.6665 89.2299 78.7052 88.975 78.6756C87.853 78.6383 86.731 78.5934 85.6314 78.5299C85.5529 79.2285 85.9942 79.8972 86.0802 80.6108Z" fill="url(#paint22_linear_9585_100575)"/>
<path d="M87.1535 78.899C87.6808 79.2091 87.045 80.0982 87.6584 80.1094C88.7093 80.1094 91.937 79.7881 92.9879 79.8068C94.1099 79.8068 95.2319 79.0597 95.935 78.1817C96.1387 77.9035 96.2838 77.5869 96.3615 77.2511C96.4393 76.9153 96.4482 76.5673 96.3876 76.2279C96.2624 75.5507 96.046 74.8934 95.7443 74.2741C95.389 73.4597 93.7546 68.8498 92.8346 69.2121C92.4606 69.3653 92.1427 69.8809 91.9183 70.5421C91.5066 71.8308 91.3466 73.1866 91.447 74.5356C91.5293 74.9428 92.5092 75.6564 92.195 75.959C92.0978 76.039 91.9878 76.1022 91.8696 76.1458C90.411 76.7792 88.8444 77.1279 87.2545 77.1731C86.959 77.6924 86.6224 78.5889 87.1535 78.899Z" fill="#54A7F5"/>
<path d="M87.6584 80.1099C88.7093 80.1099 91.937 79.7886 92.9879 79.8073C94.1099 79.8073 95.2319 79.0601 95.935 78.1822C96.1387 77.904 96.2838 77.5874 96.3615 77.2516C96.4393 76.9158 96.4482 76.5677 96.3876 76.2284C96.276 76.6234 96.0755 76.9876 95.8013 77.2933C95.527 77.5989 95.1865 77.8378 94.8056 77.9917C93.3918 78.496 88.0735 78.7874 88.0735 78.7874L87.1647 78.8995C87.6808 79.2095 87.045 80.0987 87.6584 80.1099Z" fill="url(#paint23_linear_9585_100575)"/>
<path d="M88.0474 79.0409C87.9926 79.3771 87.8345 79.6878 87.5949 79.9301C87.5234 79.8494 87.4778 79.7492 87.464 79.6424C87.4022 79.4219 87.3887 79.1907 87.4242 78.9645C87.4596 78.7382 87.5434 78.5223 87.6697 78.3312C88.1185 77.7446 88.0998 78.7533 88.0474 79.0409Z" fill="#191919"/>
<path d="M88.4662 66.5592C88.5036 67.2802 88.4662 68.0535 87.995 68.6176C87.7261 68.9047 87.3982 69.1302 87.0338 69.2789C86.6967 69.4561 86.3227 69.552 85.9417 69.559C85.7517 69.5589 85.5653 69.5066 85.403 69.4077C85.2408 69.3089 85.1088 69.1674 85.0217 68.9987C84.799 68.4314 84.7306 67.8153 84.8235 67.213C85.0404 66.5219 85.0741 65.7635 85.4294 65.1284C85.7847 64.4933 87.0488 64.3813 87.8566 64.4336C88.2306 64.4597 88.4064 64.5793 88.4475 64.9454C88.4924 65.4609 88.4363 66.0362 88.4662 66.5592Z" fill="url(#paint24_linear_9585_100575)"/>
<path d="M87.131 67.5723C86.9074 68.0932 86.5287 68.5328 86.0464 68.8313C85.8663 68.9439 85.6602 69.0083 85.448 69.0181C85.3415 69.0223 85.2355 69.0019 85.1381 68.9585C85.0408 68.9151 84.9549 68.8498 84.887 68.7678C84.7666 68.5612 84.7155 68.3217 84.7411 68.0841V66.3657C84.7324 66.2455 84.753 66.125 84.801 66.0145C84.8574 65.933 84.9307 65.8645 85.0158 65.8136C85.101 65.7627 85.196 65.7305 85.2946 65.7194C85.8257 65.5886 86.843 65.3458 87.2881 65.8016C87.7331 66.2573 87.3404 67.1091 87.131 67.5723Z" fill="url(#paint25_linear_9585_100575)"/>
<path d="M82.2615 65.1448C82.3176 66.0152 82.5308 67.0127 83.2937 67.4199C83.5916 67.5657 83.9161 67.6496 84.2474 67.6665C85.06 67.7714 85.8858 67.6499 86.6336 67.3153C87.4534 66.8676 88.0822 66.1373 88.4026 65.2606C88.7145 64.3896 88.8665 63.4696 88.8514 62.5447C88.8514 61.226 88.5896 59.698 87.4414 59.0517C86.9842 58.8192 86.4807 58.6915 85.9678 58.6782C84.8122 58.6072 82.1829 58.5175 82.3325 60.1501C82.4821 61.7826 82.1343 63.4562 82.2615 65.1448Z" fill="url(#paint26_linear_9585_100575)"/>
<path d="M82.1344 58.1699C82.2445 57.8561 82.4216 57.5699 82.6534 57.3312C82.8853 57.0925 83.1663 56.9071 83.477 56.7877C84.0371 56.6163 84.6258 56.5578 85.2087 56.6158C85.8108 56.642 86.413 56.6719 87.0151 56.7092C87.6906 56.7099 88.3593 56.8445 88.9823 57.1052C89.2965 57.2422 89.5522 57.4857 89.7042 57.7926C89.7768 58.0379 89.8342 58.2874 89.8762 58.5398C89.966 58.861 90.1605 59.145 90.2502 59.4588C90.381 60.0825 90.3304 60.7307 90.1044 61.3266C89.8426 62.2606 89.5396 63.258 88.7729 63.8483C88.9374 63.342 88.9162 62.7938 88.7131 62.3017C88.5468 62.4288 88.4084 62.5884 88.3061 62.7709C88.2039 62.9533 88.14 63.1547 88.1184 63.3626C87.9314 63.3626 87.8977 63.0899 87.9164 62.9031C88.0052 62.3762 88.044 61.8422 88.0324 61.308C88.0245 61.04 87.959 60.7768 87.8402 60.5364C87.7215 60.2959 87.5523 60.0839 87.3442 59.9145C86.6673 59.4289 85.7398 59.668 84.9207 59.8137C84.2849 59.9295 83.103 60.1872 82.4822 59.9332C81.8614 59.6792 81.9436 58.7079 82.1344 58.1699Z" fill="#3F3D56"/>
<path d="M71.4117 80.219H72.5524C72.8404 77.2565 75.608 74.9291 78.9666 74.9291C82.4597 74.9291 85.3246 77.447 85.4069 80.5702C85.7809 80.5926 86.1549 80.6113 86.5476 80.6374C86.4915 76.8568 83.1142 73.7935 78.9666 73.7935C74.976 73.8121 71.696 76.6326 71.4117 80.219Z" fill="#191919"/>
<g opacity="0.5">
<path d="M105.192 77.2673C104.739 79.3033 102.338 80.8723 99.8287 80.7714C97.3191 80.6668 95.6511 78.9334 96.0886 76.8974L97.9586 68.5181C98.4112 66.4821 100.812 64.913 103.322 65.0176C105.831 65.1185 107.499 66.8519 107.062 68.8879L105.192 77.2673Z" fill="#191919"/>
<path d="M114.946 77.6624C114.493 79.6984 109.583 89.3927 107.069 89.2881L105.199 88.5148C102.69 88.4102 102.884 87.4539 103.329 85.4179L107.705 68.9169C108.158 66.8772 110.559 65.3082 113.068 65.4128C115.582 65.5136 117.246 67.247 116.808 69.283L114.946 77.6624Z" fill="#191919"/>
</g>
<path d="M88.01 107.276C88.01 107.276 94.368 105.924 98.5531 102.3C101.852 99.4537 103.658 104.224 102.828 107.844C101.998 111.464 92.7075 110.62 89.708 110.332C86.7085 110.045 86.2485 107.751 88.01 107.276Z" fill="#3F3D56"/>
<path d="M88.6981 107.287C88.6981 107.287 94.6485 106.129 98.5867 103.028C101.68 100.592 103.378 104.675 102.596 107.772C101.814 110.869 93.1038 110.144 90.2913 109.902C87.4788 109.659 87.045 107.69 88.6981 107.287Z" fill="#3F3D56"/>
<path d="M102.532 107.955C102.558 107.896 102.579 107.835 102.596 107.772C103.378 104.675 101.68 100.592 98.5867 103.028C98.2463 103.293 97.8948 103.547 97.5283 103.775C100.03 104.361 101.852 105.826 102.532 107.955Z" fill="#54A7F5"/>
<path d="M99.4918 107.348C99.4918 108.577 98.6316 109.589 97.5731 109.589C96.5147 109.589 95.6545 108.592 95.6545 107.348C95.6545 106.104 96.5147 105.106 97.5731 105.106C98.6316 105.106 99.4918 106.119 99.4918 107.348Z" fill="#54A7F5"/>
<path d="M94.196 108.075C94.196 109.005 93.5452 109.756 92.7449 109.756C91.9445 109.756 91.2975 109.009 91.2975 108.075C91.2975 107.141 91.9445 106.394 92.7449 106.394C93.5452 106.394 94.196 107.145 94.196 108.075Z" fill="#54A7F5"/>
<path d="M38.7913 106.499C38.7913 107.463 39.4607 108.244 40.2873 108.244C41.1138 108.244 41.7833 107.463 41.7833 106.499C41.7833 105.535 41.1138 104.751 40.2873 104.751C39.4607 104.751 38.7913 105.535 38.7913 106.499Z" fill="#54A7F5"/>
<path d="M41.7833 107.706C41.8176 107.921 41.913 108.122 42.0581 108.285C42.2032 108.447 42.392 108.565 42.602 108.624C42.8121 108.683 43.0346 108.68 43.2432 108.616C43.4518 108.553 43.6378 108.431 43.779 108.265C43.9203 108.099 44.0109 107.896 44.0402 107.68C44.0695 107.464 44.0361 107.244 43.9442 107.046C43.8522 106.849 43.7055 106.682 43.5214 106.565C43.3372 106.448 43.1234 106.386 42.9053 106.387C42.5828 106.417 42.2846 106.571 42.0749 106.818C41.8651 107.065 41.7604 107.383 41.7833 107.706Z" fill="#54A7F5"/>
<path d="M41.4391 103.664C41.0276 102.928 40.6953 102.15 40.448 101.344C39.5056 100.339 39.0007 102.259 38.8436 104.583C39.3073 103.929 40.4967 103.697 41.4391 103.664Z" fill="url(#paint27_linear_9585_100575)"/>
<path d="M102.532 107.955C102.558 107.896 102.579 107.835 102.596 107.772C103.378 104.675 101.68 100.592 98.5867 103.028C98.2463 103.293 97.8948 103.547 97.5283 103.775C100.03 104.361 101.852 105.826 102.532 107.955Z" fill="url(#paint28_linear_9585_100575)"/>
<path d="M99.4918 107.348C99.4918 108.577 98.6316 109.589 97.5731 109.589C96.5147 109.589 95.6545 108.592 95.6545 107.348C95.6545 106.104 96.5147 105.106 97.5731 105.106C98.6316 105.106 99.4918 106.119 99.4918 107.348Z" fill="url(#paint29_linear_9585_100575)"/>
<path d="M94.196 108.075C94.196 109.005 93.5452 109.756 92.7449 109.756C91.9445 109.756 91.2975 109.009 91.2975 108.075C91.2975 107.141 91.9445 106.394 92.7449 106.394C93.5452 106.394 94.196 107.145 94.196 108.075Z" fill="url(#paint30_linear_9585_100575)"/>
<path d="M38.7913 106.499C38.7913 107.463 39.4607 108.244 40.2873 108.244C41.1138 108.244 41.7833 107.463 41.7833 106.499C41.7833 105.535 41.1138 104.751 40.2873 104.751C39.4607 104.751 38.7913 105.535 38.7913 106.499Z" fill="url(#paint31_linear_9585_100575)"/>
<path d="M41.7833 107.706C41.8176 107.921 41.913 108.122 42.0581 108.285C42.2032 108.447 42.392 108.565 42.602 108.624C42.8121 108.683 43.0346 108.68 43.2432 108.616C43.4518 108.553 43.6378 108.431 43.779 108.265C43.9203 108.099 44.0109 107.896 44.0402 107.68C44.0695 107.464 44.0361 107.244 43.9442 107.046C43.8522 106.849 43.7055 106.682 43.5214 106.565C43.3372 106.448 43.1234 106.386 42.9053 106.387C42.5828 106.417 42.2846 106.571 42.0749 106.818C41.8651 107.065 41.7604 107.383 41.7833 107.706Z" fill="url(#paint32_linear_9585_100575)"/>
<path d="M110.487 94.7692C110.487 94.8887 110.529 94.9821 110.577 94.9747L111.845 94.8178C111.894 94.8178 111.931 94.7094 111.931 94.5899V94.0818C111.931 93.9623 111.894 93.8726 111.845 93.8801L110.574 94.037C110.525 94.037 110.487 94.1416 110.487 94.2611V94.7692Z" fill="url(#paint33_linear_9585_100575)"/>
<path d="M129.09 109.074C129.09 109.163 129.12 109.231 129.158 109.227L130.1 109.111C130.138 109.111 130.164 109.029 130.164 108.943V108.569C130.164 108.48 130.134 108.412 130.1 108.416L129.154 108.536C129.12 108.536 129.09 108.614 129.09 108.704V109.074Z" fill="url(#paint34_linear_9585_100575)"/>
<path d="M137.838 107.385C137.838 107.456 137.861 107.512 137.891 107.508L138.665 107.434C138.695 107.434 138.717 107.366 138.717 107.295V106.985C138.717 106.911 138.695 106.858 138.665 106.862L137.891 106.956C137.861 106.956 137.838 107.023 137.838 107.094V107.385Z" fill="url(#paint35_linear_9585_100575)"/>
<path opacity="0.18" d="M83.4585 43.6669L51.7394 94.4249L40.0219 93.9766L68.9098 44.1226L83.4585 43.6669Z" fill="#54A7F5"/>
<path opacity="0.18" d="M145.438 68.1135L136.93 76.0558L126.192 72.503L136.952 62.8162L145.438 68.1135Z" fill="#54A7F5"/>
<path d="M54.3609 102.625H78.1549V109.891H54.3609V102.625Z" fill="url(#paint36_linear_9585_100575)"/>
<path d="M99.7126 97.8802C99.7808 97.4598 99.7605 97.0297 99.6527 96.6176C97.9361 101.56 84.2925 105.479 68.4198 105.479C53.3364 105.479 41.4917 101.934 40.3286 97.3423C40.2681 97.5151 40.2218 97.6925 40.1902 97.8728C39.2963 103.058 51.9002 107.268 68.3338 107.268C84.7675 107.268 98.815 103.069 99.7126 97.8802Z" fill="url(#paint37_linear_9585_100575)"/>
<path d="M75.9522 74.0739C76.1195 74.1694 76.2668 74.2962 76.386 74.4475C76.5062 74.6778 76.5654 74.935 76.558 75.1946C76.591 75.3806 76.5579 75.5722 76.4645 75.7363C76.3486 75.8858 76.0681 75.9044 76.0008 75.7363C75.9926 75.8362 75.9621 75.933 75.9116 76.0196C75.8612 76.1062 75.792 76.1805 75.7091 76.2369C75.6245 76.2904 75.5234 76.3115 75.4244 76.2964C75.3254 76.2813 75.2353 76.231 75.1705 76.1547C75.2099 76.3462 75.1822 76.5454 75.092 76.7188C74.9798 76.8795 74.6918 76.9131 74.6095 76.7375C74.5721 76.9393 74.4973 77.1821 74.2991 77.2306C74.2287 77.2414 74.1567 77.2328 74.0908 77.2058C74.025 77.1788 73.9677 77.1345 73.9251 77.0775C73.8409 76.9615 73.7706 76.8362 73.7156 76.7039C73.6978 76.6656 73.6709 76.6322 73.6371 76.6068C73.5906 76.5939 73.5415 76.5939 73.495 76.6068C73.3881 76.618 73.2803 76.618 73.1733 76.6068C73.121 76.6047 73.0709 76.5849 73.0312 76.5507C73.011 76.5167 72.9995 76.4782 72.9976 76.4387C72.9564 75.8895 73.3716 75.4375 73.667 74.9443C73.8847 74.5518 74.2122 74.2312 74.6095 74.0216C74.791 73.8897 75.0012 73.8027 75.2229 73.7676C75.4904 73.7975 75.7436 73.9038 75.9522 74.0739Z" fill="url(#paint38_linear_9585_100575)"/>
<path d="M87.116 77.1746C87.3425 77.2748 87.5438 77.4239 87.7055 77.6113C87.8672 77.7986 87.9852 78.0195 88.051 78.258C88.1058 78.5002 88.0621 78.7543 87.9296 78.9644C87.7971 79.1745 87.5865 79.3235 87.3442 79.3787C87.1105 79.3796 86.8781 79.343 86.656 79.2704C86.1548 79.1621 85.5976 79.2144 85.16 78.9379L85.0216 79.1359C84.9005 79.152 84.7773 79.1331 84.6667 79.0815C84.556 79.0298 84.4624 78.9476 84.397 78.8445C84.2512 78.6503 84.1689 78.4112 84.023 78.2094C83.8772 78.0077 83.679 77.8022 83.5518 77.5669C83.4858 77.443 83.4451 77.3073 83.4321 77.1675C83.4192 77.0278 83.4342 76.8869 83.4763 76.753C83.5184 76.6191 83.5868 76.495 83.6775 76.3878C83.7681 76.2806 83.8792 76.1925 84.0043 76.1286C84.1576 76.069 84.3213 76.0406 84.4857 76.0451C84.6501 76.0496 84.812 76.0869 84.9618 76.1548C85.3096 76.2967 85.5639 76.5807 85.893 76.7338C86.2857 76.9169 86.7271 76.9617 87.116 77.1746Z" fill="url(#paint39_linear_9585_100575)"/>
<path d="M91.4469 74.5361C91.5292 74.9433 92.5091 75.6568 92.195 75.9594C92.4071 75.9079 92.6055 75.8107 92.7761 75.6745C92.9466 75.5384 93.0853 75.3665 93.1823 75.1711C93.3918 74.7378 93.014 74.0915 92.4829 73.0343C92.1415 72.2316 91.961 71.3698 91.9519 70.4977L91.907 70.5425C91.4991 71.832 91.3429 73.1877 91.4469 74.5361Z" fill="url(#paint40_linear_9585_100575)"/>
<path d="M90.3362 68.1147L89.0459 72.1269L86.9627 72.0111C86.9627 72.0111 88.4139 67.2031 88.4588 66.5606C88.5036 65.918 90.4484 66.5232 90.3362 68.1147Z" fill="white"/>
<path d="M84.4829 71.6544C83.751 71.7029 83.0161 71.6842 82.2876 71.5983C82.3773 70.246 82.9944 68.9833 83.604 67.7804C83.6173 67.7456 83.6392 67.7147 83.6676 67.6907C83.7084 67.6673 83.7554 67.6569 83.8023 67.6608H84.382C84.5005 67.6451 84.621 67.6673 84.726 67.7243C84.9504 67.87 84.6288 69.1813 84.6026 69.4764C84.539 70.1862 84.4979 70.9221 84.4829 71.6544Z" fill="white"/>
<g clip-path="url(#clip0_9585_100575)">
<path d="M38.5539 29.8182C38.5539 34.2786 36.7864 38.5564 33.6401 41.7104C30.4938 44.8645 26.2265 46.6364 21.777 46.6364C17.3274 46.6364 13.0601 44.8645 9.91386 41.7104C6.76757 38.5564 5 34.2786 5 29.8182C5 25.3577 6.76757 21.08 9.91386 17.9259C13.0601 14.7719 17.3274 13 21.777 13C26.2265 13 30.4938 14.7719 33.6401 17.9259C36.7864 21.08 38.5539 25.3577 38.5539 29.8182V29.8182ZM21.777 21.4091C21.5119 21.4092 21.2498 21.465 21.0076 21.5729C20.7653 21.6808 20.5483 21.8383 20.3705 22.0354C20.1927 22.2324 20.058 22.4647 19.9752 22.7171C19.8924 22.9695 19.8632 23.2365 19.8896 23.5009L20.6235 30.8735C20.6482 31.1632 20.7804 31.433 20.994 31.6296C21.2076 31.8262 21.487 31.9353 21.777 31.9353C22.0669 31.9353 22.3463 31.8262 22.5599 31.6296C22.7735 31.433 22.9057 31.1632 22.9304 30.8735L23.6644 23.5009C23.6907 23.2365 23.6615 22.9695 23.5787 22.7171C23.4959 22.4647 23.3612 22.2324 23.1834 22.0354C23.0056 21.8383 22.7886 21.6808 22.5464 21.5729C22.3041 21.465 22.042 21.4092 21.777 21.4091V21.4091ZM21.7812 34.0227C21.225 34.0227 20.6916 34.2442 20.2983 34.6385C19.905 35.0327 19.684 35.5674 19.684 36.125C19.684 36.6826 19.905 37.2173 20.2983 37.6115C20.6916 38.0058 21.225 38.2273 21.7812 38.2273C22.3373 38.2273 22.8708 38.0058 23.264 37.6115C23.6573 37.2173 23.8783 36.6826 23.8783 36.125C23.8783 35.5674 23.6573 35.0327 23.264 34.6385C22.8708 34.2442 22.3373 34.0227 21.7812 34.0227Z" fill="#54A7F5"/>
</g>
<defs>
<linearGradient id="paint0_linear_9585_100575" x1="80.0736" y1="60.2579" x2="119.094" y2="166.551" gradientUnits="userSpaceOnUse">
<stop offset="0.01"/>
<stop offset="0.83" stop-opacity="0.07"/>
<stop offset="1" stop-opacity="0"/>
</linearGradient>
<linearGradient id="paint1_linear_9585_100575" x1="145.004" y1="105.248" x2="152.211" y2="105.248" gradientUnits="userSpaceOnUse">
<stop offset="0.01"/>
<stop offset="0.83" stop-opacity="0.07"/>
<stop offset="1" stop-opacity="0"/>
</linearGradient>
<linearGradient id="paint2_linear_9585_100575" x1="150.334" y1="105.386" x2="152.955" y2="105.386" gradientUnits="userSpaceOnUse">
<stop stop-color="white"/>
<stop offset="0.43" stop-color="#FDFDFD"/>
<stop offset="0.68" stop-color="#F5F5F5"/>
<stop offset="0.87" stop-color="#E7E7E8"/>
<stop offset="0.97" stop-color="#DDDEDF"/>
</linearGradient>
<linearGradient id="paint3_linear_9585_100575" x1="98.9869" y1="110.665" x2="131.717" y2="116.581" gradientUnits="userSpaceOnUse">
<stop offset="0.01"/>
<stop offset="0.83" stop-opacity="0.07"/>
<stop offset="1" stop-opacity="0"/>
</linearGradient>
<linearGradient id="paint4_linear_9585_100575" x1="116.348" y1="113.478" x2="120.915" y2="113.478" gradientUnits="userSpaceOnUse">
<stop stop-color="white"/>
<stop offset="0.43" stop-color="#FDFDFD"/>
<stop offset="0.68" stop-color="#F5F5F5"/>
<stop offset="0.87" stop-color="#E7E7E8"/>
<stop offset="0.97" stop-color="#DDDEDF"/>
</linearGradient>
<linearGradient id="paint5_linear_9585_100575" x1="36.2481" y1="110.665" x2="68.9784" y2="116.581" gradientUnits="userSpaceOnUse">
<stop offset="0.01"/>
<stop offset="0.83" stop-opacity="0.07"/>
<stop offset="1" stop-opacity="0"/>
</linearGradient>
<linearGradient id="paint6_linear_9585_100575" x1="53.6092" y1="113.478" x2="58.1758" y2="113.478" gradientUnits="userSpaceOnUse">
<stop stop-color="white"/>
<stop offset="0.43" stop-color="#FDFDFD"/>
<stop offset="0.68" stop-color="#F5F5F5"/>
<stop offset="0.87" stop-color="#E7E7E8"/>
<stop offset="0.97" stop-color="#DDDEDF"/>
</linearGradient>
<linearGradient id="paint7_linear_9585_100575" x1="137.588" y1="106.384" x2="146.657" y2="106.384" gradientUnits="userSpaceOnUse">
<stop offset="0.01"/>
<stop offset="0.83" stop-opacity="0.07"/>
<stop offset="1" stop-opacity="0"/>
</linearGradient>
<linearGradient id="paint8_linear_9585_100575" x1="144.608" y1="106.532" x2="147.473" y2="106.532" gradientUnits="userSpaceOnUse">
<stop stop-color="white"/>
<stop offset="0.43" stop-color="#FDFDFD"/>
<stop offset="0.68" stop-color="#F5F5F5"/>
<stop offset="0.87" stop-color="#E7E7E8"/>
<stop offset="0.97" stop-color="#DDDEDF"/>
</linearGradient>
<linearGradient id="paint9_linear_9585_100575" x1="123.761" y1="60.8521" x2="5.25725" y2="79.359" gradientUnits="userSpaceOnUse">
<stop offset="0.01"/>
<stop offset="0.83" stop-opacity="0.07"/>
<stop offset="1" stop-opacity="0"/>
</linearGradient>
<linearGradient id="paint10_linear_9585_100575" x1="76.4159" y1="35.7215" x2="70.7438" y2="86.8097" gradientUnits="userSpaceOnUse">
<stop offset="0.01"/>
<stop offset="0.83" stop-opacity="0.07"/>
<stop offset="1" stop-opacity="0"/>
</linearGradient>
<linearGradient id="paint11_linear_9585_100575" x1="72.9228" y1="59.2756" x2="77.7818" y2="38.7562" gradientUnits="userSpaceOnUse">
<stop offset="0.01"/>
<stop offset="0.83" stop-opacity="0.07"/>
<stop offset="1" stop-opacity="0"/>
</linearGradient>
<linearGradient id="paint12_linear_9585_100575" x1="118.229" y1="49.5957" x2="76.4033" y2="56.1964" gradientUnits="userSpaceOnUse">
<stop stop-color="#2B2B2B"/>
<stop offset="0.22" stop-color="#2E2E2E"/>
<stop offset="0.41" stop-color="#383939"/>
<stop offset="0.6" stop-color="#494A4B"/>
<stop offset="0.77" stop-color="#616264"/>
<stop offset="0.94" stop-color="#7F8184"/>
<stop offset="1" stop-color="#8D8F92"/>
</linearGradient>
<linearGradient id="paint13_linear_9585_100575" x1="133.848" y1="127.247" x2="125.455" y2="67.5279" gradientUnits="userSpaceOnUse">
<stop offset="0.01"/>
<stop offset="0.83" stop-opacity="0.07"/>
<stop offset="1" stop-opacity="0"/>
</linearGradient>
<linearGradient id="paint14_linear_9585_100575" x1="135.448" y1="46.6601" x2="125.469" y2="102.066" gradientUnits="userSpaceOnUse">
<stop offset="0.01"/>
<stop offset="0.83" stop-opacity="0.07"/>
<stop offset="1" stop-opacity="0"/>
</linearGradient>
<linearGradient id="paint15_linear_9585_100575" x1="112.189" y1="63.1565" x2="113.346" y2="54.9263" gradientUnits="userSpaceOnUse">
<stop stop-color="white" stop-opacity="0"/>
<stop offset="0.12" stop-color="white" stop-opacity="0.04"/>
<stop offset="0.33" stop-color="white" stop-opacity="0.14"/>
<stop offset="0.59" stop-color="white" stop-opacity="0.3"/>
<stop offset="0.89" stop-color="white" stop-opacity="0.52"/>
<stop offset="1" stop-color="white" stop-opacity="0.6"/>
</linearGradient>
<linearGradient id="paint16_linear_9585_100575" x1="67.6118" y1="135.568" x2="76.2323" y2="86.9731" gradientUnits="userSpaceOnUse">
<stop offset="0.01"/>
<stop offset="0.83" stop-opacity="0.07"/>
<stop offset="1" stop-opacity="0"/>
</linearGradient>
<linearGradient id="paint17_linear_9585_100575" x1="102.921" y1="87.3539" x2="39.128" y2="87.3539" gradientUnits="userSpaceOnUse">
<stop offset="0.01"/>
<stop offset="0.83" stop-opacity="0.07"/>
<stop offset="1" stop-opacity="0"/>
</linearGradient>
<linearGradient id="paint18_linear_9585_100575" x1="68.9882" y1="73.7331" x2="52.9809" y2="73.7331" gradientUnits="userSpaceOnUse">
<stop offset="0.01"/>
<stop offset="0.83" stop-opacity="0.07"/>
<stop offset="1" stop-opacity="0"/>
</linearGradient>
<linearGradient id="paint19_linear_9585_100575" x1="97.9285" y1="67.0973" x2="68.1022" y2="91.0468" gradientUnits="userSpaceOnUse">
<stop offset="0.01"/>
<stop offset="0.83" stop-opacity="0.07"/>
<stop offset="1" stop-opacity="0"/>
</linearGradient>
<linearGradient id="paint20_linear_9585_100575" x1="83.9146" y1="78.1" x2="78.4623" y2="74.108" gradientUnits="userSpaceOnUse">
<stop offset="0.01"/>
<stop offset="0.83" stop-opacity="0.07"/>
<stop offset="1" stop-opacity="0"/>
</linearGradient>
<linearGradient id="paint21_linear_9585_100575" x1="88.7918" y1="84.9748" x2="86.6759" y2="72.0594" gradientUnits="userSpaceOnUse">
<stop offset="0.01"/>
<stop offset="0.83" stop-opacity="0.07"/>
<stop offset="1" stop-opacity="0"/>
</linearGradient>
<linearGradient id="paint22_linear_9585_100575" x1="93.7211" y1="83.9431" x2="87.1861" y2="74.4473" gradientUnits="userSpaceOnUse">
<stop offset="0.01"/>
<stop offset="0.83" stop-opacity="0.07"/>
<stop offset="1" stop-opacity="0"/>
</linearGradient>
<linearGradient id="paint23_linear_9585_100575" x1="89.2255" y1="87.3125" x2="93.2599" y2="72.5762" gradientUnits="userSpaceOnUse">
<stop offset="0.01"/>
<stop offset="0.83" stop-opacity="0.07"/>
<stop offset="1" stop-opacity="0"/>
</linearGradient>
<linearGradient id="paint24_linear_9585_100575" x1="88.4775" y1="66.9888" x2="84.7711" y2="66.9888" gradientUnits="userSpaceOnUse">
<stop stop-color="#E5C5D5"/>
<stop offset="0.42" stop-color="#EAD4D1"/>
<stop offset="1" stop-color="#F0E9CB"/>
</linearGradient>
<linearGradient id="paint25_linear_9585_100575" x1="85.3133" y1="62.8877" x2="86.5672" y2="69.7919" gradientUnits="userSpaceOnUse">
<stop offset="0.01"/>
<stop offset="0.83" stop-opacity="0.07"/>
<stop offset="1" stop-opacity="0"/>
</linearGradient>
<linearGradient id="paint26_linear_9585_100575" x1="88.8514" y1="63.1723" x2="82.239" y2="63.1723" gradientUnits="userSpaceOnUse">
<stop stop-color="#E5C5D5"/>
<stop offset="0.42" stop-color="#EAD4D1"/>
<stop offset="1" stop-color="#F0E9CB"/>
</linearGradient>
<linearGradient id="paint27_linear_9585_100575" x1="41.4391" y1="102.827" x2="38.8436" y2="102.827" gradientUnits="userSpaceOnUse">
<stop offset="0.02" stop-color="white" stop-opacity="0"/>
<stop offset="0.39" stop-color="white" stop-opacity="0.39"/>
<stop offset="1" stop-color="white"/>
</linearGradient>
<linearGradient id="paint28_linear_9585_100575" x1="102.787" y1="105.12" x2="97.5283" y2="105.12" gradientUnits="userSpaceOnUse">
<stop offset="0.02" stop-color="white" stop-opacity="0"/>
<stop offset="0.39" stop-color="white" stop-opacity="0.39"/>
<stop offset="1" stop-color="white"/>
</linearGradient>
<linearGradient id="paint29_linear_9585_100575" x1="99.4918" y1="107.348" x2="95.6545" y2="107.348" gradientUnits="userSpaceOnUse">
<stop offset="0.02" stop-color="white" stop-opacity="0"/>
<stop offset="0.39" stop-color="white" stop-opacity="0.39"/>
<stop offset="1" stop-color="white"/>
</linearGradient>
<linearGradient id="paint30_linear_9585_100575" x1="94.196" y1="108.075" x2="91.2975" y2="108.075" gradientUnits="userSpaceOnUse">
<stop offset="0.02" stop-color="white" stop-opacity="0"/>
<stop offset="0.39" stop-color="white" stop-opacity="0.39"/>
<stop offset="1" stop-color="white"/>
</linearGradient>
<linearGradient id="paint31_linear_9585_100575" x1="41.7758" y1="106.499" x2="38.7913" y2="106.499" gradientUnits="userSpaceOnUse">
<stop offset="0.02" stop-color="white" stop-opacity="0"/>
<stop offset="0.39" stop-color="white" stop-opacity="0.39"/>
<stop offset="1" stop-color="white"/>
</linearGradient>
<linearGradient id="paint32_linear_9585_100575" x1="44.0385" y1="107.706" x2="41.7833" y2="107.706" gradientUnits="userSpaceOnUse">
<stop offset="0.02" stop-color="white" stop-opacity="0"/>
<stop offset="0.39" stop-color="white" stop-opacity="0.39"/>
<stop offset="1" stop-color="white"/>
</linearGradient>
<linearGradient id="paint33_linear_9585_100575" x1="113.315" y1="93.2067" x2="113.365" y2="94.2372" gradientUnits="userSpaceOnUse">
<stop offset="0.01"/>
<stop offset="0.83" stop-opacity="0.07"/>
<stop offset="1" stop-opacity="0"/>
</linearGradient>
<linearGradient id="paint34_linear_9585_100575" x1="131.871" y1="107.664" x2="131.908" y2="108.428" gradientUnits="userSpaceOnUse">
<stop offset="0.01"/>
<stop offset="0.83" stop-opacity="0.07"/>
<stop offset="1" stop-opacity="0"/>
</linearGradient>
<linearGradient id="paint35_linear_9585_100575" x1="138.953" y1="91.4819" x2="137.643" y2="121.959" gradientUnits="userSpaceOnUse">
<stop offset="0.01"/>
<stop offset="0.83" stop-opacity="0.07"/>
<stop offset="1" stop-opacity="0"/>
</linearGradient>
<linearGradient id="paint36_linear_9585_100575" x1="64.9153" y1="134.021" x2="66.8818" y2="93.3004" gradientUnits="userSpaceOnUse">
<stop offset="0.01"/>
<stop offset="0.83" stop-opacity="0.07"/>
<stop offset="1" stop-opacity="0"/>
</linearGradient>
<linearGradient id="paint37_linear_9585_100575" x1="74.3964" y1="86.9083" x2="59.876" y2="122.794" gradientUnits="userSpaceOnUse">
<stop offset="0.01"/>
<stop offset="0.83" stop-opacity="0.07"/>
<stop offset="1" stop-opacity="0"/>
</linearGradient>
<linearGradient id="paint38_linear_9585_100575" x1="76.5655" y1="75.501" x2="72.9938" y2="75.501" gradientUnits="userSpaceOnUse">
<stop stop-color="#E5C5D5"/>
<stop offset="0.42" stop-color="#EAD4D1"/>
<stop offset="1" stop-color="#F0E9CB"/>
</linearGradient>
<linearGradient id="paint39_linear_9585_100575" x1="88.066" y1="77.7014" x2="83.4508" y2="77.7014" gradientUnits="userSpaceOnUse">
<stop stop-color="#E5C5D5"/>
<stop offset="0.42" stop-color="#EAD4D1"/>
<stop offset="1" stop-color="#F0E9CB"/>
</linearGradient>
<linearGradient id="paint40_linear_9585_100575" x1="89.0945" y1="75.2982" x2="93.1832" y2="72.5443" gradientUnits="userSpaceOnUse">
<stop offset="0.01"/>
<stop offset="0.83" stop-opacity="0.07"/>
<stop offset="1" stop-opacity="0"/>
</linearGradient>
<clipPath id="clip0_9585_100575">
<rect width="34.5216" height="34.5216" fill="white" transform="translate(4.79468 11.9923)"/>
</clipPath>
</defs>
</svg>
