<svg width="21" height="18" viewBox="0 0 21 18" fill="none" xmlns="http://www.w3.org/2000/svg">
<path fill-rule="evenodd" clip-rule="evenodd" d="M17.6587 3.61832L20.0725 4.9982L17.9714 5.52661C18.1754 9.31251 15.8616 12.8522 12.228 14.1411L12.2059 16.0975L14.1086 16.6473C14.4013 16.732 14.5703 17.0381 14.4856 17.3311C14.4155 17.5748 14.1915 17.7329 13.9492 17.7301C13.9003 17.7296 13.8511 17.7225 13.8018 17.7081L11.7036 17.1021L11.0371 17.4372C10.7647 17.5739 10.4326 17.4645 10.2957 17.192C10.1585 16.9195 10.2685 16.5875 10.5409 16.4505L11.1008 16.169L11.1202 14.4569C7.00784 15.4452 3.08163 15.4899 0.0319023 14.7528L5.84013 11.7645C2.62515 10.594 0.470726 8.05311 0.691671 5.292L8.78204 5.94015C8.77863 5.92746 8.77453 5.91505 8.77042 5.90262C8.76562 5.88812 8.76081 5.87358 8.75708 5.85851C8.13842 3.40002 9.6298 0.90583 12.0878 0.28712C13.877 -0.163318 15.6821 0.508128 16.7724 1.85282L19.1315 1.25918L17.6587 3.61832ZM13.4463 3.47187C13.9049 3.47706 14.2809 3.10953 14.2861 2.65096C14.2913 2.19239 13.9237 1.81643 13.4652 1.81124C13.0066 1.80605 12.6306 2.17358 12.6254 2.63215C12.6202 3.09072 12.9878 3.46668 13.4463 3.47187Z" fill="#138340"/>
</svg>
