<svg width="72" height="72" viewBox="0 0 72 72" fill="none" xmlns="http://www.w3.org/2000/svg">
<circle cx="36" cy="36" r="36" fill="#79C142"/>
<g clip-path="url(#clip0_10675_100096)">
<path d="M49.9994 42.5578V22.8756C49.9994 21.8051 49.1229 21 48.1285 21C47.9422 21 47.7518 21.0281 47.5619 21.0885L29.7494 26.7135C28.9707 26.9596 28.4375 27.6797 28.4375 28.5V42.2754C27.6072 41.8729 26.6551 41.625 25.625 41.625C22.5184 41.625 20 43.7238 20 46.3125C20 48.9012 22.5184 51 25.625 51C28.5172 51 30.8721 49.1742 31.1867 46.834C31.2248 46.6752 31.2465 46.507 31.2477 46.3283C31.2477 46.323 31.2494 46.3178 31.2494 46.3125V36L47.1869 30.9668V38.5248C46.3572 38.1229 45.4045 37.875 44.375 37.875C41.2684 37.875 38.75 39.9738 38.75 42.5625C38.75 45.1512 41.2684 47.25 44.375 47.25C47.2678 47.25 49.6227 45.423 49.9373 43.0822C49.9736 42.9305 49.993 42.7699 49.9959 42.6006C49.9959 42.5877 50.0006 42.5754 50.0006 42.5625C50 42.5607 49.9994 42.5596 49.9994 42.5578ZM25.625 48.1875C23.9674 48.1875 22.8125 47.199 22.8125 46.3125C22.8125 45.4254 23.9674 44.4375 25.625 44.4375C27.2826 44.4375 28.4375 45.4254 28.4375 46.3125C28.4375 47.1996 27.2826 48.1875 25.625 48.1875ZM47.1869 28.0178L31.25 33.0504V29.1891L47.1869 24.1564V28.0178V28.0178ZM47.1875 42.5631C47.1869 43.4496 46.032 44.4375 44.375 44.4375C42.7174 44.4375 41.5625 43.449 41.5625 42.5625C41.5625 41.6754 42.7174 40.6875 44.375 40.6875C46.032 40.6875 47.1869 41.6748 47.1875 42.5619V42.5631Z" fill="#0C1026"/>
</g>
<defs>
<clipPath id="clip0_10675_100096">
<rect width="30" height="30" fill="white" transform="translate(20 21)"/>
</clipPath>
</defs>
</svg>
