<svg width="78" height="78" viewBox="0 0 78 78" fill="none" xmlns="http://www.w3.org/2000/svg">
<circle cx="39" cy="39" r="39" fill="#61E897"/>
<path d="M30.111 36.3333C28.6354 36.3333 27.4443 37.5244 27.4443 39C27.4443 40.4755 28.6354 41.6666 30.111 41.6666C31.5866 41.6666 32.7777 40.4755 32.7777 39C32.7777 37.5244 31.5866 36.3333 30.111 36.3333ZM47.8888 36.3333C46.4132 36.3333 45.2221 37.5244 45.2221 39C45.2221 40.4755 46.4132 41.6666 47.8888 41.6666C49.3643 41.6666 50.5554 40.4755 50.5554 39C50.5554 37.5244 49.3643 36.3333 47.8888 36.3333ZM38.9999 36.3333C37.5243 36.3333 36.3332 37.5244 36.3332 39C36.3332 40.4755 37.5243 41.6666 38.9999 41.6666C40.4754 41.6666 41.6666 40.4755 41.6666 39C41.6666 37.5244 40.4754 36.3333 38.9999 36.3333Z" fill="#0C1026"/>
</svg>
