<svg width="72" height="72" viewBox="0 0 72 72" fill="none" xmlns="http://www.w3.org/2000/svg">
<circle cx="36" cy="36" r="36" fill="#138340"/>
<path d="M36 20C27.1742 20 20 27.1742 20 36C20 44.8258 27.1742 52 36 52C44.8258 52 52 44.8258 52 36C52 27.1742 44.8258 20 36 20ZM47.0968 44.3935C41.5742 45.8387 35.7097 44.7032 31.1161 41.3677C32.4903 39.7161 34.1548 38.3032 36.0516 37.1871C41.4903 40.2258 46.3613 40.0968 49.4387 39.6323C48.9677 41.3742 48.1613 42.9871 47.0968 44.3935ZM49.8581 37.4774C48.2839 37.7742 46.7032 37.8903 45.1355 37.7935C45.6968 32.529 44.2581 27.2839 41.1484 23.0645C44.9677 24.5871 50.7097 29.4 49.8581 37.4774V37.4774ZM37.7032 22.1806C41.7226 26.2387 43.6774 31.8839 43.0839 37.5419C40.9677 37.1806 38.9226 36.4452 37.0065 35.3677C36.9419 30.671 35.3484 26.1935 32.4323 22.5355C35.0258 21.8581 36.9032 22.0839 37.7032 22.1806V22.1806ZM30.3548 23.271C31.3935 24.4839 32.2903 25.7935 32.9871 27.1935C28.1548 29.3355 24.329 33.2065 22.2258 38C20.9032 28.8903 27.9484 24.3419 30.3548 23.271ZM23.1742 41.4452C24.6774 35.929 28.5935 31.4065 33.7935 29.0903C34.5355 31.1032 34.9226 33.2452 34.9484 35.4387C30.9097 37.8387 27.8323 41.471 26.1226 45.8194C24.8839 44.5677 23.871 43.0903 23.1742 41.4452ZM27.8 47.2452C28.3226 45.7484 29.0129 44.329 29.871 43.0323C32.9355 45.2645 37.9806 47.671 44.6129 46.9355C41.2258 49.6065 34.2452 51.9613 27.8 47.2452V47.2452Z" fill="#A5F2C4"/>
</svg>
