<svg width="78" height="78" viewBox="23 24 32 32" fill="none" xmlns="http://www.w3.org/2000/svg">
<g clip-path="url(#clip0_10675_100100)">
<path d="M43.6667 31.3333C45.1333 31.3333 46.3333 30.1333 46.3333 28.6667C46.3333 27.2 45.1333 26 43.6667 26C42.2 26 41 27.2 41 28.6667C41 30.1333 42.2 31.3333 43.6667 31.3333ZM29.6667 40C25.9333 40 23 42.9333 23 46.6667C23 50.4 25.9333 53.3333 29.6667 53.3333C33.4 53.3333 36.3333 50.4 36.3333 46.6667C36.3333 42.9333 33.4 40 29.6667 40ZM29.6667 51.3333C27.1333 51.3333 25 49.2 25 46.6667C25 44.1333 27.1333 42 29.6667 42C32.2 42 34.3333 44.1333 34.3333 46.6667C34.3333 49.2 32.2 51.3333 29.6667 51.3333ZM37.4 38L40.6 34.8L41.6667 35.8667C43.4 37.6 45.6667 38.6667 48.4667 38.6667V36C46.4667 36 44.8667 35.2 43.6667 34L41.1333 31.4667C40.4667 30.9333 39.8 30.6667 39 30.6667C38.2 30.6667 37.5333 30.9333 37.1333 31.4667L33.4 35.2C32.8667 35.7333 32.6 36.4 32.6 37.0667C32.6 37.8667 32.8667 38.5333 33.4 38.9333L37.6667 42.6667V49.3333H40.3333V41.0667L37.4 38ZM48.3333 40C44.6 40 41.6667 42.9333 41.6667 46.6667C41.6667 50.4 44.6 53.3333 48.3333 53.3333C52.0667 53.3333 55 50.4 55 46.6667C55 42.9333 52.0667 40 48.3333 40ZM48.3333 51.3333C45.8 51.3333 43.6667 49.2 43.6667 46.6667C43.6667 44.1333 45.8 42 48.3333 42C50.8667 42 53 44.1333 53 46.6667C53 49.2 50.8667 51.3333 48.3333 51.3333Z" fill="#0C1026"/>
</g>
<defs>
<clipPath id="clip0_10675_100100">
<rect width="32" height="32" fill="white" transform="translate(23 24)"/>
</clipPath>
</defs>
</svg>
