<svg width="72" height="72" viewBox="0 0 72 72" fill="none" xmlns="http://www.w3.org/2000/svg">
<circle cx="36" cy="36" r="36" fill="#A5F2C4"/>
<path d="M36.0002 52.6667C34.0002 52.4444 32.0071 51.8681 30.021 50.9375C28.0349 50.0069 26.2502 48.7153 24.6668 47.0625C23.0835 45.4097 21.7988 43.3681 20.8127 40.9375C19.8266 38.5069 19.3335 35.6806 19.3335 32.4583V30.875H20.9168C22.3891 30.875 23.9585 31.1597 25.6252 31.7292C27.2918 32.2986 28.7641 33.0278 30.0418 33.9167C30.2641 31.4167 30.9307 28.8403 32.0418 26.1875C33.1529 23.5347 34.4724 21.2639 36.0002 19.375C37.5279 21.2639 38.8474 23.5347 39.9585 26.1875C41.0696 28.8403 41.7363 31.4167 41.9585 33.9167C43.2363 33.0833 44.7085 32.3681 46.3752 31.7708C48.0418 31.1736 49.6113 30.875 51.0835 30.875H52.6668V32.4583C52.6668 35.6806 52.1738 38.5069 51.1877 40.9375C50.2015 43.3681 48.9168 45.4097 47.3335 47.0625C45.7502 48.7153 43.9654 50.0069 41.9793 50.9375C39.9932 51.8681 38.0002 52.4444 36.0002 52.6667ZM36.3335 50.125C36.0279 44.9583 34.5349 41.0417 31.8543 38.375C29.1738 35.7083 25.8474 34.0556 21.8752 33.4167C22.2363 38.7778 23.7988 42.7778 26.5627 45.4167C29.3266 48.0556 32.5835 49.625 36.3335 50.125ZM35.9585 39.9167C36.3474 39.1944 36.8821 38.4167 37.5627 37.5833C38.2432 36.75 38.9029 36.0556 39.5418 35.5C39.6807 33.6111 39.4029 31.6944 38.7085 29.75C38.0141 27.8056 37.1113 25.7917 36.0002 23.7083C34.8891 25.7917 33.9863 27.8056 33.2918 29.75C32.5974 31.6944 32.3196 33.6111 32.4585 35.5C33.0974 36.0556 33.7432 36.75 34.396 37.5833C35.0488 38.4167 35.5696 39.1944 35.9585 39.9167ZM38.8335 49.4167C40.1391 48.9444 41.4377 48.3194 42.7293 47.5417C44.021 46.7639 45.1877 45.75 46.2293 44.5C47.271 43.25 48.146 41.7153 48.8543 39.8958C49.5627 38.0764 49.9863 35.9167 50.1252 33.4167C47.1807 33.8889 44.5835 34.9375 42.3335 36.5625C40.0835 38.1875 38.4307 40.1944 37.3752 42.5833C37.7085 43.6389 38.0002 44.7014 38.2502 45.7708C38.5002 46.8403 38.6946 48.0556 38.8335 49.4167Z" fill="#138340"/>
</svg>
