<svg width="24" height="24" viewBox="0 0 24 24" fill="none" xmlns="http://www.w3.org/2000/svg">
<path opacity="0.6" d="M12 0.375C5.57812 0.375 0.375 5.57812 0.375 12C0.375 18.4219 5.57812 23.625 12 23.625C18.4219 23.625 23.625 18.4219 23.625 12C23.625 5.57812 18.4219 0.375 12 0.375ZM19.2802 9.53016L10.6552 18.1552C10.5145 18.2957 10.3238 18.3747 10.125 18.3747C9.92617 18.3747 9.73548 18.2957 9.59484 18.1552L4.71984 13.2802C4.5793 13.1395 4.50035 12.9488 4.50035 12.75C4.50035 12.5512 4.5793 12.3605 4.71984 12.2198L5.78016 11.1591C5.8498 11.0894 5.93249 11.0341 6.02349 10.9964C6.1145 10.9587 6.21204 10.9393 6.31055 10.9393C6.40905 10.9393 6.50659 10.9587 6.5976 10.9964C6.6886 11.0341 6.77129 11.0894 6.84094 11.1591L10.125 14.4431L17.1591 7.40906C17.2287 7.3394 17.3114 7.28414 17.4024 7.24644C17.4934 7.20874 17.5909 7.18933 17.6895 7.18933C17.788 7.18933 17.8855 7.20874 17.9765 7.24644C18.0675 7.28414 18.1502 7.3394 18.2198 7.40906L19.2802 8.46984C19.4207 8.61048 19.4997 8.80117 19.4997 9C19.4997 9.19883 19.4207 9.38952 19.2802 9.53016Z" fill="#79C142"/>
<path d="M10.6548 18.1533C10.5142 18.2939 10.3235 18.3728 10.1247 18.3728C9.92583 18.3728 9.73513 18.2939 9.5945 18.1533L4.7195 13.2783C4.57895 13.1377 4.5 12.947 4.5 12.7482C4.5 12.5493 4.57895 12.3587 4.7195 12.218L5.77981 11.1572C5.84945 11.0876 5.93214 11.0323 6.02315 10.9946C6.11415 10.9569 6.21169 10.9375 6.3102 10.9375C6.40871 10.9375 6.50625 10.9569 6.59725 10.9946C6.68826 11.0323 6.77094 11.0876 6.84059 11.1572L10.1247 14.4413L17.1587 7.40723C17.2284 7.33757 17.311 7.28231 17.4021 7.24461C17.4931 7.2069 17.5906 7.1875 17.6891 7.1875C17.7876 7.1875 17.8852 7.2069 17.9762 7.24461C18.0672 7.28231 18.1499 7.33757 18.2195 7.40723L19.2798 8.46801C19.4204 8.60865 19.4993 8.79934 19.4993 8.99817C19.4993 9.197 19.4204 9.38769 19.2798 9.52832L10.6548 18.1533Z" fill="#138340"/>
</svg>
