<svg width="24" height="24" viewBox="0 0 24 24" fill="#138340" xmlns="http://www.w3.org/2000/svg">
<path opacity="0.4" d="M12 0.375C5.57812 0.375 0.375 5.57812 0.375 12C0.375 18.4219 5.57812 23.625 12 23.625C18.4219 23.625 23.625 18.4219 23.625 12C23.625 5.57812 18.4219 0.375 12 0.375ZM19.2802 9.53016L10.6552 18.1552C10.5145 18.2957 10.3238 18.3747 10.125 18.3747C9.92617 18.3747 9.73548 18.2957 9.59484 18.1552L4.71984 13.2802C4.5793 13.1395 4.50035 12.9488 4.50035 12.75C4.50035 12.5512 4.5793 12.3605 4.71984 12.2198L5.78016 11.1591C5.8498 11.0894 5.93249 11.0341 6.02349 10.9964C6.1145 10.9587 6.21204 10.9393 6.31055 10.9393C6.40905 10.9393 6.50659 10.9587 6.5976 10.9964C6.6886 11.0341 6.77129 11.0894 6.84094 11.1591L10.125 14.4431L17.1591 7.40906C17.2287 7.3394 17.3114 7.28414 17.4024 7.24644C17.4934 7.20874 17.5909 7.18933 17.6895 7.18933C17.788 7.18933 17.8855 7.20874 17.9765 7.24644C18.0675 7.28414 18.1502 7.3394 18.2198 7.40906L19.2802 8.46984C19.4207 8.61048 19.4997 8.80117 19.4997 9C19.4997 9.19883 19.4207 9.38952 19.2802 9.53016Z" fill="#138340"/>
</svg>
