<svg width="11" height="16" viewBox="0 0 11 16" fill="none" xmlns="http://www.w3.org/2000/svg">
<path d="M4.95026 15.6772C0.798892 9.09472 0.0283203 8.41916 0.0283203 6C0.0283203 2.68628 2.48435 0 5.51403 0C8.54372 0 10.9997 2.68628 10.9997 6C10.9997 8.41916 10.2292 9.09472 6.07781 15.6772C5.80538 16.1076 5.22266 16.1076 4.95026 15.6772ZM5.51403 8.5C6.77641 8.5 7.79975 7.38072 7.79975 6C7.79975 4.61928 6.77641 3.5 5.51403 3.5C4.25166 3.5 3.22832 4.61928 3.22832 6C3.22832 7.38072 4.25166 8.5 5.51403 8.5Z" fill="#138340"/>
</svg>
