<svg width="24" height="22" viewBox="0 0 24 22" fill="none" xmlns="http://www.w3.org/2000/svg">
<path d="M12.75 17V18.7007C13.1984 18.96 13.5 19.4448 13.5 20C13.5 20.8284 12.8284 21.5 12 21.5C11.1716 21.5 10.5 20.8284 10.5 20C10.5 19.4448 10.8016 18.96 11.25 18.7007V17H3.75C2.50736 17 1.5 15.9926 1.5 14.75V3.5H22.5V14.75C22.5 15.9926 21.4926 17 20.25 17H12.75Z" fill="#138340"/>
<path d="M23.25 2C23.6642 2 24 1.66421 24 1.25C24 0.835787 23.6642 0.5 23.25 0.5H0.75C0.335786 0.5 0 0.835787 0 1.25C0 1.66421 0.335786 2 0.75 2H23.25Z" fill="#138340"/>
</svg>
