<svg width="25" height="24" viewBox="0 0 25 24" fill="none" xmlns="http://www.w3.org/2000/svg">
<path d="M23.9782 2.95569H21.5429L21.5431 0.521891C21.5431 0.310812 21.4161 0.120654 21.2212 0.0398454C21.0261 -0.040949 20.8023 0.00326999 20.6526 0.153029L18.4002 2.40506C16.5406 1.23628 14.4029 0.620681 12.1897 0.620681C5.74437 0.620499 0.5 5.86458 0.5 12.3103C0.5 18.7561 5.7439 24 12.1897 24C18.6354 24 23.8793 18.7561 23.8793 12.3103C23.8793 10.0969 23.2633 7.95879 22.0942 6.0989L24.3472 3.84649C24.4964 3.69728 24.541 3.47274 24.4603 3.27785C24.3792 3.08278 24.189 2.95577 23.978 2.95577L23.9782 2.95569ZM22.836 12.3101C22.836 18.1806 18.0597 22.9563 12.1898 22.9563C6.31978 22.9563 1.54358 18.1806 1.54358 12.3101C1.54358 6.43967 6.31932 1.66393 12.1898 1.66393C14.1248 1.66393 15.9958 2.18199 17.64 3.16481L16.1295 4.67532C16.0316 4.77322 15.9767 4.90587 15.9767 5.04417V6.16674C14.8439 5.46892 13.5339 5.08731 12.1901 5.08731H12.1896C8.2067 5.08731 4.96681 8.32761 4.96681 12.3101C4.96681 16.2925 8.20712 19.5328 12.1896 19.5328C16.1717 19.5328 19.4114 16.2925 19.4114 12.3101C19.4114 10.9659 19.0295 9.65463 18.3314 8.52153H19.4545C19.5928 8.52153 19.7256 8.46676 19.8234 8.36886L21.3342 6.85835C22.3173 8.5033 22.8356 10.3747 22.8356 12.31L22.836 12.3101ZM15.9765 7.78477L13.7329 10.0288C13.2923 9.72981 12.7608 9.55457 12.1896 9.55457C10.67 9.55457 9.43412 10.7908 9.43412 12.3101C9.43412 13.8293 10.67 15.0656 12.1896 15.0656C13.7087 15.0656 14.9449 13.8293 14.9449 12.3101C14.9449 11.7385 14.7699 11.2072 14.4707 10.7664L16.7155 8.52167H17.0638C17.9035 9.60199 18.3681 10.936 18.3681 12.3102C18.3681 15.7177 15.5966 18.4895 12.1897 18.4895C8.78226 18.4895 6.01045 15.7176 6.01045 12.3102C6.01008 8.90273 8.78235 6.13045 12.1897 6.13045H12.1903C13.5639 6.13045 14.8969 6.59501 15.9768 7.43423V7.78488L15.9765 7.78477ZM13.9012 12.3101C13.9012 13.2542 13.1335 14.0222 12.1894 14.0222C11.2454 14.0222 10.4773 13.2542 10.4773 12.3101C10.4773 11.3661 11.2454 10.598 12.1894 10.598C12.4715 10.598 12.7374 10.6679 12.9721 10.7892L11.8201 11.9414C11.6163 12.1452 11.6163 12.4755 11.8201 12.6791C11.9222 12.7812 12.0554 12.832 12.1889 12.832C12.3225 12.832 12.4559 12.781 12.5578 12.6791L13.7098 11.5271C13.8313 11.762 13.9012 12.0277 13.9012 12.3101L13.9012 12.3101ZM21.0587 5.658C21.054 5.66273 21.0497 5.66692 21.0451 5.67165L19.2384 7.47783H17.02V5.26022L18.8233 3.45693C18.8304 3.45038 18.8371 3.44328 18.8439 3.43637L20.4994 1.78121V3.47713C20.4994 3.76518 20.7332 3.99882 21.0211 3.99882H22.7183L21.0587 5.658Z" fill="black"/>
</svg>
