<svg width="135" height="131" viewBox="0 0 135 131" fill="none" xmlns="http://www.w3.org/2000/svg">
<path opacity="0.18" d="M126.697 120.099C124.732 121.196 122.525 122.197 120.222 123.276C111.434 127.421 101.189 127.87 91.5175 128.21L45.2018 129.847C37.4001 130.12 29.3069 130.348 22.1242 127.525C17.9822 125.85 14.3152 123.311 11.4108 120.105C6.76318 115.089 3.67132 108.622 2.11229 102.123C-0.435876 91.4924 0.373117 80.4611 0.179876 69.5753C0.0685167 63.2349 -0.386747 56.8399 0.789077 50.5904C1.9649 44.341 5.00108 38.1127 10.533 34.3709C17.9712 29.3435 27.7119 29.8377 36.4077 28.7795C45.5785 27.6636 53.4392 23.5185 61.611 19.7737C70.1726 15.8561 79.923 13.7577 89.4869 14.5977C99.1555 15.4528 106.165 19.5281 111.582 27.0087C115.319 32.1708 117.591 38.1212 118.188 44.3106C118.886 51.588 117.242 58.9807 118.408 66.2126C120.7 80.3822 133.356 91.8927 134.761 106.162C135.498 113.613 131.928 117.185 126.697 120.099Z" fill="#F5A623"/>
<g clip-path="url(#clip0_9585_96911)">
<path d="M66.1201 23.4717C66.0464 25.1823 66.3004 26.8778 66.3824 28.5998C66.4456 29.2366 66.3775 29.8787 66.1816 30.4921C65.7227 31.6729 64.477 32.4109 63.3133 33.0618C62.5757 33.4744 61.7357 34.0648 61.8382 34.8595C61.9091 35.1591 62.0831 35.4294 62.3343 35.63C62.5854 35.8306 62.9001 35.9506 63.2313 35.9722C63.8955 35.9996 64.5571 35.8802 65.1613 35.624C66.3976 35.2526 67.5306 34.635 68.4803 33.815C70.3365 32.0324 70.398 29.2735 70.2587 26.8021C70.1398 24.7282 69.9473 22.4498 68.8081 20.603C66.9724 17.651 66.1857 21.9919 66.1201 23.4717Z" fill="#F5A623"/>
<path d="M66.1201 23.4717C66.0464 25.1823 66.3004 26.8778 66.3824 28.5998C66.4456 29.2366 66.3775 29.8787 66.1816 30.4921C65.7227 31.6729 64.477 32.4109 63.3133 33.0618C62.5757 33.4744 61.7357 34.0648 61.8382 34.8595C61.9091 35.1591 62.0831 35.4294 62.3343 35.63C62.5854 35.8306 62.9001 35.9506 63.2313 35.9722C63.8955 35.9996 64.5571 35.8802 65.1613 35.624C66.3976 35.2526 67.5306 34.635 68.4803 33.815C70.3365 32.0324 70.398 29.2735 70.2587 26.8021C70.1398 24.7282 69.9473 22.4498 68.8081 20.603C66.9724 17.651 66.1857 21.9919 66.1201 23.4717Z" fill="url(#paint0_linear_9585_96911)"/>
<path d="M60.6447 33.7279C59.7965 33.4554 58.8951 33.0845 58.0469 33.3495C57.9659 33.3662 57.8904 33.4007 57.8269 33.4502C57.7634 33.4996 57.7138 33.5624 57.6822 33.6333C57.6644 33.7374 57.68 33.844 57.7273 33.9399L58.7107 36.6307C58.7552 36.7646 58.82 36.8921 58.9033 37.0092C59.0986 37.2147 59.3624 37.3545 59.6531 37.4065C60.7208 37.679 61.8548 37.63 62.8902 37.2665C63.9638 36.8881 64.058 35.6694 63.4885 34.8141C62.9189 33.9588 61.6282 34.042 60.6447 33.7279Z" fill="url(#paint1_linear_9585_96911)"/>
<path d="M58.6456 28.8647C58.9242 28.9291 58.8177 29.0805 58.8464 29.3416C59.039 30.9993 58.8751 32.8651 59.2561 34.4887C59.6372 36.1122 60.8091 37.5504 61.0263 39.208C60.1617 37.5731 59.3872 36.0214 58.9488 34.2275C58.871 33.7847 58.2235 28.8647 58.6456 28.8647Z" fill="#664E26"/>
<path d="M66.0504 44.4004C66.0504 44.4004 57.9126 53.3775 63.3378 61.0715C68.763 68.7656 78.3882 74.4879 82.0514 80.3086C85.7146 86.1294 79.0684 92.4421 76.7614 93.6229C74.4545 94.8037 53.4381 109.113 66.456 123.809H110.394C110.394 123.809 124.633 110.495 100.9 94.4138C100.9 94.4138 83.9485 86.4246 99.8143 75.0783C115.68 63.7321 118.528 52.9309 111.005 44.4988L66.0504 44.4004Z" fill="#F5A623"/>
<path d="M66.0504 44.4004C66.0504 44.4004 57.9126 53.3775 63.3378 61.0715C68.763 68.7656 78.3882 74.4879 82.0514 80.3086C85.7146 86.1294 79.0684 92.4421 76.7614 93.6229C74.4545 94.8037 53.4381 109.113 66.456 123.809H110.394C110.394 123.809 124.633 110.495 100.9 94.4138C100.9 94.4138 83.9485 86.4246 99.8143 75.0783C115.68 63.7321 118.528 52.9309 111.005 44.4988L66.0504 44.4004Z" fill="url(#paint2_linear_9585_96911)"/>
<path d="M113.497 40.726H62.6378C61.4882 40.726 60.5563 41.5867 60.5563 42.6485V42.6523C60.5563 43.7141 61.4882 44.5749 62.6378 44.5749H113.497C114.646 44.5749 115.578 43.7141 115.578 42.6523V42.6485C115.578 41.5867 114.646 40.726 113.497 40.726Z" fill="#F5A623"/>
<path d="M113.497 123.96H62.6378C61.4882 123.96 60.5563 124.821 60.5563 125.883V125.887C60.5563 126.948 61.4882 127.809 62.6378 127.809H113.497C114.646 127.809 115.578 126.948 115.578 125.887V125.883C115.578 124.821 114.646 123.96 113.497 123.96Z" fill="#F5A623"/>
<path d="M113.497 40.726H62.6378C61.4882 40.726 60.5563 41.5867 60.5563 42.6485V42.6523C60.5563 43.7141 61.4882 44.5749 62.6378 44.5749H113.497C114.646 44.5749 115.578 43.7141 115.578 42.6523V42.6485C115.578 41.5867 114.646 40.726 113.497 40.726Z" fill="url(#paint3_linear_9585_96911)"/>
<path d="M113.497 123.96H62.6378C61.4882 123.96 60.5563 124.821 60.5563 125.883V125.887C60.5563 126.948 61.4882 127.809 62.6378 127.809H113.497C114.646 127.809 115.578 126.948 115.578 125.887V125.883C115.578 124.821 114.646 123.96 113.497 123.96Z" fill="url(#paint4_linear_9585_96911)"/>
<path d="M106.686 103.368C99.241 99.6972 74.6065 99.0879 69.9312 102.233C74.2951 96.8966 80.2898 93.7554 80.2898 93.7554C86.1903 90.3493 92.9021 93.3088 92.9021 93.3088C92.9021 93.3088 101.437 97.3432 106.686 103.368Z" fill="url(#paint5_linear_9585_96911)"/>
<path d="M106.531 123.514H69.7099L68.2881 122.334C64.084 115.688 65.1166 109.818 67.8783 105.148C68.4838 104.138 69.1685 103.17 69.9271 102.252C74.6024 99.0886 99.237 99.6979 106.682 103.388C107.444 104.257 108.129 105.18 108.731 106.151C109.129 106.792 109.477 107.458 109.772 108.145C113.443 116.71 106.531 123.514 106.531 123.514Z" fill="#F5A623"/>
<path d="M108.743 106.132C106.985 112.043 89.456 103.025 81.2896 102.347C75.8972 101.904 70.2016 104.936 70.2016 104.936C70.2016 104.936 68.3618 105.553 67.8701 105.14C68.4755 104.13 69.1603 103.162 69.9188 102.245C74.5942 99.081 99.2287 99.6903 106.674 103.38C107.443 104.245 108.135 105.165 108.743 106.132Z" fill="url(#paint6_linear_9585_96911)"/>
<path d="M69.8433 65.9049C69.8433 65.9049 82.4556 75.0787 83.271 76.8537C84.0864 78.6287 90.6466 79.6657 92.6954 78.0875C94.7442 76.5093 99.9481 73.5006 105.103 66.6921C110.258 59.8836 93.3059 64.3267 87.6103 65.3145C81.9147 66.3023 72.1502 59.8874 69.8433 65.9049Z" fill="#F5A623"/>
<path d="M69.8434 65.9046C69.8434 65.9046 74.7277 68.8642 79.067 67.9748C83.4063 67.0854 86.2541 64.5232 92.2202 65.0152C98.1862 65.5072 104.152 67.8764 106.054 65.3142C107.955 62.7521 105.918 60.6743 99.9482 61.3669C93.978 62.0595 84.0824 62.1541 79.3374 61.8589C74.5924 61.5637 65.9138 62.2563 69.8434 65.9046Z" fill="#F5A623"/>
<path d="M69.8434 65.9046C69.8434 65.9046 74.7277 68.8642 79.067 67.9748C83.4063 67.0854 86.2541 64.5232 92.2202 65.0152C98.1862 65.5072 104.152 67.8764 106.054 65.3142C107.955 62.7521 105.918 60.6743 99.9482 61.3669C93.978 62.0595 84.0824 62.1541 79.3374 61.8589C74.5924 61.5637 65.9138 62.2563 69.8434 65.9046Z" fill="url(#paint7_linear_9585_96911)"/>
<path d="M87.4801 81.1647C87.1334 81.3751 86.8512 81.6645 86.6606 82.0049C86.592 82.1094 86.5479 82.226 86.5309 82.3472C86.514 82.4684 86.5247 82.5916 86.5622 82.7088C86.6201 82.8373 86.7189 82.9467 86.8454 83.0223C86.972 83.098 87.1204 83.1365 87.2711 83.1327C87.5283 83.11 87.773 83.0193 87.9759 82.8715C88.3856 82.6255 88.8364 82.3114 88.7749 81.9292C88.7134 81.5469 88.0742 81.2744 87.5252 81.123" fill="#F5A623"/>
<path d="M89.7668 84.6648C89.6287 84.6973 89.499 84.7553 89.3857 84.8351C89.3283 84.8805 89.2956 84.9297 89.3406 84.9789C89.4336 85.0432 89.5486 85.0741 89.6643 85.066C89.7741 85.0599 89.8827 85.0421 89.988 85.013C90.1765 84.96 90.3978 84.8957 90.3527 84.82C90.3077 84.7443 90.0331 84.6875 89.7832 84.6572" fill="#F5A623"/>
<path d="M87.5613 85.774C87.4232 85.8066 87.2936 85.8645 87.1803 85.9444C87.1229 85.9898 87.0942 86.0428 87.1352 86.0882C87.2281 86.1524 87.3431 86.1834 87.4589 86.1752C87.5689 86.171 87.6778 86.1532 87.7826 86.1222C87.9711 86.073 88.1924 86.0087 88.1514 85.9292C88.1104 85.8497 87.8277 85.7968 87.5777 85.7665" fill="#F5A623"/>
<path d="M91.0663 90.9397C90.8886 90.8698 90.698 90.8325 90.5049 90.83C90.3984 90.83 90.3041 90.8527 90.2795 90.9246C90.2821 90.984 90.2997 91.042 90.331 91.094C90.3623 91.1459 90.4065 91.1903 90.4598 91.2236C90.5667 91.2982 90.6856 91.357 90.8122 91.3976C91.0458 91.4809 91.308 91.5642 91.3859 91.4771C91.4637 91.3901 91.2712 91.1403 91.0868 90.9397" fill="#F5A623"/>
<path d="M84.5596 97.6687C84.3833 97.5992 84.194 97.5619 84.0024 97.559C83.8917 97.559 83.7975 97.5855 83.777 97.6536C83.7565 97.7217 83.818 97.8504 83.9532 97.9526C84.0608 98.0283 84.1813 98.0871 84.3097 98.1266C84.5391 98.2099 84.8055 98.2932 84.8792 98.2061C84.953 98.1191 84.7645 97.8693 84.5842 97.6687" fill="#F5A623"/>
<path d="M67.0209 21.1105C66.9587 20.1042 67.2458 19.1059 67.8404 18.2607C68.4346 17.4227 69.2296 16.7222 70.1637 16.2132C70.6738 15.8734 71.2933 15.7027 71.9216 15.7288C72.442 15.7894 74.2449 13.9803 74.667 14.268C75.8553 15.0816 75.6176 18.0904 76.6256 19.0933C76.89 20.4388 77.0543 21.7994 77.1173 23.1655L77.7197 33.4824C77.818 35.1892 77.8672 37.0474 76.7608 38.4023C73.9747 37.4674 71.2636 36.352 68.6476 35.0643C68.346 34.9648 68.0914 34.7713 67.9276 34.5171C67.7638 34.2629 67.7011 33.9639 67.7503 33.6716C67.6396 31.1056 67.6396 28.5321 67.7503 25.9661C67.7995 24.5886 67.1438 22.4881 67.0209 21.1105Z" fill="#F5A623"/>
<path d="M67.0209 21.1105C66.9587 20.1042 67.2458 19.1059 67.8404 18.2607C68.4346 17.4227 69.2296 16.7222 70.1637 16.2132C70.6738 15.8734 71.2933 15.7027 71.9216 15.7288C72.442 15.7894 74.2449 13.9803 74.667 14.268C75.8553 15.0816 75.6176 18.0904 76.6256 19.0933C76.89 20.4388 77.0543 21.7994 77.1173 23.1655L77.7197 33.4824C77.818 35.1892 77.8672 37.0474 76.7608 38.4023C73.9747 37.4674 71.2636 36.352 68.6476 35.0643C68.346 34.9648 68.0914 34.7713 67.9276 34.5171C67.7638 34.2629 67.7011 33.9639 67.7503 33.6716C67.6396 31.1056 67.6396 28.5321 67.7503 25.9661C67.7995 24.5886 67.1438 22.4881 67.0209 21.1105Z" fill="url(#paint8_linear_9585_96911)"/>
<path d="M64.7844 13.3633V13.6585C64.7734 14.0293 64.8834 14.3945 65.0999 14.7068C65.5096 15.1761 66.2554 15.1951 66.8905 15.108C67.3855 14.9919 67.8992 14.9599 68.4066 15.0134C68.9106 15.1156 69.4679 17.023 69.9514 17.0987C70.8324 17.2387 72.7009 16.2396 73.3073 15.7363C73.3688 15.6871 72.664 14.2224 72.6886 14.1429C72.7091 14.0659 72.7091 13.9854 72.6886 13.9083L71.7052 9.68468C71.614 9.08362 71.3773 8.50926 71.0127 8.00432C70.7224 7.67777 70.3533 7.41854 69.935 7.2474C68.5459 6.66079 66.5095 6.86894 65.4933 8.0346C64.9565 8.65149 64.9647 9.72253 64.8786 10.4794C64.7689 11.4372 64.7374 12.4012 64.7844 13.3633Z" fill="url(#paint9_linear_9585_96911)"/>
<path d="M72.0277 42.9024C69.3152 44.5184 66.2174 45.4721 63.1565 46.4069C62.4026 46.6378 61.5175 46.8573 60.8496 46.4864C60.472 46.2414 60.1733 45.9066 59.985 45.5175C58.7803 43.4057 55.7686 42.7775 57.2478 40.8209C57.8748 39.9882 61.4273 37.2596 62.3042 36.6578C64.0416 35.4657 65.8609 34.2394 67.9957 33.9102C68.9985 33.7759 70.017 33.7759 71.0197 33.9102C72.9579 34.1259 77.8463 34.8147 77.4365 37.112C77.0268 39.4092 73.9905 41.7216 72.0277 42.9024Z" fill="#664E26"/>
<path d="M72.8471 22.8213C72.8471 24.3351 73.0192 25.8489 72.4784 27.2719C71.7531 29.1642 69.86 30.4624 67.9711 31.4842C66.8032 32.12 65.5371 32.7596 64.9102 33.8647C64.2832 34.9698 64.7258 36.6805 66.0575 36.8924C66.5747 36.9413 67.097 36.8711 67.5777 36.688C70.1559 35.9009 72.6463 34.887 75.0148 33.6603C75.9859 33.1532 76.9693 32.5817 77.5675 31.7151C78.0862 30.8376 78.3673 29.8573 78.3871 28.8577C78.5812 26.7128 78.5125 24.5545 78.1822 22.4239C77.8005 20.7457 77.0895 19.1462 76.0842 17.7045C72.8471 13.655 72.8471 20.5884 72.8471 22.8213Z" fill="#F5A623"/>
<path d="M72.8471 22.8213C72.8471 24.3351 73.0192 25.8489 72.4784 27.2719C71.7531 29.1642 69.86 30.4624 67.9711 31.4842C66.8032 32.12 65.5371 32.7596 64.9102 33.8647C64.2832 34.9698 64.7258 36.6805 66.0575 36.8924C66.5747 36.9413 67.097 36.8711 67.5777 36.688C70.1559 35.9009 72.6463 34.887 75.0148 33.6603C75.9859 33.1532 76.9693 32.5817 77.5675 31.7151C78.0862 30.8376 78.3673 29.8573 78.3871 28.8577C78.5812 26.7128 78.5125 24.5545 78.1822 22.4239C77.8005 20.7457 77.0895 19.1462 76.0842 17.7045C72.8471 13.655 72.8471 20.5884 72.8471 22.8213Z" fill="url(#paint10_linear_9585_96911)"/>
<path d="M55.0348 49.567L54.3341 61.954C55.9731 61.8594 56.7189 60.1033 57.1123 58.6538C58.2268 54.5412 59.3427 50.4286 60.46 46.316C60.7878 45.0974 61.1238 43.8296 60.8697 42.5958C60.6894 41.7215 59.8371 40.2039 58.7021 40.1093C57.4933 40.0109 56.8582 41.4453 56.4403 42.3082C55.3462 44.5751 55.17 47.1297 55.0348 49.567Z" fill="url(#paint11_linear_9585_96911)"/>
<path d="M57.4738 50.403L57.9491 62.7976C59.5513 62.5705 60.1454 60.7615 60.4077 59.2855C61.1288 55.0997 61.8514 50.9127 62.5753 46.7244C62.7883 45.4831 62.985 44.1963 62.6326 42.9852C62.3704 42.1299 61.3788 40.688 60.2397 40.6842C59.0104 40.6842 58.531 42.1602 58.1909 43.0571C57.314 45.3922 57.3796 47.9809 57.4738 50.403Z" fill="url(#paint12_linear_9585_96911)"/>
<path d="M56.7932 59.437L55.2689 59.5392C55.1109 59.5307 54.9527 59.5522 54.804 59.6023C54.6553 59.6524 54.5193 59.7301 54.4043 59.8306C54.2798 60.0082 54.2182 60.2172 54.2281 60.4286C54.1872 61.1855 54.179 61.9424 54.2281 62.6691C54.22 62.6989 54.22 62.7301 54.2281 62.7599C54.2514 62.7854 54.2812 62.805 54.3149 62.8169C54.3486 62.8288 54.385 62.8326 54.4207 62.828C55.0037 62.8235 55.576 62.6829 56.0843 62.4193C56.3005 62.3259 56.4868 62.1825 56.6252 62.003C56.7509 61.7868 56.8144 61.5444 56.8096 61.299C56.8506 60.667 56.867 60.0312 56.8424 59.4067L56.7932 59.437Z" fill="#F5A623"/>
<path d="M56.7597 61.9842C56.7565 61.9308 56.7397 61.8789 56.7105 61.8328C56.672 61.7957 56.6207 61.7721 56.5655 61.7659C56.5102 61.7597 56.4544 61.7713 56.4073 61.7987C56.3164 61.8587 56.2362 61.9315 56.1697 62.0144C55.9064 62.3015 55.5368 62.4876 55.133 62.5367C54.7219 62.5278 54.3107 62.5506 53.9037 62.6048C53.6102 62.7107 53.3436 62.8718 53.1211 63.0779L51.7935 64.1376C51.482 64.3836 51.1419 64.7053 51.2157 65.08C51.2736 65.244 51.3819 65.3889 51.5274 65.4971C51.6729 65.6053 51.8493 65.6721 52.0352 65.6893C52.7064 65.757 53.3855 65.6792 54.0184 65.4622C54.6089 65.3162 55.1892 65.1367 55.7558 64.9248C56.0532 64.8268 56.3184 64.66 56.5261 64.4404C56.981 63.8765 56.8294 62.6465 56.7597 61.9842Z" fill="#664E26"/>
<path d="M60.4529 59.6036L58.9163 59.7134C58.7577 59.7053 58.599 59.7269 58.4497 59.777C58.3004 59.8271 58.1636 59.9046 58.0476 60.0048C57.9267 60.1837 57.8667 60.392 57.8755 60.6028C57.8305 61.3597 57.8264 62.1166 57.855 62.8433C57.8555 62.8757 57.8625 62.9078 57.8755 62.9379C57.8986 62.9624 57.9279 62.9811 57.9608 62.9923C57.9938 63.0036 58.0293 63.007 58.064 63.0022C58.6486 63 59.2228 62.8592 59.7317 62.5935C59.9478 62.5017 60.1342 62.3595 60.2726 62.1809C60.3934 61.9632 60.4553 61.7217 60.4529 61.477C60.4993 60.8412 60.5116 60.2104 60.4898 59.5847L60.4529 59.6036Z" fill="#F5A623"/>
<path d="M60.419 62.1394C60.4186 62.0849 60.4031 62.0315 60.3739 61.9842C60.3346 61.9468 60.2823 61.9233 60.2262 61.9178C60.1701 61.9122 60.1136 61.925 60.0666 61.9539C59.976 62.013 59.897 62.0859 59.8331 62.1696C59.5691 62.4552 59.1996 62.64 58.7964 62.6881C58.3852 62.6822 57.9742 62.7063 57.5671 62.76C57.2725 62.8644 57.0046 63.0242 56.7804 63.2293L55.4528 64.289C55.1455 64.5388 54.8054 64.8605 54.875 65.2314C54.9334 65.3952 55.0418 65.5398 55.1872 65.648C55.3326 65.7561 55.5088 65.823 55.6945 65.8407C56.3671 65.9106 57.048 65.8327 57.6819 65.6136C58.2727 65.4687 58.853 65.2892 59.4192 65.0762C59.7156 64.9785 59.9796 64.8116 60.1855 64.5918C60.6403 64.0279 60.4887 62.8092 60.419 62.1394Z" fill="#664E26"/>
<path d="M61.7563 34.9018C60.863 34.9434 59.8755 34.9018 59.1953 35.4467C59.1277 35.4885 59.0719 35.5447 59.0327 35.6106C58.9935 35.6765 58.972 35.7501 58.97 35.8252C58.9948 35.9277 59.0518 36.0212 59.1339 36.0939L61.1376 38.2473C61.2332 38.3629 61.348 38.4638 61.4777 38.5463C61.7415 38.6669 62.041 38.7041 62.33 38.6523C63.4316 38.5384 64.4644 38.1006 65.2761 37.4034C66.0956 36.6805 65.7146 35.5111 64.8377 34.9245C63.9608 34.3378 62.7971 34.8526 61.7563 34.9018Z" fill="url(#paint13_linear_9585_96911)"/>
<path d="M72.0477 4.03846C74.8587 4.26175 77.3746 5.90427 79.0792 7.97823C80.8534 10.1354 82.2712 13.0004 85.1395 13.5681C86.4302 13.8254 87.7783 13.534 89.0895 13.6589C90.3122 13.7987 91.4572 14.2873 92.365 15.0565C93.2729 15.8258 93.8983 16.8375 94.1541 17.9506C94.4614 19.4228 94.0844 20.9443 94.2483 22.4354C94.5721 25.376 96.9732 28.1728 96.0759 31.0075C95.3629 33.248 92.388 34.6066 90.0156 33.7513C87.4915 32.8392 86.3974 30.1787 84.6887 28.2258C83.9471 27.3743 82.8612 26.5757 81.6975 26.7763C81.1197 26.8785 80.6157 27.2153 80.0585 27.3516C78.7473 27.6657 77.3828 26.8142 76.7149 25.7242C76.047 24.6342 75.8954 23.3475 75.6864 22.1137C75.3832 20.3728 74.8669 18.5865 73.6376 17.2505C72.1133 15.6155 69.6343 14.8019 68.4829 12.9247C67.8027 11.812 67.6838 10.4988 67.0651 9.36717C66.516 8.37182 65.463 7.85334 65.926 6.67633C66.7004 4.73104 70.1014 3.88708 72.0477 4.03846Z" fill="#664E26"/>
<path d="M64.3373 6.63427C64.2709 6.95239 64.288 7.28058 64.3871 7.59136C64.4862 7.90215 64.6644 8.18649 64.9069 8.4206C65.3993 8.88394 65.9495 9.29174 66.5459 9.63545C67.1405 9.98272 67.632 10.4614 67.976 11.0282C68.0114 11.1238 68.0703 11.2106 68.1481 11.2818C68.1884 11.3142 68.24 11.3321 68.2935 11.3321C68.347 11.3321 68.3987 11.3142 68.439 11.2818C68.4786 11.2312 68.4987 11.17 68.4964 11.1077C68.5783 10.048 68.3693 8.99207 68.3693 7.93238C68.3693 7.21331 68.6029 6.29744 68.1358 5.66163C67.2384 4.43163 64.6979 5.41941 64.3373 6.63427Z" fill="#664E26"/>
<path d="M56.5799 29.9246C56.5273 30.2171 56.596 30.5172 56.7725 30.7648C57.1413 31.2 57.9526 31.0865 58.3378 30.6664C58.6869 30.2077 58.8334 29.6433 58.7475 29.0882C58.7061 29.5928 58.8197 30.0978 59.0753 30.5453C59.3745 30.9616 60.0629 31.1849 60.4767 30.8594C60.5893 30.7565 60.676 30.6319 60.7305 30.4946C60.785 30.3572 60.8061 30.2104 60.7922 30.0647C60.7817 29.5561 60.5568 29.0713 60.1653 28.7136C60.3789 29.0003 60.6952 29.208 61.0586 29.3002C61.2394 29.3474 61.4309 29.3474 61.6117 29.3002C61.7922 29.2332 61.943 29.112 62.0396 28.9561C62.1363 28.8002 62.1732 28.6187 62.1444 28.4411C62.1099 28.2647 62.0345 28.0974 61.9235 27.9504C61.8124 27.8035 61.6684 27.6804 61.5011 27.5895C61.1644 27.4058 60.7955 27.2778 60.4112 27.2111C60.6857 27.0294 61.0012 26.9045 61.2716 26.7191C61.4132 26.6355 61.5334 26.5246 61.624 26.3939C61.7146 26.2632 61.7733 26.1159 61.7961 25.9622C61.8248 25.4399 61.1938 25.0577 60.6283 25.0993C60.0701 25.1926 59.5589 25.4486 59.1696 25.8297C58.8059 25.5105 58.3689 25.2712 57.8912 25.1296C57.6514 25.0617 57.3963 25.0548 57.1526 25.1094C56.9089 25.164 56.6856 25.2781 56.5062 25.4399C56.4095 25.5561 56.341 25.6902 56.3053 25.833C56.2697 25.9759 56.2677 26.1241 56.2996 26.2677C56.3315 26.4113 56.3964 26.5469 56.4901 26.6653C56.5837 26.7836 56.7038 26.882 56.8422 26.9537C56.4855 26.9872 56.1272 27.0036 55.7686 27.0029C55.5884 27.0062 55.4118 27.05 55.2541 27.1305C55.0963 27.2109 54.9621 27.3256 54.8631 27.4647C54.7861 27.637 54.7772 27.8288 54.8378 28.0066C54.8985 28.1844 55.0249 28.3369 55.195 28.4373C55.3684 28.5329 55.5621 28.5929 55.763 28.6132C55.9638 28.6334 56.167 28.6135 56.3587 28.5546C56.6045 28.4865 57.0634 28.1345 57.2847 28.2935C57.0512 28.8877 56.6496 29.2813 56.5799 29.9246Z" fill="#F5A623"/>
<path d="M58.7925 28.3537C59.5597 28.3537 60.1816 27.925 60.1816 27.3962C60.1816 26.8674 59.5597 26.4387 58.7925 26.4387C58.0254 26.4387 57.4034 26.8674 57.4034 27.3962C57.4034 27.925 58.0254 28.3537 58.7925 28.3537Z" fill="white"/>
</g>
<circle cx="20.5" cy="19.5" r="19.5" fill="#F5A623"/>
<g clip-path="url(#clip1_9585_96911)">
<path d="M21.1759 9.33744C20.951 9.32083 20.7255 9.31251 20.5 9.3125V8C20.758 8.00013 21.0158 8.00976 21.2731 8.02888L21.1759 9.33744ZM23.8062 9.92806C23.3855 9.76571 22.9534 9.63455 22.5134 9.53563L22.8008 8.25463C23.3035 8.3675 23.7983 8.51713 24.2787 8.7035L23.8062 9.92806ZM25.6043 10.8599C25.4167 10.7348 25.2245 10.6166 25.0281 10.5056L25.6752 9.36369C26.1239 9.61797 26.5534 9.90486 26.9601 10.2221L26.1529 11.2576C25.975 11.1188 25.792 10.9866 25.6043 10.8613V10.8599ZM28.0114 13.2093C27.7518 12.8405 27.4654 12.4913 27.1544 12.1646L28.1046 11.2589C28.459 11.633 28.7871 12.0333 29.0851 12.4533L28.0114 13.2093ZM28.9879 14.9838C28.9018 14.7757 28.8081 14.5708 28.7071 14.3696L29.8791 13.7789C30.1109 14.2397 30.3083 14.717 30.4697 15.2069L29.2229 15.6178C29.1523 15.4036 29.074 15.1922 28.9879 14.9838ZM29.6836 18.2743C29.6729 17.8232 29.6291 17.3735 29.5523 16.9289L30.8451 16.7058C30.9331 17.2124 30.9842 17.7269 30.9974 18.2414L29.6849 18.2743H29.6836ZM29.5116 20.2929C29.5549 20.0698 29.5904 19.8479 29.6179 19.6235L30.9212 19.7849C30.8582 20.297 30.7573 20.8037 30.6194 21.3009L29.3541 20.9504C29.4145 20.7339 29.467 20.5147 29.5116 20.2929ZM28.2621 23.4153C28.5036 23.0347 28.7162 22.6357 28.9 22.2236L30.0996 22.7551C29.8896 23.2276 29.6468 23.6818 29.3712 24.1175L28.2621 23.4153ZM26.9969 24.9969C27.157 24.8368 27.3106 24.6714 27.4562 24.5008L28.4511 25.3578C28.2826 25.5532 28.1071 25.7423 27.9248 25.9248L26.9969 24.9969Z" fill="white"/>
<path d="M20.5002 9.3125C18.9893 9.31261 17.5018 9.68531 16.1694 10.3976C14.837 11.1099 13.7008 12.1398 12.8615 13.396C12.0222 14.6523 11.5056 16.0961 11.3576 17.5997C11.2095 19.1033 11.4346 20.6202 12.0128 22.016C12.5909 23.4118 13.5044 24.6435 14.6723 25.602C15.8402 26.5605 17.2265 27.2161 18.7083 27.5109C20.1901 27.8057 21.7217 27.7305 23.1675 27.292C24.6133 26.8535 25.9287 26.0651 26.9971 24.9969L27.925 25.9248C26.704 27.1465 25.2006 28.0481 23.5479 28.5498C21.8952 29.0515 20.1442 29.1379 18.4502 28.8011C16.7561 28.4644 15.1713 27.715 13.836 26.6194C12.5008 25.5238 11.4565 24.1158 10.7955 22.52C10.1345 20.9243 9.87733 19.1902 10.0467 17.4714C10.2161 15.7525 10.8069 14.1019 11.7666 12.666C12.7264 11.23 14.0255 10.0529 15.549 9.239C17.0724 8.42511 18.773 7.99954 20.5002 8V9.3125Z" fill="white"/>
<path d="M19.8438 11.9375C20.0178 11.9375 20.1847 12.0066 20.3078 12.1297C20.4309 12.2528 20.5 12.4197 20.5 12.5938V19.4319L24.763 21.8679C24.9097 21.9564 25.016 22.0988 25.0591 22.2646C25.1023 22.4305 25.0788 22.6066 24.9938 22.7554C24.9088 22.9042 24.7689 23.0138 24.6042 23.0608C24.4394 23.1079 24.2628 23.0886 24.112 23.0071L19.5182 20.3821C19.4178 20.3248 19.3343 20.2418 19.2762 20.1418C19.2181 20.0418 19.1875 19.9282 19.1875 19.8125V12.5938C19.1875 12.4197 19.2566 12.2528 19.3797 12.1297C19.5028 12.0066 19.6697 11.9375 19.8438 11.9375Z" fill="white"/>
</g>
<defs>
<linearGradient id="paint0_linear_9585_96911" x1="73.4384" y1="30.1515" x2="58.756" y2="25.0899" gradientUnits="userSpaceOnUse">
<stop offset="0.01"/>
<stop offset="0.13" stop-opacity="0.69"/>
<stop offset="1" stop-opacity="0"/>
</linearGradient>
<linearGradient id="paint1_linear_9585_96911" x1="57.3522" y1="34.4072" x2="63.4815" y2="37.0857" gradientUnits="userSpaceOnUse">
<stop stop-color="#E5C5D5"/>
<stop offset="0.42" stop-color="#EAD4D1"/>
<stop offset="1" stop-color="#F0E9CB"/>
</linearGradient>
<linearGradient id="paint2_linear_9585_96911" x1="61.4734" y1="84.1046" x2="114.979" y2="84.1046" gradientUnits="userSpaceOnUse">
<stop offset="0.02" stop-color="white" stop-opacity="0"/>
<stop offset="0.32" stop-color="white" stop-opacity="0.39"/>
<stop offset="0.68" stop-color="white" stop-opacity="0.68"/>
<stop offset="1" stop-color="white"/>
</linearGradient>
<linearGradient id="paint3_linear_9585_96911" x1="87.8501" y1="46.5807" x2="88.1998" y2="39.1639" gradientUnits="userSpaceOnUse">
<stop offset="0.01"/>
<stop offset="0.13" stop-opacity="0.69"/>
<stop offset="1" stop-opacity="0"/>
</linearGradient>
<linearGradient id="paint4_linear_9585_96911" x1="88.0673" y1="116.857" x2="88.0673" y2="134.614" gradientUnits="userSpaceOnUse">
<stop offset="0.01"/>
<stop offset="0.13" stop-opacity="0.69"/>
<stop offset="1" stop-opacity="0"/>
</linearGradient>
<linearGradient id="paint5_linear_9585_96911" x1="90.5337" y1="92.5671" x2="88.1115" y2="105.626" gradientUnits="userSpaceOnUse">
<stop offset="0.02" stop-color="white" stop-opacity="0"/>
<stop offset="0.32" stop-color="white" stop-opacity="0.39"/>
<stop offset="0.68" stop-color="white" stop-opacity="0.68"/>
<stop offset="1" stop-color="white"/>
</linearGradient>
<linearGradient id="paint6_linear_9585_96911" x1="90.8533" y1="93.9642" x2="85.5061" y2="122.789" gradientUnits="userSpaceOnUse">
<stop offset="0.01"/>
<stop offset="0.13" stop-opacity="0.69"/>
<stop offset="1" stop-opacity="0"/>
</linearGradient>
<linearGradient id="paint7_linear_9585_96911" x1="87.9792" y1="69.1177" x2="87.5701" y2="55.5592" gradientUnits="userSpaceOnUse">
<stop offset="0.01"/>
<stop offset="0.13" stop-opacity="0.69"/>
<stop offset="1" stop-opacity="0"/>
</linearGradient>
<linearGradient id="paint8_linear_9585_96911" x1="80.1946" y1="26.1629" x2="62.0959" y2="26.8992" gradientUnits="userSpaceOnUse">
<stop offset="0.01"/>
<stop offset="0.13" stop-opacity="0.69"/>
<stop offset="1" stop-opacity="0"/>
</linearGradient>
<linearGradient id="paint9_linear_9585_96911" x1="64.7639" y1="12.0273" x2="73.3237" y2="12.0273" gradientUnits="userSpaceOnUse">
<stop stop-color="#E5C5D5"/>
<stop offset="0.42" stop-color="#EAD4D1"/>
<stop offset="1" stop-color="#F0E9CB"/>
</linearGradient>
<linearGradient id="paint10_linear_9585_96911" x1="86.1437" y1="27.4347" x2="62.0156" y2="26.1132" gradientUnits="userSpaceOnUse">
<stop offset="0.01"/>
<stop offset="0.13" stop-opacity="0.69"/>
<stop offset="1" stop-opacity="0"/>
</linearGradient>
<linearGradient id="paint11_linear_9585_96911" x1="54.8496" y1="50.8996" x2="60.2266" y2="51.41" gradientUnits="userSpaceOnUse">
<stop stop-color="#E5C5D5"/>
<stop offset="0.42" stop-color="#EAD4D1"/>
<stop offset="1" stop-color="#F0E9CB"/>
</linearGradient>
<linearGradient id="paint12_linear_9585_96911" x1="57.4205" y1="51.7428" x2="62.8293" y2="51.7428" gradientUnits="userSpaceOnUse">
<stop stop-color="#E5C5D5"/>
<stop offset="0.42" stop-color="#EAD4D1"/>
<stop offset="1" stop-color="#F0E9CB"/>
</linearGradient>
<linearGradient id="paint13_linear_9585_96911" x1="58.9659" y1="36.6654" x2="65.7391" y2="36.6654" gradientUnits="userSpaceOnUse">
<stop stop-color="#E5C5D5"/>
<stop offset="0.42" stop-color="#EAD4D1"/>
<stop offset="1" stop-color="#F0E9CB"/>
</linearGradient>
<clipPath id="clip0_9585_96911">
<rect width="64.0966" height="126.046" fill="white" transform="translate(51.1875 3.95837)"/>
</clipPath>
<clipPath id="clip1_9585_96911">
<rect width="21" height="21" fill="white" transform="translate(10 8)"/>
</clipPath>
</defs>
</svg>
