<svg width="15" height="14" viewBox="0 0 15 14" fill="none" xmlns="http://www.w3.org/2000/svg">
<path fill-rule="evenodd" clip-rule="evenodd" d="M1.5 0C2.32843 0 3 0.671573 3 1.5V12.5C3 13.3284 2.32843 14 1.5 14C0.671573 14 0 13.3284 0 12.5V1.5C0 0.671573 0.671573 0 1.5 0ZM7.5 5C8.32843 5 9 5.67157 9 6.5V12.5C9 13.3284 8.32843 14 7.5 14C6.67157 14 6 13.3284 6 12.5V6.5C6 5.67157 6.67157 5 7.5 5ZM13.5 9C14.3284 9 15 9.67157 15 10.5V12.5C15 13.3284 14.3284 14 13.5 14C12.6716 14 12 13.3284 12 12.5V10.5C12 9.67157 12.6716 9 13.5 9Z" fill="black"/>
</svg>
