<svg width="18" height="18" viewBox="0 0 18 18" fill="none" xmlns="http://www.w3.org/2000/svg">
<path d="M17.9996 12.9347V1.12535C17.9996 0.483047 17.4737 0 16.8771 0C16.7653 0 16.6511 0.016875 16.5371 0.0530859L5.84965 3.42809C5.38242 3.57574 5.0625 4.00781 5.0625 4.5V12.7652C4.56434 12.5237 3.99305 12.375 3.375 12.375C1.51102 12.375 0 13.6343 0 15.1875C0 16.7407 1.51102 18 3.375 18C5.11031 18 6.52324 16.9045 6.71203 15.5004C6.73488 15.4051 6.74789 15.3042 6.74859 15.197C6.74859 15.1938 6.74965 15.1907 6.74965 15.1875V9L16.3121 5.98008V10.5149C15.8143 10.2737 15.2427 10.125 14.625 10.125C12.761 10.125 11.25 11.3843 11.25 12.9375C11.25 14.4907 12.761 15.75 14.625 15.75C16.3607 15.75 17.7736 14.6538 17.9624 13.2493C17.9842 13.1583 17.9958 13.062 17.9975 12.9604C17.9975 12.9526 18.0004 12.9452 18.0004 12.9375C18 12.9364 17.9996 12.9357 17.9996 12.9347ZM3.375 16.3125C2.38043 16.3125 1.6875 15.7194 1.6875 15.1875C1.6875 14.6552 2.38043 14.0625 3.375 14.0625C4.36957 14.0625 5.0625 14.6552 5.0625 15.1875C5.0625 15.7198 4.36957 16.3125 3.375 16.3125ZM16.3121 4.21066L6.75 7.23023V4.91344L16.3121 1.89387V4.21066ZM16.3125 12.9379C16.3121 13.4698 15.6192 14.0625 14.625 14.0625C13.6304 14.0625 12.9375 13.4694 12.9375 12.9375C12.9375 12.4052 13.6304 11.8125 14.625 11.8125C15.6192 11.8125 16.3121 12.4049 16.3125 12.9371V12.9379Z" fill="#A5F2C4"/>
</svg>
