<svg width="20" height="21" viewBox="0 0 20 21" fill="none" xmlns="http://www.w3.org/2000/svg">
<path d="M10 0.324219C4.48387 0.324219 0 4.80809 0 10.3242C0 15.8403 4.48387 20.3242 10 20.3242C15.5161 20.3242 20 15.8403 20 10.3242C20 4.80809 15.5161 0.324219 10 0.324219ZM16.9355 15.5702C13.4839 16.4734 9.81855 15.7637 6.94758 13.6791C7.80645 12.6468 8.84677 11.7637 10.0323 11.0662C13.4315 12.9653 16.4758 12.8847 18.3992 12.5944C18.1048 13.6831 17.6008 14.6912 16.9355 15.5702ZM18.6613 11.2476C17.6774 11.4331 16.6895 11.5057 15.7097 11.4452C16.0605 8.15486 15.1613 4.87664 13.2177 2.23954C15.6048 3.19115 19.1935 6.19922 18.6613 11.2476ZM11.0645 1.68712C13.5766 4.22341 14.7984 7.75164 14.4274 11.2879C13.1048 11.0621 11.8266 10.6024 10.629 9.92906C10.5887 6.99357 9.59274 4.19519 7.77016 1.9089C9.39113 1.48551 10.5645 1.62664 11.0645 1.68712ZM6.47177 2.36857C7.12097 3.12664 7.68145 3.94519 8.11694 4.82019C5.09677 6.1589 2.70565 8.57825 1.39113 11.5742C0.564516 5.88067 4.96774 3.03793 6.47177 2.36857ZM1.98387 13.7274C2.92339 10.2799 5.37097 7.45325 8.62097 6.00567C9.08468 7.26373 9.32661 8.60244 9.34274 9.97341C6.81855 11.4734 4.89516 13.7436 3.82661 16.4613C3.05242 15.6791 2.41935 14.7557 1.98387 13.7274ZM4.875 17.3524C5.20161 16.417 5.63306 15.5299 6.16935 14.7194C8.08468 16.1145 11.2379 17.6186 15.3831 17.1589C13.2661 18.8283 8.90323 20.3 4.875 17.3524Z" fill="#A5F2C4"/>
</svg>
